<?xml version="1.0" encoding="utf-8" standalone="no"?>
<!DOCTYPE svg PUBLIC "-//W3C//DTD SVG 1.1//EN"
  "http://www.w3.org/Graphics/SVG/1.1/DTD/svg11.dtd">
<!-- Created with matplotlib (http://matplotlib.org/) -->
<svg height="345.6pt" version="1.1" viewBox="0 0 460.8 345.6" width="460.8pt" xmlns="http://www.w3.org/2000/svg" xmlns:xlink="http://www.w3.org/1999/xlink">
 <defs>
  <style type="text/css">
*{stroke-linecap:butt;stroke-linejoin:round;}
  </style>
 </defs>
 <g id="figure_1">
  <g id="patch_1">
   <path d="M 0 345.6 
L 460.8 345.6 
L 460.8 0 
L 0 0 
z
" style="fill:#ffffff;"/>
  </g>
  <g id="axes_1">
   <g id="patch_2">
    <path d="M 57.6 307.584 
L 414.72 307.584 
L 414.72 41.472 
L 57.6 41.472 
z
" style="fill:#ffffff;"/>
   </g>
   <g id="matplotlib.axis_1">
    <g id="xtick_1">
     <g id="line2d_1">
      <defs>
       <path d="M 0 0 
L 0 3.5 
" id="mbc4e498777" style="stroke:#000000;stroke-width:0.8;"/>
      </defs>
      <g>
       <use style="stroke:#000000;stroke-width:0.8;" x="60.350396" xlink:href="#mbc4e498777" y="307.584"/>
      </g>
     </g>
     <g id="text_1">
      <!-- 0 -->
      <defs>
       <path d="M 3.125 29.296875 
Q 3.90625 50 6.4375 56.046875 
Q 8.984375 62.109375 13.671875 66.015625 
Q 18.359375 69.921875 25.1875 69.921875 
Q 32.03125 69.921875 37.109375 64.25 
Q 42.1875 58.59375 43.75 50 
Q 45.3125 41.40625 44.71875 30.265625 
Q 44.140625 19.140625 40.8125 12.109375 
Q 37.5 5.078125 30.859375 2.34375 
Q 24.21875 -0.390625 17.578125 2.921875 
Q 10.9375 6.25 8.203125 11.71875 
Q 5.46875 17.1875 4.296875 23.234375 
Q 3.125 29.296875 3.90625 50 
z
M 12.890625 52.734375 
Q 10.546875 31.25 12.5 22.84375 
Q 14.453125 14.453125 18.9375 10.9375 
Q 23.4375 7.421875 28.125 9.5625 
Q 32.8125 11.71875 34.953125 18.15625 
Q 37.109375 24.609375 37.109375 32.21875 
Q 37.109375 39.84375 36.515625 46.09375 
Q 35.9375 52.34375 33 57.421875 
Q 30.078125 62.5 25.1875 62.6875 
Q 20.3125 62.890625 16.59375 57.8125 
Q 12.890625 52.734375 10.546875 31.25 
z
" id="SimHei-30"/>
      </defs>
      <g transform="translate(57.100396 323.5215)scale(0.13 -0.13)">
       <use xlink:href="#SimHei-30"/>
      </g>
     </g>
    </g>
    <g id="xtick_2">
     <g id="line2d_2">
      <g>
       <use style="stroke:#000000;stroke-width:0.8;" x="127.762054" xlink:href="#mbc4e498777" y="307.584"/>
      </g>
     </g>
     <g id="text_2">
      <!-- 10 -->
      <defs>
       <path d="M 21.875 56.25 
Q 16.796875 51.171875 8.984375 46.484375 
L 8.984375 53.90625 
Q 18.75 60.546875 25 69.53125 
L 29.6875 69.53125 
L 29.6875 2.34375 
L 21.875 2.34375 
z
" id="SimHei-31"/>
      </defs>
      <g transform="translate(121.262054 323.5215)scale(0.13 -0.13)">
       <use xlink:href="#SimHei-31"/>
       <use x="50" xlink:href="#SimHei-30"/>
      </g>
     </g>
    </g>
    <g id="xtick_3">
     <g id="line2d_3">
      <g>
       <use style="stroke:#000000;stroke-width:0.8;" x="195.173712" xlink:href="#mbc4e498777" y="307.584"/>
      </g>
     </g>
     <g id="text_3">
      <!-- 20 -->
      <defs>
       <path d="M 4.6875 3.90625 
Q 5.078125 9.765625 10.15625 14.453125 
Q 15.234375 19.140625 23.046875 29.09375 
Q 30.859375 39.0625 33.203125 44.53125 
Q 35.546875 50 34.953125 53.90625 
Q 34.375 57.8125 31.25 60.34375 
Q 28.125 62.890625 24.015625 62.5 
Q 19.921875 62.109375 16.203125 59.375 
Q 12.5 56.640625 10.546875 51.171875 
L 3.125 52.34375 
Q 6.25 61.328125 11.125 65.421875 
Q 16.015625 69.53125 22.65625 69.921875 
Q 26.5625 70.3125 29.6875 69.71875 
Q 32.8125 69.140625 36.125 66.984375 
Q 39.453125 64.84375 41.59375 60.546875 
Q 43.75 56.25 43.15625 50.1875 
Q 42.578125 44.140625 37.109375 35.734375 
Q 31.640625 27.34375 16.015625 9.375 
L 44.140625 9.375 
L 44.140625 2.34375 
L 4.6875 2.34375 
z
" id="SimHei-32"/>
      </defs>
      <g transform="translate(188.673712 323.5215)scale(0.13 -0.13)">
       <use xlink:href="#SimHei-32"/>
       <use x="50" xlink:href="#SimHei-30"/>
      </g>
     </g>
    </g>
    <g id="xtick_4">
     <g id="line2d_4">
      <g>
       <use style="stroke:#000000;stroke-width:0.8;" x="262.58537" xlink:href="#mbc4e498777" y="307.584"/>
      </g>
     </g>
     <g id="text_4">
      <!-- 30 -->
      <defs>
       <path d="M 3.90625 19.140625 
L 10.9375 20.3125 
Q 12.5 15.234375 16.015625 11.90625 
Q 19.53125 8.59375 24.796875 8.78125 
Q 30.078125 8.984375 33.203125 13.078125 
Q 36.328125 17.1875 35.9375 22.453125 
Q 35.546875 27.734375 31.828125 30.65625 
Q 28.125 33.59375 19.921875 34.765625 
L 19.921875 39.84375 
Q 28.125 40.625 31.828125 44.140625 
Q 35.546875 47.65625 35.15625 53.3125 
Q 34.765625 58.984375 30.078125 61.515625 
Q 25.390625 64.0625 20.109375 62.109375 
Q 14.84375 60.15625 11.71875 51.171875 
L 4.6875 52.34375 
Q 7.03125 59.375 11.125 64.0625 
Q 15.234375 68.75 22.265625 69.53125 
Q 29.296875 70.3125 34.5625 67.765625 
Q 39.84375 65.234375 41.984375 59.953125 
Q 44.140625 54.6875 42.578125 48.4375 
Q 41.015625 42.1875 33.59375 37.5 
Q 39.0625 35.15625 41.984375 30.46875 
Q 44.921875 25.78125 43.9375 18.15625 
Q 42.96875 10.546875 37.109375 5.859375 
Q 31.25 1.171875 23.828125 1.359375 
Q 16.40625 1.5625 10.9375 6.046875 
Q 5.46875 10.546875 3.90625 19.140625 
z
" id="SimHei-33"/>
      </defs>
      <g transform="translate(256.08537 323.5215)scale(0.13 -0.13)">
       <use xlink:href="#SimHei-33"/>
       <use x="50" xlink:href="#SimHei-30"/>
      </g>
     </g>
    </g>
    <g id="xtick_5">
     <g id="line2d_5">
      <g>
       <use style="stroke:#000000;stroke-width:0.8;" x="329.997028" xlink:href="#mbc4e498777" y="307.584"/>
      </g>
     </g>
     <g id="text_5">
      <!-- 40 -->
      <defs>
       <path d="M 31.25 17.1875 
L 1.171875 17.1875 
L 1.171875 23.828125 
L 32.8125 69.53125 
L 38.671875 69.53125 
L 38.671875 23.828125 
L 48.046875 23.828125 
L 48.046875 17.1875 
L 38.671875 17.1875 
L 38.671875 2.34375 
L 31.25 2.34375 
z
M 31.25 23.828125 
L 31.25 54.6875 
L 9.375 23.828125 
z
" id="SimHei-34"/>
      </defs>
      <g transform="translate(323.497028 323.5215)scale(0.13 -0.13)">
       <use xlink:href="#SimHei-34"/>
       <use x="50" xlink:href="#SimHei-30"/>
      </g>
     </g>
    </g>
    <g id="xtick_6">
     <g id="line2d_6">
      <g>
       <use style="stroke:#000000;stroke-width:0.8;" x="397.408686" xlink:href="#mbc4e498777" y="307.584"/>
      </g>
     </g>
     <g id="text_6">
      <!-- 50 -->
      <defs>
       <path d="M 8.59375 20.703125 
Q 11.328125 10.15625 17.96875 8.984375 
Q 24.609375 7.8125 28.703125 10.34375 
Q 32.8125 12.890625 34.5625 16.984375 
Q 36.328125 21.09375 36.125 26.171875 
Q 35.9375 31.25 33.390625 34.765625 
Q 30.859375 38.28125 26.953125 39.453125 
Q 23.046875 40.625 18.15625 39.453125 
Q 13.28125 38.28125 10.15625 33.984375 
L 3.515625 34.765625 
Q 4.296875 37.109375 10.9375 68.359375 
L 41.796875 68.359375 
L 41.796875 61.328125 
L 16.796875 61.328125 
Q 14.84375 50.78125 12.890625 44.53125 
Q 18.75 47.265625 23.828125 47.0625 
Q 28.90625 46.875 33.59375 44.71875 
Q 38.28125 42.578125 40.421875 38.859375 
Q 42.578125 35.15625 43.546875 31.4375 
Q 44.53125 27.734375 44.328125 23.4375 
Q 44.140625 19.140625 42.578125 14.640625 
Q 41.015625 10.15625 37.890625 7.21875 
Q 34.765625 4.296875 30.265625 2.53125 
Q 25.78125 0.78125 19.921875 1.171875 
Q 14.0625 1.5625 8.78125 5.46875 
Q 3.515625 9.375 1.5625 18.75 
z
" id="SimHei-35"/>
      </defs>
      <g transform="translate(390.908686 323.5215)scale(0.13 -0.13)">
       <use xlink:href="#SimHei-35"/>
       <use x="50" xlink:href="#SimHei-30"/>
      </g>
     </g>
    </g>
    <g id="text_7">
     <!-- Episode/k -->
     <defs>
      <path d="M 45.3125 1.953125 
L 5.46875 1.953125 
L 5.46875 68.75 
L 43.359375 68.75 
L 43.359375 61.328125 
L 14.453125 61.328125 
L 14.453125 40.625 
L 41.015625 40.625 
L 41.015625 33.203125 
L 14.453125 33.203125 
L 14.453125 9.375 
L 45.3125 9.375 
z
" id="SimHei-45"/>
      <path d="M 44.140625 23.828125 
Q 44.140625 12.5 38.671875 6.640625 
Q 33.203125 0.78125 25.390625 0.78125 
Q 21.09375 0.78125 17.96875 2.53125 
Q 14.84375 4.296875 12.5 7.8125 
L 12.5 -12.5 
L 4.6875 -12.5 
L 4.6875 45.703125 
L 12.5 45.703125 
L 12.5 39.84375 
Q 14.84375 43.359375 17.96875 44.921875 
Q 21.09375 46.484375 25.390625 46.484375 
Q 33.203125 46.484375 38.671875 40.8125 
Q 44.140625 35.15625 44.140625 23.828125 
z
M 35.546875 23.828125 
Q 35.546875 31.25 32.609375 35.34375 
Q 29.6875 39.453125 23.828125 39.453125 
Q 19.140625 39.453125 15.8125 35.34375 
Q 12.5 31.25 12.5 23.828125 
Q 12.5 16.40625 15.8125 12.109375 
Q 19.140625 7.8125 23.828125 7.8125 
Q 29.6875 7.8125 32.609375 12.109375 
Q 35.546875 16.40625 35.546875 23.828125 
z
" id="SimHei-70"/>
      <path d="M 28.125 58.203125 
L 20.3125 58.203125 
L 20.3125 68.359375 
L 28.125 68.359375 
z
M 28.125 1.953125 
L 20.3125 1.953125 
L 20.3125 45.703125 
L 28.125 45.703125 
z
" id="SimHei-69"/>
      <path d="M 42.96875 14.0625 
Q 42.96875 7.8125 38.078125 4.484375 
Q 33.203125 1.171875 25.78125 1.171875 
Q 16.40625 1.171875 11.328125 4.875 
Q 6.25 8.59375 6.25 15.625 
L 14.0625 15.625 
Q 14.0625 10.9375 17.375 9.375 
Q 20.703125 7.8125 25.390625 7.8125 
Q 30.078125 7.8125 32.421875 9.5625 
Q 34.765625 11.328125 34.765625 14.0625 
Q 34.765625 16.015625 32.8125 17.96875 
Q 30.859375 19.921875 23.046875 21.09375 
Q 14.0625 22.265625 10.734375 25.578125 
Q 7.421875 28.90625 7.421875 34.375 
Q 7.421875 39.0625 11.90625 42.765625 
Q 16.40625 46.484375 25 46.484375 
Q 32.8125 46.484375 37.296875 42.96875 
Q 41.796875 39.453125 41.796875 33.59375 
L 33.984375 33.59375 
Q 33.984375 37.109375 31.4375 38.46875 
Q 28.90625 39.84375 25 39.84375 
Q 19.921875 39.84375 17.765625 38.078125 
Q 15.625 36.328125 15.625 33.984375 
Q 15.625 31.25 17.578125 29.6875 
Q 19.53125 28.125 25.78125 27.34375 
Q 35.9375 25.78125 39.453125 22.453125 
Q 42.96875 19.140625 42.96875 14.0625 
z
" id="SimHei-73"/>
      <path d="M 45.703125 23.828125 
Q 45.703125 13.671875 39.453125 7.421875 
Q 33.203125 1.171875 24.609375 1.171875 
Q 16.015625 1.171875 9.765625 7.421875 
Q 3.515625 13.671875 3.515625 23.828125 
Q 3.515625 33.984375 9.765625 40.234375 
Q 16.015625 46.484375 24.609375 46.484375 
Q 33.203125 46.484375 39.453125 40.234375 
Q 45.703125 33.984375 45.703125 23.828125 
z
M 37.109375 23.828125 
Q 37.109375 31.640625 33.203125 35.546875 
Q 29.296875 39.453125 24.609375 39.453125 
Q 19.921875 39.453125 16.015625 35.546875 
Q 12.109375 31.640625 12.109375 23.828125 
Q 12.109375 16.015625 16.015625 12.109375 
Q 19.921875 8.203125 24.609375 8.203125 
Q 29.296875 8.203125 33.203125 12.109375 
Q 37.109375 16.015625 37.109375 23.828125 
z
" id="SimHei-6f"/>
      <path d="M 42.96875 1.953125 
L 35.15625 1.953125 
L 35.15625 7.8125 
Q 32.8125 4.296875 29.6875 2.734375 
Q 26.5625 1.171875 22.265625 1.171875 
Q 14.453125 1.171875 8.984375 6.828125 
Q 3.515625 12.5 3.515625 23.828125 
Q 3.515625 35.15625 8.984375 41.015625 
Q 14.453125 46.875 22.265625 46.875 
Q 26.5625 46.875 29.6875 45.109375 
Q 32.8125 43.359375 35.15625 39.84375 
L 35.15625 68.75 
L 42.96875 68.75 
z
M 35.15625 23.828125 
Q 35.15625 31.25 31.828125 35.546875 
Q 28.515625 39.84375 23.828125 39.84375 
Q 17.96875 39.84375 15.03125 35.546875 
Q 12.109375 31.25 12.109375 23.828125 
Q 12.109375 16.40625 15.03125 12.296875 
Q 17.96875 8.203125 23.828125 8.203125 
Q 28.515625 8.203125 31.828125 12.296875 
Q 35.15625 16.40625 35.15625 23.828125 
z
" id="SimHei-64"/>
      <path d="M 44.53125 16.796875 
Q 43.75 9.765625 38.28125 5.46875 
Q 32.8125 1.171875 25.390625 1.171875 
Q 16.015625 1.171875 9.953125 7.21875 
Q 3.90625 13.28125 3.90625 23.828125 
Q 3.90625 34.375 9.953125 40.421875 
Q 16.015625 46.484375 25.390625 46.484375 
Q 33.59375 46.484375 38.859375 41.203125 
Q 44.140625 35.9375 44.140625 23.828125 
L 12.5 23.828125 
Q 12.5 15.234375 16.203125 11.71875 
Q 19.921875 8.203125 25.390625 8.203125 
Q 29.6875 8.203125 32.421875 10.34375 
Q 35.15625 12.5 35.9375 16.796875 
z
M 35.15625 30.078125 
Q 34.375 35.546875 31.640625 37.6875 
Q 28.90625 39.84375 24.609375 39.84375 
Q 20.703125 39.84375 17.578125 37.6875 
Q 14.453125 35.546875 12.890625 30.078125 
z
" id="SimHei-65"/>
      <path d="M 46.875 71.09375 
L 5.46875 -2.734375 
L 1.5625 -0.390625 
L 42.96875 73.4375 
z
" id="SimHei-2f"/>
      <path d="M 45.703125 1.953125 
L 36.71875 1.953125 
L 22.65625 25.78125 
L 13.671875 17.1875 
L 13.671875 1.953125 
L 5.859375 1.953125 
L 5.859375 68.75 
L 13.671875 68.75 
L 13.671875 26.171875 
L 33.203125 45.703125 
L 42.96875 45.703125 
L 27.734375 30.859375 
z
" id="SimHei-6b"/>
     </defs>
     <g transform="translate(202.41 340.162125)scale(0.15 -0.15)">
      <use xlink:href="#SimHei-45"/>
      <use x="50" xlink:href="#SimHei-70"/>
      <use x="100" xlink:href="#SimHei-69"/>
      <use x="150" xlink:href="#SimHei-73"/>
      <use x="200" xlink:href="#SimHei-6f"/>
      <use x="250" xlink:href="#SimHei-64"/>
      <use x="300" xlink:href="#SimHei-65"/>
      <use x="350" xlink:href="#SimHei-2f"/>
      <use x="400" xlink:href="#SimHei-6b"/>
     </g>
    </g>
   </g>
   <g id="matplotlib.axis_2">
    <g id="ytick_1">
     <g id="line2d_7">
      <defs>
       <path d="M 0 0 
L -3.5 0 
" id="m75417c3b6c" style="stroke:#000000;stroke-width:0.8;"/>
      </defs>
      <g>
       <use style="stroke:#000000;stroke-width:0.8;" x="57.6" xlink:href="#m75417c3b6c" y="297.497951"/>
      </g>
     </g>
     <g id="text_8">
      <!-- 0 -->
      <g transform="translate(44.1 301.966701)scale(0.13 -0.13)">
       <use xlink:href="#SimHei-30"/>
      </g>
     </g>
    </g>
    <g id="ytick_2">
     <g id="line2d_8">
      <g>
       <use style="stroke:#000000;stroke-width:0.8;" x="57.6" xlink:href="#m75417c3b6c" y="263.161642"/>
      </g>
     </g>
     <g id="text_9">
      <!-- 500 -->
      <g transform="translate(31.1 267.630392)scale(0.13 -0.13)">
       <use xlink:href="#SimHei-35"/>
       <use x="50" xlink:href="#SimHei-30"/>
       <use x="100" xlink:href="#SimHei-30"/>
      </g>
     </g>
    </g>
    <g id="ytick_3">
     <g id="line2d_9">
      <g>
       <use style="stroke:#000000;stroke-width:0.8;" x="57.6" xlink:href="#m75417c3b6c" y="228.825332"/>
      </g>
     </g>
     <g id="text_10">
      <!-- 1000 -->
      <g transform="translate(24.6 233.294082)scale(0.13 -0.13)">
       <use xlink:href="#SimHei-31"/>
       <use x="50" xlink:href="#SimHei-30"/>
       <use x="100" xlink:href="#SimHei-30"/>
       <use x="150" xlink:href="#SimHei-30"/>
      </g>
     </g>
    </g>
    <g id="ytick_4">
     <g id="line2d_10">
      <g>
       <use style="stroke:#000000;stroke-width:0.8;" x="57.6" xlink:href="#m75417c3b6c" y="194.489022"/>
      </g>
     </g>
     <g id="text_11">
      <!-- 1500 -->
      <g transform="translate(24.6 198.957772)scale(0.13 -0.13)">
       <use xlink:href="#SimHei-31"/>
       <use x="50" xlink:href="#SimHei-35"/>
       <use x="100" xlink:href="#SimHei-30"/>
       <use x="150" xlink:href="#SimHei-30"/>
      </g>
     </g>
    </g>
    <g id="ytick_5">
     <g id="line2d_11">
      <g>
       <use style="stroke:#000000;stroke-width:0.8;" x="57.6" xlink:href="#m75417c3b6c" y="160.152712"/>
      </g>
     </g>
     <g id="text_12">
      <!-- 2000 -->
      <g transform="translate(24.6 164.621462)scale(0.13 -0.13)">
       <use xlink:href="#SimHei-32"/>
       <use x="50" xlink:href="#SimHei-30"/>
       <use x="100" xlink:href="#SimHei-30"/>
       <use x="150" xlink:href="#SimHei-30"/>
      </g>
     </g>
    </g>
    <g id="ytick_6">
     <g id="line2d_12">
      <g>
       <use style="stroke:#000000;stroke-width:0.8;" x="57.6" xlink:href="#m75417c3b6c" y="125.816403"/>
      </g>
     </g>
     <g id="text_13">
      <!-- 2500 -->
      <g transform="translate(24.6 130.285153)scale(0.13 -0.13)">
       <use xlink:href="#SimHei-32"/>
       <use x="50" xlink:href="#SimHei-35"/>
       <use x="100" xlink:href="#SimHei-30"/>
       <use x="150" xlink:href="#SimHei-30"/>
      </g>
     </g>
    </g>
    <g id="ytick_7">
     <g id="line2d_13">
      <g>
       <use style="stroke:#000000;stroke-width:0.8;" x="57.6" xlink:href="#m75417c3b6c" y="91.480093"/>
      </g>
     </g>
     <g id="text_14">
      <!-- 3000 -->
      <g transform="translate(24.6 95.948843)scale(0.13 -0.13)">
       <use xlink:href="#SimHei-33"/>
       <use x="50" xlink:href="#SimHei-30"/>
       <use x="100" xlink:href="#SimHei-30"/>
       <use x="150" xlink:href="#SimHei-30"/>
      </g>
     </g>
    </g>
    <g id="ytick_8">
     <g id="line2d_14">
      <g>
       <use style="stroke:#000000;stroke-width:0.8;" x="57.6" xlink:href="#m75417c3b6c" y="57.143783"/>
      </g>
     </g>
     <g id="text_15">
      <!-- 3500 -->
      <g transform="translate(24.6 61.612533)scale(0.13 -0.13)">
       <use xlink:href="#SimHei-33"/>
       <use x="50" xlink:href="#SimHei-35"/>
       <use x="100" xlink:href="#SimHei-30"/>
       <use x="150" xlink:href="#SimHei-30"/>
      </g>
     </g>
    </g>
    <g id="text_16">
     <!-- Average path  cost (UC) -->
     <defs>
      <path d="M 48.046875 1.953125 
L 38.671875 1.953125 
L 33.203125 22.65625 
L 16.015625 22.65625 
L 10.546875 1.953125 
L 1.171875 1.953125 
L 20.703125 69.53125 
L 28.515625 69.53125 
z
M 31.25 30.078125 
L 25 53.90625 
L 24.21875 53.90625 
L 17.96875 30.078125 
z
" id="SimHei-41"/>
      <path d="M 44.921875 45.703125 
L 28.515625 1.171875 
L 19.921875 1.171875 
L 3.515625 45.703125 
L 11.71875 45.703125 
L 23.828125 11.71875 
L 24.609375 11.71875 
L 36.71875 45.703125 
z
" id="SimHei-76"/>
      <path d="M 39.0625 37.890625 
Q 31.640625 39.0625 26.5625 35.734375 
Q 21.484375 32.421875 17.96875 24.21875 
L 17.96875 1.953125 
L 10.15625 1.953125 
L 10.15625 45.703125 
L 17.96875 45.703125 
L 17.96875 34.375 
Q 21.484375 40.625 26.75 43.546875 
Q 32.03125 46.484375 39.0625 46.484375 
z
" id="SimHei-72"/>
      <path d="M 44.921875 1.953125 
L 35.546875 1.953125 
Q 34.765625 2.734375 34.375 4.09375 
Q 33.984375 5.46875 33.984375 7.421875 
Q 31.25 4.296875 27.34375 2.734375 
Q 23.4375 1.171875 19.140625 1.171875 
Q 12.890625 1.171875 8.59375 4.296875 
Q 4.296875 7.421875 4.296875 13.28125 
Q 4.296875 19.140625 8.203125 22.65625 
Q 12.109375 26.171875 20.3125 27.34375 
Q 25.78125 28.125 29.875 29.296875 
Q 33.984375 30.46875 33.984375 32.421875 
Q 33.984375 34.765625 32.21875 37.109375 
Q 30.46875 39.453125 24.609375 39.453125 
Q 19.921875 39.453125 17.765625 37.6875 
Q 15.625 35.9375 14.84375 32.8125 
L 6.25 32.8125 
Q 7.03125 39.0625 11.90625 42.765625 
Q 16.796875 46.484375 24.609375 46.484375 
Q 33.203125 46.484375 37.5 42.578125 
Q 41.796875 38.671875 41.796875 31.640625 
L 41.796875 10.15625 
Q 41.796875 7.8125 42.578125 5.859375 
Q 43.359375 3.90625 44.921875 1.953125 
z
M 33.984375 16.40625 
L 33.984375 24.21875 
Q 31.640625 23.4375 29.484375 22.84375 
Q 27.34375 22.265625 22.265625 21.484375 
Q 16.40625 20.703125 14.640625 18.75 
Q 12.890625 16.796875 12.890625 14.0625 
Q 12.890625 11.71875 14.640625 9.953125 
Q 16.40625 8.203125 19.921875 8.203125 
Q 23.4375 8.203125 27.53125 10.15625 
Q 31.640625 12.109375 33.984375 16.40625 
z
" id="SimHei-61"/>
      <path d="M 46.484375 39.0625 
Q 43.75 39.84375 41.203125 40.03125 
Q 38.671875 40.234375 35.9375 39.453125 
Q 37.109375 38.28125 37.890625 36.515625 
Q 38.671875 34.765625 38.671875 31.25 
Q 38.671875 24.609375 34.171875 20.3125 
Q 29.6875 16.015625 23.046875 16.015625 
Q 21.484375 16.015625 18.9375 16.59375 
Q 16.40625 17.1875 14.84375 17.96875 
Q 13.671875 17.1875 13.28125 16.40625 
Q 12.890625 15.625 12.890625 14.453125 
Q 12.890625 12.5 15.625 11.515625 
Q 18.359375 10.546875 25.390625 10.546875 
Q 36.71875 10.546875 40.8125 7.421875 
Q 44.921875 4.296875 44.921875 -0.390625 
Q 44.921875 -6.640625 38.859375 -9.5625 
Q 32.8125 -12.5 24.609375 -12.5 
Q 14.0625 -12.5 8.984375 -9.765625 
Q 3.90625 -7.03125 3.90625 -2.34375 
Q 3.90625 0 5.859375 2.34375 
Q 7.8125 4.6875 10.9375 6.25 
Q 8.59375 7.421875 7.21875 9.171875 
Q 5.859375 10.9375 5.859375 13.671875 
Q 5.859375 16.015625 7.609375 17.765625 
Q 9.375 19.53125 11.71875 20.703125 
Q 9.765625 22.65625 8.59375 25.390625 
Q 7.421875 28.125 7.421875 31.25 
Q 7.421875 37.890625 11.90625 42.1875 
Q 16.40625 46.484375 23.046875 46.484375 
Q 26.5625 46.484375 29.09375 45.5 
Q 31.640625 44.53125 33.59375 42.578125 
Q 36.71875 44.921875 39.84375 45.890625 
Q 42.96875 46.875 46.484375 46.484375 
z
M 30.859375 31.25 
Q 30.859375 35.15625 28.90625 37.5 
Q 26.953125 39.84375 23.046875 39.84375 
Q 19.140625 39.84375 17.1875 37.5 
Q 15.234375 35.15625 15.234375 31.25 
Q 15.234375 27.34375 17.1875 25 
Q 19.140625 22.65625 23.046875 22.65625 
Q 26.953125 22.65625 28.90625 25 
Q 30.859375 27.34375 30.859375 31.25 
z
M 37.5 -1.171875 
Q 37.5 0.390625 35.734375 1.953125 
Q 33.984375 3.515625 26.953125 3.515625 
Q 25.390625 3.515625 22.65625 3.703125 
Q 19.921875 3.90625 16.40625 4.296875 
Q 13.28125 3.125 12.109375 1.5625 
Q 10.9375 0 10.9375 -1.5625 
Q 10.9375 -3.90625 14.0625 -5.46875 
Q 17.1875 -7.03125 25 -7.03125 
Q 31.640625 -7.03125 34.5625 -5.265625 
Q 37.5 -3.515625 37.5 -1.171875 
z
" id="SimHei-67"/>
      <path id="SimHei-20"/>
      <path d="M 42.96875 3.125 
Q 41.015625 2.34375 38.46875 1.75 
Q 35.9375 1.171875 31.640625 1.171875 
Q 24.609375 1.171875 20.3125 5.078125 
Q 16.015625 8.984375 16.015625 16.015625 
L 16.015625 39.453125 
L 2.734375 39.453125 
L 2.734375 45.703125 
L 16.015625 45.703125 
L 16.015625 60.9375 
L 23.828125 60.9375 
L 23.828125 45.703125 
L 39.84375 45.703125 
L 39.84375 39.453125 
L 23.828125 39.453125 
L 23.828125 15.625 
Q 23.828125 12.5 25.390625 10.34375 
Q 26.953125 8.203125 31.25 8.203125 
Q 35.546875 8.203125 38.28125 8.984375 
Q 41.015625 9.765625 42.96875 10.9375 
z
" id="SimHei-74"/>
      <path d="M 43.75 1.953125 
L 35.9375 1.953125 
L 35.9375 30.078125 
Q 35.9375 34.765625 33.59375 37.5 
Q 31.25 40.234375 27.34375 40.234375 
Q 22.265625 40.234375 17.765625 34.953125 
Q 13.28125 29.6875 13.28125 21.875 
L 13.28125 1.953125 
L 5.46875 1.953125 
L 5.46875 68.75 
L 13.28125 68.75 
L 13.28125 37.5 
Q 16.40625 41.796875 20.109375 44.140625 
Q 23.828125 46.484375 29.6875 46.484375 
Q 36.71875 46.484375 40.234375 42.578125 
Q 43.75 38.671875 43.75 32.8125 
z
" id="SimHei-68"/>
      <path d="M 44.53125 19.53125 
Q 44.53125 11.328125 38.859375 6.25 
Q 33.203125 1.171875 24.609375 1.171875 
Q 16.015625 1.171875 9.765625 7.21875 
Q 3.515625 13.28125 3.515625 23.828125 
Q 3.515625 34.375 9.765625 40.421875 
Q 16.015625 46.484375 24.609375 46.484375 
Q 33.203125 46.484375 38.28125 41.984375 
Q 43.359375 37.5 43.359375 31.25 
L 34.765625 31.25 
Q 34.375 35.9375 31.4375 37.6875 
Q 28.515625 39.453125 24.609375 39.453125 
Q 19.921875 39.453125 16.015625 35.734375 
Q 12.109375 32.03125 12.109375 23.828125 
Q 12.109375 15.625 16.015625 11.90625 
Q 19.921875 8.203125 24.609375 8.203125 
Q 29.6875 8.203125 32.8125 10.9375 
Q 35.9375 13.671875 35.9375 19.53125 
z
" id="SimHei-63"/>
      <path d="M 46.484375 -3.125 
L 42.1875 -7.421875 
Q 32.421875 1.953125 27.53125 12.109375 
Q 22.65625 22.265625 22.65625 35.15625 
Q 22.65625 48.046875 27.53125 58.203125 
Q 32.421875 68.359375 42.1875 78.125 
L 46.484375 73.828125 
Q 37.5 65.234375 33 56.046875 
Q 28.515625 46.875 28.515625 35.15625 
Q 28.515625 23.4375 33 14.25 
Q 37.5 5.078125 46.484375 -3.125 
z
" id="SimHei-28"/>
      <path d="M 44.921875 21.484375 
Q 44.921875 12.109375 40.03125 6.640625 
Q 35.15625 1.171875 24.609375 1.171875 
Q 14.0625 1.171875 9.171875 6.640625 
Q 4.296875 12.109375 4.296875 21.484375 
L 4.296875 68.75 
L 13.28125 68.75 
L 13.28125 21.484375 
Q 13.28125 14.84375 16.40625 11.71875 
Q 19.53125 8.59375 24.609375 8.59375 
Q 29.6875 8.59375 32.8125 11.71875 
Q 35.9375 14.84375 35.9375 21.484375 
L 35.9375 68.75 
L 44.921875 68.75 
z
" id="SimHei-55"/>
      <path d="M 46.484375 28.515625 
Q 46.09375 13.671875 40.234375 7.421875 
Q 34.375 1.171875 26.171875 1.171875 
Q 16.796875 1.171875 10.15625 8.78125 
Q 3.515625 16.40625 3.515625 33.203125 
Q 3.515625 51.5625 9.953125 60.546875 
Q 16.40625 69.53125 26.5625 69.53125 
Q 35.15625 69.53125 40.8125 63.078125 
Q 46.484375 56.640625 46.09375 44.921875 
L 37.5 44.921875 
Q 37.5 53.515625 34.765625 57.8125 
Q 32.03125 62.109375 26.5625 62.109375 
Q 20.3125 62.109375 16.59375 55.65625 
Q 12.890625 49.21875 12.890625 33.984375 
Q 12.890625 19.921875 16.59375 14.25 
Q 20.3125 8.59375 26.171875 8.59375 
Q 30.46875 8.59375 33.984375 12.6875 
Q 37.5 16.796875 37.5 28.515625 
z
" id="SimHei-43"/>
      <path d="M 26.171875 35.15625 
Q 26.171875 22.265625 21.28125 12.109375 
Q 16.40625 1.953125 6.640625 -7.421875 
L 2.34375 -3.125 
Q 11.328125 5.078125 15.8125 14.25 
Q 20.3125 23.4375 20.3125 35.15625 
Q 20.3125 46.875 15.8125 56.046875 
Q 11.328125 65.234375 2.34375 73.828125 
L 6.640625 78.125 
Q 16.40625 68.359375 21.28125 58.203125 
Q 26.171875 48.046875 26.171875 35.15625 
z
" id="SimHei-29"/>
     </defs>
     <g transform="translate(18.725 260.778)rotate(-90)scale(0.15 -0.15)">
      <use xlink:href="#SimHei-41"/>
      <use x="50" xlink:href="#SimHei-76"/>
      <use x="100" xlink:href="#SimHei-65"/>
      <use x="150" xlink:href="#SimHei-72"/>
      <use x="200" xlink:href="#SimHei-61"/>
      <use x="250" xlink:href="#SimHei-67"/>
      <use x="300" xlink:href="#SimHei-65"/>
      <use x="350" xlink:href="#SimHei-20"/>
      <use x="400" xlink:href="#SimHei-70"/>
      <use x="450" xlink:href="#SimHei-61"/>
      <use x="500" xlink:href="#SimHei-74"/>
      <use x="550" xlink:href="#SimHei-68"/>
      <use x="600" xlink:href="#SimHei-20"/>
      <use x="650" xlink:href="#SimHei-20"/>
      <use x="700" xlink:href="#SimHei-63"/>
      <use x="750" xlink:href="#SimHei-6f"/>
      <use x="800" xlink:href="#SimHei-73"/>
      <use x="850" xlink:href="#SimHei-74"/>
      <use x="900" xlink:href="#SimHei-20"/>
      <use x="950" xlink:href="#SimHei-28"/>
      <use x="1000" xlink:href="#SimHei-55"/>
      <use x="1050" xlink:href="#SimHei-43"/>
      <use x="1100" xlink:href="#SimHei-29"/>
     </g>
    </g>
   </g>
   <g id="line2d_15">
    <path clip-path="url(#p50ad860ec6)" d="M 73.832727 295.307982 
L 87.315059 295.307982 
L 100.797391 295.307982 
L 114.279722 295.307982 
L 127.762054 295.307982 
L 141.244385 295.307982 
L 154.726717 295.307982 
L 168.209049 295.307982 
L 181.69138 295.307982 
L 195.173712 295.307982 
L 208.656043 295.307982 
L 222.138375 295.307982 
L 235.620707 295.307982 
L 249.103038 295.307982 
L 262.58537 295.307982 
L 276.067702 295.307982 
L 289.550033 295.307982 
L 303.032365 295.307982 
L 316.514696 295.307982 
L 329.997028 295.307982 
L 343.47936 295.307982 
L 356.961691 295.307982 
L 370.444023 295.307982 
L 383.926355 295.307982 
L 397.408686 295.307982 
" style="fill:none;stroke:#1f77b4;stroke-linecap:square;stroke-opacity:0.7;stroke-width:1.5;"/>
    <defs>
     <path d="M 0 2.5 
C 0.663008 2.5 1.29895 2.236584 1.767767 1.767767 
C 2.236584 1.29895 2.5 0.663008 2.5 0 
C 2.5 -0.663008 2.236584 -1.29895 1.767767 -1.767767 
C 1.29895 -2.236584 0.663008 -2.5 0 -2.5 
C -0.663008 -2.5 -1.29895 -2.236584 -1.767767 -1.767767 
C -2.236584 -1.29895 -2.5 -0.663008 -2.5 0 
C -2.5 0.663008 -2.236584 1.29895 -1.767767 1.767767 
C -1.29895 2.236584 -0.663008 2.5 0 2.5 
z
" id="m1e5cbeb643" style="stroke:#1f77b4;stroke-opacity:0.7;"/>
    </defs>
    <g clip-path="url(#p50ad860ec6)">
     <use style="fill:#1f77b4;fill-opacity:0.7;stroke:#1f77b4;stroke-opacity:0.7;" x="73.832727" xlink:href="#m1e5cbeb643" y="295.307982"/>
     <use style="fill:#1f77b4;fill-opacity:0.7;stroke:#1f77b4;stroke-opacity:0.7;" x="87.315059" xlink:href="#m1e5cbeb643" y="295.307982"/>
     <use style="fill:#1f77b4;fill-opacity:0.7;stroke:#1f77b4;stroke-opacity:0.7;" x="100.797391" xlink:href="#m1e5cbeb643" y="295.307982"/>
     <use style="fill:#1f77b4;fill-opacity:0.7;stroke:#1f77b4;stroke-opacity:0.7;" x="114.279722" xlink:href="#m1e5cbeb643" y="295.307982"/>
     <use style="fill:#1f77b4;fill-opacity:0.7;stroke:#1f77b4;stroke-opacity:0.7;" x="127.762054" xlink:href="#m1e5cbeb643" y="295.307982"/>
     <use style="fill:#1f77b4;fill-opacity:0.7;stroke:#1f77b4;stroke-opacity:0.7;" x="141.244385" xlink:href="#m1e5cbeb643" y="295.307982"/>
     <use style="fill:#1f77b4;fill-opacity:0.7;stroke:#1f77b4;stroke-opacity:0.7;" x="154.726717" xlink:href="#m1e5cbeb643" y="295.307982"/>
     <use style="fill:#1f77b4;fill-opacity:0.7;stroke:#1f77b4;stroke-opacity:0.7;" x="168.209049" xlink:href="#m1e5cbeb643" y="295.307982"/>
     <use style="fill:#1f77b4;fill-opacity:0.7;stroke:#1f77b4;stroke-opacity:0.7;" x="181.69138" xlink:href="#m1e5cbeb643" y="295.307982"/>
     <use style="fill:#1f77b4;fill-opacity:0.7;stroke:#1f77b4;stroke-opacity:0.7;" x="195.173712" xlink:href="#m1e5cbeb643" y="295.307982"/>
     <use style="fill:#1f77b4;fill-opacity:0.7;stroke:#1f77b4;stroke-opacity:0.7;" x="208.656043" xlink:href="#m1e5cbeb643" y="295.307982"/>
     <use style="fill:#1f77b4;fill-opacity:0.7;stroke:#1f77b4;stroke-opacity:0.7;" x="222.138375" xlink:href="#m1e5cbeb643" y="295.307982"/>
     <use style="fill:#1f77b4;fill-opacity:0.7;stroke:#1f77b4;stroke-opacity:0.7;" x="235.620707" xlink:href="#m1e5cbeb643" y="295.307982"/>
     <use style="fill:#1f77b4;fill-opacity:0.7;stroke:#1f77b4;stroke-opacity:0.7;" x="249.103038" xlink:href="#m1e5cbeb643" y="295.307982"/>
     <use style="fill:#1f77b4;fill-opacity:0.7;stroke:#1f77b4;stroke-opacity:0.7;" x="262.58537" xlink:href="#m1e5cbeb643" y="295.307982"/>
     <use style="fill:#1f77b4;fill-opacity:0.7;stroke:#1f77b4;stroke-opacity:0.7;" x="276.067702" xlink:href="#m1e5cbeb643" y="295.307982"/>
     <use style="fill:#1f77b4;fill-opacity:0.7;stroke:#1f77b4;stroke-opacity:0.7;" x="289.550033" xlink:href="#m1e5cbeb643" y="295.307982"/>
     <use style="fill:#1f77b4;fill-opacity:0.7;stroke:#1f77b4;stroke-opacity:0.7;" x="303.032365" xlink:href="#m1e5cbeb643" y="295.307982"/>
     <use style="fill:#1f77b4;fill-opacity:0.7;stroke:#1f77b4;stroke-opacity:0.7;" x="316.514696" xlink:href="#m1e5cbeb643" y="295.307982"/>
     <use style="fill:#1f77b4;fill-opacity:0.7;stroke:#1f77b4;stroke-opacity:0.7;" x="329.997028" xlink:href="#m1e5cbeb643" y="295.307982"/>
     <use style="fill:#1f77b4;fill-opacity:0.7;stroke:#1f77b4;stroke-opacity:0.7;" x="343.47936" xlink:href="#m1e5cbeb643" y="295.307982"/>
     <use style="fill:#1f77b4;fill-opacity:0.7;stroke:#1f77b4;stroke-opacity:0.7;" x="356.961691" xlink:href="#m1e5cbeb643" y="295.307982"/>
     <use style="fill:#1f77b4;fill-opacity:0.7;stroke:#1f77b4;stroke-opacity:0.7;" x="370.444023" xlink:href="#m1e5cbeb643" y="295.307982"/>
     <use style="fill:#1f77b4;fill-opacity:0.7;stroke:#1f77b4;stroke-opacity:0.7;" x="383.926355" xlink:href="#m1e5cbeb643" y="295.307982"/>
     <use style="fill:#1f77b4;fill-opacity:0.7;stroke:#1f77b4;stroke-opacity:0.7;" x="397.408686" xlink:href="#m1e5cbeb643" y="295.307982"/>
    </g>
   </g>
   <g id="line2d_16">
    <path clip-path="url(#p50ad860ec6)" d="M 73.832727 53.568 
L 87.315059 271.468282 
L 100.797391 293.269092 
L 114.279722 290.976113 
L 127.762054 294.817659 
L 141.244385 295.154155 
L 154.726717 295.375967 
L 168.209049 295.301114 
L 181.69138 295.401376 
L 195.173712 295.411677 
L 208.656043 295.417858 
L 222.138375 295.40481 
L 235.620707 295.430219 
L 249.103038 295.420605 
L 262.58537 295.40687 
L 276.067702 295.450134 
L 289.550033 295.435026 
L 303.032365 295.429532 
L 316.514696 295.456314 
L 329.997028 295.427472 
L 343.47936 295.413051 
L 356.961691 295.463868 
L 370.444023 295.445327 
L 383.926355 295.44876 
L 397.408686 295.43846 
" style="fill:none;stroke:#ff7f0e;stroke-linecap:square;stroke-opacity:0.7;stroke-width:1.5;"/>
    <defs>
     <path d="M -0 2.5 
L 2.5 -2.5 
L -2.5 -2.5 
z
" id="me5110300c9" style="stroke:#ff7f0e;stroke-linejoin:miter;stroke-opacity:0.7;"/>
    </defs>
    <g clip-path="url(#p50ad860ec6)">
     <use style="fill:#ff7f0e;fill-opacity:0.7;stroke:#ff7f0e;stroke-linejoin:miter;stroke-opacity:0.7;" x="73.832727" xlink:href="#me5110300c9" y="53.568"/>
     <use style="fill:#ff7f0e;fill-opacity:0.7;stroke:#ff7f0e;stroke-linejoin:miter;stroke-opacity:0.7;" x="87.315059" xlink:href="#me5110300c9" y="271.468282"/>
     <use style="fill:#ff7f0e;fill-opacity:0.7;stroke:#ff7f0e;stroke-linejoin:miter;stroke-opacity:0.7;" x="100.797391" xlink:href="#me5110300c9" y="293.269092"/>
     <use style="fill:#ff7f0e;fill-opacity:0.7;stroke:#ff7f0e;stroke-linejoin:miter;stroke-opacity:0.7;" x="114.279722" xlink:href="#me5110300c9" y="290.976113"/>
     <use style="fill:#ff7f0e;fill-opacity:0.7;stroke:#ff7f0e;stroke-linejoin:miter;stroke-opacity:0.7;" x="127.762054" xlink:href="#me5110300c9" y="294.817659"/>
     <use style="fill:#ff7f0e;fill-opacity:0.7;stroke:#ff7f0e;stroke-linejoin:miter;stroke-opacity:0.7;" x="141.244385" xlink:href="#me5110300c9" y="295.154155"/>
     <use style="fill:#ff7f0e;fill-opacity:0.7;stroke:#ff7f0e;stroke-linejoin:miter;stroke-opacity:0.7;" x="154.726717" xlink:href="#me5110300c9" y="295.375967"/>
     <use style="fill:#ff7f0e;fill-opacity:0.7;stroke:#ff7f0e;stroke-linejoin:miter;stroke-opacity:0.7;" x="168.209049" xlink:href="#me5110300c9" y="295.301114"/>
     <use style="fill:#ff7f0e;fill-opacity:0.7;stroke:#ff7f0e;stroke-linejoin:miter;stroke-opacity:0.7;" x="181.69138" xlink:href="#me5110300c9" y="295.401376"/>
     <use style="fill:#ff7f0e;fill-opacity:0.7;stroke:#ff7f0e;stroke-linejoin:miter;stroke-opacity:0.7;" x="195.173712" xlink:href="#me5110300c9" y="295.411677"/>
     <use style="fill:#ff7f0e;fill-opacity:0.7;stroke:#ff7f0e;stroke-linejoin:miter;stroke-opacity:0.7;" x="208.656043" xlink:href="#me5110300c9" y="295.417858"/>
     <use style="fill:#ff7f0e;fill-opacity:0.7;stroke:#ff7f0e;stroke-linejoin:miter;stroke-opacity:0.7;" x="222.138375" xlink:href="#me5110300c9" y="295.40481"/>
     <use style="fill:#ff7f0e;fill-opacity:0.7;stroke:#ff7f0e;stroke-linejoin:miter;stroke-opacity:0.7;" x="235.620707" xlink:href="#me5110300c9" y="295.430219"/>
     <use style="fill:#ff7f0e;fill-opacity:0.7;stroke:#ff7f0e;stroke-linejoin:miter;stroke-opacity:0.7;" x="249.103038" xlink:href="#me5110300c9" y="295.420605"/>
     <use style="fill:#ff7f0e;fill-opacity:0.7;stroke:#ff7f0e;stroke-linejoin:miter;stroke-opacity:0.7;" x="262.58537" xlink:href="#me5110300c9" y="295.40687"/>
     <use style="fill:#ff7f0e;fill-opacity:0.7;stroke:#ff7f0e;stroke-linejoin:miter;stroke-opacity:0.7;" x="276.067702" xlink:href="#me5110300c9" y="295.450134"/>
     <use style="fill:#ff7f0e;fill-opacity:0.7;stroke:#ff7f0e;stroke-linejoin:miter;stroke-opacity:0.7;" x="289.550033" xlink:href="#me5110300c9" y="295.435026"/>
     <use style="fill:#ff7f0e;fill-opacity:0.7;stroke:#ff7f0e;stroke-linejoin:miter;stroke-opacity:0.7;" x="303.032365" xlink:href="#me5110300c9" y="295.429532"/>
     <use style="fill:#ff7f0e;fill-opacity:0.7;stroke:#ff7f0e;stroke-linejoin:miter;stroke-opacity:0.7;" x="316.514696" xlink:href="#me5110300c9" y="295.456314"/>
     <use style="fill:#ff7f0e;fill-opacity:0.7;stroke:#ff7f0e;stroke-linejoin:miter;stroke-opacity:0.7;" x="329.997028" xlink:href="#me5110300c9" y="295.427472"/>
     <use style="fill:#ff7f0e;fill-opacity:0.7;stroke:#ff7f0e;stroke-linejoin:miter;stroke-opacity:0.7;" x="343.47936" xlink:href="#me5110300c9" y="295.413051"/>
     <use style="fill:#ff7f0e;fill-opacity:0.7;stroke:#ff7f0e;stroke-linejoin:miter;stroke-opacity:0.7;" x="356.961691" xlink:href="#me5110300c9" y="295.463868"/>
     <use style="fill:#ff7f0e;fill-opacity:0.7;stroke:#ff7f0e;stroke-linejoin:miter;stroke-opacity:0.7;" x="370.444023" xlink:href="#me5110300c9" y="295.445327"/>
     <use style="fill:#ff7f0e;fill-opacity:0.7;stroke:#ff7f0e;stroke-linejoin:miter;stroke-opacity:0.7;" x="383.926355" xlink:href="#me5110300c9" y="295.44876"/>
     <use style="fill:#ff7f0e;fill-opacity:0.7;stroke:#ff7f0e;stroke-linejoin:miter;stroke-opacity:0.7;" x="397.408686" xlink:href="#me5110300c9" y="295.43846"/>
    </g>
   </g>
   <g id="line2d_17">
    <path clip-path="url(#p50ad860ec6)" d="M 73.832727 295.48447 
L 87.315059 295.48447 
L 100.797391 295.48447 
L 114.279722 295.48447 
L 127.762054 295.48447 
L 141.244385 295.48447 
L 154.726717 295.48447 
L 168.209049 295.48447 
L 181.69138 295.48447 
L 195.173712 295.48447 
L 208.656043 295.48447 
L 222.138375 295.48447 
L 235.620707 295.48447 
L 249.103038 295.48447 
L 262.58537 295.48447 
L 276.067702 295.48447 
L 289.550033 295.48447 
L 303.032365 295.48447 
L 316.514696 295.48447 
L 329.997028 295.48447 
L 343.47936 295.48447 
L 356.961691 295.48447 
L 370.444023 295.48447 
L 383.926355 295.48447 
L 397.408686 295.48447 
" style="fill:none;stroke:#2ca02c;stroke-linecap:square;stroke-opacity:0.7;stroke-width:1.5;"/>
    <defs>
     <path d="M -2.5 2.5 
L 2.5 -2.5 
M -2.5 -2.5 
L 2.5 2.5 
" id="mf50d202d45" style="stroke:#2ca02c;stroke-opacity:0.7;"/>
    </defs>
    <g clip-path="url(#p50ad860ec6)">
     <use style="fill:#2ca02c;fill-opacity:0.7;stroke:#2ca02c;stroke-opacity:0.7;" x="73.832727" xlink:href="#mf50d202d45" y="295.48447"/>
     <use style="fill:#2ca02c;fill-opacity:0.7;stroke:#2ca02c;stroke-opacity:0.7;" x="87.315059" xlink:href="#mf50d202d45" y="295.48447"/>
     <use style="fill:#2ca02c;fill-opacity:0.7;stroke:#2ca02c;stroke-opacity:0.7;" x="100.797391" xlink:href="#mf50d202d45" y="295.48447"/>
     <use style="fill:#2ca02c;fill-opacity:0.7;stroke:#2ca02c;stroke-opacity:0.7;" x="114.279722" xlink:href="#mf50d202d45" y="295.48447"/>
     <use style="fill:#2ca02c;fill-opacity:0.7;stroke:#2ca02c;stroke-opacity:0.7;" x="127.762054" xlink:href="#mf50d202d45" y="295.48447"/>
     <use style="fill:#2ca02c;fill-opacity:0.7;stroke:#2ca02c;stroke-opacity:0.7;" x="141.244385" xlink:href="#mf50d202d45" y="295.48447"/>
     <use style="fill:#2ca02c;fill-opacity:0.7;stroke:#2ca02c;stroke-opacity:0.7;" x="154.726717" xlink:href="#mf50d202d45" y="295.48447"/>
     <use style="fill:#2ca02c;fill-opacity:0.7;stroke:#2ca02c;stroke-opacity:0.7;" x="168.209049" xlink:href="#mf50d202d45" y="295.48447"/>
     <use style="fill:#2ca02c;fill-opacity:0.7;stroke:#2ca02c;stroke-opacity:0.7;" x="181.69138" xlink:href="#mf50d202d45" y="295.48447"/>
     <use style="fill:#2ca02c;fill-opacity:0.7;stroke:#2ca02c;stroke-opacity:0.7;" x="195.173712" xlink:href="#mf50d202d45" y="295.48447"/>
     <use style="fill:#2ca02c;fill-opacity:0.7;stroke:#2ca02c;stroke-opacity:0.7;" x="208.656043" xlink:href="#mf50d202d45" y="295.48447"/>
     <use style="fill:#2ca02c;fill-opacity:0.7;stroke:#2ca02c;stroke-opacity:0.7;" x="222.138375" xlink:href="#mf50d202d45" y="295.48447"/>
     <use style="fill:#2ca02c;fill-opacity:0.7;stroke:#2ca02c;stroke-opacity:0.7;" x="235.620707" xlink:href="#mf50d202d45" y="295.48447"/>
     <use style="fill:#2ca02c;fill-opacity:0.7;stroke:#2ca02c;stroke-opacity:0.7;" x="249.103038" xlink:href="#mf50d202d45" y="295.48447"/>
     <use style="fill:#2ca02c;fill-opacity:0.7;stroke:#2ca02c;stroke-opacity:0.7;" x="262.58537" xlink:href="#mf50d202d45" y="295.48447"/>
     <use style="fill:#2ca02c;fill-opacity:0.7;stroke:#2ca02c;stroke-opacity:0.7;" x="276.067702" xlink:href="#mf50d202d45" y="295.48447"/>
     <use style="fill:#2ca02c;fill-opacity:0.7;stroke:#2ca02c;stroke-opacity:0.7;" x="289.550033" xlink:href="#mf50d202d45" y="295.48447"/>
     <use style="fill:#2ca02c;fill-opacity:0.7;stroke:#2ca02c;stroke-opacity:0.7;" x="303.032365" xlink:href="#mf50d202d45" y="295.48447"/>
     <use style="fill:#2ca02c;fill-opacity:0.7;stroke:#2ca02c;stroke-opacity:0.7;" x="316.514696" xlink:href="#mf50d202d45" y="295.48447"/>
     <use style="fill:#2ca02c;fill-opacity:0.7;stroke:#2ca02c;stroke-opacity:0.7;" x="329.997028" xlink:href="#mf50d202d45" y="295.48447"/>
     <use style="fill:#2ca02c;fill-opacity:0.7;stroke:#2ca02c;stroke-opacity:0.7;" x="343.47936" xlink:href="#mf50d202d45" y="295.48447"/>
     <use style="fill:#2ca02c;fill-opacity:0.7;stroke:#2ca02c;stroke-opacity:0.7;" x="356.961691" xlink:href="#mf50d202d45" y="295.48447"/>
     <use style="fill:#2ca02c;fill-opacity:0.7;stroke:#2ca02c;stroke-opacity:0.7;" x="370.444023" xlink:href="#mf50d202d45" y="295.48447"/>
     <use style="fill:#2ca02c;fill-opacity:0.7;stroke:#2ca02c;stroke-opacity:0.7;" x="383.926355" xlink:href="#mf50d202d45" y="295.48447"/>
     <use style="fill:#2ca02c;fill-opacity:0.7;stroke:#2ca02c;stroke-opacity:0.7;" x="397.408686" xlink:href="#mf50d202d45" y="295.48447"/>
    </g>
   </g>
   <g id="line2d_18">
    <path clip-path="url(#p50ad860ec6)" d="M 342.400773 295.488 
L 398.487273 295.488 
L 398.487273 295.304452 
L 342.400773 295.304452 
L 342.400773 295.488 
" style="fill:none;stroke:#000000;stroke-linecap:square;stroke-width:1.5;"/>
   </g>
   <g id="patch_3">
    <path d="M 57.6 307.584 
L 57.6 41.472 
" style="fill:none;stroke:#000000;stroke-linecap:square;stroke-linejoin:miter;stroke-width:0.8;"/>
   </g>
   <g id="patch_4">
    <path d="M 414.72 307.584 
L 414.72 41.472 
" style="fill:none;stroke:#000000;stroke-linecap:square;stroke-linejoin:miter;stroke-width:0.8;"/>
   </g>
   <g id="patch_5">
    <path d="M 57.6 307.584 
L 414.72 307.584 
" style="fill:none;stroke:#000000;stroke-linecap:square;stroke-linejoin:miter;stroke-width:0.8;"/>
   </g>
   <g id="patch_6">
    <path d="M 57.6 41.472 
L 414.72 41.472 
" style="fill:none;stroke:#000000;stroke-linecap:square;stroke-linejoin:miter;stroke-width:0.8;"/>
   </g>
   <g id="legend_1">
    <g id="patch_7">
     <path d="M 311.12 108.322 
L 404.92 108.322 
Q 407.72 108.322 407.72 105.522 
L 407.72 51.272 
Q 407.72 48.472 404.92 48.472 
L 311.12 48.472 
Q 308.32 48.472 308.32 51.272 
L 308.32 105.522 
Q 308.32 108.322 311.12 108.322 
z
" style="fill:#ffffff;opacity:0.8;stroke:#cccccc;stroke-linejoin:miter;"/>
    </g>
    <g id="line2d_19">
     <path d="M 313.92 58.972 
L 341.92 58.972 
" style="fill:none;stroke:#1f77b4;stroke-linecap:square;stroke-opacity:0.7;stroke-width:1.5;"/>
    </g>
    <g id="line2d_20">
     <g>
      <use style="fill:#1f77b4;fill-opacity:0.7;stroke:#1f77b4;stroke-opacity:0.7;" x="327.92" xlink:href="#m1e5cbeb643" y="58.972"/>
     </g>
    </g>
    <g id="text_17">
     <!-- KSP -->
     <defs>
      <path d="M 47.65625 1.953125 
L 37.5 1.953125 
L 19.53125 35.15625 
L 13.28125 26.953125 
L 13.28125 1.953125 
L 4.296875 1.953125 
L 4.296875 68.75 
L 13.28125 68.75 
L 13.28125 39.84375 
L 35.546875 68.75 
L 46.09375 68.75 
L 25.390625 42.578125 
z
" id="SimHei-4b"/>
      <path d="M 45.3125 20.703125 
Q 45.3125 11.71875 39.640625 6.4375 
Q 33.984375 1.171875 24.21875 1.171875 
Q 14.453125 1.171875 8.984375 6.640625 
Q 3.515625 12.109375 3.515625 20.3125 
L 3.515625 23.046875 
L 12.5 23.046875 
L 12.5 20.703125 
Q 12.5 14.84375 16.015625 11.71875 
Q 19.53125 8.59375 24.21875 8.59375 
Q 30.46875 8.59375 33.390625 11.90625 
Q 36.328125 15.234375 36.328125 19.921875 
Q 36.328125 23.828125 32.8125 27.140625 
Q 29.296875 30.46875 22.65625 33.203125 
Q 13.28125 36.71875 9.171875 41.015625 
Q 5.078125 45.3125 5.078125 51.171875 
Q 5.078125 59.375 10.734375 64.453125 
Q 16.40625 69.53125 24.21875 69.53125 
Q 34.375 69.53125 38.859375 63.46875 
Q 43.359375 57.421875 43.359375 50.390625 
L 34.375 50.390625 
Q 34.765625 54.6875 32.03125 58.203125 
Q 29.296875 61.71875 24.21875 61.71875 
Q 19.53125 61.71875 16.796875 59.171875 
Q 14.0625 56.640625 14.0625 52.34375 
Q 14.0625 48.828125 16.203125 46.28125 
Q 18.359375 43.75 27.34375 40.234375 
Q 35.9375 36.71875 40.625 31.828125 
Q 45.3125 26.953125 45.3125 20.703125 
z
" id="SimHei-53"/>
      <path d="M 46.09375 48.4375 
Q 46.09375 39.0625 40.625 33.59375 
Q 35.15625 28.125 25.390625 28.125 
L 14.0625 28.125 
L 14.0625 1.953125 
L 5.078125 1.953125 
L 5.078125 68.75 
L 25.390625 68.75 
Q 35.15625 68.75 40.625 63.28125 
Q 46.09375 57.8125 46.09375 48.4375 
z
M 37.109375 48.4375 
Q 37.109375 55.859375 33.59375 58.59375 
Q 30.078125 61.328125 23.046875 61.328125 
L 14.0625 61.328125 
L 14.0625 35.546875 
L 23.046875 35.546875 
Q 30.078125 35.546875 33.59375 38.28125 
Q 37.109375 41.015625 37.109375 48.4375 
z
" id="SimHei-50"/>
     </defs>
     <g transform="translate(353.12 63.872)scale(0.14 -0.14)">
      <use xlink:href="#SimHei-4b"/>
      <use x="50" xlink:href="#SimHei-53"/>
      <use x="100" xlink:href="#SimHei-50"/>
     </g>
    </g>
    <g id="line2d_21">
     <path d="M 313.92 77.522 
L 341.92 77.522 
" style="fill:none;stroke:#ff7f0e;stroke-linecap:square;stroke-opacity:0.7;stroke-width:1.5;"/>
    </g>
    <g id="line2d_22">
     <g>
      <use style="fill:#ff7f0e;fill-opacity:0.7;stroke:#ff7f0e;stroke-linejoin:miter;stroke-opacity:0.7;" x="327.92" xlink:href="#me5110300c9" y="77.522"/>
     </g>
    </g>
    <g id="text_18">
     <!-- DQN-LFR -->
     <defs>
      <path d="M 45.703125 35.15625 
Q 45.703125 17.1875 38.078125 9.5625 
Q 30.46875 1.953125 17.578125 1.953125 
L 4.296875 1.953125 
L 4.296875 68.75 
L 17.578125 68.75 
Q 32.03125 68.75 38.859375 60.9375 
Q 45.703125 53.125 45.703125 35.15625 
z
M 36.328125 35.15625 
Q 36.328125 49.609375 31.640625 55.46875 
Q 26.953125 61.328125 17.578125 61.328125 
L 13.28125 61.328125 
L 13.28125 9.375 
L 17.578125 9.375 
Q 26.953125 9.375 31.640625 15.03125 
Q 36.328125 20.703125 36.328125 35.15625 
z
" id="SimHei-44"/>
      <path d="M 46.09375 35.546875 
Q 46.09375 26.171875 44.71875 19.71875 
Q 43.359375 13.28125 40.234375 9.375 
L 43.359375 3.515625 
L 37.109375 -3.125 
L 33.59375 3.515625 
Q 32.03125 2.34375 29.6875 1.75 
Q 27.34375 1.171875 24.609375 1.171875 
Q 14.453125 1.171875 8.59375 9.171875 
Q 2.734375 17.1875 2.734375 35.546875 
Q 2.734375 53.90625 8.59375 61.71875 
Q 14.453125 69.53125 24.609375 69.53125 
Q 34.765625 69.53125 40.421875 61.71875 
Q 46.09375 53.90625 46.09375 35.546875 
z
M 36.71875 35.546875 
Q 36.71875 51.953125 33.203125 57.03125 
Q 29.6875 62.109375 24.609375 62.109375 
Q 19.53125 62.109375 15.8125 57.03125 
Q 12.109375 51.953125 12.109375 35.546875 
Q 12.109375 19.140625 15.8125 13.859375 
Q 19.53125 8.59375 24.609375 8.59375 
Q 26.5625 8.59375 28.125 9.171875 
Q 29.6875 9.765625 30.46875 10.546875 
L 24.21875 22.65625 
L 29.6875 29.296875 
L 35.15625 18.75 
Q 35.9375 22.65625 36.328125 25.78125 
Q 36.71875 28.90625 36.71875 35.546875 
z
" id="SimHei-51"/>
      <path d="M 44.53125 1.953125 
L 34.765625 1.953125 
L 13.28125 50.390625 
L 12.890625 50.390625 
L 12.890625 1.953125 
L 3.90625 1.953125 
L 3.90625 68.75 
L 13.671875 68.75 
L 35.15625 20.3125 
L 35.546875 20.3125 
L 35.546875 68.75 
L 44.53125 68.75 
z
" id="SimHei-4e"/>
      <path d="M 46.484375 33.203125 
L 1.953125 33.203125 
L 1.953125 39.453125 
L 46.484375 39.453125 
z
" id="SimHei-2d"/>
      <path d="M 45.3125 1.953125 
L 4.6875 1.953125 
L 4.6875 68.75 
L 13.671875 68.75 
L 13.671875 9.375 
L 45.3125 9.375 
z
" id="SimHei-4c"/>
      <path d="M 45.703125 61.328125 
L 13.671875 61.328125 
L 13.671875 39.453125 
L 37.890625 39.453125 
L 37.890625 32.03125 
L 13.671875 32.03125 
L 13.671875 1.953125 
L 4.6875 1.953125 
L 4.6875 68.75 
L 45.703125 68.75 
z
" id="SimHei-46"/>
      <path d="M 46.875 1.953125 
L 37.5 1.953125 
L 23.4375 30.859375 
L 13.28125 30.859375 
L 13.28125 1.953125 
L 4.296875 1.953125 
L 4.296875 68.75 
L 23.828125 68.75 
Q 33.203125 68.75 39.0625 64.25 
Q 44.921875 59.765625 44.921875 49.609375 
Q 44.921875 41.796875 41.015625 37.5 
Q 37.109375 33.203125 32.03125 32.03125 
z
M 35.9375 49.609375 
Q 35.9375 55.078125 32.609375 58.203125 
Q 29.296875 61.328125 21.875 61.328125 
L 13.28125 61.328125 
L 13.28125 38.28125 
L 24.21875 38.28125 
Q 28.90625 38.28125 32.421875 40.8125 
Q 35.9375 43.359375 35.9375 49.609375 
z
" id="SimHei-52"/>
     </defs>
     <g transform="translate(353.12 82.422)scale(0.14 -0.14)">
      <use xlink:href="#SimHei-44"/>
      <use x="50" xlink:href="#SimHei-51"/>
      <use x="100" xlink:href="#SimHei-4e"/>
      <use x="150" xlink:href="#SimHei-2d"/>
      <use x="200" xlink:href="#SimHei-4c"/>
      <use x="250" xlink:href="#SimHei-46"/>
      <use x="300" xlink:href="#SimHei-52"/>
     </g>
    </g>
    <g id="line2d_23">
     <path d="M 313.92 96.072 
L 341.92 96.072 
" style="fill:none;stroke:#2ca02c;stroke-linecap:square;stroke-opacity:0.7;stroke-width:1.5;"/>
    </g>
    <g id="line2d_24">
     <g>
      <use style="fill:#2ca02c;fill-opacity:0.7;stroke:#2ca02c;stroke-opacity:0.7;" x="327.92" xlink:href="#mf50d202d45" y="96.072"/>
     </g>
    </g>
    <g id="text_19">
     <!-- ILP -->
     <defs>
      <path d="M 28.90625 1.953125 
L 19.921875 1.953125 
L 19.921875 68.75 
L 28.90625 68.75 
z
" id="SimHei-49"/>
     </defs>
     <g transform="translate(353.12 100.972)scale(0.14 -0.14)">
      <use xlink:href="#SimHei-49"/>
      <use x="50" xlink:href="#SimHei-4c"/>
      <use x="100" xlink:href="#SimHei-50"/>
     </g>
    </g>
   </g>
  </g>
  <g id="axes_2">
   <g id="patch_8">
    <path d="M 169.736 222.7504 
L 341.1536 222.7504 
L 341.1536 126.95008 
L 169.736 126.95008 
z
" style="fill:#ffffff;"/>
   </g>
   <g id="patch_9">
    <path d="M 169.736 222.7504 
Q 256.068387 259.027426 342.400773 295.304452 
" style="fill:none;stroke:#000000;stroke-linecap:round;"/>
   </g>
   <g id="patch_10">
    <path d="M 341.1536 222.7504 
Q 369.820436 259.027426 398.487273 295.304452 
" style="fill:none;stroke:#000000;stroke-linecap:round;"/>
   </g>
   <g id="matplotlib.axis_3">
    <g id="xtick_7">
     <g id="line2d_25">
      <g>
       <use style="stroke:#000000;stroke-width:0.8;" x="173.032492" xlink:href="#mbc4e498777" y="222.7504"/>
      </g>
     </g>
     <g id="text_20">
      <!-- 42 -->
      <g transform="translate(168.032492 236.6254)scale(0.1 -0.1)">
       <use xlink:href="#SimHei-34"/>
       <use x="50" xlink:href="#SimHei-32"/>
      </g>
     </g>
    </g>
    <g id="xtick_8">
     <g id="line2d_26">
      <g>
       <use style="stroke:#000000;stroke-width:0.8;" x="214.238646" xlink:href="#mbc4e498777" y="222.7504"/>
      </g>
     </g>
     <g id="text_21">
      <!-- 44 -->
      <g transform="translate(209.238646 236.6254)scale(0.1 -0.1)">
       <use xlink:href="#SimHei-34"/>
       <use x="50" xlink:href="#SimHei-34"/>
      </g>
     </g>
    </g>
    <g id="xtick_9">
     <g id="line2d_27">
      <g>
       <use style="stroke:#000000;stroke-width:0.8;" x="255.4448" xlink:href="#mbc4e498777" y="222.7504"/>
      </g>
     </g>
     <g id="text_22">
      <!-- 46 -->
      <defs>
       <path d="M 3.515625 19.53125 
Q 4.296875 30.859375 6.046875 34.765625 
Q 7.8125 38.671875 11.328125 44.53125 
L 27.34375 69.53125 
L 36.328125 69.53125 
L 19.921875 43.75 
Q 30.46875 46.484375 36.71875 42.96875 
Q 42.96875 39.453125 45.109375 34.953125 
Q 47.265625 30.46875 47.453125 25.1875 
Q 47.65625 19.921875 45.890625 14.84375 
Q 44.140625 9.765625 39.640625 5.65625 
Q 35.15625 1.5625 27.140625 1.171875 
Q 19.140625 0.78125 13.46875 4.09375 
Q 7.8125 7.421875 5.65625 13.46875 
Q 3.515625 19.53125 4.296875 30.859375 
z
M 12.5 16.015625 
Q 19.53125 8.59375 25.390625 8.203125 
Q 31.25 7.8125 35.15625 12.109375 
Q 39.0625 16.40625 39.0625 24.609375 
Q 39.0625 32.8125 34.171875 35.9375 
Q 29.296875 39.0625 23.234375 38.28125 
Q 17.1875 37.5 14.453125 32.421875 
Q 11.71875 27.34375 12.109375 21.671875 
Q 12.5 16.015625 19.53125 8.59375 
z
" id="SimHei-36"/>
      </defs>
      <g transform="translate(250.4448 236.6254)scale(0.1 -0.1)">
       <use xlink:href="#SimHei-34"/>
       <use x="50" xlink:href="#SimHei-36"/>
      </g>
     </g>
    </g>
    <g id="xtick_10">
     <g id="line2d_28">
      <g>
       <use style="stroke:#000000;stroke-width:0.8;" x="296.650954" xlink:href="#mbc4e498777" y="222.7504"/>
      </g>
     </g>
     <g id="text_23">
      <!-- 48 -->
      <defs>
       <path d="M 2.734375 16.796875 
Q 2.734375 26.171875 5.078125 30.65625 
Q 7.421875 35.15625 12.890625 37.890625 
Q 8.203125 40.625 6.640625 43.9375 
Q 5.078125 47.265625 4.875 51.5625 
Q 4.6875 55.859375 6.046875 58.984375 
Q 7.421875 62.109375 10.15625 64.84375 
Q 12.890625 67.578125 16.203125 68.546875 
Q 19.53125 69.53125 23.4375 69.53125 
Q 27.34375 69.53125 30.46875 68.75 
Q 33.59375 67.96875 37.109375 65.421875 
Q 40.625 62.890625 42.1875 58.203125 
Q 43.75 53.515625 41.984375 47.265625 
Q 40.234375 41.015625 32.8125 37.5 
Q 39.453125 35.546875 42.1875 31.4375 
Q 44.921875 27.34375 44.921875 21.484375 
Q 44.921875 15.625 43.15625 12.109375 
Q 41.40625 8.59375 39.25 6.25 
Q 37.109375 3.90625 33.390625 2.53125 
Q 29.6875 1.171875 24.015625 1.171875 
Q 18.359375 1.171875 14.25 2.53125 
Q 10.15625 3.90625 7.421875 6.640625 
Q 4.6875 9.375 3.703125 13.078125 
Q 2.734375 16.796875 2.734375 26.171875 
z
M 10.9375 26.5625 
Q 10.546875 17.1875 12.296875 13.671875 
Q 14.0625 10.15625 18.75 9.171875 
Q 23.4375 8.203125 28.515625 9.375 
Q 33.59375 10.546875 35.546875 14.84375 
Q 37.5 19.140625 36.90625 23.4375 
Q 36.328125 27.734375 32.03125 30.65625 
Q 27.734375 33.59375 22.65625 33.203125 
Q 17.578125 32.8125 14.25 29.6875 
Q 10.9375 26.5625 10.546875 17.1875 
z
M 12.109375 56.25 
Q 12.109375 48.4375 14.84375 44.921875 
Q 17.578125 41.40625 23.4375 41.40625 
Q 29.296875 41.40625 32.21875 44.921875 
Q 35.15625 48.4375 34.953125 53.3125 
Q 34.765625 58.203125 31.4375 60.546875 
Q 28.125 62.890625 22.453125 62.5 
Q 16.796875 62.109375 14.453125 59.171875 
Q 12.109375 56.25 12.109375 48.4375 
z
" id="SimHei-38"/>
      </defs>
      <g transform="translate(291.650954 236.6254)scale(0.1 -0.1)">
       <use xlink:href="#SimHei-34"/>
       <use x="50" xlink:href="#SimHei-38"/>
      </g>
     </g>
    </g>
    <g id="xtick_11">
     <g id="line2d_29">
      <g>
       <use style="stroke:#000000;stroke-width:0.8;" x="337.857108" xlink:href="#mbc4e498777" y="222.7504"/>
      </g>
     </g>
     <g id="text_24">
      <!-- 50 -->
      <g transform="translate(332.857108 236.6254)scale(0.1 -0.1)">
       <use xlink:href="#SimHei-35"/>
       <use x="50" xlink:href="#SimHei-30"/>
      </g>
     </g>
    </g>
   </g>
   <g id="matplotlib.axis_4">
    <g id="ytick_9">
     <g id="line2d_30">
      <g>
       <use style="stroke:#000000;stroke-width:0.8;" x="169.736" xlink:href="#m75417c3b6c" y="196.535063"/>
      </g>
     </g>
     <g id="text_25">
      <!-- 30 -->
      <g transform="translate(152.736 199.972563)scale(0.1 -0.1)">
       <use xlink:href="#SimHei-33"/>
       <use x="50" xlink:href="#SimHei-30"/>
      </g>
     </g>
    </g>
    <g id="ytick_10">
     <g id="line2d_31">
      <g>
       <use style="stroke:#000000;stroke-width:0.8;" x="169.736" xlink:href="#m75417c3b6c" y="160.692381"/>
      </g>
     </g>
     <g id="text_26">
      <!-- 31 -->
      <g transform="translate(152.736 164.129881)scale(0.1 -0.1)">
       <use xlink:href="#SimHei-33"/>
       <use x="50" xlink:href="#SimHei-31"/>
      </g>
     </g>
    </g>
   </g>
   <g id="line2d_32">
    <path clip-path="url(#p7ebc8a8aee)" d="M -1 128.792394 
L 8.207877 128.792394 
L 49.414031 128.792394 
L 90.620185 128.792394 
L 131.826338 128.792394 
L 173.032492 128.792394 
L 214.238646 128.792394 
L 255.4448 128.792394 
L 296.650954 128.792394 
L 337.857108 128.792394 
" style="fill:none;stroke:#1f77b4;stroke-linecap:square;stroke-opacity:0.7;stroke-width:1.5;"/>
    <g clip-path="url(#p7ebc8a8aee)">
     <use style="fill:#1f77b4;fill-opacity:0.7;stroke:#1f77b4;stroke-opacity:0.7;" x="-1" xlink:href="#m1e5cbeb643" y="128.792394"/>
     <use style="fill:#1f77b4;fill-opacity:0.7;stroke:#1f77b4;stroke-opacity:0.7;" x="8.207877" xlink:href="#m1e5cbeb643" y="128.792394"/>
     <use style="fill:#1f77b4;fill-opacity:0.7;stroke:#1f77b4;stroke-opacity:0.7;" x="49.414031" xlink:href="#m1e5cbeb643" y="128.792394"/>
     <use style="fill:#1f77b4;fill-opacity:0.7;stroke:#1f77b4;stroke-opacity:0.7;" x="90.620185" xlink:href="#m1e5cbeb643" y="128.792394"/>
     <use style="fill:#1f77b4;fill-opacity:0.7;stroke:#1f77b4;stroke-opacity:0.7;" x="131.826338" xlink:href="#m1e5cbeb643" y="128.792394"/>
     <use style="fill:#1f77b4;fill-opacity:0.7;stroke:#1f77b4;stroke-opacity:0.7;" x="173.032492" xlink:href="#m1e5cbeb643" y="128.792394"/>
     <use style="fill:#1f77b4;fill-opacity:0.7;stroke:#1f77b4;stroke-opacity:0.7;" x="214.238646" xlink:href="#m1e5cbeb643" y="128.792394"/>
     <use style="fill:#1f77b4;fill-opacity:0.7;stroke:#1f77b4;stroke-opacity:0.7;" x="255.4448" xlink:href="#m1e5cbeb643" y="128.792394"/>
     <use style="fill:#1f77b4;fill-opacity:0.7;stroke:#1f77b4;stroke-opacity:0.7;" x="296.650954" xlink:href="#m1e5cbeb643" y="128.792394"/>
     <use style="fill:#1f77b4;fill-opacity:0.7;stroke:#1f77b4;stroke-opacity:0.7;" x="337.857108" xlink:href="#m1e5cbeb643" y="128.792394"/>
    </g>
   </g>
   <g id="line2d_33">
    <path clip-path="url(#p7ebc8a8aee)" d="M -1 196.863415 
L 8.207877 195.101355 
L 49.414031 192.233941 
L 90.620185 206.212587 
L 131.826338 191.15866 
L 173.032492 183.631697 
L 214.238646 210.155282 
L 255.4448 200.477758 
L 296.650954 202.269892 
L 337.857108 196.893489 
" style="fill:none;stroke:#ff7f0e;stroke-linecap:square;stroke-opacity:0.7;stroke-width:1.5;"/>
    <g clip-path="url(#p7ebc8a8aee)">
     <use style="fill:#ff7f0e;fill-opacity:0.7;stroke:#ff7f0e;stroke-linejoin:miter;stroke-opacity:0.7;" x="-1" xlink:href="#me5110300c9" y="196.863415"/>
     <use style="fill:#ff7f0e;fill-opacity:0.7;stroke:#ff7f0e;stroke-linejoin:miter;stroke-opacity:0.7;" x="8.207877" xlink:href="#me5110300c9" y="195.101355"/>
     <use style="fill:#ff7f0e;fill-opacity:0.7;stroke:#ff7f0e;stroke-linejoin:miter;stroke-opacity:0.7;" x="49.414031" xlink:href="#me5110300c9" y="192.233941"/>
     <use style="fill:#ff7f0e;fill-opacity:0.7;stroke:#ff7f0e;stroke-linejoin:miter;stroke-opacity:0.7;" x="90.620185" xlink:href="#me5110300c9" y="206.212587"/>
     <use style="fill:#ff7f0e;fill-opacity:0.7;stroke:#ff7f0e;stroke-linejoin:miter;stroke-opacity:0.7;" x="131.826338" xlink:href="#me5110300c9" y="191.15866"/>
     <use style="fill:#ff7f0e;fill-opacity:0.7;stroke:#ff7f0e;stroke-linejoin:miter;stroke-opacity:0.7;" x="173.032492" xlink:href="#me5110300c9" y="183.631697"/>
     <use style="fill:#ff7f0e;fill-opacity:0.7;stroke:#ff7f0e;stroke-linejoin:miter;stroke-opacity:0.7;" x="214.238646" xlink:href="#me5110300c9" y="210.155282"/>
     <use style="fill:#ff7f0e;fill-opacity:0.7;stroke:#ff7f0e;stroke-linejoin:miter;stroke-opacity:0.7;" x="255.4448" xlink:href="#me5110300c9" y="200.477758"/>
     <use style="fill:#ff7f0e;fill-opacity:0.7;stroke:#ff7f0e;stroke-linejoin:miter;stroke-opacity:0.7;" x="296.650954" xlink:href="#me5110300c9" y="202.269892"/>
     <use style="fill:#ff7f0e;fill-opacity:0.7;stroke:#ff7f0e;stroke-linejoin:miter;stroke-opacity:0.7;" x="337.857108" xlink:href="#me5110300c9" y="196.893489"/>
    </g>
   </g>
   <g id="line2d_34">
    <path clip-path="url(#p7ebc8a8aee)" d="M -1 220.908086 
L 8.207877 220.908086 
L 49.414031 220.908086 
L 90.620185 220.908086 
L 131.826338 220.908086 
L 173.032492 220.908086 
L 214.238646 220.908086 
L 255.4448 220.908086 
L 296.650954 220.908086 
L 337.857108 220.908086 
" style="fill:none;stroke:#2ca02c;stroke-linecap:square;stroke-opacity:0.7;stroke-width:1.5;"/>
    <g clip-path="url(#p7ebc8a8aee)">
     <use style="fill:#2ca02c;fill-opacity:0.7;stroke:#2ca02c;stroke-opacity:0.7;" x="-1" xlink:href="#mf50d202d45" y="220.908086"/>
     <use style="fill:#2ca02c;fill-opacity:0.7;stroke:#2ca02c;stroke-opacity:0.7;" x="8.207877" xlink:href="#mf50d202d45" y="220.908086"/>
     <use style="fill:#2ca02c;fill-opacity:0.7;stroke:#2ca02c;stroke-opacity:0.7;" x="49.414031" xlink:href="#mf50d202d45" y="220.908086"/>
     <use style="fill:#2ca02c;fill-opacity:0.7;stroke:#2ca02c;stroke-opacity:0.7;" x="90.620185" xlink:href="#mf50d202d45" y="220.908086"/>
     <use style="fill:#2ca02c;fill-opacity:0.7;stroke:#2ca02c;stroke-opacity:0.7;" x="131.826338" xlink:href="#mf50d202d45" y="220.908086"/>
     <use style="fill:#2ca02c;fill-opacity:0.7;stroke:#2ca02c;stroke-opacity:0.7;" x="173.032492" xlink:href="#mf50d202d45" y="220.908086"/>
     <use style="fill:#2ca02c;fill-opacity:0.7;stroke:#2ca02c;stroke-opacity:0.7;" x="214.238646" xlink:href="#mf50d202d45" y="220.908086"/>
     <use style="fill:#2ca02c;fill-opacity:0.7;stroke:#2ca02c;stroke-opacity:0.7;" x="255.4448" xlink:href="#mf50d202d45" y="220.908086"/>
     <use style="fill:#2ca02c;fill-opacity:0.7;stroke:#2ca02c;stroke-opacity:0.7;" x="296.650954" xlink:href="#mf50d202d45" y="220.908086"/>
     <use style="fill:#2ca02c;fill-opacity:0.7;stroke:#2ca02c;stroke-opacity:0.7;" x="337.857108" xlink:href="#mf50d202d45" y="220.908086"/>
    </g>
   </g>
   <g id="patch_11">
    <path d="M 169.736 222.7504 
L 169.736 126.95008 
" style="fill:none;stroke:#000000;stroke-linecap:square;stroke-linejoin:miter;stroke-width:0.8;"/>
   </g>
   <g id="patch_12">
    <path d="M 341.1536 222.7504 
L 341.1536 126.95008 
" style="fill:none;stroke:#000000;stroke-linecap:square;stroke-linejoin:miter;stroke-width:0.8;"/>
   </g>
   <g id="patch_13">
    <path d="M 169.736 222.7504 
L 341.1536 222.7504 
" style="fill:none;stroke:#000000;stroke-linecap:square;stroke-linejoin:miter;stroke-width:0.8;"/>
   </g>
   <g id="patch_14">
    <path d="M 169.736 126.95008 
L 341.1536 126.95008 
" style="fill:none;stroke:#000000;stroke-linecap:square;stroke-linejoin:miter;stroke-width:0.8;"/>
   </g>
  </g>
 </g>
 <defs>
  <clipPath id="p50ad860ec6">
   <rect height="266.112" width="357.12" x="57.6" y="41.472"/>
  </clipPath>
  <clipPath id="p7ebc8a8aee">
   <rect height="95.80032" width="171.4176" x="169.736" y="126.95008"/>
  </clipPath>
 </defs>
</svg>
