<?xml version="1.0" encoding="utf-8" standalone="no"?>
<!DOCTYPE svg PUBLIC "-//W3C//DTD SVG 1.1//EN"
  "http://www.w3.org/Graphics/SVG/1.1/DTD/svg11.dtd">
<!-- Created with matplotlib (http://matplotlib.org/) -->
<svg height="345.6pt" version="1.1" viewBox="0 0 460.8 345.6" width="460.8pt" xmlns="http://www.w3.org/2000/svg" xmlns:xlink="http://www.w3.org/1999/xlink">
 <defs>
  <style type="text/css">
*{stroke-linecap:butt;stroke-linejoin:round;}
  </style>
 </defs>
 <g id="figure_1">
  <g id="patch_1">
   <path d="M 0 345.6 
L 460.8 345.6 
L 460.8 0 
L 0 0 
z
" style="fill:#ffffff;"/>
  </g>
  <g id="axes_1">
   <g id="patch_2">
    <path d="M 57.6 307.584 
L 414.72 307.584 
L 414.72 41.472 
L 57.6 41.472 
z
" style="fill:#ffffff;"/>
   </g>
   <g id="matplotlib.axis_1">
    <g id="xtick_1">
     <g id="line2d_1">
      <defs>
       <path d="M 0 0 
L 0 3.5 
" id="mcd1a4e5767" style="stroke:#000000;stroke-width:0.8;"/>
      </defs>
      <g>
       <use style="stroke:#000000;stroke-width:0.8;" x="73.832727" xlink:href="#mcd1a4e5767" y="307.584"/>
      </g>
     </g>
     <g id="text_1">
      <!-- 0 -->
      <defs>
       <path d="M 3.125 29.296875 
Q 3.90625 50 6.4375 56.046875 
Q 8.984375 62.109375 13.671875 66.015625 
Q 18.359375 69.921875 25.1875 69.921875 
Q 32.03125 69.921875 37.109375 64.25 
Q 42.1875 58.59375 43.75 50 
Q 45.3125 41.40625 44.71875 30.265625 
Q 44.140625 19.140625 40.8125 12.109375 
Q 37.5 5.078125 30.859375 2.34375 
Q 24.21875 -0.390625 17.578125 2.921875 
Q 10.9375 6.25 8.203125 11.71875 
Q 5.46875 17.1875 4.296875 23.234375 
Q 3.125 29.296875 3.90625 50 
z
M 12.890625 52.734375 
Q 10.546875 31.25 12.5 22.84375 
Q 14.453125 14.453125 18.9375 10.9375 
Q 23.4375 7.421875 28.125 9.5625 
Q 32.8125 11.71875 34.953125 18.15625 
Q 37.109375 24.609375 37.109375 32.21875 
Q 37.109375 39.84375 36.515625 46.09375 
Q 35.9375 52.34375 33 57.421875 
Q 30.078125 62.5 25.1875 62.6875 
Q 20.3125 62.890625 16.59375 57.8125 
Q 12.890625 52.734375 10.546875 31.25 
z
" id="SimHei-30"/>
      </defs>
      <g transform="translate(71.332727 321.459)scale(0.1 -0.1)">
       <use xlink:href="#SimHei-30"/>
      </g>
     </g>
    </g>
    <g id="xtick_2">
     <g id="line2d_2">
      <g>
       <use style="stroke:#000000;stroke-width:0.8;" x="138.762338" xlink:href="#mcd1a4e5767" y="307.584"/>
      </g>
     </g>
     <g id="text_2">
      <!-- 10 -->
      <defs>
       <path d="M 21.875 56.25 
Q 16.796875 51.171875 8.984375 46.484375 
L 8.984375 53.90625 
Q 18.75 60.546875 25 69.53125 
L 29.6875 69.53125 
L 29.6875 2.34375 
L 21.875 2.34375 
z
" id="SimHei-31"/>
      </defs>
      <g transform="translate(133.762338 321.459)scale(0.1 -0.1)">
       <use xlink:href="#SimHei-31"/>
       <use x="50" xlink:href="#SimHei-30"/>
      </g>
     </g>
    </g>
    <g id="xtick_3">
     <g id="line2d_3">
      <g>
       <use style="stroke:#000000;stroke-width:0.8;" x="203.691948" xlink:href="#mcd1a4e5767" y="307.584"/>
      </g>
     </g>
     <g id="text_3">
      <!-- 20 -->
      <defs>
       <path d="M 4.6875 3.90625 
Q 5.078125 9.765625 10.15625 14.453125 
Q 15.234375 19.140625 23.046875 29.09375 
Q 30.859375 39.0625 33.203125 44.53125 
Q 35.546875 50 34.953125 53.90625 
Q 34.375 57.8125 31.25 60.34375 
Q 28.125 62.890625 24.015625 62.5 
Q 19.921875 62.109375 16.203125 59.375 
Q 12.5 56.640625 10.546875 51.171875 
L 3.125 52.34375 
Q 6.25 61.328125 11.125 65.421875 
Q 16.015625 69.53125 22.65625 69.921875 
Q 26.5625 70.3125 29.6875 69.71875 
Q 32.8125 69.140625 36.125 66.984375 
Q 39.453125 64.84375 41.59375 60.546875 
Q 43.75 56.25 43.15625 50.1875 
Q 42.578125 44.140625 37.109375 35.734375 
Q 31.640625 27.34375 16.015625 9.375 
L 44.140625 9.375 
L 44.140625 2.34375 
L 4.6875 2.34375 
z
" id="SimHei-32"/>
      </defs>
      <g transform="translate(198.691948 321.459)scale(0.1 -0.1)">
       <use xlink:href="#SimHei-32"/>
       <use x="50" xlink:href="#SimHei-30"/>
      </g>
     </g>
    </g>
    <g id="xtick_4">
     <g id="line2d_4">
      <g>
       <use style="stroke:#000000;stroke-width:0.8;" x="268.621559" xlink:href="#mcd1a4e5767" y="307.584"/>
      </g>
     </g>
     <g id="text_4">
      <!-- 30 -->
      <defs>
       <path d="M 3.90625 19.140625 
L 10.9375 20.3125 
Q 12.5 15.234375 16.015625 11.90625 
Q 19.53125 8.59375 24.796875 8.78125 
Q 30.078125 8.984375 33.203125 13.078125 
Q 36.328125 17.1875 35.9375 22.453125 
Q 35.546875 27.734375 31.828125 30.65625 
Q 28.125 33.59375 19.921875 34.765625 
L 19.921875 39.84375 
Q 28.125 40.625 31.828125 44.140625 
Q 35.546875 47.65625 35.15625 53.3125 
Q 34.765625 58.984375 30.078125 61.515625 
Q 25.390625 64.0625 20.109375 62.109375 
Q 14.84375 60.15625 11.71875 51.171875 
L 4.6875 52.34375 
Q 7.03125 59.375 11.125 64.0625 
Q 15.234375 68.75 22.265625 69.53125 
Q 29.296875 70.3125 34.5625 67.765625 
Q 39.84375 65.234375 41.984375 59.953125 
Q 44.140625 54.6875 42.578125 48.4375 
Q 41.015625 42.1875 33.59375 37.5 
Q 39.0625 35.15625 41.984375 30.46875 
Q 44.921875 25.78125 43.9375 18.15625 
Q 42.96875 10.546875 37.109375 5.859375 
Q 31.25 1.171875 23.828125 1.359375 
Q 16.40625 1.5625 10.9375 6.046875 
Q 5.46875 10.546875 3.90625 19.140625 
z
" id="SimHei-33"/>
      </defs>
      <g transform="translate(263.621559 321.459)scale(0.1 -0.1)">
       <use xlink:href="#SimHei-33"/>
       <use x="50" xlink:href="#SimHei-30"/>
      </g>
     </g>
    </g>
    <g id="xtick_5">
     <g id="line2d_5">
      <g>
       <use style="stroke:#000000;stroke-width:0.8;" x="333.551169" xlink:href="#mcd1a4e5767" y="307.584"/>
      </g>
     </g>
     <g id="text_5">
      <!-- 40 -->
      <defs>
       <path d="M 31.25 17.1875 
L 1.171875 17.1875 
L 1.171875 23.828125 
L 32.8125 69.53125 
L 38.671875 69.53125 
L 38.671875 23.828125 
L 48.046875 23.828125 
L 48.046875 17.1875 
L 38.671875 17.1875 
L 38.671875 2.34375 
L 31.25 2.34375 
z
M 31.25 23.828125 
L 31.25 54.6875 
L 9.375 23.828125 
z
" id="SimHei-34"/>
      </defs>
      <g transform="translate(328.551169 321.459)scale(0.1 -0.1)">
       <use xlink:href="#SimHei-34"/>
       <use x="50" xlink:href="#SimHei-30"/>
      </g>
     </g>
    </g>
    <g id="xtick_6">
     <g id="line2d_6">
      <g>
       <use style="stroke:#000000;stroke-width:0.8;" x="398.48078" xlink:href="#mcd1a4e5767" y="307.584"/>
      </g>
     </g>
     <g id="text_6">
      <!-- 50 -->
      <defs>
       <path d="M 8.59375 20.703125 
Q 11.328125 10.15625 17.96875 8.984375 
Q 24.609375 7.8125 28.703125 10.34375 
Q 32.8125 12.890625 34.5625 16.984375 
Q 36.328125 21.09375 36.125 26.171875 
Q 35.9375 31.25 33.390625 34.765625 
Q 30.859375 38.28125 26.953125 39.453125 
Q 23.046875 40.625 18.15625 39.453125 
Q 13.28125 38.28125 10.15625 33.984375 
L 3.515625 34.765625 
Q 4.296875 37.109375 10.9375 68.359375 
L 41.796875 68.359375 
L 41.796875 61.328125 
L 16.796875 61.328125 
Q 14.84375 50.78125 12.890625 44.53125 
Q 18.75 47.265625 23.828125 47.0625 
Q 28.90625 46.875 33.59375 44.71875 
Q 38.28125 42.578125 40.421875 38.859375 
Q 42.578125 35.15625 43.546875 31.4375 
Q 44.53125 27.734375 44.328125 23.4375 
Q 44.140625 19.140625 42.578125 14.640625 
Q 41.015625 10.15625 37.890625 7.21875 
Q 34.765625 4.296875 30.265625 2.53125 
Q 25.78125 0.78125 19.921875 1.171875 
Q 14.0625 1.5625 8.78125 5.46875 
Q 3.515625 9.375 1.5625 18.75 
z
" id="SimHei-35"/>
      </defs>
      <g transform="translate(393.48078 321.459)scale(0.1 -0.1)">
       <use xlink:href="#SimHei-35"/>
       <use x="50" xlink:href="#SimHei-30"/>
      </g>
     </g>
    </g>
    <g id="text_7">
     <!-- Episode/k -->
     <defs>
      <path d="M 45.3125 1.953125 
L 5.46875 1.953125 
L 5.46875 68.75 
L 43.359375 68.75 
L 43.359375 61.328125 
L 14.453125 61.328125 
L 14.453125 40.625 
L 41.015625 40.625 
L 41.015625 33.203125 
L 14.453125 33.203125 
L 14.453125 9.375 
L 45.3125 9.375 
z
" id="SimHei-45"/>
      <path d="M 44.140625 23.828125 
Q 44.140625 12.5 38.671875 6.640625 
Q 33.203125 0.78125 25.390625 0.78125 
Q 21.09375 0.78125 17.96875 2.53125 
Q 14.84375 4.296875 12.5 7.8125 
L 12.5 -12.5 
L 4.6875 -12.5 
L 4.6875 45.703125 
L 12.5 45.703125 
L 12.5 39.84375 
Q 14.84375 43.359375 17.96875 44.921875 
Q 21.09375 46.484375 25.390625 46.484375 
Q 33.203125 46.484375 38.671875 40.8125 
Q 44.140625 35.15625 44.140625 23.828125 
z
M 35.546875 23.828125 
Q 35.546875 31.25 32.609375 35.34375 
Q 29.6875 39.453125 23.828125 39.453125 
Q 19.140625 39.453125 15.8125 35.34375 
Q 12.5 31.25 12.5 23.828125 
Q 12.5 16.40625 15.8125 12.109375 
Q 19.140625 7.8125 23.828125 7.8125 
Q 29.6875 7.8125 32.609375 12.109375 
Q 35.546875 16.40625 35.546875 23.828125 
z
" id="SimHei-70"/>
      <path d="M 28.125 58.203125 
L 20.3125 58.203125 
L 20.3125 68.359375 
L 28.125 68.359375 
z
M 28.125 1.953125 
L 20.3125 1.953125 
L 20.3125 45.703125 
L 28.125 45.703125 
z
" id="SimHei-69"/>
      <path d="M 42.96875 14.0625 
Q 42.96875 7.8125 38.078125 4.484375 
Q 33.203125 1.171875 25.78125 1.171875 
Q 16.40625 1.171875 11.328125 4.875 
Q 6.25 8.59375 6.25 15.625 
L 14.0625 15.625 
Q 14.0625 10.9375 17.375 9.375 
Q 20.703125 7.8125 25.390625 7.8125 
Q 30.078125 7.8125 32.421875 9.5625 
Q 34.765625 11.328125 34.765625 14.0625 
Q 34.765625 16.015625 32.8125 17.96875 
Q 30.859375 19.921875 23.046875 21.09375 
Q 14.0625 22.265625 10.734375 25.578125 
Q 7.421875 28.90625 7.421875 34.375 
Q 7.421875 39.0625 11.90625 42.765625 
Q 16.40625 46.484375 25 46.484375 
Q 32.8125 46.484375 37.296875 42.96875 
Q 41.796875 39.453125 41.796875 33.59375 
L 33.984375 33.59375 
Q 33.984375 37.109375 31.4375 38.46875 
Q 28.90625 39.84375 25 39.84375 
Q 19.921875 39.84375 17.765625 38.078125 
Q 15.625 36.328125 15.625 33.984375 
Q 15.625 31.25 17.578125 29.6875 
Q 19.53125 28.125 25.78125 27.34375 
Q 35.9375 25.78125 39.453125 22.453125 
Q 42.96875 19.140625 42.96875 14.0625 
z
" id="SimHei-73"/>
      <path d="M 45.703125 23.828125 
Q 45.703125 13.671875 39.453125 7.421875 
Q 33.203125 1.171875 24.609375 1.171875 
Q 16.015625 1.171875 9.765625 7.421875 
Q 3.515625 13.671875 3.515625 23.828125 
Q 3.515625 33.984375 9.765625 40.234375 
Q 16.015625 46.484375 24.609375 46.484375 
Q 33.203125 46.484375 39.453125 40.234375 
Q 45.703125 33.984375 45.703125 23.828125 
z
M 37.109375 23.828125 
Q 37.109375 31.640625 33.203125 35.546875 
Q 29.296875 39.453125 24.609375 39.453125 
Q 19.921875 39.453125 16.015625 35.546875 
Q 12.109375 31.640625 12.109375 23.828125 
Q 12.109375 16.015625 16.015625 12.109375 
Q 19.921875 8.203125 24.609375 8.203125 
Q 29.296875 8.203125 33.203125 12.109375 
Q 37.109375 16.015625 37.109375 23.828125 
z
" id="SimHei-6f"/>
      <path d="M 42.96875 1.953125 
L 35.15625 1.953125 
L 35.15625 7.8125 
Q 32.8125 4.296875 29.6875 2.734375 
Q 26.5625 1.171875 22.265625 1.171875 
Q 14.453125 1.171875 8.984375 6.828125 
Q 3.515625 12.5 3.515625 23.828125 
Q 3.515625 35.15625 8.984375 41.015625 
Q 14.453125 46.875 22.265625 46.875 
Q 26.5625 46.875 29.6875 45.109375 
Q 32.8125 43.359375 35.15625 39.84375 
L 35.15625 68.75 
L 42.96875 68.75 
z
M 35.15625 23.828125 
Q 35.15625 31.25 31.828125 35.546875 
Q 28.515625 39.84375 23.828125 39.84375 
Q 17.96875 39.84375 15.03125 35.546875 
Q 12.109375 31.25 12.109375 23.828125 
Q 12.109375 16.40625 15.03125 12.296875 
Q 17.96875 8.203125 23.828125 8.203125 
Q 28.515625 8.203125 31.828125 12.296875 
Q 35.15625 16.40625 35.15625 23.828125 
z
" id="SimHei-64"/>
      <path d="M 44.53125 16.796875 
Q 43.75 9.765625 38.28125 5.46875 
Q 32.8125 1.171875 25.390625 1.171875 
Q 16.015625 1.171875 9.953125 7.21875 
Q 3.90625 13.28125 3.90625 23.828125 
Q 3.90625 34.375 9.953125 40.421875 
Q 16.015625 46.484375 25.390625 46.484375 
Q 33.59375 46.484375 38.859375 41.203125 
Q 44.140625 35.9375 44.140625 23.828125 
L 12.5 23.828125 
Q 12.5 15.234375 16.203125 11.71875 
Q 19.921875 8.203125 25.390625 8.203125 
Q 29.6875 8.203125 32.421875 10.34375 
Q 35.15625 12.5 35.9375 16.796875 
z
M 35.15625 30.078125 
Q 34.375 35.546875 31.640625 37.6875 
Q 28.90625 39.84375 24.609375 39.84375 
Q 20.703125 39.84375 17.578125 37.6875 
Q 14.453125 35.546875 12.890625 30.078125 
z
" id="SimHei-65"/>
      <path d="M 46.875 71.09375 
L 5.46875 -2.734375 
L 1.5625 -0.390625 
L 42.96875 73.4375 
z
" id="SimHei-2f"/>
      <path d="M 45.703125 1.953125 
L 36.71875 1.953125 
L 22.65625 25.78125 
L 13.671875 17.1875 
L 13.671875 1.953125 
L 5.859375 1.953125 
L 5.859375 68.75 
L 13.671875 68.75 
L 13.671875 26.171875 
L 33.203125 45.703125 
L 42.96875 45.703125 
L 27.734375 30.859375 
z
" id="SimHei-6b"/>
     </defs>
     <g transform="translate(206.91 336.255875)scale(0.13 -0.13)">
      <use xlink:href="#SimHei-45"/>
      <use x="50" xlink:href="#SimHei-70"/>
      <use x="100" xlink:href="#SimHei-69"/>
      <use x="150" xlink:href="#SimHei-73"/>
      <use x="200" xlink:href="#SimHei-6f"/>
      <use x="250" xlink:href="#SimHei-64"/>
      <use x="300" xlink:href="#SimHei-65"/>
      <use x="350" xlink:href="#SimHei-2f"/>
      <use x="400" xlink:href="#SimHei-6b"/>
     </g>
    </g>
   </g>
   <g id="matplotlib.axis_2">
    <g id="ytick_1">
     <g id="line2d_7">
      <defs>
       <path d="M 0 0 
L -3.5 0 
" id="m7f7dd20a34" style="stroke:#000000;stroke-width:0.8;"/>
      </defs>
      <g>
       <use style="stroke:#000000;stroke-width:0.8;" x="57.6" xlink:href="#m7f7dd20a34" y="307.848722"/>
      </g>
     </g>
     <g id="text_8">
      <!-- -60000 -->
      <defs>
       <path d="M 46.484375 33.203125 
L 1.953125 33.203125 
L 1.953125 39.453125 
L 46.484375 39.453125 
z
" id="SimHei-2d"/>
       <path d="M 3.515625 19.53125 
Q 4.296875 30.859375 6.046875 34.765625 
Q 7.8125 38.671875 11.328125 44.53125 
L 27.34375 69.53125 
L 36.328125 69.53125 
L 19.921875 43.75 
Q 30.46875 46.484375 36.71875 42.96875 
Q 42.96875 39.453125 45.109375 34.953125 
Q 47.265625 30.46875 47.453125 25.1875 
Q 47.65625 19.921875 45.890625 14.84375 
Q 44.140625 9.765625 39.640625 5.65625 
Q 35.15625 1.5625 27.140625 1.171875 
Q 19.140625 0.78125 13.46875 4.09375 
Q 7.8125 7.421875 5.65625 13.46875 
Q 3.515625 19.53125 4.296875 30.859375 
z
M 12.5 16.015625 
Q 19.53125 8.59375 25.390625 8.203125 
Q 31.25 7.8125 35.15625 12.109375 
Q 39.0625 16.40625 39.0625 24.609375 
Q 39.0625 32.8125 34.171875 35.9375 
Q 29.296875 39.0625 23.234375 38.28125 
Q 17.1875 37.5 14.453125 32.421875 
Q 11.71875 27.34375 12.109375 21.671875 
Q 12.5 16.015625 19.53125 8.59375 
z
" id="SimHei-36"/>
      </defs>
      <g transform="translate(20.6 311.286222)scale(0.1 -0.1)">
       <use xlink:href="#SimHei-2d"/>
       <use x="50" xlink:href="#SimHei-36"/>
       <use x="100" xlink:href="#SimHei-30"/>
       <use x="150" xlink:href="#SimHei-30"/>
       <use x="200" xlink:href="#SimHei-30"/>
       <use x="250" xlink:href="#SimHei-30"/>
      </g>
     </g>
    </g>
    <g id="ytick_2">
     <g id="line2d_8">
      <g>
       <use style="stroke:#000000;stroke-width:0.8;" x="57.6" xlink:href="#m7f7dd20a34" y="265.468602"/>
      </g>
     </g>
     <g id="text_9">
      <!-- -50000 -->
      <g transform="translate(20.6 268.906102)scale(0.1 -0.1)">
       <use xlink:href="#SimHei-2d"/>
       <use x="50" xlink:href="#SimHei-35"/>
       <use x="100" xlink:href="#SimHei-30"/>
       <use x="150" xlink:href="#SimHei-30"/>
       <use x="200" xlink:href="#SimHei-30"/>
       <use x="250" xlink:href="#SimHei-30"/>
      </g>
     </g>
    </g>
    <g id="ytick_3">
     <g id="line2d_9">
      <g>
       <use style="stroke:#000000;stroke-width:0.8;" x="57.6" xlink:href="#m7f7dd20a34" y="223.088481"/>
      </g>
     </g>
     <g id="text_10">
      <!-- -40000 -->
      <g transform="translate(20.6 226.525981)scale(0.1 -0.1)">
       <use xlink:href="#SimHei-2d"/>
       <use x="50" xlink:href="#SimHei-34"/>
       <use x="100" xlink:href="#SimHei-30"/>
       <use x="150" xlink:href="#SimHei-30"/>
       <use x="200" xlink:href="#SimHei-30"/>
       <use x="250" xlink:href="#SimHei-30"/>
      </g>
     </g>
    </g>
    <g id="ytick_4">
     <g id="line2d_10">
      <g>
       <use style="stroke:#000000;stroke-width:0.8;" x="57.6" xlink:href="#m7f7dd20a34" y="180.708361"/>
      </g>
     </g>
     <g id="text_11">
      <!-- -30000 -->
      <g transform="translate(20.6 184.145861)scale(0.1 -0.1)">
       <use xlink:href="#SimHei-2d"/>
       <use x="50" xlink:href="#SimHei-33"/>
       <use x="100" xlink:href="#SimHei-30"/>
       <use x="150" xlink:href="#SimHei-30"/>
       <use x="200" xlink:href="#SimHei-30"/>
       <use x="250" xlink:href="#SimHei-30"/>
      </g>
     </g>
    </g>
    <g id="ytick_5">
     <g id="line2d_11">
      <g>
       <use style="stroke:#000000;stroke-width:0.8;" x="57.6" xlink:href="#m7f7dd20a34" y="138.328241"/>
      </g>
     </g>
     <g id="text_12">
      <!-- -20000 -->
      <g transform="translate(20.6 141.765741)scale(0.1 -0.1)">
       <use xlink:href="#SimHei-2d"/>
       <use x="50" xlink:href="#SimHei-32"/>
       <use x="100" xlink:href="#SimHei-30"/>
       <use x="150" xlink:href="#SimHei-30"/>
       <use x="200" xlink:href="#SimHei-30"/>
       <use x="250" xlink:href="#SimHei-30"/>
      </g>
     </g>
    </g>
    <g id="ytick_6">
     <g id="line2d_12">
      <g>
       <use style="stroke:#000000;stroke-width:0.8;" x="57.6" xlink:href="#m7f7dd20a34" y="95.94812"/>
      </g>
     </g>
     <g id="text_13">
      <!-- -10000 -->
      <g transform="translate(20.6 99.38562)scale(0.1 -0.1)">
       <use xlink:href="#SimHei-2d"/>
       <use x="50" xlink:href="#SimHei-31"/>
       <use x="100" xlink:href="#SimHei-30"/>
       <use x="150" xlink:href="#SimHei-30"/>
       <use x="200" xlink:href="#SimHei-30"/>
       <use x="250" xlink:href="#SimHei-30"/>
      </g>
     </g>
    </g>
    <g id="ytick_7">
     <g id="line2d_13">
      <g>
       <use style="stroke:#000000;stroke-width:0.8;" x="57.6" xlink:href="#m7f7dd20a34" y="53.568"/>
      </g>
     </g>
     <g id="text_14">
      <!-- 0 -->
      <g transform="translate(45.6 57.0055)scale(0.1 -0.1)">
       <use xlink:href="#SimHei-30"/>
      </g>
     </g>
    </g>
    <g id="text_15">
     <!-- Cumulative -->
     <defs>
      <path d="M 46.484375 28.515625 
Q 46.09375 13.671875 40.234375 7.421875 
Q 34.375 1.171875 26.171875 1.171875 
Q 16.796875 1.171875 10.15625 8.78125 
Q 3.515625 16.40625 3.515625 33.203125 
Q 3.515625 51.5625 9.953125 60.546875 
Q 16.40625 69.53125 26.5625 69.53125 
Q 35.15625 69.53125 40.8125 63.078125 
Q 46.484375 56.640625 46.09375 44.921875 
L 37.5 44.921875 
Q 37.5 53.515625 34.765625 57.8125 
Q 32.03125 62.109375 26.5625 62.109375 
Q 20.3125 62.109375 16.59375 55.65625 
Q 12.890625 49.21875 12.890625 33.984375 
Q 12.890625 19.921875 16.59375 14.25 
Q 20.3125 8.59375 26.171875 8.59375 
Q 30.46875 8.59375 33.984375 12.6875 
Q 37.5 16.796875 37.5 28.515625 
z
" id="SimHei-43"/>
      <path d="M 43.75 1.953125 
L 35.9375 1.953125 
L 35.9375 10.15625 
Q 32.8125 5.859375 29.09375 3.515625 
Q 25.390625 1.171875 19.53125 1.171875 
Q 12.5 1.171875 8.984375 5.078125 
Q 5.46875 8.984375 5.46875 14.84375 
L 5.46875 45.703125 
L 13.28125 45.703125 
L 13.28125 17.578125 
Q 13.28125 12.890625 15.625 10.15625 
Q 17.96875 7.421875 21.875 7.421875 
Q 26.953125 7.421875 31.4375 12.6875 
Q 35.9375 17.96875 35.9375 25.78125 
L 35.9375 45.703125 
L 43.75 45.703125 
z
" id="SimHei-75"/>
      <path d="M 47.65625 1.953125 
L 39.84375 1.953125 
L 39.84375 33.59375 
Q 39.84375 35.9375 39.0625 37.5 
Q 38.28125 39.0625 35.9375 39.0625 
Q 33.203125 39.0625 30.859375 36.125 
Q 28.515625 33.203125 28.515625 28.515625 
L 28.515625 1.953125 
L 20.703125 1.953125 
L 20.703125 33.59375 
Q 20.703125 35.9375 19.921875 37.5 
Q 19.140625 39.0625 16.796875 39.0625 
Q 14.0625 39.0625 11.71875 36.125 
Q 9.375 33.203125 9.375 28.515625 
L 9.375 1.953125 
L 1.5625 1.953125 
L 1.5625 45.703125 
L 9.375 45.703125 
L 9.375 39.84375 
Q 11.328125 42.96875 14.0625 44.71875 
Q 16.796875 46.484375 19.921875 46.484375 
Q 23.046875 46.484375 25.1875 44.71875 
Q 27.34375 42.96875 28.125 39.84375 
Q 30.078125 42.96875 32.609375 44.71875 
Q 35.15625 46.484375 38.28125 46.484375 
Q 42.96875 46.484375 45.3125 43.9375 
Q 47.65625 41.40625 47.65625 36.71875 
z
" id="SimHei-6d"/>
      <path d="M 28.515625 1.953125 
L 20.703125 1.953125 
L 20.703125 68.75 
L 28.515625 68.75 
z
" id="SimHei-6c"/>
      <path d="M 44.921875 1.953125 
L 35.546875 1.953125 
Q 34.765625 2.734375 34.375 4.09375 
Q 33.984375 5.46875 33.984375 7.421875 
Q 31.25 4.296875 27.34375 2.734375 
Q 23.4375 1.171875 19.140625 1.171875 
Q 12.890625 1.171875 8.59375 4.296875 
Q 4.296875 7.421875 4.296875 13.28125 
Q 4.296875 19.140625 8.203125 22.65625 
Q 12.109375 26.171875 20.3125 27.34375 
Q 25.78125 28.125 29.875 29.296875 
Q 33.984375 30.46875 33.984375 32.421875 
Q 33.984375 34.765625 32.21875 37.109375 
Q 30.46875 39.453125 24.609375 39.453125 
Q 19.921875 39.453125 17.765625 37.6875 
Q 15.625 35.9375 14.84375 32.8125 
L 6.25 32.8125 
Q 7.03125 39.0625 11.90625 42.765625 
Q 16.796875 46.484375 24.609375 46.484375 
Q 33.203125 46.484375 37.5 42.578125 
Q 41.796875 38.671875 41.796875 31.640625 
L 41.796875 10.15625 
Q 41.796875 7.8125 42.578125 5.859375 
Q 43.359375 3.90625 44.921875 1.953125 
z
M 33.984375 16.40625 
L 33.984375 24.21875 
Q 31.640625 23.4375 29.484375 22.84375 
Q 27.34375 22.265625 22.265625 21.484375 
Q 16.40625 20.703125 14.640625 18.75 
Q 12.890625 16.796875 12.890625 14.0625 
Q 12.890625 11.71875 14.640625 9.953125 
Q 16.40625 8.203125 19.921875 8.203125 
Q 23.4375 8.203125 27.53125 10.15625 
Q 31.640625 12.109375 33.984375 16.40625 
z
" id="SimHei-61"/>
      <path d="M 42.96875 3.125 
Q 41.015625 2.34375 38.46875 1.75 
Q 35.9375 1.171875 31.640625 1.171875 
Q 24.609375 1.171875 20.3125 5.078125 
Q 16.015625 8.984375 16.015625 16.015625 
L 16.015625 39.453125 
L 2.734375 39.453125 
L 2.734375 45.703125 
L 16.015625 45.703125 
L 16.015625 60.9375 
L 23.828125 60.9375 
L 23.828125 45.703125 
L 39.84375 45.703125 
L 39.84375 39.453125 
L 23.828125 39.453125 
L 23.828125 15.625 
Q 23.828125 12.5 25.390625 10.34375 
Q 26.953125 8.203125 31.25 8.203125 
Q 35.546875 8.203125 38.28125 8.984375 
Q 41.015625 9.765625 42.96875 10.9375 
z
" id="SimHei-74"/>
      <path d="M 44.921875 45.703125 
L 28.515625 1.171875 
L 19.921875 1.171875 
L 3.515625 45.703125 
L 11.71875 45.703125 
L 23.828125 11.71875 
L 24.609375 11.71875 
L 36.71875 45.703125 
z
" id="SimHei-76"/>
     </defs>
     <g transform="translate(14.975 207.028)rotate(-90)scale(0.13 -0.13)">
      <use xlink:href="#SimHei-43"/>
      <use x="50" xlink:href="#SimHei-75"/>
      <use x="100" xlink:href="#SimHei-6d"/>
      <use x="150" xlink:href="#SimHei-75"/>
      <use x="200" xlink:href="#SimHei-6c"/>
      <use x="250" xlink:href="#SimHei-61"/>
      <use x="300" xlink:href="#SimHei-74"/>
      <use x="350" xlink:href="#SimHei-69"/>
      <use x="400" xlink:href="#SimHei-76"/>
      <use x="450" xlink:href="#SimHei-65"/>
     </g>
    </g>
   </g>
   <g id="line2d_14">
    <path clip-path="url(#p8a6b97ca84)" d="M 73.832727 53.568 
L 73.910643 53.830855 
L 74.144389 54.999176 
L 74.663826 57.269573 
L 74.832643 58.222216 
L 74.981981 58.656953 
L 75.105348 59.235958 
L 75.728672 62.060321 
L 75.735165 62.056359 
L 75.748151 62.159081 
L 76.098771 63.741583 
L 76.144221 63.884206 
L 76.280574 64.547799 
L 76.287067 64.54655 
L 76.468869 65.378058 
L 76.605222 66.378039 
L 76.611715 66.37414 
L 77.540208 71.436167 
L 77.546701 71.432404 
L 77.598645 71.685187 
L 77.611631 71.676314 
L 77.799926 72.557577 
L 77.806419 72.555731 
L 77.819405 72.655654 
L 78.059645 73.979712 
L 78.260927 74.886614 
L 78.715434 76.94679 
L 78.884251 78.509406 
L 78.942688 78.762483 
L 79.066054 79.886329 
L 79.18942 80.42039 
L 80.371139 88.111861 
L 80.41659 88.357688 
L 80.578914 89.349034 
L 80.663322 89.617244 
L 80.832139 90.980026 
L 80.87759 91.168195 
L 81.007449 91.806206 
L 81.156787 92.611494 
L 81.832055 96.360288 
L 81.981393 97.360556 
L 82.059309 97.578821 
L 82.208647 98.20954 
L 82.870929 102.431015 
L 82.896901 102.500472 
L 83.098183 103.969522 
L 83.104676 103.966376 
L 83.13714 104.098871 
L 83.546197 107.812102 
L 83.55269 107.808197 
L 83.591648 107.840371 
L 83.598141 107.880929 
L 84.026676 111.510468 
L 84.033169 111.506272 
L 84.046155 111.619842 
L 84.176014 112.292679 
L 84.182507 112.292258 
L 84.25393 113.059589 
L 84.65 115.926574 
L 85.708353 122.543888 
L 85.714846 122.54071 
L 85.721339 122.584333 
L 85.909635 124.015265 
L 85.916128 124.014269 
L 85.929114 124.01913 
L 85.935607 124.13014 
L 86.123903 125.565793 
L 87.441974 136.551084 
L 87.623777 137.491249 
L 87.63027 137.48735 
L 87.935439 139.734715 
L 87.941932 139.732215 
L 88.09127 141.508594 
L 88.149706 142.247715 
L 88.279566 144.002177 
L 88.286059 143.998526 
L 88.519805 146.282151 
L 88.526298 146.278379 
L 88.876918 148.887146 
L 89.169101 151.290745 
L 89.402848 152.63312 
L 89.578158 154.031378 
L 89.623609 154.267755 
L 89.935271 157.124939 
L 90.039158 157.88569 
L 90.194989 159.055103 
L 90.649496 162.19647 
L 90.668975 162.315337 
L 90.824806 163.575364 
L 90.831299 163.571168 
L 90.844285 163.694226 
L 90.954666 164.228003 
L 91.175426 166.92527 
L 91.389694 168.616008 
L 93.31161 182.943821 
L 93.324596 183.046693 
L 93.447963 184.038647 
L 93.688202 185.937547 
L 93.863512 188.051953 
L 93.870005 188.052444 
L 94.051808 189.351621 
L 94.084273 189.419145 
L 94.60371 193.686446 
L 94.668639 193.977171 
L 94.792006 195.260607 
L 94.811484 195.404128 
L 95.285471 198.567466 
L 95.447795 199.614014 
L 95.499738 199.971735 
L 95.850358 202.459545 
L 95.856851 202.455929 
L 95.87633 202.576661 
L 96.012682 203.420087 
L 96.019175 203.417182 
L 96.032161 203.512915 
L 96.200978 204.508996 
L 96.259415 204.694847 
L 96.434725 205.234391 
L 96.441218 205.230378 
L 96.460697 205.271863 
L 96.629514 206.353882 
L 97.142457 208.236545 
L 97.27881 208.807887 
L 97.291796 208.808014 
L 97.298289 208.922028 
L 97.62943 211.274841 
L 97.772275 212.080177 
L 97.941092 212.693642 
L 98.103416 213.484902 
L 98.460529 215.946181 
L 98.512472 216.051307 
L 99.233191 219.746817 
L 99.421487 220.679761 
L 99.557839 221.081636 
L 99.616276 221.293417 
L 99.739642 221.862744 
L 99.798079 222.022131 
L 100.038318 223.032617 
L 100.044811 223.02852 
L 100.083769 223.134227 
L 101.025248 227.825491 
L 101.057713 227.887863 
L 101.220037 228.725861 
L 101.310938 229.186547 
L 101.414826 229.587782 
L 101.447291 229.577785 
L 101.473262 229.682547 
L 101.538192 230.089295 
L 101.713502 231.155052 
L 102.142037 232.966517 
L 102.155023 232.960939 
L 102.187488 233.068742 
L 102.317347 233.698948 
L 102.336826 233.690935 
L 102.609531 234.823293 
L 102.752376 236.175902 
L 102.817305 236.261499 
L 103.278306 238.415075 
L 103.291292 238.470603 
L 103.466602 239.210744 
L 103.499066 239.342627 
L 103.628926 239.968376 
L 103.674376 240.116931 
L 103.849686 240.601977 
L 103.862672 240.619693 
L 103.869165 240.706869 
L 104.193813 241.924431 
L 104.219785 242.004924 
L 104.518461 243.688972 
L 104.524954 243.686183 
L 104.550926 243.682055 
L 104.557419 243.73609 
L 104.739222 244.571282 
L 104.745715 244.569351 
L 104.765194 244.675423 
L 105.622265 247.172559 
L 105.745631 247.477187 
L 105.81056 247.562159 
L 106.044307 248.055519 
L 106.16118 248.307935 
L 106.427392 249.163417 
L 106.46635 249.2804 
L 106.654645 249.838228 
L 106.894885 251.18169 
L 106.920857 251.233374 
L 107.063702 251.593338 
L 107.070195 251.59189 
L 107.115646 251.71756 
L 107.823378 253.430168 
L 107.836364 253.423776 
L 107.953238 253.564504 
L 108.167505 254.036439 
L 108.173998 254.03485 
L 108.583055 254.979841 
L 108.758365 255.468196 
L 109.01159 255.879299 
L 109.095999 256.274163 
L 109.141449 256.26642 
L 109.212872 256.397497 
L 109.336238 256.583144 
L 109.524534 256.920262 
L 110.108901 258.234581 
L 110.193309 258.543868 
L 110.407577 259.112516 
L 110.537436 259.383127 
L 110.680281 259.742012 
L 110.732225 259.856338 
L 111.381521 261.648985 
L 111.51138 261.793657 
L 111.771099 262.267881 
L 111.810056 262.289426 
L 111.933423 262.531739 
L 112.154183 262.74295 
L 112.199634 262.846783 
L 112.323 263.1917 
L 112.329493 263.187131 
L 112.543761 263.785419 
L 112.550254 263.781308 
L 112.732057 263.93395 
L 112.881395 264.127678 
L 113.251494 265.038103 
L 113.277466 265.099808 
L 113.407325 265.485442 
L 113.757945 265.949206 
L 113.907283 266.356913 
L 114.335818 266.846992 
L 114.478663 266.992285 
L 114.569565 267.03997 
L 114.576058 267.055462 
L 114.699424 267.224187 
L 114.764354 267.275028 
L 114.894213 267.567154 
L 114.965636 267.616904 
L 115.114974 267.882331 
L 115.160424 267.971688 
L 115.277298 268.174264 
L 115.296777 268.206845 
L 115.420143 268.536446 
L 115.426636 268.533946 
L 115.498058 268.588804 
L 115.627918 268.780851 
L 115.718819 268.842411 
L 115.900622 269.11167 
L 116.140861 269.329439 
L 116.842101 270.347768 
L 116.991439 270.720826 
L 117.10182 270.889362 
L 117.231679 271.004066 
L 117.816045 271.659265 
L 117.958891 271.988625 
L 117.965384 271.986961 
L 118.19913 272.204309 
L 118.322496 272.418122 
L 118.582215 272.548 
L 118.757525 272.615706 
L 118.971792 272.812407 
L 120.536596 274.464883 
L 120.653469 274.56395 
L 120.776836 274.664209 
L 121.010582 274.963293 
L 121.302766 275.467541 
L 121.367695 275.524149 
L 121.504047 275.736715 
L 121.627414 275.909356 
L 121.646892 275.899403 
L 121.705329 275.925455 
L 121.711822 275.960384 
L 121.848174 276.187572 
L 121.965048 276.261911 
L 122.153343 276.352004 
L 122.328653 276.648483 
L 122.542921 276.754102 
L 122.815625 277.076977 
L 123.471414 277.619315 
L 123.588288 277.70962 
L 124.211612 278.23253 
L 124.373936 278.294691 
L 124.484316 278.404507 
L 124.60119 278.519844 
L 124.620669 278.511213 
L 124.757021 278.543345 
L 124.763514 278.555813 
L 125.166077 278.956441 
L 125.295937 279.088509 
L 125.406317 279.176181 
L 125.549162 279.307769 
L 125.581627 279.355149 
L 125.627078 279.388241 
L 125.692007 279.464335 
L 125.841345 279.610316 
L 125.847838 279.607868 
L 125.932247 279.705942 
L 126.068599 279.848848 
L 126.380261 279.970102 
L 126.828275 280.303613 
L 126.951642 280.441901 
L 127.062022 280.526994 
L 127.730797 281.20434 
L 127.80222 281.283673 
L 127.945065 281.40544 
L 128.02298 281.492359 
L 128.217769 281.684783 
L 128.360614 281.755467 
L 128.458009 281.843339 
L 128.652797 281.976373 
L 128.970953 282.223572 
L 129.113798 282.219368 
L 129.126784 282.253339 
L 129.224178 282.284149 
L 130.386418 283.047205 
L 130.490305 283.091359 
L 130.496798 283.112963 
L 130.899362 283.431668 
L 130.98377 283.507379 
L 131.672024 283.951195 
L 132.632983 284.501721 
L 132.899194 284.656533 
L 133.016067 284.718614 
L 133.029053 284.712181 
L 133.19787 284.807162 
L 133.301758 284.944205 
L 133.321236 284.938694 
L 133.444603 284.987995 
L 133.645884 285.119039 
L 133.814701 285.170667 
L 134.041955 285.313032 
L 134.165321 285.393204 
L 136.359942 286.686383 
L 136.496294 286.737958 
L 136.950802 286.945116 
L 137.14559 286.997492 
L 137.288436 287.030396 
L 137.392323 287.112928 
L 137.535168 287.204565 
L 137.574126 287.216288 
L 137.600098 287.280554 
L 137.742943 287.484683 
L 139.18438 288.225522 
L 139.275282 288.302847 
L 140.242733 288.735561 
L 140.424536 288.864019 
L 140.567381 288.927508 
L 140.729705 288.99942 
L 140.885536 289.055661 
L 141.151747 289.138734 
L 141.346536 289.20715 
L 141.476395 289.214197 
L 141.632227 289.258497 
L 142.190621 289.427617 
L 142.352945 289.450441 
L 142.469819 289.513747 
L 142.476311 289.510808 
L 142.956791 289.706665 
L 143.099636 289.752631 
L 143.248974 289.805146 
L 143.664523 290.033654 
L 143.703481 290.074163 
L 143.677509 290.072492 
L 143.72296 290.124915 
L 143.9632 290.194954 
L 144.145002 290.219496 
L 144.320312 290.251459 
L 144.450172 290.375656 
L 144.456665 290.373389 
L 145.437102 291.012949 
L 145.540989 291.078021 
L 145.794215 291.148076 
L 145.93706 291.186658 
L 146.086398 291.26631 
L 146.209764 291.313548 
L 146.216257 291.327832 
L 146.800624 291.636461 
L 146.995412 291.680976 
L 147.183708 291.771836 
L 147.709638 291.834067 
L 147.930399 291.863188 
L 150.358766 292.367592 
L 150.47564 292.468397 
L 150.482132 292.467083 
L 150.644456 292.52153 
L 150.930147 292.647081 
L 151.079485 292.677573 
L 151.293753 292.722702 
L 151.676837 292.717846 
L 151.904091 292.782843 
L 152.027457 292.85891 
L 152.03395 292.855181 
L 152.49495 293.091996 
L 152.644288 293.123736 
L 153.111782 293.21016 
L 153.254627 293.234919 
L 153.410458 293.275327 
L 154.760994 293.544407 
L 154.910332 293.637751 
L 155.442755 293.713694 
L 155.806361 293.778316 
L 156.020628 293.830038 
L 156.202431 293.847718 
L 157.552967 293.937637 
L 157.682826 293.963028 
L 158.007474 294.055666 
L 158.156812 294.076447 
L 158.416531 294.093116 
L 158.591841 294.093477 
L 158.799616 294.113392 
L 158.909996 294.142733 
L 158.916489 294.139533 
L 159.020376 294.166545 
L 159.026869 294.203633 
L 159.150235 294.236941 
L 159.552799 294.38062 
L 159.929391 294.420924 
L 160.241053 294.610128 
L 160.539729 294.613671 
L 160.682574 294.663112 
L 160.689067 294.659404 
L 160.831912 294.688918 
L 160.98125 294.721862 
L 161.169546 294.752284 
L 161.383814 294.801793 
L 161.630547 294.852909 
L 161.935716 294.877565 
L 162.162969 294.892991 
L 162.396716 294.881414 
L 163.273266 294.953522 
L 163.500519 294.943712 
L 163.922562 294.916076 
L 164.052421 294.970502 
L 165.461394 295.031755 
L 165.675661 295.108116 
L 165.954859 295.15565 
L 166.273014 295.155777 
L 166.565197 295.175189 
L 166.896338 295.195411 
L 168.753325 295.245896 
L 168.902663 295.266715 
L 169.064987 295.315201 
L 169.220818 295.304516 
L 169.415607 295.317158 
L 169.525987 295.339141 
L 169.53248 295.335187 
L 169.727269 295.346144 
L 170.071396 295.295376 
L 170.253199 295.29588 
L 170.363579 295.301607 
L 170.714199 295.334553 
L 171.701129 295.317132 
L 171.895918 295.3393 
L 172.110186 295.331105 
L 172.363411 295.304873 
L 172.506256 295.30982 
L 172.655594 295.296089 
L 172.869862 295.295729 
L 173.19451 295.350661 
L 174.012623 295.362284 
L 175.570934 295.357953 
L 175.772216 295.353822 
L 176.324117 295.378064 
L 176.466963 295.410974 
L 176.590329 295.427521 
L 176.895498 295.4129 
L 177.142231 295.468723 
L 177.603231 295.404086 
L 177.765555 295.419396 
L 181.537965 295.264859 
L 181.661331 295.256297 
L 181.985979 295.223082 
L 182.362571 295.188619 
L 182.726177 295.201835 
L 182.959924 295.180722 
L 183.414431 295.221483 
L 183.628699 295.204691 
L 183.771544 295.200275 
L 184.641601 295.253409 
L 184.829896 295.286967 
L 185.174023 295.341311 
L 185.498671 295.378618 
L 185.660995 295.384071 
L 185.816826 295.421383 
L 186.050573 295.41793 
L 186.706362 295.31824 
L 186.894658 295.300317 
L 187.433574 295.352468 
L 187.641349 295.340109 
L 188.310124 295.299672 
L 188.43349 295.290487 
L 188.810082 295.247408 
L 190.141139 295.144426 
L 190.491758 295.077968 
L 190.654082 295.087437 
L 190.978731 295.049448 
L 191.322857 295.00218 
L 196.523719 294.468043 
L 196.653578 294.467829 
L 196.952255 294.459632 
L 198.581988 294.308423 
L 199.023509 294.212677 
L 199.439059 294.176467 
L 199.94551 294.12835 
L 200.133806 294.115902 
L 200.562341 294.048862 
L 200.93244 293.987801 
L 201.237609 293.958542 
L 201.925863 293.849398 
L 202.088187 293.810646 
L 202.66606 293.708249 
L 202.880328 293.685376 
L 203.691948 293.554451 
L 203.8283 293.542089 
L 217.009011 291.652324 
L 217.26873 291.644391 
L 217.424561 291.616574 
L 217.950491 291.531268 
L 218.099829 291.507439 
L 218.333575 291.485183 
L 218.476421 291.456577 
L 218.755618 291.407931 
L 219.210125 291.337497 
L 219.749041 291.244765 
L 219.885393 291.229387 
L 220.223027 291.155316 
L 220.839858 290.988965 
L 221.164506 290.93336 
L 221.612521 290.819873 
L 221.774845 290.815499 
L 221.956648 290.772984 
L 222.508549 290.601272 
L 223.651311 290.409217 
L 224.430466 290.197319 
L 224.644734 290.142134 
L 224.936917 290.079157 
L 225.449861 289.962213 
L 227.125045 289.639115 
L 227.55358 289.517256 
L 227.949651 289.450535 
L 228.306764 289.377918 
L 228.449609 289.362953 
L 229.546919 289.117376 
L 229.728722 289.083492 
L 231.293526 288.74873 
L 231.45585 288.736832 
L 231.80647 288.662593 
L 232.105146 288.599344 
L 232.533681 288.525178 
L 232.819372 288.457947 
L 233.137527 288.378552 
L 233.267386 288.363292 
L 234.449105 288.086005 
L 234.455598 288.143433 
L 234.559485 288.116068 
L 234.695837 288.087777 
L 236.929416 287.558958 
L 237.065768 287.541271 
L 237.474825 287.481127 
L 238.059191 287.366395 
L 238.396825 287.289822 
L 239.117544 287.14803 
L 239.695417 286.991676 
L 240.533009 286.769972 
L 240.851164 286.680172 
L 241.708235 286.481551 
L 242.312081 286.408991 
L 242.435447 286.371477 
L 242.863982 286.246011 
L 243.149673 286.162021 
L 245.29235 285.579609 
L 245.805294 285.475094 
L 247.629816 284.959715 
L 247.999914 284.866545 
L 248.629732 284.689852 
L 248.831013 284.63946 
L 249.921831 284.335878 
L 250.058183 284.288487 
L 250.428282 284.205438 
L 250.597099 284.171815 
L 250.908761 284.086138 
L 251.116536 284.016808 
L 251.73986 283.877372 
L 252.174888 283.744901 
L 252.408635 283.700112 
L 253.700734 283.30854 
L 253.830593 283.277837 
L 254.460411 283.112053 
L 254.791552 283.042049 
L 255.784975 282.753921 
L 255.973271 282.693598 
L 256.271947 282.625557 
L 256.635553 282.50999 
L 257.005651 282.418942 
L 258.14192 282.119934 
L 258.466568 282.03068 
L 259.693737 281.66882 
L 259.927484 281.608332 
L 261.342949 281.189347 
L 261.706555 281.073242 
L 262.90126 280.717121 
L 262.998654 280.720327 
L 263.01164 280.715691 
L 263.342781 280.643948 
L 286.159047 273.530465 
L 286.866779 273.27266 
L 287.061568 273.228765 
L 287.951104 272.935789 
L 288.36016 272.79283 
L 289.074386 272.551596 
L 290.717105 271.999736 
L 293.385712 271.064465 
L 293.742825 270.944928 
L 296.411432 270.067816 
L 296.521812 270.036671 
L 297.281489 269.800698 
L 297.748982 269.637509 
L 299.099518 269.198265 
L 300.034504 268.871159 
L 301.16428 268.523259 
L 301.462956 268.439379 
L 301.930449 268.283507 
L 303.319943 267.778819 
L 303.845872 267.589595 
L 304.008196 267.521822 
L 308.455875 266.065861 
L 316.429231 263.218255 
L 316.935682 263.040125 
L 317.227865 262.929935 
L 318.403091 262.489407 
L 319.714669 262.031859 
L 319.844528 261.998255 
L 320.227613 261.878789 
L 321.571656 261.370057 
L 322.415741 261.040045 
L 323.474094 260.665454 
L 323.863671 260.54059 
L 324.363629 260.365487 
L 325.512883 259.942588 
L 332.349971 257.544597 
L 332.849929 257.372776 
L 333.583634 257.09399 
L 335.239339 256.457273 
L 336.862579 255.862516 
L 337.953397 255.461274 
L 339.888299 254.725849 
L 340.057116 254.665613 
L 344.277541 253.104195 
L 345.946232 252.491001 
L 346.51112 252.286736 
L 348.471994 251.51253 
L 348.783656 251.397354 
L 349.342051 251.182135 
L 349.484896 251.132181 
L 350.127699 250.867943 
L 350.725051 250.626032 
L 353.413137 249.590984 
L 353.718306 249.474877 
L 354.172814 249.301679 
L 354.809124 249.065606 
L 355.990843 248.622053 
L 357.276449 248.113505 
L 357.834844 247.906001 
L 359.69183 247.225564 
L 360.39307 246.975634 
L 361.899437 246.396132 
L 362.54224 246.16132 
L 397.727596 232.49545 
L 398.376892 232.242329 
L 398.487273 232.20453 
L 398.487273 232.20453 
" style="fill:none;stroke:#1f77b4;stroke-linecap:square;stroke-width:1.5;"/>
   </g>
   <g id="patch_3">
    <path d="M 57.6 307.584 
L 57.6 41.472 
" style="fill:none;stroke:#000000;stroke-linecap:square;stroke-linejoin:miter;stroke-width:0.8;"/>
   </g>
   <g id="patch_4">
    <path d="M 414.72 307.584 
L 414.72 41.472 
" style="fill:none;stroke:#000000;stroke-linecap:square;stroke-linejoin:miter;stroke-width:0.8;"/>
   </g>
   <g id="patch_5">
    <path d="M 57.6 307.584 
L 414.72 307.584 
" style="fill:none;stroke:#000000;stroke-linecap:square;stroke-linejoin:miter;stroke-width:0.8;"/>
   </g>
   <g id="patch_6">
    <path d="M 57.6 41.472 
L 414.72 41.472 
" style="fill:none;stroke:#000000;stroke-linecap:square;stroke-linejoin:miter;stroke-width:0.8;"/>
   </g>
   <g id="text_16">
    <!-- α=0.001，γ=0.98 -->
    <defs>
     <path d="M 46.09375 50.78125 
Q 51.5625 51.5625 59.375 44.140625 
L 59.375 50.78125 
L 65.625 50.78125 
L 65.625 10.15625 
Q 64.84375 8.59375 69.53125 8.984375 
L 73.046875 8.984375 
L 73.046875 2.734375 
L 63.671875 2.734375 
Q 59.765625 3.125 58.984375 9.765625 
Q 52.34375 1.171875 43.359375 2.734375 
Q 26.171875 5.859375 26.171875 28.125 
Q 27.34375 45.3125 40.625 50 
z
M 45.703125 44.140625 
Q 32.8125 43.359375 32.421875 26.171875 
Q 33.203125 12.5 43.359375 9.375 
L 48.046875 8.984375 
Q 60.15625 12.890625 59.375 29.6875 
Q 57.421875 41.796875 48.046875 44.140625 
z
" id="SimHei-3b1"/>
     <path d="M 46.484375 45.3125 
L 1.953125 45.3125 
L 1.953125 51.5625 
L 46.484375 51.5625 
z
M 46.484375 21.484375 
L 1.953125 21.484375 
L 1.953125 27.734375 
L 46.484375 27.734375 
z
" id="SimHei-3d"/>
     <path d="M 16.796875 1.953125 
L 7.8125 1.953125 
L 7.8125 10.546875 
L 16.796875 10.546875 
z
" id="SimHei-2e"/>
     <path d="M 13.671875 14.84375 
L 27.734375 14.84375 
L 27.734375 -0.78125 
Q 26.5625 -10.546875 17.96875 -15.234375 
L 14.0625 -11.71875 
Q 21.09375 -7.8125 21.09375 0 
L 13.671875 0 
z
" id="SimHei-ff0c"/>
     <path d="M 27.34375 50 
L 33.203125 50 
Q 36.71875 51.953125 42.1875 37.890625 
L 51.171875 19.53125 
L 62.890625 50 
L 70.3125 50 
L 54.6875 10.15625 
L 54.6875 -11.71875 
L 48.046875 -11.71875 
L 48.046875 11.71875 
L 33.203125 42.578125 
Q 32.8125 43.75 27.34375 43.359375 
z
" id="SimHei-3b3"/>
     <path d="M 12.5 1.171875 
Q 21.09375 15.625 26.5625 27.34375 
Q 16.796875 25.78125 10.34375 29.875 
Q 3.90625 33.984375 2.53125 41.015625 
Q 1.171875 48.046875 2.734375 53.703125 
Q 4.296875 59.375 7.609375 63.078125 
Q 10.9375 66.796875 15.625 68.359375 
Q 20.3125 69.921875 24.015625 69.921875 
Q 27.734375 69.921875 31.640625 68.359375 
Q 35.546875 66.796875 38.671875 63.671875 
Q 41.796875 60.546875 42.96875 57.21875 
Q 44.140625 53.90625 44.140625 48.625 
Q 44.140625 43.359375 40.234375 35.15625 
Q 36.328125 26.953125 21.09375 1.171875 
z
M 9.765625 50 
Q 10.9375 39.84375 14.640625 36.515625 
Q 18.359375 33.203125 22.65625 33.59375 
Q 26.953125 33.984375 29.484375 35.9375 
Q 32.03125 37.890625 34.375 42.578125 
Q 35.9375 48.4375 35.15625 52.53125 
Q 34.375 56.640625 31.046875 59.375 
Q 27.734375 62.109375 23.828125 62.109375 
Q 21.484375 62.5 17.765625 60.9375 
Q 14.0625 59.375 11.90625 54.6875 
Q 9.765625 50 10.9375 39.84375 
z
" id="SimHei-39"/>
     <path d="M 2.734375 16.796875 
Q 2.734375 26.171875 5.078125 30.65625 
Q 7.421875 35.15625 12.890625 37.890625 
Q 8.203125 40.625 6.640625 43.9375 
Q 5.078125 47.265625 4.875 51.5625 
Q 4.6875 55.859375 6.046875 58.984375 
Q 7.421875 62.109375 10.15625 64.84375 
Q 12.890625 67.578125 16.203125 68.546875 
Q 19.53125 69.53125 23.4375 69.53125 
Q 27.34375 69.53125 30.46875 68.75 
Q 33.59375 67.96875 37.109375 65.421875 
Q 40.625 62.890625 42.1875 58.203125 
Q 43.75 53.515625 41.984375 47.265625 
Q 40.234375 41.015625 32.8125 37.5 
Q 39.453125 35.546875 42.1875 31.4375 
Q 44.921875 27.34375 44.921875 21.484375 
Q 44.921875 15.625 43.15625 12.109375 
Q 41.40625 8.59375 39.25 6.25 
Q 37.109375 3.90625 33.390625 2.53125 
Q 29.6875 1.171875 24.015625 1.171875 
Q 18.359375 1.171875 14.25 2.53125 
Q 10.15625 3.90625 7.421875 6.640625 
Q 4.6875 9.375 3.703125 13.078125 
Q 2.734375 16.796875 2.734375 26.171875 
z
M 10.9375 26.5625 
Q 10.546875 17.1875 12.296875 13.671875 
Q 14.0625 10.15625 18.75 9.171875 
Q 23.4375 8.203125 28.515625 9.375 
Q 33.59375 10.546875 35.546875 14.84375 
Q 37.5 19.140625 36.90625 23.4375 
Q 36.328125 27.734375 32.03125 30.65625 
Q 27.734375 33.59375 22.65625 33.203125 
Q 17.578125 32.8125 14.25 29.6875 
Q 10.9375 26.5625 10.546875 17.1875 
z
M 12.109375 56.25 
Q 12.109375 48.4375 14.84375 44.921875 
Q 17.578125 41.40625 23.4375 41.40625 
Q 29.296875 41.40625 32.21875 44.921875 
Q 35.15625 48.4375 34.953125 53.3125 
Q 34.765625 58.203125 31.4375 60.546875 
Q 28.125 62.890625 22.453125 62.5 
Q 16.796875 62.109375 14.453125 59.171875 
Q 12.109375 56.25 12.109375 48.4375 
z
" id="SimHei-38"/>
    </defs>
    <g transform="translate(180.91 35.472)scale(0.13 -0.13)">
     <use xlink:href="#SimHei-3b1"/>
     <use x="100" xlink:href="#SimHei-3d"/>
     <use x="150" xlink:href="#SimHei-30"/>
     <use x="200" xlink:href="#SimHei-2e"/>
     <use x="250" xlink:href="#SimHei-30"/>
     <use x="300" xlink:href="#SimHei-30"/>
     <use x="350" xlink:href="#SimHei-31"/>
     <use x="400" xlink:href="#SimHei-ff0c"/>
     <use x="500" xlink:href="#SimHei-3b3"/>
     <use x="600" xlink:href="#SimHei-3d"/>
     <use x="650" xlink:href="#SimHei-30"/>
     <use x="700" xlink:href="#SimHei-2e"/>
     <use x="750" xlink:href="#SimHei-39"/>
     <use x="800" xlink:href="#SimHei-38"/>
    </g>
   </g>
  </g>
 </g>
 <defs>
  <clipPath id="p8a6b97ca84">
   <rect height="266.112" width="357.12" x="57.6" y="41.472"/>
  </clipPath>
 </defs>
</svg>
