<?xml version="1.0" encoding="utf-8" standalone="no"?>
<!DOCTYPE svg PUBLIC "-//W3C//DTD SVG 1.1//EN"
  "http://www.w3.org/Graphics/SVG/1.1/DTD/svg11.dtd">
<!-- Created with matplotlib (http://matplotlib.org/) -->
<svg height="345.6pt" version="1.1" viewBox="0 0 460.8 345.6" width="460.8pt" xmlns="http://www.w3.org/2000/svg" xmlns:xlink="http://www.w3.org/1999/xlink">
 <defs>
  <style type="text/css">
*{stroke-linecap:butt;stroke-linejoin:round;}
  </style>
 </defs>
 <g id="figure_1">
  <g id="patch_1">
   <path d="M 0 345.6 
L 460.8 345.6 
L 460.8 0 
L 0 0 
z
" style="fill:#ffffff;"/>
  </g>
  <g id="axes_1">
   <g id="patch_2">
    <path d="M 57.6 307.584 
L 414.72 307.584 
L 414.72 41.472 
L 57.6 41.472 
z
" style="fill:#ffffff;"/>
   </g>
   <g id="matplotlib.axis_1">
    <g id="xtick_1">
     <g id="line2d_1">
      <defs>
       <path d="M 0 0 
L 0 3.5 
" id="mf6560a273c" style="stroke:#000000;stroke-width:0.8;"/>
      </defs>
      <g>
       <use style="stroke:#000000;stroke-width:0.8;" x="73.832727" xlink:href="#mf6560a273c" y="307.584"/>
      </g>
     </g>
     <g id="text_1">
      <!-- 0 -->
      <defs>
       <path d="M 3.125 29.296875 
Q 3.90625 50 6.4375 56.046875 
Q 8.984375 62.109375 13.671875 66.015625 
Q 18.359375 69.921875 25.1875 69.921875 
Q 32.03125 69.921875 37.109375 64.25 
Q 42.1875 58.59375 43.75 50 
Q 45.3125 41.40625 44.71875 30.265625 
Q 44.140625 19.140625 40.8125 12.109375 
Q 37.5 5.078125 30.859375 2.34375 
Q 24.21875 -0.390625 17.578125 2.921875 
Q 10.9375 6.25 8.203125 11.71875 
Q 5.46875 17.1875 4.296875 23.234375 
Q 3.125 29.296875 3.90625 50 
z
M 12.890625 52.734375 
Q 10.546875 31.25 12.5 22.84375 
Q 14.453125 14.453125 18.9375 10.9375 
Q 23.4375 7.421875 28.125 9.5625 
Q 32.8125 11.71875 34.953125 18.15625 
Q 37.109375 24.609375 37.109375 32.21875 
Q 37.109375 39.84375 36.515625 46.09375 
Q 35.9375 52.34375 33 57.421875 
Q 30.078125 62.5 25.1875 62.6875 
Q 20.3125 62.890625 16.59375 57.8125 
Q 12.890625 52.734375 10.546875 31.25 
z
" id="SimHei-30"/>
      </defs>
      <g transform="translate(71.332727 321.459)scale(0.1 -0.1)">
       <use xlink:href="#SimHei-30"/>
      </g>
     </g>
    </g>
    <g id="xtick_2">
     <g id="line2d_2">
      <g>
       <use style="stroke:#000000;stroke-width:0.8;" x="138.762338" xlink:href="#mf6560a273c" y="307.584"/>
      </g>
     </g>
     <g id="text_2">
      <!-- 10 -->
      <defs>
       <path d="M 21.875 56.25 
Q 16.796875 51.171875 8.984375 46.484375 
L 8.984375 53.90625 
Q 18.75 60.546875 25 69.53125 
L 29.6875 69.53125 
L 29.6875 2.34375 
L 21.875 2.34375 
z
" id="SimHei-31"/>
      </defs>
      <g transform="translate(133.762338 321.459)scale(0.1 -0.1)">
       <use xlink:href="#SimHei-31"/>
       <use x="50" xlink:href="#SimHei-30"/>
      </g>
     </g>
    </g>
    <g id="xtick_3">
     <g id="line2d_3">
      <g>
       <use style="stroke:#000000;stroke-width:0.8;" x="203.691948" xlink:href="#mf6560a273c" y="307.584"/>
      </g>
     </g>
     <g id="text_3">
      <!-- 20 -->
      <defs>
       <path d="M 4.6875 3.90625 
Q 5.078125 9.765625 10.15625 14.453125 
Q 15.234375 19.140625 23.046875 29.09375 
Q 30.859375 39.0625 33.203125 44.53125 
Q 35.546875 50 34.953125 53.90625 
Q 34.375 57.8125 31.25 60.34375 
Q 28.125 62.890625 24.015625 62.5 
Q 19.921875 62.109375 16.203125 59.375 
Q 12.5 56.640625 10.546875 51.171875 
L 3.125 52.34375 
Q 6.25 61.328125 11.125 65.421875 
Q 16.015625 69.53125 22.65625 69.921875 
Q 26.5625 70.3125 29.6875 69.71875 
Q 32.8125 69.140625 36.125 66.984375 
Q 39.453125 64.84375 41.59375 60.546875 
Q 43.75 56.25 43.15625 50.1875 
Q 42.578125 44.140625 37.109375 35.734375 
Q 31.640625 27.34375 16.015625 9.375 
L 44.140625 9.375 
L 44.140625 2.34375 
L 4.6875 2.34375 
z
" id="SimHei-32"/>
      </defs>
      <g transform="translate(198.691948 321.459)scale(0.1 -0.1)">
       <use xlink:href="#SimHei-32"/>
       <use x="50" xlink:href="#SimHei-30"/>
      </g>
     </g>
    </g>
    <g id="xtick_4">
     <g id="line2d_4">
      <g>
       <use style="stroke:#000000;stroke-width:0.8;" x="268.621559" xlink:href="#mf6560a273c" y="307.584"/>
      </g>
     </g>
     <g id="text_4">
      <!-- 30 -->
      <defs>
       <path d="M 3.90625 19.140625 
L 10.9375 20.3125 
Q 12.5 15.234375 16.015625 11.90625 
Q 19.53125 8.59375 24.796875 8.78125 
Q 30.078125 8.984375 33.203125 13.078125 
Q 36.328125 17.1875 35.9375 22.453125 
Q 35.546875 27.734375 31.828125 30.65625 
Q 28.125 33.59375 19.921875 34.765625 
L 19.921875 39.84375 
Q 28.125 40.625 31.828125 44.140625 
Q 35.546875 47.65625 35.15625 53.3125 
Q 34.765625 58.984375 30.078125 61.515625 
Q 25.390625 64.0625 20.109375 62.109375 
Q 14.84375 60.15625 11.71875 51.171875 
L 4.6875 52.34375 
Q 7.03125 59.375 11.125 64.0625 
Q 15.234375 68.75 22.265625 69.53125 
Q 29.296875 70.3125 34.5625 67.765625 
Q 39.84375 65.234375 41.984375 59.953125 
Q 44.140625 54.6875 42.578125 48.4375 
Q 41.015625 42.1875 33.59375 37.5 
Q 39.0625 35.15625 41.984375 30.46875 
Q 44.921875 25.78125 43.9375 18.15625 
Q 42.96875 10.546875 37.109375 5.859375 
Q 31.25 1.171875 23.828125 1.359375 
Q 16.40625 1.5625 10.9375 6.046875 
Q 5.46875 10.546875 3.90625 19.140625 
z
" id="SimHei-33"/>
      </defs>
      <g transform="translate(263.621559 321.459)scale(0.1 -0.1)">
       <use xlink:href="#SimHei-33"/>
       <use x="50" xlink:href="#SimHei-30"/>
      </g>
     </g>
    </g>
    <g id="xtick_5">
     <g id="line2d_5">
      <g>
       <use style="stroke:#000000;stroke-width:0.8;" x="333.551169" xlink:href="#mf6560a273c" y="307.584"/>
      </g>
     </g>
     <g id="text_5">
      <!-- 40 -->
      <defs>
       <path d="M 31.25 17.1875 
L 1.171875 17.1875 
L 1.171875 23.828125 
L 32.8125 69.53125 
L 38.671875 69.53125 
L 38.671875 23.828125 
L 48.046875 23.828125 
L 48.046875 17.1875 
L 38.671875 17.1875 
L 38.671875 2.34375 
L 31.25 2.34375 
z
M 31.25 23.828125 
L 31.25 54.6875 
L 9.375 23.828125 
z
" id="SimHei-34"/>
      </defs>
      <g transform="translate(328.551169 321.459)scale(0.1 -0.1)">
       <use xlink:href="#SimHei-34"/>
       <use x="50" xlink:href="#SimHei-30"/>
      </g>
     </g>
    </g>
    <g id="xtick_6">
     <g id="line2d_6">
      <g>
       <use style="stroke:#000000;stroke-width:0.8;" x="398.48078" xlink:href="#mf6560a273c" y="307.584"/>
      </g>
     </g>
     <g id="text_6">
      <!-- 50 -->
      <defs>
       <path d="M 8.59375 20.703125 
Q 11.328125 10.15625 17.96875 8.984375 
Q 24.609375 7.8125 28.703125 10.34375 
Q 32.8125 12.890625 34.5625 16.984375 
Q 36.328125 21.09375 36.125 26.171875 
Q 35.9375 31.25 33.390625 34.765625 
Q 30.859375 38.28125 26.953125 39.453125 
Q 23.046875 40.625 18.15625 39.453125 
Q 13.28125 38.28125 10.15625 33.984375 
L 3.515625 34.765625 
Q 4.296875 37.109375 10.9375 68.359375 
L 41.796875 68.359375 
L 41.796875 61.328125 
L 16.796875 61.328125 
Q 14.84375 50.78125 12.890625 44.53125 
Q 18.75 47.265625 23.828125 47.0625 
Q 28.90625 46.875 33.59375 44.71875 
Q 38.28125 42.578125 40.421875 38.859375 
Q 42.578125 35.15625 43.546875 31.4375 
Q 44.53125 27.734375 44.328125 23.4375 
Q 44.140625 19.140625 42.578125 14.640625 
Q 41.015625 10.15625 37.890625 7.21875 
Q 34.765625 4.296875 30.265625 2.53125 
Q 25.78125 0.78125 19.921875 1.171875 
Q 14.0625 1.5625 8.78125 5.46875 
Q 3.515625 9.375 1.5625 18.75 
z
" id="SimHei-35"/>
      </defs>
      <g transform="translate(393.48078 321.459)scale(0.1 -0.1)">
       <use xlink:href="#SimHei-35"/>
       <use x="50" xlink:href="#SimHei-30"/>
      </g>
     </g>
    </g>
    <g id="text_7">
     <!-- Episode/k -->
     <defs>
      <path d="M 45.3125 1.953125 
L 5.46875 1.953125 
L 5.46875 68.75 
L 43.359375 68.75 
L 43.359375 61.328125 
L 14.453125 61.328125 
L 14.453125 40.625 
L 41.015625 40.625 
L 41.015625 33.203125 
L 14.453125 33.203125 
L 14.453125 9.375 
L 45.3125 9.375 
z
" id="SimHei-45"/>
      <path d="M 44.140625 23.828125 
Q 44.140625 12.5 38.671875 6.640625 
Q 33.203125 0.78125 25.390625 0.78125 
Q 21.09375 0.78125 17.96875 2.53125 
Q 14.84375 4.296875 12.5 7.8125 
L 12.5 -12.5 
L 4.6875 -12.5 
L 4.6875 45.703125 
L 12.5 45.703125 
L 12.5 39.84375 
Q 14.84375 43.359375 17.96875 44.921875 
Q 21.09375 46.484375 25.390625 46.484375 
Q 33.203125 46.484375 38.671875 40.8125 
Q 44.140625 35.15625 44.140625 23.828125 
z
M 35.546875 23.828125 
Q 35.546875 31.25 32.609375 35.34375 
Q 29.6875 39.453125 23.828125 39.453125 
Q 19.140625 39.453125 15.8125 35.34375 
Q 12.5 31.25 12.5 23.828125 
Q 12.5 16.40625 15.8125 12.109375 
Q 19.140625 7.8125 23.828125 7.8125 
Q 29.6875 7.8125 32.609375 12.109375 
Q 35.546875 16.40625 35.546875 23.828125 
z
" id="SimHei-70"/>
      <path d="M 28.125 58.203125 
L 20.3125 58.203125 
L 20.3125 68.359375 
L 28.125 68.359375 
z
M 28.125 1.953125 
L 20.3125 1.953125 
L 20.3125 45.703125 
L 28.125 45.703125 
z
" id="SimHei-69"/>
      <path d="M 42.96875 14.0625 
Q 42.96875 7.8125 38.078125 4.484375 
Q 33.203125 1.171875 25.78125 1.171875 
Q 16.40625 1.171875 11.328125 4.875 
Q 6.25 8.59375 6.25 15.625 
L 14.0625 15.625 
Q 14.0625 10.9375 17.375 9.375 
Q 20.703125 7.8125 25.390625 7.8125 
Q 30.078125 7.8125 32.421875 9.5625 
Q 34.765625 11.328125 34.765625 14.0625 
Q 34.765625 16.015625 32.8125 17.96875 
Q 30.859375 19.921875 23.046875 21.09375 
Q 14.0625 22.265625 10.734375 25.578125 
Q 7.421875 28.90625 7.421875 34.375 
Q 7.421875 39.0625 11.90625 42.765625 
Q 16.40625 46.484375 25 46.484375 
Q 32.8125 46.484375 37.296875 42.96875 
Q 41.796875 39.453125 41.796875 33.59375 
L 33.984375 33.59375 
Q 33.984375 37.109375 31.4375 38.46875 
Q 28.90625 39.84375 25 39.84375 
Q 19.921875 39.84375 17.765625 38.078125 
Q 15.625 36.328125 15.625 33.984375 
Q 15.625 31.25 17.578125 29.6875 
Q 19.53125 28.125 25.78125 27.34375 
Q 35.9375 25.78125 39.453125 22.453125 
Q 42.96875 19.140625 42.96875 14.0625 
z
" id="SimHei-73"/>
      <path d="M 45.703125 23.828125 
Q 45.703125 13.671875 39.453125 7.421875 
Q 33.203125 1.171875 24.609375 1.171875 
Q 16.015625 1.171875 9.765625 7.421875 
Q 3.515625 13.671875 3.515625 23.828125 
Q 3.515625 33.984375 9.765625 40.234375 
Q 16.015625 46.484375 24.609375 46.484375 
Q 33.203125 46.484375 39.453125 40.234375 
Q 45.703125 33.984375 45.703125 23.828125 
z
M 37.109375 23.828125 
Q 37.109375 31.640625 33.203125 35.546875 
Q 29.296875 39.453125 24.609375 39.453125 
Q 19.921875 39.453125 16.015625 35.546875 
Q 12.109375 31.640625 12.109375 23.828125 
Q 12.109375 16.015625 16.015625 12.109375 
Q 19.921875 8.203125 24.609375 8.203125 
Q 29.296875 8.203125 33.203125 12.109375 
Q 37.109375 16.015625 37.109375 23.828125 
z
" id="SimHei-6f"/>
      <path d="M 42.96875 1.953125 
L 35.15625 1.953125 
L 35.15625 7.8125 
Q 32.8125 4.296875 29.6875 2.734375 
Q 26.5625 1.171875 22.265625 1.171875 
Q 14.453125 1.171875 8.984375 6.828125 
Q 3.515625 12.5 3.515625 23.828125 
Q 3.515625 35.15625 8.984375 41.015625 
Q 14.453125 46.875 22.265625 46.875 
Q 26.5625 46.875 29.6875 45.109375 
Q 32.8125 43.359375 35.15625 39.84375 
L 35.15625 68.75 
L 42.96875 68.75 
z
M 35.15625 23.828125 
Q 35.15625 31.25 31.828125 35.546875 
Q 28.515625 39.84375 23.828125 39.84375 
Q 17.96875 39.84375 15.03125 35.546875 
Q 12.109375 31.25 12.109375 23.828125 
Q 12.109375 16.40625 15.03125 12.296875 
Q 17.96875 8.203125 23.828125 8.203125 
Q 28.515625 8.203125 31.828125 12.296875 
Q 35.15625 16.40625 35.15625 23.828125 
z
" id="SimHei-64"/>
      <path d="M 44.53125 16.796875 
Q 43.75 9.765625 38.28125 5.46875 
Q 32.8125 1.171875 25.390625 1.171875 
Q 16.015625 1.171875 9.953125 7.21875 
Q 3.90625 13.28125 3.90625 23.828125 
Q 3.90625 34.375 9.953125 40.421875 
Q 16.015625 46.484375 25.390625 46.484375 
Q 33.59375 46.484375 38.859375 41.203125 
Q 44.140625 35.9375 44.140625 23.828125 
L 12.5 23.828125 
Q 12.5 15.234375 16.203125 11.71875 
Q 19.921875 8.203125 25.390625 8.203125 
Q 29.6875 8.203125 32.421875 10.34375 
Q 35.15625 12.5 35.9375 16.796875 
z
M 35.15625 30.078125 
Q 34.375 35.546875 31.640625 37.6875 
Q 28.90625 39.84375 24.609375 39.84375 
Q 20.703125 39.84375 17.578125 37.6875 
Q 14.453125 35.546875 12.890625 30.078125 
z
" id="SimHei-65"/>
      <path d="M 46.875 71.09375 
L 5.46875 -2.734375 
L 1.5625 -0.390625 
L 42.96875 73.4375 
z
" id="SimHei-2f"/>
      <path d="M 45.703125 1.953125 
L 36.71875 1.953125 
L 22.65625 25.78125 
L 13.671875 17.1875 
L 13.671875 1.953125 
L 5.859375 1.953125 
L 5.859375 68.75 
L 13.671875 68.75 
L 13.671875 26.171875 
L 33.203125 45.703125 
L 42.96875 45.703125 
L 27.734375 30.859375 
z
" id="SimHei-6b"/>
     </defs>
     <g transform="translate(206.91 336.255875)scale(0.13 -0.13)">
      <use xlink:href="#SimHei-45"/>
      <use x="50" xlink:href="#SimHei-70"/>
      <use x="100" xlink:href="#SimHei-69"/>
      <use x="150" xlink:href="#SimHei-73"/>
      <use x="200" xlink:href="#SimHei-6f"/>
      <use x="250" xlink:href="#SimHei-64"/>
      <use x="300" xlink:href="#SimHei-65"/>
      <use x="350" xlink:href="#SimHei-2f"/>
      <use x="400" xlink:href="#SimHei-6b"/>
     </g>
    </g>
   </g>
   <g id="matplotlib.axis_2">
    <g id="ytick_1">
     <g id="line2d_7">
      <defs>
       <path d="M 0 0 
L -3.5 0 
" id="mecb957c10b" style="stroke:#000000;stroke-width:0.8;"/>
      </defs>
      <g>
       <use style="stroke:#000000;stroke-width:0.8;" x="57.6" xlink:href="#mecb957c10b" y="305.272068"/>
      </g>
     </g>
     <g id="text_8">
      <!-- -70000 -->
      <defs>
       <path d="M 46.484375 33.203125 
L 1.953125 33.203125 
L 1.953125 39.453125 
L 46.484375 39.453125 
z
" id="SimHei-2d"/>
       <path d="M 13.28125 2.34375 
Q 20.3125 32.03125 37.890625 61.328125 
L 4.296875 61.328125 
L 4.296875 68.359375 
L 46.09375 68.359375 
L 46.09375 61.71875 
Q 27.734375 32.03125 21.875 2.34375 
L 13.28125 2.34375 
z
" id="SimHei-37"/>
      </defs>
      <g transform="translate(20.6 308.709568)scale(0.1 -0.1)">
       <use xlink:href="#SimHei-2d"/>
       <use x="50" xlink:href="#SimHei-37"/>
       <use x="100" xlink:href="#SimHei-30"/>
       <use x="150" xlink:href="#SimHei-30"/>
       <use x="200" xlink:href="#SimHei-30"/>
       <use x="250" xlink:href="#SimHei-30"/>
      </g>
     </g>
    </g>
    <g id="ytick_2">
     <g id="line2d_8">
      <g>
       <use style="stroke:#000000;stroke-width:0.8;" x="57.6" xlink:href="#mecb957c10b" y="269.314344"/>
      </g>
     </g>
     <g id="text_9">
      <!-- -60000 -->
      <defs>
       <path d="M 3.515625 19.53125 
Q 4.296875 30.859375 6.046875 34.765625 
Q 7.8125 38.671875 11.328125 44.53125 
L 27.34375 69.53125 
L 36.328125 69.53125 
L 19.921875 43.75 
Q 30.46875 46.484375 36.71875 42.96875 
Q 42.96875 39.453125 45.109375 34.953125 
Q 47.265625 30.46875 47.453125 25.1875 
Q 47.65625 19.921875 45.890625 14.84375 
Q 44.140625 9.765625 39.640625 5.65625 
Q 35.15625 1.5625 27.140625 1.171875 
Q 19.140625 0.78125 13.46875 4.09375 
Q 7.8125 7.421875 5.65625 13.46875 
Q 3.515625 19.53125 4.296875 30.859375 
z
M 12.5 16.015625 
Q 19.53125 8.59375 25.390625 8.203125 
Q 31.25 7.8125 35.15625 12.109375 
Q 39.0625 16.40625 39.0625 24.609375 
Q 39.0625 32.8125 34.171875 35.9375 
Q 29.296875 39.0625 23.234375 38.28125 
Q 17.1875 37.5 14.453125 32.421875 
Q 11.71875 27.34375 12.109375 21.671875 
Q 12.5 16.015625 19.53125 8.59375 
z
" id="SimHei-36"/>
      </defs>
      <g transform="translate(20.6 272.751844)scale(0.1 -0.1)">
       <use xlink:href="#SimHei-2d"/>
       <use x="50" xlink:href="#SimHei-36"/>
       <use x="100" xlink:href="#SimHei-30"/>
       <use x="150" xlink:href="#SimHei-30"/>
       <use x="200" xlink:href="#SimHei-30"/>
       <use x="250" xlink:href="#SimHei-30"/>
      </g>
     </g>
    </g>
    <g id="ytick_3">
     <g id="line2d_9">
      <g>
       <use style="stroke:#000000;stroke-width:0.8;" x="57.6" xlink:href="#mecb957c10b" y="233.35662"/>
      </g>
     </g>
     <g id="text_10">
      <!-- -50000 -->
      <g transform="translate(20.6 236.79412)scale(0.1 -0.1)">
       <use xlink:href="#SimHei-2d"/>
       <use x="50" xlink:href="#SimHei-35"/>
       <use x="100" xlink:href="#SimHei-30"/>
       <use x="150" xlink:href="#SimHei-30"/>
       <use x="200" xlink:href="#SimHei-30"/>
       <use x="250" xlink:href="#SimHei-30"/>
      </g>
     </g>
    </g>
    <g id="ytick_4">
     <g id="line2d_10">
      <g>
       <use style="stroke:#000000;stroke-width:0.8;" x="57.6" xlink:href="#mecb957c10b" y="197.398896"/>
      </g>
     </g>
     <g id="text_11">
      <!-- -40000 -->
      <g transform="translate(20.6 200.836396)scale(0.1 -0.1)">
       <use xlink:href="#SimHei-2d"/>
       <use x="50" xlink:href="#SimHei-34"/>
       <use x="100" xlink:href="#SimHei-30"/>
       <use x="150" xlink:href="#SimHei-30"/>
       <use x="200" xlink:href="#SimHei-30"/>
       <use x="250" xlink:href="#SimHei-30"/>
      </g>
     </g>
    </g>
    <g id="ytick_5">
     <g id="line2d_11">
      <g>
       <use style="stroke:#000000;stroke-width:0.8;" x="57.6" xlink:href="#mecb957c10b" y="161.441172"/>
      </g>
     </g>
     <g id="text_12">
      <!-- -30000 -->
      <g transform="translate(20.6 164.878672)scale(0.1 -0.1)">
       <use xlink:href="#SimHei-2d"/>
       <use x="50" xlink:href="#SimHei-33"/>
       <use x="100" xlink:href="#SimHei-30"/>
       <use x="150" xlink:href="#SimHei-30"/>
       <use x="200" xlink:href="#SimHei-30"/>
       <use x="250" xlink:href="#SimHei-30"/>
      </g>
     </g>
    </g>
    <g id="ytick_6">
     <g id="line2d_12">
      <g>
       <use style="stroke:#000000;stroke-width:0.8;" x="57.6" xlink:href="#mecb957c10b" y="125.483448"/>
      </g>
     </g>
     <g id="text_13">
      <!-- -20000 -->
      <g transform="translate(20.6 128.920948)scale(0.1 -0.1)">
       <use xlink:href="#SimHei-2d"/>
       <use x="50" xlink:href="#SimHei-32"/>
       <use x="100" xlink:href="#SimHei-30"/>
       <use x="150" xlink:href="#SimHei-30"/>
       <use x="200" xlink:href="#SimHei-30"/>
       <use x="250" xlink:href="#SimHei-30"/>
      </g>
     </g>
    </g>
    <g id="ytick_7">
     <g id="line2d_13">
      <g>
       <use style="stroke:#000000;stroke-width:0.8;" x="57.6" xlink:href="#mecb957c10b" y="89.525724"/>
      </g>
     </g>
     <g id="text_14">
      <!-- -10000 -->
      <g transform="translate(20.6 92.963224)scale(0.1 -0.1)">
       <use xlink:href="#SimHei-2d"/>
       <use x="50" xlink:href="#SimHei-31"/>
       <use x="100" xlink:href="#SimHei-30"/>
       <use x="150" xlink:href="#SimHei-30"/>
       <use x="200" xlink:href="#SimHei-30"/>
       <use x="250" xlink:href="#SimHei-30"/>
      </g>
     </g>
    </g>
    <g id="ytick_8">
     <g id="line2d_14">
      <g>
       <use style="stroke:#000000;stroke-width:0.8;" x="57.6" xlink:href="#mecb957c10b" y="53.568"/>
      </g>
     </g>
     <g id="text_15">
      <!-- 0 -->
      <g transform="translate(45.6 57.0055)scale(0.1 -0.1)">
       <use xlink:href="#SimHei-30"/>
      </g>
     </g>
    </g>
    <g id="text_16">
     <!-- Cumulative -->
     <defs>
      <path d="M 46.484375 28.515625 
Q 46.09375 13.671875 40.234375 7.421875 
Q 34.375 1.171875 26.171875 1.171875 
Q 16.796875 1.171875 10.15625 8.78125 
Q 3.515625 16.40625 3.515625 33.203125 
Q 3.515625 51.5625 9.953125 60.546875 
Q 16.40625 69.53125 26.5625 69.53125 
Q 35.15625 69.53125 40.8125 63.078125 
Q 46.484375 56.640625 46.09375 44.921875 
L 37.5 44.921875 
Q 37.5 53.515625 34.765625 57.8125 
Q 32.03125 62.109375 26.5625 62.109375 
Q 20.3125 62.109375 16.59375 55.65625 
Q 12.890625 49.21875 12.890625 33.984375 
Q 12.890625 19.921875 16.59375 14.25 
Q 20.3125 8.59375 26.171875 8.59375 
Q 30.46875 8.59375 33.984375 12.6875 
Q 37.5 16.796875 37.5 28.515625 
z
" id="SimHei-43"/>
      <path d="M 43.75 1.953125 
L 35.9375 1.953125 
L 35.9375 10.15625 
Q 32.8125 5.859375 29.09375 3.515625 
Q 25.390625 1.171875 19.53125 1.171875 
Q 12.5 1.171875 8.984375 5.078125 
Q 5.46875 8.984375 5.46875 14.84375 
L 5.46875 45.703125 
L 13.28125 45.703125 
L 13.28125 17.578125 
Q 13.28125 12.890625 15.625 10.15625 
Q 17.96875 7.421875 21.875 7.421875 
Q 26.953125 7.421875 31.4375 12.6875 
Q 35.9375 17.96875 35.9375 25.78125 
L 35.9375 45.703125 
L 43.75 45.703125 
z
" id="SimHei-75"/>
      <path d="M 47.65625 1.953125 
L 39.84375 1.953125 
L 39.84375 33.59375 
Q 39.84375 35.9375 39.0625 37.5 
Q 38.28125 39.0625 35.9375 39.0625 
Q 33.203125 39.0625 30.859375 36.125 
Q 28.515625 33.203125 28.515625 28.515625 
L 28.515625 1.953125 
L 20.703125 1.953125 
L 20.703125 33.59375 
Q 20.703125 35.9375 19.921875 37.5 
Q 19.140625 39.0625 16.796875 39.0625 
Q 14.0625 39.0625 11.71875 36.125 
Q 9.375 33.203125 9.375 28.515625 
L 9.375 1.953125 
L 1.5625 1.953125 
L 1.5625 45.703125 
L 9.375 45.703125 
L 9.375 39.84375 
Q 11.328125 42.96875 14.0625 44.71875 
Q 16.796875 46.484375 19.921875 46.484375 
Q 23.046875 46.484375 25.1875 44.71875 
Q 27.34375 42.96875 28.125 39.84375 
Q 30.078125 42.96875 32.609375 44.71875 
Q 35.15625 46.484375 38.28125 46.484375 
Q 42.96875 46.484375 45.3125 43.9375 
Q 47.65625 41.40625 47.65625 36.71875 
z
" id="SimHei-6d"/>
      <path d="M 28.515625 1.953125 
L 20.703125 1.953125 
L 20.703125 68.75 
L 28.515625 68.75 
z
" id="SimHei-6c"/>
      <path d="M 44.921875 1.953125 
L 35.546875 1.953125 
Q 34.765625 2.734375 34.375 4.09375 
Q 33.984375 5.46875 33.984375 7.421875 
Q 31.25 4.296875 27.34375 2.734375 
Q 23.4375 1.171875 19.140625 1.171875 
Q 12.890625 1.171875 8.59375 4.296875 
Q 4.296875 7.421875 4.296875 13.28125 
Q 4.296875 19.140625 8.203125 22.65625 
Q 12.109375 26.171875 20.3125 27.34375 
Q 25.78125 28.125 29.875 29.296875 
Q 33.984375 30.46875 33.984375 32.421875 
Q 33.984375 34.765625 32.21875 37.109375 
Q 30.46875 39.453125 24.609375 39.453125 
Q 19.921875 39.453125 17.765625 37.6875 
Q 15.625 35.9375 14.84375 32.8125 
L 6.25 32.8125 
Q 7.03125 39.0625 11.90625 42.765625 
Q 16.796875 46.484375 24.609375 46.484375 
Q 33.203125 46.484375 37.5 42.578125 
Q 41.796875 38.671875 41.796875 31.640625 
L 41.796875 10.15625 
Q 41.796875 7.8125 42.578125 5.859375 
Q 43.359375 3.90625 44.921875 1.953125 
z
M 33.984375 16.40625 
L 33.984375 24.21875 
Q 31.640625 23.4375 29.484375 22.84375 
Q 27.34375 22.265625 22.265625 21.484375 
Q 16.40625 20.703125 14.640625 18.75 
Q 12.890625 16.796875 12.890625 14.0625 
Q 12.890625 11.71875 14.640625 9.953125 
Q 16.40625 8.203125 19.921875 8.203125 
Q 23.4375 8.203125 27.53125 10.15625 
Q 31.640625 12.109375 33.984375 16.40625 
z
" id="SimHei-61"/>
      <path d="M 42.96875 3.125 
Q 41.015625 2.34375 38.46875 1.75 
Q 35.9375 1.171875 31.640625 1.171875 
Q 24.609375 1.171875 20.3125 5.078125 
Q 16.015625 8.984375 16.015625 16.015625 
L 16.015625 39.453125 
L 2.734375 39.453125 
L 2.734375 45.703125 
L 16.015625 45.703125 
L 16.015625 60.9375 
L 23.828125 60.9375 
L 23.828125 45.703125 
L 39.84375 45.703125 
L 39.84375 39.453125 
L 23.828125 39.453125 
L 23.828125 15.625 
Q 23.828125 12.5 25.390625 10.34375 
Q 26.953125 8.203125 31.25 8.203125 
Q 35.546875 8.203125 38.28125 8.984375 
Q 41.015625 9.765625 42.96875 10.9375 
z
" id="SimHei-74"/>
      <path d="M 44.921875 45.703125 
L 28.515625 1.171875 
L 19.921875 1.171875 
L 3.515625 45.703125 
L 11.71875 45.703125 
L 23.828125 11.71875 
L 24.609375 11.71875 
L 36.71875 45.703125 
z
" id="SimHei-76"/>
     </defs>
     <g transform="translate(14.975 207.028)rotate(-90)scale(0.13 -0.13)">
      <use xlink:href="#SimHei-43"/>
      <use x="50" xlink:href="#SimHei-75"/>
      <use x="100" xlink:href="#SimHei-6d"/>
      <use x="150" xlink:href="#SimHei-75"/>
      <use x="200" xlink:href="#SimHei-6c"/>
      <use x="250" xlink:href="#SimHei-61"/>
      <use x="300" xlink:href="#SimHei-74"/>
      <use x="350" xlink:href="#SimHei-69"/>
      <use x="400" xlink:href="#SimHei-76"/>
      <use x="450" xlink:href="#SimHei-65"/>
     </g>
    </g>
   </g>
   <g id="line2d_15">
    <path clip-path="url(#pc3838d534d)" d="M 73.832727 53.568 
L 73.917136 53.712455 
L 74.059981 54.201416 
L 74.098939 54.23916 
L 74.111925 54.294202 
L 75.144305 57.773716 
L 75.423503 58.90075 
L 75.598813 59.414649 
L 75.605306 59.41188 
L 75.7027 59.691178 
L 75.897489 60.560693 
L 75.916968 60.633891 
L 76.436405 63.108671 
L 77.059729 65.091361 
L 77.241532 66.045593 
L 77.254518 66.043563 
L 77.338926 66.354937 
L 77.520729 67.065695 
L 77.56618 67.34187 
L 77.709025 67.931569 
L 78.131067 69.959005 
L 78.144053 69.95662 
L 78.254434 70.440246 
L 78.390786 71.15632 
L 78.397279 71.155512 
L 78.423251 71.405114 
L 78.650504 72.368132 
L 78.656997 72.36621 
L 78.942688 73.599304 
L 79.07904 74.455933 
L 79.520561 76.502552 
L 79.546533 76.55104 
L 79.676392 77.502913 
L 79.793266 78.038576 
L 79.968575 78.823749 
L 80.020519 78.982663 
L 80.280238 80.176284 
L 80.299716 80.292682 
L 80.929534 82.938593 
L 81.065886 83.899656 
L 81.072379 83.904785 
L 81.215224 84.877831 
L 81.325604 85.304562 
L 81.481435 86.246991 
L 81.487928 86.244198 
L 82.254098 90.168544 
L 82.293056 90.194092 
L 82.435901 91.365244 
L 82.559267 91.778435 
L 82.760549 92.77137 
L 82.890408 93.322764 
L 83.046239 93.992216 
L 83.052732 93.989838 
L 83.059225 93.98814 
L 83.215056 95.372858 
L 83.520225 97.095324 
L 83.546197 97.186721 
L 83.682549 98.236504 
L 83.689042 98.235201 
L 88.162692 125.248249 
L 88.26658 125.509846 
L 88.500326 127.012822 
L 88.584735 127.3398 
L 88.922369 129.60738 
L 88.928862 129.605007 
L 88.935355 129.666972 
L 88.941848 129.682363 
L 89.435313 132.881572 
L 89.448299 132.923929 
L 89.597637 134.259529 
L 89.753468 134.97773 
L 89.818397 135.139202 
L 90.188496 137.122822 
L 90.324848 137.981212 
L 90.331341 137.979091 
L 90.337834 137.977683 
L 90.357313 138.086227 
L 90.870257 141.505897 
L 90.928694 141.938886 
L 91.123483 143.436459 
L 91.285807 144.124254 
L 91.694863 146.730845 
L 91.701356 146.727752 
L 91.720835 146.825124 
L 91.941596 147.800861 
L 91.97406 147.870313 
L 92.10392 148.488716 
L 92.129892 148.607372 
L 92.590892 151.894629 
L 92.720751 152.306868 
L 93.370047 156.889999 
L 93.467441 157.385758 
L 93.649244 158.853111 
L 93.66223 158.857271 
L 93.857019 160.488658 
L 93.863512 160.486441 
L 93.876498 160.576168 
L 94.006357 161.484349 
L 94.220625 163.326955 
L 94.798499 167.534982 
L 94.941344 168.950455 
L 94.947837 168.948885 
L 95.233527 171.321924 
L 95.454288 172.678085 
L 95.460781 172.676023 
L 95.467273 172.788728 
L 95.486752 172.897155 
L 96.012682 176.511211 
L 96.168513 178.062906 
L 96.175006 178.078259 
L 96.298373 179.270491 
L 96.324344 179.506479 
L 96.629514 181.0794 
L 96.720415 181.933072 
L 96.86326 182.65371 
L 96.902218 182.769342 
L 97.220373 184.996773 
L 97.363218 186.308557 
L 98.428064 193.251569 
L 98.454036 193.387612 
L 98.687782 194.804197 
L 98.830627 195.36851 
L 99.142289 196.713092 
L 99.155275 196.709648 
L 99.18774 196.799053 
L 99.356557 197.67871 
L 99.408501 197.794044 
L 99.42798 197.905858 
L 99.60329 198.830811 
L 99.811064 199.733931 
L 99.960403 201.233375 
L 100.155191 202.046559 
L 100.181163 202.147453 
L 101.278474 208.021423 
L 101.330417 208.067705 
L 101.33691 208.089735 
L 101.583643 208.812781 
L 101.629094 208.980428 
L 101.765446 209.470294 
L 101.875826 209.86778 
L 102.096587 210.80703 
L 102.155023 210.869748 
L 102.395263 211.852415 
L 102.4537 211.979237 
L 102.947165 213.533628 
L 103.245841 214.267593 
L 103.3757 214.624118 
L 104.336658 217.635599 
L 104.479503 218.451091 
L 105.076856 220.486515 
L 105.23918 221.387881 
L 105.317095 221.656852 
L 105.453448 222.074604 
L 105.459941 222.073909 
L 105.550842 222.143714 
L 105.713166 222.791154 
L 105.719659 222.788517 
L 105.862504 223.101344 
L 105.868997 223.100353 
L 105.87549 223.09788 
L 105.894969 223.189289 
L 105.907955 223.198543 
L 106.031321 223.488244 
L 106.154687 223.850283 
L 106.193645 224.129734 
L 106.349476 224.844172 
L 106.622181 225.913213 
L 106.667631 226.012021 
L 108.576562 230.323703 
L 108.647984 230.421107 
L 108.810308 230.771299 
L 108.849266 230.800555 
L 108.862252 230.861772 
L 110.154351 233.679285 
L 110.466014 234.414883 
L 110.712746 235.080457 
L 111.238676 236.387729 
L 111.368535 236.687163 
L 111.375028 236.689448 
L 111.498394 237.054059 
L 112.063282 238.00005 
L 112.121719 238.072476 
L 112.284043 238.501337 
L 112.348972 238.638951 
L 112.485324 238.855697 
L 112.634663 239.156949 
L 112.894381 239.844506 
L 113.030733 240.368671 
L 113.160592 240.598822 
L 113.589128 241.493679 
L 113.6151 241.592985 
L 113.796903 242.157823 
L 113.894297 242.339889 
L 114.017663 242.713273 
L 114.024156 242.712206 
L 115.718819 246.446396 
L 115.751284 246.556366 
L 115.933087 246.76403 
L 115.991523 246.816298 
L 115.998016 246.840179 
L 116.296693 247.738884 
L 116.368115 247.842756 
L 116.57589 248.328195 
L 116.640819 248.423652 
L 116.796651 248.647696 
L 116.939496 248.859097 
L 117.010918 249.036237 
L 117.127792 249.338393 
L 117.588792 250.068079 
L 117.62775 250.184497 
L 118.952314 252.696353 
L 119.699004 254.278316 
L 119.763934 254.332753 
L 119.919765 254.667041 
L 120.010666 254.834742 
L 120.147018 255.029211 
L 120.322328 255.221871 
L 120.659962 255.672743 
L 121.088498 256.140822 
L 121.211864 256.27045 
L 121.218357 256.26822 
L 121.51054 256.693814 
L 121.68585 257.095801 
L 121.698836 257.090717 
L 121.731301 257.162005 
L 121.854667 257.293034 
L 122.03647 257.546561 
L 122.263724 257.900882 
L 122.731217 258.519476 
L 122.770175 258.618255 
L 122.971456 259.005994 
L 123.185724 259.208572 
L 123.37402 259.677255 
L 123.555823 259.818287 
L 125.068683 261.745233 
L 125.17257 261.8397 
L 125.334894 262.026405 
L 125.393331 262.123614 
L 125.58812 262.481982 
L 125.76343 262.793111 
L 125.906275 263.155415 
L 125.958219 263.285293 
L 126.153007 263.509202 
L 126.22443 263.619912 
L 126.360782 263.806015 
L 126.529599 264.004307 
L 126.536092 264.002258 
L 126.594529 264.04304 
L 126.717895 264.243181 
L 126.724388 264.2407 
L 126.808796 264.33074 
L 126.938656 264.495262 
L 126.984106 264.551492 
L 127.113966 264.823923 
L 127.282783 265.031586 
L 127.289276 265.028997 
L 127.542501 265.214764 
L 127.67236 265.351101 
L 127.873642 265.677875 
L 127.880135 265.675312 
L 127.977529 265.749571 
L 129.315079 267.619348 
L 129.451432 267.760642 
L 129.522854 267.817145 
L 129.652713 268.214461 
L 129.659206 268.213221 
L 129.737122 268.301605 
L 130.074756 268.80027 
L 130.178643 268.876033 
L 130.360446 269.033231 
L 130.509784 269.095546 
L 130.626658 269.219101 
L 130.639643 269.215911 
L 130.743531 269.321891 
L 131.055193 269.668511 
L 131.275954 269.773976 
L 131.496714 269.918355 
L 131.704489 270.03094 
L 131.814869 270.104451 
L 131.977193 270.330886 
L 132.158996 270.46503 
L 132.431701 270.708133 
L 132.84725 270.979191 
L 132.957631 271.048617 
L 133.295265 271.265311 
L 136.717055 273.845745 
L 137.191041 274.162948 
L 137.781901 274.722702 
L 137.950718 274.819911 
L 138.132521 274.901885 
L 138.353281 275.006817 
L 138.801296 275.142906 
L 139.385662 275.381166 
L 139.515521 275.488571 
L 139.638888 275.568213 
L 139.944057 275.693044 
L 140.054437 275.768505 
L 140.651789 276.161473 
L 140.911508 276.242985 
L 141.132269 276.398678 
L 141.619241 276.676134 
L 141.781565 276.724113 
L 143.02172 277.393867 
L 143.138594 277.543846 
L 143.326889 277.649861 
L 143.43727 277.800745 
L 143.450256 277.799207 
L 143.599594 277.893478 
L 143.83334 278.068894 
L 144.333298 278.217129 
L 144.787806 278.42178 
L 145.008566 278.57441 
L 145.144918 278.638719 
L 145.320228 278.709865 
L 145.489045 278.83373 
L 145.566961 278.895861 
L 145.709806 279.039989 
L 145.891609 279.12294 
L 146.060426 279.208097 
L 147.008398 279.555771 
L 147.151243 279.634581 
L 149.670512 280.897201 
L 149.839329 280.965676 
L 150.021132 281.029937 
L 150.891189 281.555835 
L 151.021048 281.740688 
L 151.943049 282.459939 
L 152.176795 282.501326 
L 152.592345 282.8317 
L 152.702725 282.926354 
L 152.84557 283.131177 
L 153.079317 283.206831 
L 153.339035 283.364378 
L 153.403965 283.43578 
L 153.54681 283.581206 
L 153.689655 283.676946 
L 153.806529 283.774296 
L 153.813021 283.77225 
L 154.364923 284.231628 
L 154.494782 284.375593 
L 154.754501 284.613121 
L 154.890853 284.749962 
L 154.897346 284.747517 
L 154.988247 284.830216 
L 155.34536 285.042403 
L 155.747924 285.371099 
L 155.910248 285.510829 
L 156.0466 285.644117 
L 156.182952 285.670421 
L 156.403713 285.75202 
L 156.624474 285.960321 
L 156.838741 286.011645 
L 156.955615 286.124216 
L 157.182868 286.295403 
L 157.462066 286.393897 
L 157.591925 286.462469 
L 158.007474 286.517548 
L 158.455489 286.835965 
L 158.520418 286.860859 
L 158.539897 286.920759 
L 158.812601 287.071299 
L 159.033362 287.107463 
L 159.156728 287.173623 
L 159.377489 287.23234 
L 159.552799 287.284381 
L 159.702137 287.408321 
L 160.065743 287.62726 
L 160.182616 287.659526 
L 160.390391 287.715684 
L 160.637124 287.800299 
L 160.838405 287.843336 
L 162.617477 288.626071 
L 162.73435 288.735589 
L 162.740843 288.733984 
L 163.08497 289.087409 
L 163.351181 289.281746 
L 164.961436 290.196323 
L 165.104281 290.265523 
L 165.591253 290.49829 
L 165.734098 290.567788 
L 166.071732 290.700437 
L 166.201591 290.796799 
L 166.565197 290.927758 
L 166.734014 291.044093 
L 166.883352 291.127273 
L 167.071648 291.217722 
L 167.253451 291.269473 
L 167.519662 291.352191 
L 167.720944 291.400493 
L 167.863789 291.462565 
L 168.026113 291.508849 
L 168.376733 291.677672 
L 168.578015 291.715708 
L 168.707874 291.8037 
L 168.714367 291.801131 
L 169.07148 291.988111 
L 169.220818 292.073694 
L 169.467551 292.104989 
L 169.603903 292.14589 
L 169.915565 292.267154 
L 170.05841 292.347869 
L 170.506424 292.424103 
L 170.662255 292.494443 
L 171.201171 292.531836 
L 171.33103 292.581563 
L 171.532312 292.629514 
L 171.68165 292.666511 
L 171.967341 292.743353 
L 172.0972 292.764755 
L 172.506256 292.834228 
L 172.772468 292.884166 
L 172.97375 292.921272 
L 173.298398 292.983278 
L 174.3113 293.191859 
L 174.460638 293.211501 
L 174.830736 293.236335 
L 175.064483 293.247284 
L 175.596906 293.429418 
L 175.765723 293.479103 
L 176.791611 293.5841 
L 176.979907 293.602965 
L 178.01878 293.702206 
L 178.408358 293.736341 
L 178.797936 293.756946 
L 179.044668 293.778121 
L 179.577091 293.957452 
L 179.960176 294.037421 
L 180.349753 294.105757 
L 180.5835 294.117292 
L 181.083458 294.172121 
L 181.622374 294.236785 
L 182.635276 294.271324 
L 182.771628 294.289592 
L 182.998881 294.324548 
L 184.667572 294.504383 
L 184.940277 294.576876 
L 185.141559 294.611539 
L 185.290897 294.657835 
L 185.764883 294.691424 
L 187.303715 294.79183 
L 187.641349 294.810647 
L 187.803673 294.837757 
L 189.095772 294.965689 
L 189.290561 294.998095 
L 189.589237 295.008352 
L 189.939857 295.029441 
L 190.212561 295.06593 
L 191.128069 295.100119 
L 191.309872 295.136939 
L 191.472196 295.162245 
L 191.965661 295.173725 
L 192.394196 295.170746 
L 195.134226 295.340733 
L 195.439395 295.357238 
L 195.569254 295.3367 
L 196.179592 295.325501 
L 196.374381 295.324649 
L 196.770452 295.314784 
L 197.367804 295.340105 
L 197.49117 295.359532 
L 199.737735 295.307324 
L 199.977975 295.324959 
L 200.990876 295.393764 
L 202.179088 295.405705 
L 202.55568 295.407664 
L 202.815399 295.404856 
L 202.97123 295.420272 
L 203.159525 295.429838 
L 205.360639 295.440642 
L 205.535949 295.437073 
L 206.691696 295.465286 
L 206.841034 295.46867 
L 207.107246 295.477502 
L 207.405922 295.443758 
L 207.743556 295.419779 
L 214.165094 295.321999 
L 215.022165 295.33512 
L 215.139039 295.33436 
L 215.671461 295.309805 
L 215.918194 295.287991 
L 217.054462 295.238461 
L 217.431054 295.203886 
L 217.580392 295.198528 
L 218.08035 295.172801 
L 218.599787 295.10957 
L 218.917942 295.095899 
L 238.546163 293.58221 
L 238.883797 293.55822 
L 239.046121 293.542009 
L 240.318742 293.384503 
L 240.461587 293.376249 
L 241.526432 293.281387 
L 241.714728 293.265617 
L 242.02639 293.260746 
L 242.831517 293.197983 
L 242.980856 293.178373 
L 243.396405 293.132172 
L 244.344377 293.053667 
L 244.896279 292.989073 
L 245.792308 292.895554 
L 246.396153 292.825411 
L 246.876632 292.778009 
L 247.558393 292.703038 
L 249.369929 292.46974 
L 249.493296 292.47122 
L 250.110127 292.404786 
L 250.421789 292.402238 
L 259.882033 291.416792 
L 260.278104 291.350896 
L 260.4664 291.326397 
L 260.940386 291.25369 
L 264.089472 290.864561 
L 264.543979 290.79441 
L 265.004979 290.753681 
L 265.504937 290.688021 
L 265.920487 290.625015 
L 266.784051 290.497443 
L 267.108699 290.450904 
L 269.050094 290.171904 
L 269.459151 290.122509 
L 269.608489 290.107349 
L 270.037024 290.045144 
L 270.212334 290.021148 
L 270.731771 289.942457 
L 271.939462 289.761199 
L 272.127758 289.730213 
L 272.634209 289.662102 
L 275.270351 289.247852 
L 276.055999 289.108117 
L 276.361168 289.082463 
L 277.166296 288.924649 
L 277.646775 288.849696 
L 297.976236 285.62664 
L 298.171025 285.611 
L 300.209814 285.255101 
L 312.923032 282.931085 
L 313.48792 282.827508 
L 314.883906 282.593139 
L 315.292963 282.533013 
L 316.507147 282.291182 
L 316.877245 282.240082 
L 317.864175 282.054192 
L 318.448542 281.944852 
L 318.688781 281.901904 
L 319.552345 281.755648 
L 320.071782 281.655685 
L 321.065205 281.45719 
L 321.759952 281.333118 
L 322.266403 281.241088 
L 323.8377 280.924724 
L 324.038981 280.883017 
L 324.889559 280.767486 
L 326.421898 280.462329 
L 326.993279 280.338096 
L 327.142617 280.311017 
L 336.460016 278.463104 
L 337.661214 278.212892 
L 338.381932 278.078895 
L 348.179811 276.113672 
L 349.614755 275.788274 
L 355.601265 274.551091 
L 356.27004 274.399015 
L 356.432364 274.371082 
L 361.464409 273.3035 
L 362.055268 273.183791 
L 364.061593 272.755858 
L 364.314819 272.70349 
L 365.723791 272.405195 
L 366.548397 272.229113 
L 367.983342 271.937169 
L 368.639131 271.792843 
L 369.431272 271.60965 
L 370.113033 271.472873 
L 371.073991 271.27851 
L 371.723287 271.130985 
L 372.301161 270.997017 
L 373.48288 270.706866 
L 374.093218 270.575362 
L 374.82043 270.412872 
L 375.112613 270.356825 
L 375.963191 270.158843 
L 376.72936 269.994928 
L 379.897925 269.305696 
L 380.793954 269.096547 
L 381.345856 268.97894 
L 381.806856 268.876619 
L 382.384729 268.74362 
L 386.228562 267.90815 
L 387.072647 267.715317 
L 387.812845 267.545567 
L 391.689143 266.682205 
L 398.487273 265.126094 
L 398.487273 265.126094 
" style="fill:none;stroke:#1f77b4;stroke-linecap:square;stroke-width:1.5;"/>
   </g>
   <g id="patch_3">
    <path d="M 57.6 307.584 
L 57.6 41.472 
" style="fill:none;stroke:#000000;stroke-linecap:square;stroke-linejoin:miter;stroke-width:0.8;"/>
   </g>
   <g id="patch_4">
    <path d="M 414.72 307.584 
L 414.72 41.472 
" style="fill:none;stroke:#000000;stroke-linecap:square;stroke-linejoin:miter;stroke-width:0.8;"/>
   </g>
   <g id="patch_5">
    <path d="M 57.6 307.584 
L 414.72 307.584 
" style="fill:none;stroke:#000000;stroke-linecap:square;stroke-linejoin:miter;stroke-width:0.8;"/>
   </g>
   <g id="patch_6">
    <path d="M 57.6 41.472 
L 414.72 41.472 
" style="fill:none;stroke:#000000;stroke-linecap:square;stroke-linejoin:miter;stroke-width:0.8;"/>
   </g>
   <g id="text_17">
    <!-- α=0.001，γ=0.98 -->
    <defs>
     <path d="M 46.09375 50.78125 
Q 51.5625 51.5625 59.375 44.140625 
L 59.375 50.78125 
L 65.625 50.78125 
L 65.625 10.15625 
Q 64.84375 8.59375 69.53125 8.984375 
L 73.046875 8.984375 
L 73.046875 2.734375 
L 63.671875 2.734375 
Q 59.765625 3.125 58.984375 9.765625 
Q 52.34375 1.171875 43.359375 2.734375 
Q 26.171875 5.859375 26.171875 28.125 
Q 27.34375 45.3125 40.625 50 
z
M 45.703125 44.140625 
Q 32.8125 43.359375 32.421875 26.171875 
Q 33.203125 12.5 43.359375 9.375 
L 48.046875 8.984375 
Q 60.15625 12.890625 59.375 29.6875 
Q 57.421875 41.796875 48.046875 44.140625 
z
" id="SimHei-3b1"/>
     <path d="M 46.484375 45.3125 
L 1.953125 45.3125 
L 1.953125 51.5625 
L 46.484375 51.5625 
z
M 46.484375 21.484375 
L 1.953125 21.484375 
L 1.953125 27.734375 
L 46.484375 27.734375 
z
" id="SimHei-3d"/>
     <path d="M 16.796875 1.953125 
L 7.8125 1.953125 
L 7.8125 10.546875 
L 16.796875 10.546875 
z
" id="SimHei-2e"/>
     <path d="M 13.671875 14.84375 
L 27.734375 14.84375 
L 27.734375 -0.78125 
Q 26.5625 -10.546875 17.96875 -15.234375 
L 14.0625 -11.71875 
Q 21.09375 -7.8125 21.09375 0 
L 13.671875 0 
z
" id="SimHei-ff0c"/>
     <path d="M 27.34375 50 
L 33.203125 50 
Q 36.71875 51.953125 42.1875 37.890625 
L 51.171875 19.53125 
L 62.890625 50 
L 70.3125 50 
L 54.6875 10.15625 
L 54.6875 -11.71875 
L 48.046875 -11.71875 
L 48.046875 11.71875 
L 33.203125 42.578125 
Q 32.8125 43.75 27.34375 43.359375 
z
" id="SimHei-3b3"/>
     <path d="M 12.5 1.171875 
Q 21.09375 15.625 26.5625 27.34375 
Q 16.796875 25.78125 10.34375 29.875 
Q 3.90625 33.984375 2.53125 41.015625 
Q 1.171875 48.046875 2.734375 53.703125 
Q 4.296875 59.375 7.609375 63.078125 
Q 10.9375 66.796875 15.625 68.359375 
Q 20.3125 69.921875 24.015625 69.921875 
Q 27.734375 69.921875 31.640625 68.359375 
Q 35.546875 66.796875 38.671875 63.671875 
Q 41.796875 60.546875 42.96875 57.21875 
Q 44.140625 53.90625 44.140625 48.625 
Q 44.140625 43.359375 40.234375 35.15625 
Q 36.328125 26.953125 21.09375 1.171875 
z
M 9.765625 50 
Q 10.9375 39.84375 14.640625 36.515625 
Q 18.359375 33.203125 22.65625 33.59375 
Q 26.953125 33.984375 29.484375 35.9375 
Q 32.03125 37.890625 34.375 42.578125 
Q 35.9375 48.4375 35.15625 52.53125 
Q 34.375 56.640625 31.046875 59.375 
Q 27.734375 62.109375 23.828125 62.109375 
Q 21.484375 62.5 17.765625 60.9375 
Q 14.0625 59.375 11.90625 54.6875 
Q 9.765625 50 10.9375 39.84375 
z
" id="SimHei-39"/>
     <path d="M 2.734375 16.796875 
Q 2.734375 26.171875 5.078125 30.65625 
Q 7.421875 35.15625 12.890625 37.890625 
Q 8.203125 40.625 6.640625 43.9375 
Q 5.078125 47.265625 4.875 51.5625 
Q 4.6875 55.859375 6.046875 58.984375 
Q 7.421875 62.109375 10.15625 64.84375 
Q 12.890625 67.578125 16.203125 68.546875 
Q 19.53125 69.53125 23.4375 69.53125 
Q 27.34375 69.53125 30.46875 68.75 
Q 33.59375 67.96875 37.109375 65.421875 
Q 40.625 62.890625 42.1875 58.203125 
Q 43.75 53.515625 41.984375 47.265625 
Q 40.234375 41.015625 32.8125 37.5 
Q 39.453125 35.546875 42.1875 31.4375 
Q 44.921875 27.34375 44.921875 21.484375 
Q 44.921875 15.625 43.15625 12.109375 
Q 41.40625 8.59375 39.25 6.25 
Q 37.109375 3.90625 33.390625 2.53125 
Q 29.6875 1.171875 24.015625 1.171875 
Q 18.359375 1.171875 14.25 2.53125 
Q 10.15625 3.90625 7.421875 6.640625 
Q 4.6875 9.375 3.703125 13.078125 
Q 2.734375 16.796875 2.734375 26.171875 
z
M 10.9375 26.5625 
Q 10.546875 17.1875 12.296875 13.671875 
Q 14.0625 10.15625 18.75 9.171875 
Q 23.4375 8.203125 28.515625 9.375 
Q 33.59375 10.546875 35.546875 14.84375 
Q 37.5 19.140625 36.90625 23.4375 
Q 36.328125 27.734375 32.03125 30.65625 
Q 27.734375 33.59375 22.65625 33.203125 
Q 17.578125 32.8125 14.25 29.6875 
Q 10.9375 26.5625 10.546875 17.1875 
z
M 12.109375 56.25 
Q 12.109375 48.4375 14.84375 44.921875 
Q 17.578125 41.40625 23.4375 41.40625 
Q 29.296875 41.40625 32.21875 44.921875 
Q 35.15625 48.4375 34.953125 53.3125 
Q 34.765625 58.203125 31.4375 60.546875 
Q 28.125 62.890625 22.453125 62.5 
Q 16.796875 62.109375 14.453125 59.171875 
Q 12.109375 56.25 12.109375 48.4375 
z
" id="SimHei-38"/>
    </defs>
    <g transform="translate(180.91 35.472)scale(0.13 -0.13)">
     <use xlink:href="#SimHei-3b1"/>
     <use x="100" xlink:href="#SimHei-3d"/>
     <use x="150" xlink:href="#SimHei-30"/>
     <use x="200" xlink:href="#SimHei-2e"/>
     <use x="250" xlink:href="#SimHei-30"/>
     <use x="300" xlink:href="#SimHei-30"/>
     <use x="350" xlink:href="#SimHei-31"/>
     <use x="400" xlink:href="#SimHei-ff0c"/>
     <use x="500" xlink:href="#SimHei-3b3"/>
     <use x="600" xlink:href="#SimHei-3d"/>
     <use x="650" xlink:href="#SimHei-30"/>
     <use x="700" xlink:href="#SimHei-2e"/>
     <use x="750" xlink:href="#SimHei-39"/>
     <use x="800" xlink:href="#SimHei-38"/>
    </g>
   </g>
  </g>
 </g>
 <defs>
  <clipPath id="pc3838d534d">
   <rect height="266.112" width="357.12" x="57.6" y="41.472"/>
  </clipPath>
 </defs>
</svg>
