<?xml version="1.0" encoding="utf-8" standalone="no"?>
<!DOCTYPE svg PUBLIC "-//W3C//DTD SVG 1.1//EN"
  "http://www.w3.org/Graphics/SVG/1.1/DTD/svg11.dtd">
<!-- Created with matplotlib (http://matplotlib.org/) -->
<svg height="345.6pt" version="1.1" viewBox="0 0 460.8 345.6" width="460.8pt" xmlns="http://www.w3.org/2000/svg" xmlns:xlink="http://www.w3.org/1999/xlink">
 <defs>
  <style type="text/css">
*{stroke-linecap:butt;stroke-linejoin:round;}
  </style>
 </defs>
 <g id="figure_1">
  <g id="patch_1">
   <path d="M 0 345.6 
L 460.8 345.6 
L 460.8 0 
L 0 0 
z
" style="fill:#ffffff;"/>
  </g>
  <g id="axes_1">
   <g id="patch_2">
    <path d="M 57.6 307.584 
L 414.72 307.584 
L 414.72 41.472 
L 57.6 41.472 
z
" style="fill:#ffffff;"/>
   </g>
   <g id="matplotlib.axis_1">
    <g id="xtick_1">
     <g id="line2d_1">
      <defs>
       <path d="M 0 0 
L 0 3.5 
" id="md774915af4" style="stroke:#000000;stroke-width:0.8;"/>
      </defs>
      <g>
       <use style="stroke:#000000;stroke-width:0.8;" x="73.832727" xlink:href="#md774915af4" y="307.584"/>
      </g>
     </g>
     <g id="text_1">
      <!-- 0 -->
      <defs>
       <path d="M 3.125 29.296875 
Q 3.90625 50 6.4375 56.046875 
Q 8.984375 62.109375 13.671875 66.015625 
Q 18.359375 69.921875 25.1875 69.921875 
Q 32.03125 69.921875 37.109375 64.25 
Q 42.1875 58.59375 43.75 50 
Q 45.3125 41.40625 44.71875 30.265625 
Q 44.140625 19.140625 40.8125 12.109375 
Q 37.5 5.078125 30.859375 2.34375 
Q 24.21875 -0.390625 17.578125 2.921875 
Q 10.9375 6.25 8.203125 11.71875 
Q 5.46875 17.1875 4.296875 23.234375 
Q 3.125 29.296875 3.90625 50 
z
M 12.890625 52.734375 
Q 10.546875 31.25 12.5 22.84375 
Q 14.453125 14.453125 18.9375 10.9375 
Q 23.4375 7.421875 28.125 9.5625 
Q 32.8125 11.71875 34.953125 18.15625 
Q 37.109375 24.609375 37.109375 32.21875 
Q 37.109375 39.84375 36.515625 46.09375 
Q 35.9375 52.34375 33 57.421875 
Q 30.078125 62.5 25.1875 62.6875 
Q 20.3125 62.890625 16.59375 57.8125 
Q 12.890625 52.734375 10.546875 31.25 
z
" id="SimHei-30"/>
      </defs>
      <g transform="translate(70.582727 323.5215)scale(0.13 -0.13)">
       <use xlink:href="#SimHei-30"/>
      </g>
     </g>
    </g>
    <g id="xtick_2">
     <g id="line2d_2">
      <g>
       <use style="stroke:#000000;stroke-width:0.8;" x="138.762338" xlink:href="#md774915af4" y="307.584"/>
      </g>
     </g>
     <g id="text_2">
      <!-- 1 -->
      <defs>
       <path d="M 21.875 56.25 
Q 16.796875 51.171875 8.984375 46.484375 
L 8.984375 53.90625 
Q 18.75 60.546875 25 69.53125 
L 29.6875 69.53125 
L 29.6875 2.34375 
L 21.875 2.34375 
z
" id="SimHei-31"/>
      </defs>
      <g transform="translate(135.512338 323.5215)scale(0.13 -0.13)">
       <use xlink:href="#SimHei-31"/>
      </g>
     </g>
    </g>
    <g id="xtick_3">
     <g id="line2d_3">
      <g>
       <use style="stroke:#000000;stroke-width:0.8;" x="203.691948" xlink:href="#md774915af4" y="307.584"/>
      </g>
     </g>
     <g id="text_3">
      <!-- 2 -->
      <defs>
       <path d="M 4.6875 3.90625 
Q 5.078125 9.765625 10.15625 14.453125 
Q 15.234375 19.140625 23.046875 29.09375 
Q 30.859375 39.0625 33.203125 44.53125 
Q 35.546875 50 34.953125 53.90625 
Q 34.375 57.8125 31.25 60.34375 
Q 28.125 62.890625 24.015625 62.5 
Q 19.921875 62.109375 16.203125 59.375 
Q 12.5 56.640625 10.546875 51.171875 
L 3.125 52.34375 
Q 6.25 61.328125 11.125 65.421875 
Q 16.015625 69.53125 22.65625 69.921875 
Q 26.5625 70.3125 29.6875 69.71875 
Q 32.8125 69.140625 36.125 66.984375 
Q 39.453125 64.84375 41.59375 60.546875 
Q 43.75 56.25 43.15625 50.1875 
Q 42.578125 44.140625 37.109375 35.734375 
Q 31.640625 27.34375 16.015625 9.375 
L 44.140625 9.375 
L 44.140625 2.34375 
L 4.6875 2.34375 
z
" id="SimHei-32"/>
      </defs>
      <g transform="translate(200.441948 323.5215)scale(0.13 -0.13)">
       <use xlink:href="#SimHei-32"/>
      </g>
     </g>
    </g>
    <g id="xtick_4">
     <g id="line2d_4">
      <g>
       <use style="stroke:#000000;stroke-width:0.8;" x="268.621559" xlink:href="#md774915af4" y="307.584"/>
      </g>
     </g>
     <g id="text_4">
      <!-- 3 -->
      <defs>
       <path d="M 3.90625 19.140625 
L 10.9375 20.3125 
Q 12.5 15.234375 16.015625 11.90625 
Q 19.53125 8.59375 24.796875 8.78125 
Q 30.078125 8.984375 33.203125 13.078125 
Q 36.328125 17.1875 35.9375 22.453125 
Q 35.546875 27.734375 31.828125 30.65625 
Q 28.125 33.59375 19.921875 34.765625 
L 19.921875 39.84375 
Q 28.125 40.625 31.828125 44.140625 
Q 35.546875 47.65625 35.15625 53.3125 
Q 34.765625 58.984375 30.078125 61.515625 
Q 25.390625 64.0625 20.109375 62.109375 
Q 14.84375 60.15625 11.71875 51.171875 
L 4.6875 52.34375 
Q 7.03125 59.375 11.125 64.0625 
Q 15.234375 68.75 22.265625 69.53125 
Q 29.296875 70.3125 34.5625 67.765625 
Q 39.84375 65.234375 41.984375 59.953125 
Q 44.140625 54.6875 42.578125 48.4375 
Q 41.015625 42.1875 33.59375 37.5 
Q 39.0625 35.15625 41.984375 30.46875 
Q 44.921875 25.78125 43.9375 18.15625 
Q 42.96875 10.546875 37.109375 5.859375 
Q 31.25 1.171875 23.828125 1.359375 
Q 16.40625 1.5625 10.9375 6.046875 
Q 5.46875 10.546875 3.90625 19.140625 
z
" id="SimHei-33"/>
      </defs>
      <g transform="translate(265.371559 323.5215)scale(0.13 -0.13)">
       <use xlink:href="#SimHei-33"/>
      </g>
     </g>
    </g>
    <g id="xtick_5">
     <g id="line2d_5">
      <g>
       <use style="stroke:#000000;stroke-width:0.8;" x="333.551169" xlink:href="#md774915af4" y="307.584"/>
      </g>
     </g>
     <g id="text_5">
      <!-- 4 -->
      <defs>
       <path d="M 31.25 17.1875 
L 1.171875 17.1875 
L 1.171875 23.828125 
L 32.8125 69.53125 
L 38.671875 69.53125 
L 38.671875 23.828125 
L 48.046875 23.828125 
L 48.046875 17.1875 
L 38.671875 17.1875 
L 38.671875 2.34375 
L 31.25 2.34375 
z
M 31.25 23.828125 
L 31.25 54.6875 
L 9.375 23.828125 
z
" id="SimHei-34"/>
      </defs>
      <g transform="translate(330.301169 323.5215)scale(0.13 -0.13)">
       <use xlink:href="#SimHei-34"/>
      </g>
     </g>
    </g>
    <g id="xtick_6">
     <g id="line2d_6">
      <g>
       <use style="stroke:#000000;stroke-width:0.8;" x="398.48078" xlink:href="#md774915af4" y="307.584"/>
      </g>
     </g>
     <g id="text_6">
      <!-- 5 -->
      <defs>
       <path d="M 8.59375 20.703125 
Q 11.328125 10.15625 17.96875 8.984375 
Q 24.609375 7.8125 28.703125 10.34375 
Q 32.8125 12.890625 34.5625 16.984375 
Q 36.328125 21.09375 36.125 26.171875 
Q 35.9375 31.25 33.390625 34.765625 
Q 30.859375 38.28125 26.953125 39.453125 
Q 23.046875 40.625 18.15625 39.453125 
Q 13.28125 38.28125 10.15625 33.984375 
L 3.515625 34.765625 
Q 4.296875 37.109375 10.9375 68.359375 
L 41.796875 68.359375 
L 41.796875 61.328125 
L 16.796875 61.328125 
Q 14.84375 50.78125 12.890625 44.53125 
Q 18.75 47.265625 23.828125 47.0625 
Q 28.90625 46.875 33.59375 44.71875 
Q 38.28125 42.578125 40.421875 38.859375 
Q 42.578125 35.15625 43.546875 31.4375 
Q 44.53125 27.734375 44.328125 23.4375 
Q 44.140625 19.140625 42.578125 14.640625 
Q 41.015625 10.15625 37.890625 7.21875 
Q 34.765625 4.296875 30.265625 2.53125 
Q 25.78125 0.78125 19.921875 1.171875 
Q 14.0625 1.5625 8.78125 5.46875 
Q 3.515625 9.375 1.5625 18.75 
z
" id="SimHei-35"/>
      </defs>
      <g transform="translate(395.23078 323.5215)scale(0.13 -0.13)">
       <use xlink:href="#SimHei-35"/>
      </g>
     </g>
    </g>
    <g id="text_7">
     <!-- Episode/k -->
     <defs>
      <path d="M 45.3125 1.953125 
L 5.46875 1.953125 
L 5.46875 68.75 
L 43.359375 68.75 
L 43.359375 61.328125 
L 14.453125 61.328125 
L 14.453125 40.625 
L 41.015625 40.625 
L 41.015625 33.203125 
L 14.453125 33.203125 
L 14.453125 9.375 
L 45.3125 9.375 
z
" id="SimHei-45"/>
      <path d="M 44.140625 23.828125 
Q 44.140625 12.5 38.671875 6.640625 
Q 33.203125 0.78125 25.390625 0.78125 
Q 21.09375 0.78125 17.96875 2.53125 
Q 14.84375 4.296875 12.5 7.8125 
L 12.5 -12.5 
L 4.6875 -12.5 
L 4.6875 45.703125 
L 12.5 45.703125 
L 12.5 39.84375 
Q 14.84375 43.359375 17.96875 44.921875 
Q 21.09375 46.484375 25.390625 46.484375 
Q 33.203125 46.484375 38.671875 40.8125 
Q 44.140625 35.15625 44.140625 23.828125 
z
M 35.546875 23.828125 
Q 35.546875 31.25 32.609375 35.34375 
Q 29.6875 39.453125 23.828125 39.453125 
Q 19.140625 39.453125 15.8125 35.34375 
Q 12.5 31.25 12.5 23.828125 
Q 12.5 16.40625 15.8125 12.109375 
Q 19.140625 7.8125 23.828125 7.8125 
Q 29.6875 7.8125 32.609375 12.109375 
Q 35.546875 16.40625 35.546875 23.828125 
z
" id="SimHei-70"/>
      <path d="M 28.125 58.203125 
L 20.3125 58.203125 
L 20.3125 68.359375 
L 28.125 68.359375 
z
M 28.125 1.953125 
L 20.3125 1.953125 
L 20.3125 45.703125 
L 28.125 45.703125 
z
" id="SimHei-69"/>
      <path d="M 42.96875 14.0625 
Q 42.96875 7.8125 38.078125 4.484375 
Q 33.203125 1.171875 25.78125 1.171875 
Q 16.40625 1.171875 11.328125 4.875 
Q 6.25 8.59375 6.25 15.625 
L 14.0625 15.625 
Q 14.0625 10.9375 17.375 9.375 
Q 20.703125 7.8125 25.390625 7.8125 
Q 30.078125 7.8125 32.421875 9.5625 
Q 34.765625 11.328125 34.765625 14.0625 
Q 34.765625 16.015625 32.8125 17.96875 
Q 30.859375 19.921875 23.046875 21.09375 
Q 14.0625 22.265625 10.734375 25.578125 
Q 7.421875 28.90625 7.421875 34.375 
Q 7.421875 39.0625 11.90625 42.765625 
Q 16.40625 46.484375 25 46.484375 
Q 32.8125 46.484375 37.296875 42.96875 
Q 41.796875 39.453125 41.796875 33.59375 
L 33.984375 33.59375 
Q 33.984375 37.109375 31.4375 38.46875 
Q 28.90625 39.84375 25 39.84375 
Q 19.921875 39.84375 17.765625 38.078125 
Q 15.625 36.328125 15.625 33.984375 
Q 15.625 31.25 17.578125 29.6875 
Q 19.53125 28.125 25.78125 27.34375 
Q 35.9375 25.78125 39.453125 22.453125 
Q 42.96875 19.140625 42.96875 14.0625 
z
" id="SimHei-73"/>
      <path d="M 45.703125 23.828125 
Q 45.703125 13.671875 39.453125 7.421875 
Q 33.203125 1.171875 24.609375 1.171875 
Q 16.015625 1.171875 9.765625 7.421875 
Q 3.515625 13.671875 3.515625 23.828125 
Q 3.515625 33.984375 9.765625 40.234375 
Q 16.015625 46.484375 24.609375 46.484375 
Q 33.203125 46.484375 39.453125 40.234375 
Q 45.703125 33.984375 45.703125 23.828125 
z
M 37.109375 23.828125 
Q 37.109375 31.640625 33.203125 35.546875 
Q 29.296875 39.453125 24.609375 39.453125 
Q 19.921875 39.453125 16.015625 35.546875 
Q 12.109375 31.640625 12.109375 23.828125 
Q 12.109375 16.015625 16.015625 12.109375 
Q 19.921875 8.203125 24.609375 8.203125 
Q 29.296875 8.203125 33.203125 12.109375 
Q 37.109375 16.015625 37.109375 23.828125 
z
" id="SimHei-6f"/>
      <path d="M 42.96875 1.953125 
L 35.15625 1.953125 
L 35.15625 7.8125 
Q 32.8125 4.296875 29.6875 2.734375 
Q 26.5625 1.171875 22.265625 1.171875 
Q 14.453125 1.171875 8.984375 6.828125 
Q 3.515625 12.5 3.515625 23.828125 
Q 3.515625 35.15625 8.984375 41.015625 
Q 14.453125 46.875 22.265625 46.875 
Q 26.5625 46.875 29.6875 45.109375 
Q 32.8125 43.359375 35.15625 39.84375 
L 35.15625 68.75 
L 42.96875 68.75 
z
M 35.15625 23.828125 
Q 35.15625 31.25 31.828125 35.546875 
Q 28.515625 39.84375 23.828125 39.84375 
Q 17.96875 39.84375 15.03125 35.546875 
Q 12.109375 31.25 12.109375 23.828125 
Q 12.109375 16.40625 15.03125 12.296875 
Q 17.96875 8.203125 23.828125 8.203125 
Q 28.515625 8.203125 31.828125 12.296875 
Q 35.15625 16.40625 35.15625 23.828125 
z
" id="SimHei-64"/>
      <path d="M 44.53125 16.796875 
Q 43.75 9.765625 38.28125 5.46875 
Q 32.8125 1.171875 25.390625 1.171875 
Q 16.015625 1.171875 9.953125 7.21875 
Q 3.90625 13.28125 3.90625 23.828125 
Q 3.90625 34.375 9.953125 40.421875 
Q 16.015625 46.484375 25.390625 46.484375 
Q 33.59375 46.484375 38.859375 41.203125 
Q 44.140625 35.9375 44.140625 23.828125 
L 12.5 23.828125 
Q 12.5 15.234375 16.203125 11.71875 
Q 19.921875 8.203125 25.390625 8.203125 
Q 29.6875 8.203125 32.421875 10.34375 
Q 35.15625 12.5 35.9375 16.796875 
z
M 35.15625 30.078125 
Q 34.375 35.546875 31.640625 37.6875 
Q 28.90625 39.84375 24.609375 39.84375 
Q 20.703125 39.84375 17.578125 37.6875 
Q 14.453125 35.546875 12.890625 30.078125 
z
" id="SimHei-65"/>
      <path d="M 46.875 71.09375 
L 5.46875 -2.734375 
L 1.5625 -0.390625 
L 42.96875 73.4375 
z
" id="SimHei-2f"/>
      <path d="M 45.703125 1.953125 
L 36.71875 1.953125 
L 22.65625 25.78125 
L 13.671875 17.1875 
L 13.671875 1.953125 
L 5.859375 1.953125 
L 5.859375 68.75 
L 13.671875 68.75 
L 13.671875 26.171875 
L 33.203125 45.703125 
L 42.96875 45.703125 
L 27.734375 30.859375 
z
" id="SimHei-6b"/>
     </defs>
     <g transform="translate(202.41 340.162125)scale(0.15 -0.15)">
      <use xlink:href="#SimHei-45"/>
      <use x="50" xlink:href="#SimHei-70"/>
      <use x="100" xlink:href="#SimHei-69"/>
      <use x="150" xlink:href="#SimHei-73"/>
      <use x="200" xlink:href="#SimHei-6f"/>
      <use x="250" xlink:href="#SimHei-64"/>
      <use x="300" xlink:href="#SimHei-65"/>
      <use x="350" xlink:href="#SimHei-2f"/>
      <use x="400" xlink:href="#SimHei-6b"/>
     </g>
    </g>
    <g id="text_8">
     <!-- 1e4 -->
     <g transform="translate(399.72 335.0215)scale(0.1 -0.1)">
      <use xlink:href="#SimHei-31"/>
      <use x="50" xlink:href="#SimHei-65"/>
      <use x="100" xlink:href="#SimHei-34"/>
     </g>
    </g>
   </g>
   <g id="matplotlib.axis_2">
    <g id="ytick_1">
     <g id="line2d_7">
      <defs>
       <path d="M 0 0 
L -3.5 0 
" id="mdf8c2aa9cf" style="stroke:#000000;stroke-width:0.8;"/>
      </defs>
      <g>
       <use style="stroke:#000000;stroke-width:0.8;" x="57.6" xlink:href="#mdf8c2aa9cf" y="272.318381"/>
      </g>
     </g>
     <g id="text_9">
      <!-- -4 -->
      <defs>
       <path d="M 46.484375 33.203125 
L 1.953125 33.203125 
L 1.953125 39.453125 
L 46.484375 39.453125 
z
" id="SimHei-2d"/>
      </defs>
      <g transform="translate(37.6 276.787131)scale(0.13 -0.13)">
       <use xlink:href="#SimHei-2d"/>
       <use x="50" xlink:href="#SimHei-34"/>
      </g>
     </g>
    </g>
    <g id="ytick_2">
     <g id="line2d_8">
      <g>
       <use style="stroke:#000000;stroke-width:0.8;" x="57.6" xlink:href="#mdf8c2aa9cf" y="217.633359"/>
      </g>
     </g>
     <g id="text_10">
      <!-- -3 -->
      <g transform="translate(37.6 222.102109)scale(0.13 -0.13)">
       <use xlink:href="#SimHei-2d"/>
       <use x="50" xlink:href="#SimHei-33"/>
      </g>
     </g>
    </g>
    <g id="ytick_3">
     <g id="line2d_9">
      <g>
       <use style="stroke:#000000;stroke-width:0.8;" x="57.6" xlink:href="#mdf8c2aa9cf" y="162.948338"/>
      </g>
     </g>
     <g id="text_11">
      <!-- -2 -->
      <g transform="translate(37.6 167.417088)scale(0.13 -0.13)">
       <use xlink:href="#SimHei-2d"/>
       <use x="50" xlink:href="#SimHei-32"/>
      </g>
     </g>
    </g>
    <g id="ytick_4">
     <g id="line2d_10">
      <g>
       <use style="stroke:#000000;stroke-width:0.8;" x="57.6" xlink:href="#mdf8c2aa9cf" y="108.263316"/>
      </g>
     </g>
     <g id="text_12">
      <!-- -1 -->
      <g transform="translate(37.6 112.732066)scale(0.13 -0.13)">
       <use xlink:href="#SimHei-2d"/>
       <use x="50" xlink:href="#SimHei-31"/>
      </g>
     </g>
    </g>
    <g id="ytick_5">
     <g id="line2d_11">
      <g>
       <use style="stroke:#000000;stroke-width:0.8;" x="57.6" xlink:href="#mdf8c2aa9cf" y="53.578294"/>
      </g>
     </g>
     <g id="text_13">
      <!-- 0 -->
      <g transform="translate(44.1 58.047044)scale(0.13 -0.13)">
       <use xlink:href="#SimHei-30"/>
      </g>
     </g>
    </g>
    <g id="text_14">
     <!-- Cumulative -->
     <defs>
      <path d="M 46.484375 28.515625 
Q 46.09375 13.671875 40.234375 7.421875 
Q 34.375 1.171875 26.171875 1.171875 
Q 16.796875 1.171875 10.15625 8.78125 
Q 3.515625 16.40625 3.515625 33.203125 
Q 3.515625 51.5625 9.953125 60.546875 
Q 16.40625 69.53125 26.5625 69.53125 
Q 35.15625 69.53125 40.8125 63.078125 
Q 46.484375 56.640625 46.09375 44.921875 
L 37.5 44.921875 
Q 37.5 53.515625 34.765625 57.8125 
Q 32.03125 62.109375 26.5625 62.109375 
Q 20.3125 62.109375 16.59375 55.65625 
Q 12.890625 49.21875 12.890625 33.984375 
Q 12.890625 19.921875 16.59375 14.25 
Q 20.3125 8.59375 26.171875 8.59375 
Q 30.46875 8.59375 33.984375 12.6875 
Q 37.5 16.796875 37.5 28.515625 
z
" id="SimHei-43"/>
      <path d="M 43.75 1.953125 
L 35.9375 1.953125 
L 35.9375 10.15625 
Q 32.8125 5.859375 29.09375 3.515625 
Q 25.390625 1.171875 19.53125 1.171875 
Q 12.5 1.171875 8.984375 5.078125 
Q 5.46875 8.984375 5.46875 14.84375 
L 5.46875 45.703125 
L 13.28125 45.703125 
L 13.28125 17.578125 
Q 13.28125 12.890625 15.625 10.15625 
Q 17.96875 7.421875 21.875 7.421875 
Q 26.953125 7.421875 31.4375 12.6875 
Q 35.9375 17.96875 35.9375 25.78125 
L 35.9375 45.703125 
L 43.75 45.703125 
z
" id="SimHei-75"/>
      <path d="M 47.65625 1.953125 
L 39.84375 1.953125 
L 39.84375 33.59375 
Q 39.84375 35.9375 39.0625 37.5 
Q 38.28125 39.0625 35.9375 39.0625 
Q 33.203125 39.0625 30.859375 36.125 
Q 28.515625 33.203125 28.515625 28.515625 
L 28.515625 1.953125 
L 20.703125 1.953125 
L 20.703125 33.59375 
Q 20.703125 35.9375 19.921875 37.5 
Q 19.140625 39.0625 16.796875 39.0625 
Q 14.0625 39.0625 11.71875 36.125 
Q 9.375 33.203125 9.375 28.515625 
L 9.375 1.953125 
L 1.5625 1.953125 
L 1.5625 45.703125 
L 9.375 45.703125 
L 9.375 39.84375 
Q 11.328125 42.96875 14.0625 44.71875 
Q 16.796875 46.484375 19.921875 46.484375 
Q 23.046875 46.484375 25.1875 44.71875 
Q 27.34375 42.96875 28.125 39.84375 
Q 30.078125 42.96875 32.609375 44.71875 
Q 35.15625 46.484375 38.28125 46.484375 
Q 42.96875 46.484375 45.3125 43.9375 
Q 47.65625 41.40625 47.65625 36.71875 
z
" id="SimHei-6d"/>
      <path d="M 28.515625 1.953125 
L 20.703125 1.953125 
L 20.703125 68.75 
L 28.515625 68.75 
z
" id="SimHei-6c"/>
      <path d="M 44.921875 1.953125 
L 35.546875 1.953125 
Q 34.765625 2.734375 34.375 4.09375 
Q 33.984375 5.46875 33.984375 7.421875 
Q 31.25 4.296875 27.34375 2.734375 
Q 23.4375 1.171875 19.140625 1.171875 
Q 12.890625 1.171875 8.59375 4.296875 
Q 4.296875 7.421875 4.296875 13.28125 
Q 4.296875 19.140625 8.203125 22.65625 
Q 12.109375 26.171875 20.3125 27.34375 
Q 25.78125 28.125 29.875 29.296875 
Q 33.984375 30.46875 33.984375 32.421875 
Q 33.984375 34.765625 32.21875 37.109375 
Q 30.46875 39.453125 24.609375 39.453125 
Q 19.921875 39.453125 17.765625 37.6875 
Q 15.625 35.9375 14.84375 32.8125 
L 6.25 32.8125 
Q 7.03125 39.0625 11.90625 42.765625 
Q 16.796875 46.484375 24.609375 46.484375 
Q 33.203125 46.484375 37.5 42.578125 
Q 41.796875 38.671875 41.796875 31.640625 
L 41.796875 10.15625 
Q 41.796875 7.8125 42.578125 5.859375 
Q 43.359375 3.90625 44.921875 1.953125 
z
M 33.984375 16.40625 
L 33.984375 24.21875 
Q 31.640625 23.4375 29.484375 22.84375 
Q 27.34375 22.265625 22.265625 21.484375 
Q 16.40625 20.703125 14.640625 18.75 
Q 12.890625 16.796875 12.890625 14.0625 
Q 12.890625 11.71875 14.640625 9.953125 
Q 16.40625 8.203125 19.921875 8.203125 
Q 23.4375 8.203125 27.53125 10.15625 
Q 31.640625 12.109375 33.984375 16.40625 
z
" id="SimHei-61"/>
      <path d="M 42.96875 3.125 
Q 41.015625 2.34375 38.46875 1.75 
Q 35.9375 1.171875 31.640625 1.171875 
Q 24.609375 1.171875 20.3125 5.078125 
Q 16.015625 8.984375 16.015625 16.015625 
L 16.015625 39.453125 
L 2.734375 39.453125 
L 2.734375 45.703125 
L 16.015625 45.703125 
L 16.015625 60.9375 
L 23.828125 60.9375 
L 23.828125 45.703125 
L 39.84375 45.703125 
L 39.84375 39.453125 
L 23.828125 39.453125 
L 23.828125 15.625 
Q 23.828125 12.5 25.390625 10.34375 
Q 26.953125 8.203125 31.25 8.203125 
Q 35.546875 8.203125 38.28125 8.984375 
Q 41.015625 9.765625 42.96875 10.9375 
z
" id="SimHei-74"/>
      <path d="M 44.921875 45.703125 
L 28.515625 1.171875 
L 19.921875 1.171875 
L 3.515625 45.703125 
L 11.71875 45.703125 
L 23.828125 11.71875 
L 24.609375 11.71875 
L 36.71875 45.703125 
z
" id="SimHei-76"/>
     </defs>
     <g transform="translate(31.725 212.028)rotate(-90)scale(0.15 -0.15)">
      <use xlink:href="#SimHei-43"/>
      <use x="50" xlink:href="#SimHei-75"/>
      <use x="100" xlink:href="#SimHei-6d"/>
      <use x="150" xlink:href="#SimHei-75"/>
      <use x="200" xlink:href="#SimHei-6c"/>
      <use x="250" xlink:href="#SimHei-61"/>
      <use x="300" xlink:href="#SimHei-74"/>
      <use x="350" xlink:href="#SimHei-69"/>
      <use x="400" xlink:href="#SimHei-76"/>
      <use x="450" xlink:href="#SimHei-65"/>
     </g>
    </g>
    <g id="text_15">
     <!-- 1e6 -->
     <defs>
      <path d="M 3.515625 19.53125 
Q 4.296875 30.859375 6.046875 34.765625 
Q 7.8125 38.671875 11.328125 44.53125 
L 27.34375 69.53125 
L 36.328125 69.53125 
L 19.921875 43.75 
Q 30.46875 46.484375 36.71875 42.96875 
Q 42.96875 39.453125 45.109375 34.953125 
Q 47.265625 30.46875 47.453125 25.1875 
Q 47.65625 19.921875 45.890625 14.84375 
Q 44.140625 9.765625 39.640625 5.65625 
Q 35.15625 1.5625 27.140625 1.171875 
Q 19.140625 0.78125 13.46875 4.09375 
Q 7.8125 7.421875 5.65625 13.46875 
Q 3.515625 19.53125 4.296875 30.859375 
z
M 12.5 16.015625 
Q 19.53125 8.59375 25.390625 8.203125 
Q 31.25 7.8125 35.15625 12.109375 
Q 39.0625 16.40625 39.0625 24.609375 
Q 39.0625 32.8125 34.171875 35.9375 
Q 29.296875 39.0625 23.234375 38.28125 
Q 17.1875 37.5 14.453125 32.421875 
Q 11.71875 27.34375 12.109375 21.671875 
Q 12.5 16.015625 19.53125 8.59375 
z
" id="SimHei-36"/>
     </defs>
     <g transform="translate(57.6 38.472)scale(0.1 -0.1)">
      <use xlink:href="#SimHei-31"/>
      <use x="50" xlink:href="#SimHei-65"/>
      <use x="100" xlink:href="#SimHei-36"/>
     </g>
    </g>
   </g>
   <g id="line2d_12">
    <path clip-path="url(#pe966f67fe4)" d="M 73.832727 53.578294 
L 73.865192 53.668022 
L 74.027516 54.370341 
L 74.034009 54.365158 
L 74.053488 54.41076 
L 74.235291 55.689447 
L 74.293728 55.907578 
L 74.520981 57.1187 
L 74.624869 57.541632 
L 74.800178 58.421839 
L 75.300136 61.16169 
L 75.423503 62.015798 
L 75.52739 62.486856 
L 75.663742 63.126682 
L 75.676728 63.119076 
L 75.683221 63.163327 
L 75.826066 64.094501 
L 75.845545 64.272659 
L 76.079292 65.585302 
L 76.235123 66.100656 
L 76.851954 69.040413 
L 76.955842 69.511069 
L 77.072715 70.204174 
L 77.092194 70.199554 
L 77.137644 70.296276 
L 77.39087 71.967103 
L 77.579166 73.03197 
L 77.897321 74.574355 
L 77.9168 74.570421 
L 77.929786 74.679229 
L 78.007701 75.125368 
L 78.176518 75.968204 
L 79.449139 82.137443 
L 79.578998 83.061579 
L 80.552942 89.567124 
L 80.559435 89.57082 
L 80.708773 90.570065 
L 80.715266 90.577586 
L 80.838632 91.901117 
L 80.845125 91.897781 
L 80.884083 91.910537 
L 81.039914 92.865261 
L 81.0529 92.854577 
L 81.065886 92.936623 
L 81.078872 92.932478 
L 82.643675 104.477561 
L 82.857943 106.538535 
L 82.870929 106.631579 
L 82.877422 106.626516 
L 83.033253 107.861196 
L 83.09169 108.309951 
L 83.234535 109.440616 
L 83.254014 109.650259 
L 83.416338 111.258151 
L 83.448803 111.522651 
L 83.585155 113.484489 
L 83.598141 113.484853 
L 83.604634 113.518138 
L 83.779944 115.212247 
L 83.851366 115.579932 
L 84.026676 117.323033 
L 84.403268 120.620079 
L 84.409761 120.619111 
L 84.591564 122.182943 
L 84.682465 122.699688 
L 84.688958 122.694851 
L 84.838296 124.379132 
L 84.987634 125.348984 
L 86.831635 140.346513 
L 86.955002 141.556182 
L 87.110833 142.464988 
L 87.260171 143.870524 
L 87.299128 143.962589 
L 87.45496 145.122556 
L 87.467945 145.11344 
L 87.50041 145.239702 
L 87.753636 147.620691 
L 87.760129 147.619002 
L 87.766622 147.692347 
L 87.941932 149.053216 
L 88.396439 153.140927 
L 88.545777 154.201262 
L 88.604214 154.308026 
L 90.078116 163.478077 
L 90.220961 164.763253 
L 90.227454 164.759412 
L 90.363806 166.021384 
L 90.467693 166.373859 
L 90.63651 167.368124 
L 90.655989 167.386827 
L 90.792342 168.162017 
L 90.98713 168.785587 
L 92.532455 177.62494 
L 92.56492 177.662571 
L 92.571413 177.714402 
L 92.837624 179.245915 
L 92.91554 179.724142 
L 93.045399 180.609688 
L 93.051892 180.607409 
L 93.246681 181.748777 
L 93.305117 182.164302 
L 93.434977 183.037229 
L 93.480427 183.110007 
L 93.655737 184.46 
L 93.675216 184.576604 
L 93.818061 185.268795 
L 94.032329 186.589193 
L 94.038822 186.583369 
L 94.045315 186.578356 
L 94.051808 186.652363 
L 94.090766 186.649929 
L 94.733569 190.301714 
L 94.753048 190.305459 
L 94.772527 190.361291 
L 94.895893 190.84262 
L 94.902386 190.839213 
L 94.941344 190.937847 
L 95.077696 191.33899 
L 95.090682 191.330962 
L 95.097175 191.326898 
L 95.259499 192.387325 
L 95.311442 192.448368 
L 95.584147 193.807639 
L 95.610119 193.803624 
L 95.629598 193.867512 
L 95.8114 194.595808 
L 95.817893 194.590297 
L 95.928274 194.969268 
L 95.934767 194.964759 
L 96.16202 196.080536 
L 96.168513 196.076382 
L 96.187992 196.171873 
L 96.460697 197.098853 
L 96.473682 197.092079 
L 96.506147 197.201659 
L 96.681457 197.742512 
L 96.954162 199.072909 
L 97.21388 200.189301 
L 97.220373 200.187173 
L 97.350232 201.28487 
L 97.356725 201.283215 
L 97.661894 202.452637 
L 97.707345 202.582531 
L 97.895641 203.456944 
L 97.908627 203.448877 
L 97.928106 203.450732 
L 97.941092 203.500669 
L 97.954078 203.489638 
L 98.142373 204.406022 
L 98.278726 204.474164 
L 98.395599 205.182672 
L 98.415078 205.176389 
L 98.499486 205.521189 
L 98.694275 206.01275 
L 98.707261 206.005919 
L 98.765698 206.084449 
L 99.070867 207.319369 
L 99.07736 207.31362 
L 99.129304 207.399352 
L 99.616276 208.897859 
L 99.791586 209.755386 
L 99.82405 209.859883 
L 100.018839 210.456743 
L 100.051304 210.478687 
L 100.06429 210.53984 
L 100.791502 212.854849 
L 100.947333 213.474999 
L 100.973304 213.507814 
L 101.11615 214.012192 
L 101.207051 214.151946 
L 101.544685 215.123228 
L 101.564164 215.145928 
L 101.700516 215.662226 
L 101.784925 215.919159 
L 102.070615 216.9541 
L 102.142037 217.086966 
L 102.330333 217.80196 
L 102.38877 217.948514 
L 102.862756 220.400426 
L 102.921193 220.4458 
L 103.226362 222.063525 
L 103.245841 222.147366 
L 103.447123 223.079872 
L 103.453616 223.074531 
L 103.635418 224.089421 
L 103.765278 224.987614 
L 103.869165 225.250088 
L 104.628842 229.607221 
L 104.635334 229.602654 
L 104.641827 229.597842 
L 104.654813 229.615556 
L 104.784673 230.202507 
L 104.992447 231.68113 
L 104.99894 231.676063 
L 105.018419 231.787695 
L 105.187236 232.48058 
L 105.200222 232.472353 
L 105.213208 232.559247 
L 105.23918 232.559829 
L 105.914448 234.934821 
L 105.927434 234.930642 
L 105.946913 235.044247 
L 106.154687 235.530025 
L 106.5118 236.438639 
L 106.596209 236.724375 
L 106.842941 237.648213 
L 106.985786 238.112142 
L 107.044223 238.146617 
L 107.187068 238.600673 
L 107.62859 239.629329 
L 107.784421 240.181682 
L 107.875322 240.329842 
L 108.005181 240.602959 
L 108.173998 240.967746 
L 108.277886 241.104395 
L 108.693435 242.219102 
L 108.699928 242.216049 
L 108.764858 242.323245 
L 108.959647 243.219694 
L 109.095999 243.645217 
L 109.303773 243.982183 
L 109.849182 245.313829 
L 109.979041 245.561553 
L 109.992027 245.558419 
L 110.271225 246.317243 
L 110.284211 246.308327 
L 110.407577 246.607225 
L 110.459521 246.715096 
L 110.894549 247.279132 
L 110.901042 247.274842 
L 110.907535 247.269288 
L 110.927014 247.338526 
L 110.933507 247.339048 
L 111.076352 247.612519 
L 111.245169 247.866396 
L 111.388014 248.273163 
L 111.543845 248.452493 
L 111.550338 248.448586 
L 111.75162 248.797762 
L 111.900958 249.112616 
L 111.985366 249.247389 
L 112.160676 249.611041 
L 112.381437 249.858614 
L 112.524282 250.115072 
L 113.933255 252.817881 
L 114.050128 253.132519 
L 114.056621 253.131238 
L 114.173494 253.215069 
L 114.303353 253.413594 
L 114.309846 253.408402 
L 114.400748 253.481705 
L 114.595537 254.116411 
L 114.608523 254.106086 
L 114.621509 254.222709 
L 114.634495 254.222427 
L 114.790326 254.546749 
L 114.933171 254.933201 
L 114.972128 254.951972 
L 114.991607 255.004105 
L 115.114974 255.258287 
L 115.134453 255.289465 
L 115.218861 255.311726 
L 115.322748 255.418352 
L 115.446115 255.509396 
L 115.452608 255.505623 
L 115.504551 255.526813 
L 115.472086 255.538569 
L 115.52403 255.588931 
L 115.562988 255.689486 
L 115.751284 256.019332 
L 115.835692 256.169295 
L 115.98503 256.455446 
L 116.127876 256.508275 
L 116.153847 256.560073 
L 116.296693 256.944657 
L 116.361622 257.040283 
L 116.757693 257.663367 
L 116.816129 257.670436 
L 116.835608 257.725584 
L 116.984946 257.935988 
L 117.049876 257.964933 
L 117.056369 258.010047 
L 117.225186 258.237631 
L 117.965384 259.119825 
L 118.08875 259.310622 
L 118.186144 259.380125 
L 118.757525 260.316604 
L 118.887384 260.504821 
L 121.517033 263.657348 
L 121.640399 263.891973 
L 121.646892 263.886828 
L 122.049456 264.251584 
L 122.14685 264.359539 
L 122.27671 264.552892 
L 122.283203 264.549824 
L 122.348132 264.575216 
L 122.361118 264.609171 
L 122.607851 265.146237 
L 122.620837 265.136232 
L 122.744203 265.197631 
L 122.971456 265.325364 
L 123.107809 265.467046 
L 123.120795 265.456978 
L 123.218189 265.629389 
L 123.458429 266.241714 
L 123.464922 266.237796 
L 123.471414 266.233317 
L 123.4844 266.32125 
L 123.529851 266.321301 
L 123.731133 266.69692 
L 123.958387 267.196227 
L 123.971372 267.190725 
L 124.036302 267.233417 
L 124.042795 267.267209 
L 124.166161 267.535857 
L 124.211612 267.510813 
L 124.263556 267.612316 
L 124.406401 267.72572 
L 124.53626 267.798769 
L 124.542753 267.795018 
L 124.549246 267.789294 
L 124.568725 267.843318 
L 124.614176 267.868356 
L 124.737542 267.93699 
L 124.744035 267.933982 
L 125.003753 268.099528 
L 125.289444 268.295286 
L 125.386838 268.394174 
L 126.010162 269.140241 
L 126.133529 269.19918 
L 126.945149 270.213881 
L 127.094487 270.398712 
L 127.107473 270.437202 
L 127.185388 270.443426 
L 127.354205 270.69566 
L 127.56198 270.846995 
L 127.568473 270.842876 
L 127.834684 271.015389 
L 127.964544 271.17931 
L 128.230755 271.281887 
L 128.347628 271.365095 
L 128.48398 271.572086 
L 128.490473 271.568495 
L 128.600854 271.666223 
L 128.717727 271.803809 
L 128.730713 271.798525 
L 128.782657 271.874858 
L 128.841093 271.964581 
L 128.89953 271.95314 
L 128.938488 271.978323 
L 128.951474 272.049867 
L 129.081333 272.140871 
L 129.087826 272.137398 
L 129.237164 272.188209 
L 129.431953 272.360288 
L 129.568305 272.459756 
L 129.665699 272.515855 
L 129.691671 272.506883 
L 130.087742 272.780739 
L 130.243573 272.910417 
L 130.256559 272.900792 
L 130.704573 273.215696 
L 130.795475 273.364486 
L 130.827939 273.354334 
L 130.918841 273.423044 
L 131.068179 273.600283 
L 131.152587 273.743114 
L 131.275954 273.84594 
L 131.321404 273.89965 
L 131.327897 273.936099 
L 131.529179 274.129629 
L 131.665531 274.151926 
L 131.788898 274.235737 
L 132.133025 274.524232 
L 132.236912 274.598963 
L 132.509616 274.731204 
L 132.529095 274.727252 
L 132.56156 274.818317 
L 132.568053 274.814929 
L 132.710898 274.992311 
L 132.723884 274.987793 
L 132.834264 275.04828 
L 133.074504 275.204162 
L 133.171898 275.220291 
L 133.184884 275.257276 
L 133.327729 275.322388 
L 133.496546 275.372276 
L 133.632899 275.434233 
L 133.775744 275.504999 
L 133.944561 275.650008 
L 133.977025 275.724518 
L 134.015983 275.728318 
L 134.171814 275.829734 
L 134.210772 275.836267 
L 134.243237 275.900592 
L 134.548406 276.226195 
L 134.632815 276.251391 
L 134.639308 276.301962 
L 134.866561 276.441682 
L 135.028885 276.523569 
L 135.035378 276.519077 
L 135.158744 276.54509 
L 135.165237 276.555423 
L 135.795055 277.024331 
L 135.821026 277.014824 
L 135.9379 277.190957 
L 136.100224 277.214653 
L 136.230083 277.276812 
L 136.307998 277.313822 
L 136.314491 277.333666 
L 136.437858 277.424902 
L 136.444351 277.420099 
L 137.015731 277.742809 
L 137.178055 277.764765 
L 137.288436 277.88438 
L 137.294929 277.881218 
L 137.49621 277.975355 
L 138.268873 278.675417 
L 138.379253 278.736705 
L 138.83376 278.891021 
L 139.00907 278.919796 
L 139.216845 279.04801 
L 139.379169 279.167994 
L 139.476563 279.217501 
L 139.612916 279.279655 
L 139.898606 279.365191 
L 140.041451 279.455265 
L 140.047944 279.449472 
L 140.197282 279.511876 
L 140.340127 279.631829 
L 140.807621 279.78493 
L 141.099804 280.204206 
L 141.262128 280.221248 
L 141.391987 280.275385 
L 141.534832 280.315542 
L 141.840001 280.510751 
L 142.008818 280.576692 
L 142.03479 280.57506 
L 142.067255 280.662544 
L 142.177635 280.833173 
L 142.223086 280.811288 
L 142.398396 280.962836 
L 142.593185 281.123997 
L 142.781481 281.708523 
L 142.859396 281.864775 
L 143.041199 282.517937 
L 143.054185 282.540832 
L 143.106129 282.569495 
L 143.281439 283.133902 
L 143.339875 283.1709 
L 143.352861 283.220431 
L 143.398312 283.266323 
L 143.521678 283.937147 
L 143.54765 283.927329 
L 143.684002 284.239126 
L 143.690495 284.237759 
L 144.054101 284.641133 
L 144.145002 284.72342 
L 144.281355 284.883076 
L 144.352777 284.942869 
L 144.489129 285.192004 
L 144.502115 285.1899 
L 144.528087 285.206224 
L 144.64496 285.4777 
L 144.651453 285.476337 
L 144.735862 285.548601 
L 144.859228 285.722365 
L 144.865721 285.716541 
L 144.917665 285.820079 
L 145.034538 285.937286 
L 145.248806 285.994484 
L 145.333214 286.037249 
L 145.3462 286.123135 
L 145.443595 286.088545 
L 145.502031 286.103211 
L 145.515017 286.133751 
L 145.677341 286.511833 
L 145.683834 286.510234 
L 145.794215 286.589673 
L 145.917581 287.1129 
L 145.976017 287.121261 
L 145.989003 287.169801 
L 146.079905 287.578713 
L 146.105877 287.570211 
L 146.592849 288.195354 
L 146.735694 288.211646 
L 147.027877 288.698258 
L 147.0993 288.739233 
L 147.216173 288.809451 
L 147.482384 288.95612 
L 147.605751 289.0889 
L 147.612244 289.084063 
L 147.683666 289.107652 
L 147.696652 289.135722 
L 147.833004 289.34744 
L 147.858976 289.351674 
L 147.884948 289.387734 
L 148.008314 289.639924 
L 148.027793 289.672246 
L 148.105709 289.702462 
L 148.281019 289.764105 
L 148.423864 289.837173 
L 148.534244 289.896736 
L 148.553723 289.885491 
L 148.670596 289.95269 
L 148.865385 289.974782 
L 148.975766 290.009822 
L 148.982258 290.019448 
L 149.079653 290.071883 
L 149.099132 290.063403 
L 149.514681 290.113267 
L 149.625062 290.170859 
L 149.715963 290.204084 
L 149.741935 290.194489 
L 150.144498 290.278557 
L 150.267865 290.337984 
L 150.488625 290.46681 
L 150.605499 290.529074 
L 150.754837 290.547553 
L 150.87171 290.618876 
L 150.878203 290.614791 
L 151.040527 290.754851 
L 151.04702 290.750597 
L 151.150907 290.802235 
L 151.371668 291.513085 
L 151.39764 291.5003 
L 151.423612 291.589911 
L 151.449584 291.592714 
L 152.306655 292.047747 
L 153.222162 292.27281 
L 153.345528 292.31552 
L 153.813021 292.369767 
L 153.929895 292.448959 
L 154.092219 292.471388 
L 154.261036 292.549076 
L 154.371416 292.561256 
L 154.384402 292.553203 
L 155.014219 292.732408 
L 155.202515 292.743656 
L 155.429769 292.894686 
L 155.624558 292.881018 
L 155.812853 292.956078 
L 155.994656 292.953674 
L 156.143995 292.930903 
L 156.39722 292.951522 
L 156.617981 292.924995 
L 157.182868 292.978836 
L 157.371164 292.998923 
L 157.514009 293.011287 
L 157.604911 293.004993 
L 157.617897 293.07172 
L 158.319136 293.615605 
L 158.448996 293.684717 
L 158.669756 293.709355 
L 158.851559 293.798899 
L 159.07232 293.867973 
L 159.208672 293.905823 
L 159.42294 294.006957 
L 159.552799 294.01752 
L 159.715123 294.030992 
L 161.611068 294.484334 
L 161.714955 294.512236 
L 161.727941 294.505112 
L 164.857548 294.655202 
L 165.026365 294.672335 
L 165.273098 294.747389 
L 165.58476 294.718907 
L 165.850971 294.729862 
L 166.247042 294.721753 
L 166.57169 294.770443 
L 166.837901 294.727526 
L 166.961268 294.788497 
L 167.532648 294.691218 
L 167.681986 294.741873 
L 167.889761 294.698674 
L 168.214409 294.709978 
L 168.383226 294.7421 
L 168.811762 294.678079 
L 168.948114 294.696658 
L 169.876607 294.739932 
L 170.032438 294.77364 
L 170.038931 294.768195 
L 171.129749 294.90889 
L 171.545298 294.908391 
L 171.805017 294.824627 
L 172.175115 294.770749 
L 172.610144 294.805192 
L 172.720524 294.851014 
L 172.727017 294.84601 
L 172.804933 294.839829 
L 172.830904 294.908998 
L 172.921806 294.974709 
L 172.947778 294.956798 
L 173.304891 295.01394 
L 173.486693 294.955523 
L 173.493186 295.000643 
L 173.687975 294.984041 
L 173.876271 295.16512 
L 173.882764 295.162222 
L 174.012623 295.267488 
L 174.123004 295.305268 
L 174.129497 295.30305 
L 174.590497 295.269132 
L 174.746328 295.236346 
L 174.889173 295.283319 
L 175.194342 295.280866 
L 175.421596 295.274795 
L 176.031934 295.427356 
L 176.278667 295.457675 
L 176.440991 295.463385 
L 184.797432 294.567528 
L 185.148052 294.638903 
L 185.174023 294.704961 
L 185.271418 294.675472 
L 185.368812 294.672401 
L 185.381798 294.664961 
L 185.660995 294.59475 
L 185.953179 294.543673 
L 186.063559 294.542962 
L 186.070052 294.539313 
L 186.258348 294.506495 
L 186.264841 294.522688 
L 186.985559 294.458259 
L 187.238785 294.411514 
L 187.55694 294.407474 
L 187.751729 294.384403 
L 187.881588 294.373459 
L 188.349081 294.359092 
L 188.550363 294.328336 
L 190.076209 294.120436 
L 190.322941 294.10363 
L 190.446308 294.077426 
L 191.374801 293.924469 
L 191.485181 293.92929 
L 191.491674 293.924877 
L 192.322773 293.797776 
L 192.485097 293.778045 
L 192.757802 293.686342 
L 193.011027 293.675113 
L 193.114915 293.635755 
L 193.60838 293.527329 
L 194.413507 293.432389 
L 194.660239 293.408312 
L 194.790099 293.368482 
L 196.354902 293.161752 
L 196.582156 293.106786 
L 196.835381 293.048384 
L 197.049649 293.030078 
L 197.192494 293.036538 
L 197.582072 292.931783 
L 197.763875 292.923521 
L 198.114495 292.830085 
L 198.387199 292.773154 
L 198.562509 292.775307 
L 199.607876 292.489708 
L 199.744228 292.471217 
L 200.042904 292.376176 
L 201.841454 291.87646 
L 201.880412 291.89836 
L 201.951835 291.86063 
L 202.451793 291.747218 
L 202.743976 291.659271 
L 203.166018 291.599013 
L 203.412751 291.565172 
L 203.549103 291.53184 
L 205.146372 291.044228 
L 205.503484 290.934928 
L 205.698273 290.900991 
L 205.93202 290.856427 
L 206.029414 290.823028 
L 206.035907 290.818191 
L 206.652739 290.62187 
L 207.743556 290.306549 
L 208.061711 290.197978 
L 208.438303 290.106305 
L 208.89281 289.979021 
L 209.042148 289.936287 
L 209.451205 289.828557 
L 209.821304 289.741894 
L 210.4706 289.574959 
L 210.593966 289.56628 
L 211.56791 289.332123 
L 211.834121 289.264308 
L 212.041896 289.195268 
L 212.321094 289.113459 
L 212.476925 289.084643 
L 212.710671 289.066618 
L 212.976883 288.983116 
L 213.613193 288.798291 
L 213.730066 288.763165 
L 214.217038 288.605561 
L 214.437799 288.572072 
L 214.600123 288.548616 
L 218.372533 287.295374 
L 218.690688 287.244573 
L 218.846519 287.23006 
L 219.729562 286.933048 
L 219.839942 286.889188 
L 220.203548 286.757588 
L 220.69052 286.59002 
L 220.982704 286.49332 
L 222.034563 286.100682 
L 222.404662 285.97927 
L 223.053958 285.776469 
L 223.164338 285.744185 
L 223.339648 285.681632 
L 223.670789 285.577616 
L 223.924015 285.519124 
L 224.300607 285.363008 
L 224.436959 285.294562 
L 224.735635 285.20386 
L 224.852508 285.160908 
L 225.703086 284.895402 
L 225.995269 284.78897 
L 226.112143 284.748663 
L 226.670537 284.555537 
L 226.962721 284.467198 
L 247.954464 276.252107 
L 248.480394 276.021335 
L 248.629732 275.989098 
L 249.051774 275.790655 
L 249.486803 275.615488 
L 250.012732 275.370786 
L 250.194535 275.296473 
L 250.590606 275.110936 
L 251.207437 274.849251 
L 251.765832 274.619344 
L 251.967114 274.537892 
L 252.363184 274.357689 
L 252.467072 274.334589 
L 252.473565 274.32979 
L 252.830677 274.181232 
L 253.95396 273.699816 
L 254.687664 273.420317 
L 254.953876 273.316206 
L 256.622567 272.622633 
L 256.91475 272.506181 
L 257.973103 272.03548 
L 264.031035 269.482523 
L 264.134923 269.435429 
L 267.913826 267.744305 
L 268.394305 267.520311 
L 268.660517 267.405831 
L 269.082559 267.231318 
L 270.212334 266.753574 
L 270.588926 266.576001 
L 270.965518 266.378704 
L 271.394053 266.203801 
L 280.081635 262.425608 
L 280.828326 262.057453 
L 281.094537 261.945581 
L 281.464636 261.782731 
L 281.795777 261.63013 
L 282.289242 261.368037 
L 284.853961 260.170536 
L 284.957849 260.123357 
L 299.242363 253.283921 
L 301.949928 251.989276 
L 302.15121 251.904565 
L 302.605717 251.688963 
L 302.982309 251.484493 
L 303.670563 251.14427 
L 330.759196 237.463729 
L 331.168253 237.259413 
L 331.992859 236.822365 
L 332.356464 236.653863 
L 335.804227 234.885045 
L 336.388593 234.560622 
L 338.998764 233.202181 
L 339.47275 232.955392 
L 340.764849 232.328635 
L 341.225849 232.082306 
L 343.141273 231.052953 
L 343.251653 230.996752 
L 343.810048 230.688695 
L 344.641147 230.268738 
L 344.93333 230.105498 
L 346.686429 229.134506 
L 346.855246 229.041066 
L 347.71881 228.581013 
L 347.822698 228.532813 
L 348.056444 228.395019 
L 348.796642 228.007913 
L 349.147262 227.847144 
L 349.621248 227.585193 
L 350.140685 227.298327 
L 351.108136 226.80041 
L 351.250981 226.716998 
L 351.958714 226.341156 
L 380.618644 210.677973 
L 381.319884 210.283658 
L 381.488701 210.181814 
L 382.202926 209.75267 
L 385.124759 208.165664 
L 385.838985 207.753303 
L 398.487273 200.861947 
L 398.487273 200.861947 
" style="fill:none;stroke:#1f77b4;stroke-linecap:square;stroke-width:1.5;"/>
   </g>
   <g id="patch_3">
    <path d="M 57.6 307.584 
L 57.6 41.472 
" style="fill:none;stroke:#000000;stroke-linecap:square;stroke-linejoin:miter;stroke-width:0.8;"/>
   </g>
   <g id="patch_4">
    <path d="M 414.72 307.584 
L 414.72 41.472 
" style="fill:none;stroke:#000000;stroke-linecap:square;stroke-linejoin:miter;stroke-width:0.8;"/>
   </g>
   <g id="patch_5">
    <path d="M 57.6 307.584 
L 414.72 307.584 
" style="fill:none;stroke:#000000;stroke-linecap:square;stroke-linejoin:miter;stroke-width:0.8;"/>
   </g>
   <g id="patch_6">
    <path d="M 57.6 41.472 
L 414.72 41.472 
" style="fill:none;stroke:#000000;stroke-linecap:square;stroke-linejoin:miter;stroke-width:0.8;"/>
   </g>
  </g>
 </g>
 <defs>
  <clipPath id="pe966f67fe4">
   <rect height="266.112" width="357.12" x="57.6" y="41.472"/>
  </clipPath>
 </defs>
</svg>
