<?xml version="1.0" encoding="utf-8" standalone="no"?>
<!DOCTYPE svg PUBLIC "-//W3C//DTD SVG 1.1//EN"
  "http://www.w3.org/Graphics/SVG/1.1/DTD/svg11.dtd">
<!-- Created with matplotlib (http://matplotlib.org/) -->
<svg height="345.6pt" version="1.1" viewBox="0 0 460.8 345.6" width="460.8pt" xmlns="http://www.w3.org/2000/svg" xmlns:xlink="http://www.w3.org/1999/xlink">
 <defs>
  <style type="text/css">
*{stroke-linecap:butt;stroke-linejoin:round;}
  </style>
 </defs>
 <g id="figure_1">
  <g id="patch_1">
   <path d="M 0 345.6 
L 460.8 345.6 
L 460.8 0 
L 0 0 
z
" style="fill:#ffffff;"/>
  </g>
  <g id="axes_1">
   <g id="patch_2">
    <path d="M 57.6 307.584 
L 414.72 307.584 
L 414.72 41.472 
L 57.6 41.472 
z
" style="fill:#ffffff;"/>
   </g>
   <g id="matplotlib.axis_1">
    <g id="xtick_1">
     <g id="line2d_1">
      <defs>
       <path d="M 0 0 
L 0 3.5 
" id="m45e102fe73" style="stroke:#000000;stroke-width:0.8;"/>
      </defs>
      <g>
       <use style="stroke:#000000;stroke-width:0.8;" x="73.832727" xlink:href="#m45e102fe73" y="307.584"/>
      </g>
     </g>
     <g id="text_1">
      <!-- 0 -->
      <defs>
       <path d="M 3.125 29.296875 
Q 3.90625 50 6.4375 56.046875 
Q 8.984375 62.109375 13.671875 66.015625 
Q 18.359375 69.921875 25.1875 69.921875 
Q 32.03125 69.921875 37.109375 64.25 
Q 42.1875 58.59375 43.75 50 
Q 45.3125 41.40625 44.71875 30.265625 
Q 44.140625 19.140625 40.8125 12.109375 
Q 37.5 5.078125 30.859375 2.34375 
Q 24.21875 -0.390625 17.578125 2.921875 
Q 10.9375 6.25 8.203125 11.71875 
Q 5.46875 17.1875 4.296875 23.234375 
Q 3.125 29.296875 3.90625 50 
z
M 12.890625 52.734375 
Q 10.546875 31.25 12.5 22.84375 
Q 14.453125 14.453125 18.9375 10.9375 
Q 23.4375 7.421875 28.125 9.5625 
Q 32.8125 11.71875 34.953125 18.15625 
Q 37.109375 24.609375 37.109375 32.21875 
Q 37.109375 39.84375 36.515625 46.09375 
Q 35.9375 52.34375 33 57.421875 
Q 30.078125 62.5 25.1875 62.6875 
Q 20.3125 62.890625 16.59375 57.8125 
Q 12.890625 52.734375 10.546875 31.25 
z
" id="SimHei-30"/>
      </defs>
      <g transform="translate(70.582727 323.5215)scale(0.13 -0.13)">
       <use xlink:href="#SimHei-30"/>
      </g>
     </g>
    </g>
    <g id="xtick_2">
     <g id="line2d_2">
      <g>
       <use style="stroke:#000000;stroke-width:0.8;" x="138.762338" xlink:href="#m45e102fe73" y="307.584"/>
      </g>
     </g>
     <g id="text_2">
      <!-- 1 -->
      <defs>
       <path d="M 21.875 56.25 
Q 16.796875 51.171875 8.984375 46.484375 
L 8.984375 53.90625 
Q 18.75 60.546875 25 69.53125 
L 29.6875 69.53125 
L 29.6875 2.34375 
L 21.875 2.34375 
z
" id="SimHei-31"/>
      </defs>
      <g transform="translate(135.512338 323.5215)scale(0.13 -0.13)">
       <use xlink:href="#SimHei-31"/>
      </g>
     </g>
    </g>
    <g id="xtick_3">
     <g id="line2d_3">
      <g>
       <use style="stroke:#000000;stroke-width:0.8;" x="203.691948" xlink:href="#m45e102fe73" y="307.584"/>
      </g>
     </g>
     <g id="text_3">
      <!-- 2 -->
      <defs>
       <path d="M 4.6875 3.90625 
Q 5.078125 9.765625 10.15625 14.453125 
Q 15.234375 19.140625 23.046875 29.09375 
Q 30.859375 39.0625 33.203125 44.53125 
Q 35.546875 50 34.953125 53.90625 
Q 34.375 57.8125 31.25 60.34375 
Q 28.125 62.890625 24.015625 62.5 
Q 19.921875 62.109375 16.203125 59.375 
Q 12.5 56.640625 10.546875 51.171875 
L 3.125 52.34375 
Q 6.25 61.328125 11.125 65.421875 
Q 16.015625 69.53125 22.65625 69.921875 
Q 26.5625 70.3125 29.6875 69.71875 
Q 32.8125 69.140625 36.125 66.984375 
Q 39.453125 64.84375 41.59375 60.546875 
Q 43.75 56.25 43.15625 50.1875 
Q 42.578125 44.140625 37.109375 35.734375 
Q 31.640625 27.34375 16.015625 9.375 
L 44.140625 9.375 
L 44.140625 2.34375 
L 4.6875 2.34375 
z
" id="SimHei-32"/>
      </defs>
      <g transform="translate(200.441948 323.5215)scale(0.13 -0.13)">
       <use xlink:href="#SimHei-32"/>
      </g>
     </g>
    </g>
    <g id="xtick_4">
     <g id="line2d_4">
      <g>
       <use style="stroke:#000000;stroke-width:0.8;" x="268.621559" xlink:href="#m45e102fe73" y="307.584"/>
      </g>
     </g>
     <g id="text_4">
      <!-- 3 -->
      <defs>
       <path d="M 3.90625 19.140625 
L 10.9375 20.3125 
Q 12.5 15.234375 16.015625 11.90625 
Q 19.53125 8.59375 24.796875 8.78125 
Q 30.078125 8.984375 33.203125 13.078125 
Q 36.328125 17.1875 35.9375 22.453125 
Q 35.546875 27.734375 31.828125 30.65625 
Q 28.125 33.59375 19.921875 34.765625 
L 19.921875 39.84375 
Q 28.125 40.625 31.828125 44.140625 
Q 35.546875 47.65625 35.15625 53.3125 
Q 34.765625 58.984375 30.078125 61.515625 
Q 25.390625 64.0625 20.109375 62.109375 
Q 14.84375 60.15625 11.71875 51.171875 
L 4.6875 52.34375 
Q 7.03125 59.375 11.125 64.0625 
Q 15.234375 68.75 22.265625 69.53125 
Q 29.296875 70.3125 34.5625 67.765625 
Q 39.84375 65.234375 41.984375 59.953125 
Q 44.140625 54.6875 42.578125 48.4375 
Q 41.015625 42.1875 33.59375 37.5 
Q 39.0625 35.15625 41.984375 30.46875 
Q 44.921875 25.78125 43.9375 18.15625 
Q 42.96875 10.546875 37.109375 5.859375 
Q 31.25 1.171875 23.828125 1.359375 
Q 16.40625 1.5625 10.9375 6.046875 
Q 5.46875 10.546875 3.90625 19.140625 
z
" id="SimHei-33"/>
      </defs>
      <g transform="translate(265.371559 323.5215)scale(0.13 -0.13)">
       <use xlink:href="#SimHei-33"/>
      </g>
     </g>
    </g>
    <g id="xtick_5">
     <g id="line2d_5">
      <g>
       <use style="stroke:#000000;stroke-width:0.8;" x="333.551169" xlink:href="#m45e102fe73" y="307.584"/>
      </g>
     </g>
     <g id="text_5">
      <!-- 4 -->
      <defs>
       <path d="M 31.25 17.1875 
L 1.171875 17.1875 
L 1.171875 23.828125 
L 32.8125 69.53125 
L 38.671875 69.53125 
L 38.671875 23.828125 
L 48.046875 23.828125 
L 48.046875 17.1875 
L 38.671875 17.1875 
L 38.671875 2.34375 
L 31.25 2.34375 
z
M 31.25 23.828125 
L 31.25 54.6875 
L 9.375 23.828125 
z
" id="SimHei-34"/>
      </defs>
      <g transform="translate(330.301169 323.5215)scale(0.13 -0.13)">
       <use xlink:href="#SimHei-34"/>
      </g>
     </g>
    </g>
    <g id="xtick_6">
     <g id="line2d_6">
      <g>
       <use style="stroke:#000000;stroke-width:0.8;" x="398.48078" xlink:href="#m45e102fe73" y="307.584"/>
      </g>
     </g>
     <g id="text_6">
      <!-- 5 -->
      <defs>
       <path d="M 8.59375 20.703125 
Q 11.328125 10.15625 17.96875 8.984375 
Q 24.609375 7.8125 28.703125 10.34375 
Q 32.8125 12.890625 34.5625 16.984375 
Q 36.328125 21.09375 36.125 26.171875 
Q 35.9375 31.25 33.390625 34.765625 
Q 30.859375 38.28125 26.953125 39.453125 
Q 23.046875 40.625 18.15625 39.453125 
Q 13.28125 38.28125 10.15625 33.984375 
L 3.515625 34.765625 
Q 4.296875 37.109375 10.9375 68.359375 
L 41.796875 68.359375 
L 41.796875 61.328125 
L 16.796875 61.328125 
Q 14.84375 50.78125 12.890625 44.53125 
Q 18.75 47.265625 23.828125 47.0625 
Q 28.90625 46.875 33.59375 44.71875 
Q 38.28125 42.578125 40.421875 38.859375 
Q 42.578125 35.15625 43.546875 31.4375 
Q 44.53125 27.734375 44.328125 23.4375 
Q 44.140625 19.140625 42.578125 14.640625 
Q 41.015625 10.15625 37.890625 7.21875 
Q 34.765625 4.296875 30.265625 2.53125 
Q 25.78125 0.78125 19.921875 1.171875 
Q 14.0625 1.5625 8.78125 5.46875 
Q 3.515625 9.375 1.5625 18.75 
z
" id="SimHei-35"/>
      </defs>
      <g transform="translate(395.23078 323.5215)scale(0.13 -0.13)">
       <use xlink:href="#SimHei-35"/>
      </g>
     </g>
    </g>
    <g id="text_7">
     <!-- Episode/k -->
     <defs>
      <path d="M 45.3125 1.953125 
L 5.46875 1.953125 
L 5.46875 68.75 
L 43.359375 68.75 
L 43.359375 61.328125 
L 14.453125 61.328125 
L 14.453125 40.625 
L 41.015625 40.625 
L 41.015625 33.203125 
L 14.453125 33.203125 
L 14.453125 9.375 
L 45.3125 9.375 
z
" id="SimHei-45"/>
      <path d="M 44.140625 23.828125 
Q 44.140625 12.5 38.671875 6.640625 
Q 33.203125 0.78125 25.390625 0.78125 
Q 21.09375 0.78125 17.96875 2.53125 
Q 14.84375 4.296875 12.5 7.8125 
L 12.5 -12.5 
L 4.6875 -12.5 
L 4.6875 45.703125 
L 12.5 45.703125 
L 12.5 39.84375 
Q 14.84375 43.359375 17.96875 44.921875 
Q 21.09375 46.484375 25.390625 46.484375 
Q 33.203125 46.484375 38.671875 40.8125 
Q 44.140625 35.15625 44.140625 23.828125 
z
M 35.546875 23.828125 
Q 35.546875 31.25 32.609375 35.34375 
Q 29.6875 39.453125 23.828125 39.453125 
Q 19.140625 39.453125 15.8125 35.34375 
Q 12.5 31.25 12.5 23.828125 
Q 12.5 16.40625 15.8125 12.109375 
Q 19.140625 7.8125 23.828125 7.8125 
Q 29.6875 7.8125 32.609375 12.109375 
Q 35.546875 16.40625 35.546875 23.828125 
z
" id="SimHei-70"/>
      <path d="M 28.125 58.203125 
L 20.3125 58.203125 
L 20.3125 68.359375 
L 28.125 68.359375 
z
M 28.125 1.953125 
L 20.3125 1.953125 
L 20.3125 45.703125 
L 28.125 45.703125 
z
" id="SimHei-69"/>
      <path d="M 42.96875 14.0625 
Q 42.96875 7.8125 38.078125 4.484375 
Q 33.203125 1.171875 25.78125 1.171875 
Q 16.40625 1.171875 11.328125 4.875 
Q 6.25 8.59375 6.25 15.625 
L 14.0625 15.625 
Q 14.0625 10.9375 17.375 9.375 
Q 20.703125 7.8125 25.390625 7.8125 
Q 30.078125 7.8125 32.421875 9.5625 
Q 34.765625 11.328125 34.765625 14.0625 
Q 34.765625 16.015625 32.8125 17.96875 
Q 30.859375 19.921875 23.046875 21.09375 
Q 14.0625 22.265625 10.734375 25.578125 
Q 7.421875 28.90625 7.421875 34.375 
Q 7.421875 39.0625 11.90625 42.765625 
Q 16.40625 46.484375 25 46.484375 
Q 32.8125 46.484375 37.296875 42.96875 
Q 41.796875 39.453125 41.796875 33.59375 
L 33.984375 33.59375 
Q 33.984375 37.109375 31.4375 38.46875 
Q 28.90625 39.84375 25 39.84375 
Q 19.921875 39.84375 17.765625 38.078125 
Q 15.625 36.328125 15.625 33.984375 
Q 15.625 31.25 17.578125 29.6875 
Q 19.53125 28.125 25.78125 27.34375 
Q 35.9375 25.78125 39.453125 22.453125 
Q 42.96875 19.140625 42.96875 14.0625 
z
" id="SimHei-73"/>
      <path d="M 45.703125 23.828125 
Q 45.703125 13.671875 39.453125 7.421875 
Q 33.203125 1.171875 24.609375 1.171875 
Q 16.015625 1.171875 9.765625 7.421875 
Q 3.515625 13.671875 3.515625 23.828125 
Q 3.515625 33.984375 9.765625 40.234375 
Q 16.015625 46.484375 24.609375 46.484375 
Q 33.203125 46.484375 39.453125 40.234375 
Q 45.703125 33.984375 45.703125 23.828125 
z
M 37.109375 23.828125 
Q 37.109375 31.640625 33.203125 35.546875 
Q 29.296875 39.453125 24.609375 39.453125 
Q 19.921875 39.453125 16.015625 35.546875 
Q 12.109375 31.640625 12.109375 23.828125 
Q 12.109375 16.015625 16.015625 12.109375 
Q 19.921875 8.203125 24.609375 8.203125 
Q 29.296875 8.203125 33.203125 12.109375 
Q 37.109375 16.015625 37.109375 23.828125 
z
" id="SimHei-6f"/>
      <path d="M 42.96875 1.953125 
L 35.15625 1.953125 
L 35.15625 7.8125 
Q 32.8125 4.296875 29.6875 2.734375 
Q 26.5625 1.171875 22.265625 1.171875 
Q 14.453125 1.171875 8.984375 6.828125 
Q 3.515625 12.5 3.515625 23.828125 
Q 3.515625 35.15625 8.984375 41.015625 
Q 14.453125 46.875 22.265625 46.875 
Q 26.5625 46.875 29.6875 45.109375 
Q 32.8125 43.359375 35.15625 39.84375 
L 35.15625 68.75 
L 42.96875 68.75 
z
M 35.15625 23.828125 
Q 35.15625 31.25 31.828125 35.546875 
Q 28.515625 39.84375 23.828125 39.84375 
Q 17.96875 39.84375 15.03125 35.546875 
Q 12.109375 31.25 12.109375 23.828125 
Q 12.109375 16.40625 15.03125 12.296875 
Q 17.96875 8.203125 23.828125 8.203125 
Q 28.515625 8.203125 31.828125 12.296875 
Q 35.15625 16.40625 35.15625 23.828125 
z
" id="SimHei-64"/>
      <path d="M 44.53125 16.796875 
Q 43.75 9.765625 38.28125 5.46875 
Q 32.8125 1.171875 25.390625 1.171875 
Q 16.015625 1.171875 9.953125 7.21875 
Q 3.90625 13.28125 3.90625 23.828125 
Q 3.90625 34.375 9.953125 40.421875 
Q 16.015625 46.484375 25.390625 46.484375 
Q 33.59375 46.484375 38.859375 41.203125 
Q 44.140625 35.9375 44.140625 23.828125 
L 12.5 23.828125 
Q 12.5 15.234375 16.203125 11.71875 
Q 19.921875 8.203125 25.390625 8.203125 
Q 29.6875 8.203125 32.421875 10.34375 
Q 35.15625 12.5 35.9375 16.796875 
z
M 35.15625 30.078125 
Q 34.375 35.546875 31.640625 37.6875 
Q 28.90625 39.84375 24.609375 39.84375 
Q 20.703125 39.84375 17.578125 37.6875 
Q 14.453125 35.546875 12.890625 30.078125 
z
" id="SimHei-65"/>
      <path d="M 46.875 71.09375 
L 5.46875 -2.734375 
L 1.5625 -0.390625 
L 42.96875 73.4375 
z
" id="SimHei-2f"/>
      <path d="M 45.703125 1.953125 
L 36.71875 1.953125 
L 22.65625 25.78125 
L 13.671875 17.1875 
L 13.671875 1.953125 
L 5.859375 1.953125 
L 5.859375 68.75 
L 13.671875 68.75 
L 13.671875 26.171875 
L 33.203125 45.703125 
L 42.96875 45.703125 
L 27.734375 30.859375 
z
" id="SimHei-6b"/>
     </defs>
     <g transform="translate(202.41 340.162125)scale(0.15 -0.15)">
      <use xlink:href="#SimHei-45"/>
      <use x="50" xlink:href="#SimHei-70"/>
      <use x="100" xlink:href="#SimHei-69"/>
      <use x="150" xlink:href="#SimHei-73"/>
      <use x="200" xlink:href="#SimHei-6f"/>
      <use x="250" xlink:href="#SimHei-64"/>
      <use x="300" xlink:href="#SimHei-65"/>
      <use x="350" xlink:href="#SimHei-2f"/>
      <use x="400" xlink:href="#SimHei-6b"/>
     </g>
    </g>
    <g id="text_8">
     <!-- 1e4 -->
     <g transform="translate(399.72 335.0215)scale(0.1 -0.1)">
      <use xlink:href="#SimHei-31"/>
      <use x="50" xlink:href="#SimHei-65"/>
      <use x="100" xlink:href="#SimHei-34"/>
     </g>
    </g>
   </g>
   <g id="matplotlib.axis_2">
    <g id="ytick_1">
     <g id="line2d_7">
      <defs>
       <path d="M 0 0 
L -3.5 0 
" id="me65768b74f" style="stroke:#000000;stroke-width:0.8;"/>
      </defs>
      <g>
       <use style="stroke:#000000;stroke-width:0.8;" x="57.6" xlink:href="#me65768b74f" y="270.247695"/>
      </g>
     </g>
     <g id="text_9">
      <!-- -5 -->
      <defs>
       <path d="M 46.484375 33.203125 
L 1.953125 33.203125 
L 1.953125 39.453125 
L 46.484375 39.453125 
z
" id="SimHei-2d"/>
      </defs>
      <g transform="translate(37.6 274.716445)scale(0.13 -0.13)">
       <use xlink:href="#SimHei-2d"/>
       <use x="50" xlink:href="#SimHei-35"/>
      </g>
     </g>
    </g>
    <g id="ytick_2">
     <g id="line2d_8">
      <g>
       <use style="stroke:#000000;stroke-width:0.8;" x="57.6" xlink:href="#me65768b74f" y="226.911756"/>
      </g>
     </g>
     <g id="text_10">
      <!-- -4 -->
      <g transform="translate(37.6 231.380506)scale(0.13 -0.13)">
       <use xlink:href="#SimHei-2d"/>
       <use x="50" xlink:href="#SimHei-34"/>
      </g>
     </g>
    </g>
    <g id="ytick_3">
     <g id="line2d_9">
      <g>
       <use style="stroke:#000000;stroke-width:0.8;" x="57.6" xlink:href="#me65768b74f" y="183.575817"/>
      </g>
     </g>
     <g id="text_11">
      <!-- -3 -->
      <g transform="translate(37.6 188.044567)scale(0.13 -0.13)">
       <use xlink:href="#SimHei-2d"/>
       <use x="50" xlink:href="#SimHei-33"/>
      </g>
     </g>
    </g>
    <g id="ytick_4">
     <g id="line2d_10">
      <g>
       <use style="stroke:#000000;stroke-width:0.8;" x="57.6" xlink:href="#me65768b74f" y="140.239878"/>
      </g>
     </g>
     <g id="text_12">
      <!-- -2 -->
      <g transform="translate(37.6 144.708628)scale(0.13 -0.13)">
       <use xlink:href="#SimHei-2d"/>
       <use x="50" xlink:href="#SimHei-32"/>
      </g>
     </g>
    </g>
    <g id="ytick_5">
     <g id="line2d_11">
      <g>
       <use style="stroke:#000000;stroke-width:0.8;" x="57.6" xlink:href="#me65768b74f" y="96.903939"/>
      </g>
     </g>
     <g id="text_13">
      <!-- -1 -->
      <g transform="translate(37.6 101.372689)scale(0.13 -0.13)">
       <use xlink:href="#SimHei-2d"/>
       <use x="50" xlink:href="#SimHei-31"/>
      </g>
     </g>
    </g>
    <g id="ytick_6">
     <g id="line2d_12">
      <g>
       <use style="stroke:#000000;stroke-width:0.8;" x="57.6" xlink:href="#me65768b74f" y="53.568"/>
      </g>
     </g>
     <g id="text_14">
      <!-- 0 -->
      <g transform="translate(44.1 58.03675)scale(0.13 -0.13)">
       <use xlink:href="#SimHei-30"/>
      </g>
     </g>
    </g>
    <g id="text_15">
     <!-- Cumulative -->
     <defs>
      <path d="M 46.484375 28.515625 
Q 46.09375 13.671875 40.234375 7.421875 
Q 34.375 1.171875 26.171875 1.171875 
Q 16.796875 1.171875 10.15625 8.78125 
Q 3.515625 16.40625 3.515625 33.203125 
Q 3.515625 51.5625 9.953125 60.546875 
Q 16.40625 69.53125 26.5625 69.53125 
Q 35.15625 69.53125 40.8125 63.078125 
Q 46.484375 56.640625 46.09375 44.921875 
L 37.5 44.921875 
Q 37.5 53.515625 34.765625 57.8125 
Q 32.03125 62.109375 26.5625 62.109375 
Q 20.3125 62.109375 16.59375 55.65625 
Q 12.890625 49.21875 12.890625 33.984375 
Q 12.890625 19.921875 16.59375 14.25 
Q 20.3125 8.59375 26.171875 8.59375 
Q 30.46875 8.59375 33.984375 12.6875 
Q 37.5 16.796875 37.5 28.515625 
z
" id="SimHei-43"/>
      <path d="M 43.75 1.953125 
L 35.9375 1.953125 
L 35.9375 10.15625 
Q 32.8125 5.859375 29.09375 3.515625 
Q 25.390625 1.171875 19.53125 1.171875 
Q 12.5 1.171875 8.984375 5.078125 
Q 5.46875 8.984375 5.46875 14.84375 
L 5.46875 45.703125 
L 13.28125 45.703125 
L 13.28125 17.578125 
Q 13.28125 12.890625 15.625 10.15625 
Q 17.96875 7.421875 21.875 7.421875 
Q 26.953125 7.421875 31.4375 12.6875 
Q 35.9375 17.96875 35.9375 25.78125 
L 35.9375 45.703125 
L 43.75 45.703125 
z
" id="SimHei-75"/>
      <path d="M 47.65625 1.953125 
L 39.84375 1.953125 
L 39.84375 33.59375 
Q 39.84375 35.9375 39.0625 37.5 
Q 38.28125 39.0625 35.9375 39.0625 
Q 33.203125 39.0625 30.859375 36.125 
Q 28.515625 33.203125 28.515625 28.515625 
L 28.515625 1.953125 
L 20.703125 1.953125 
L 20.703125 33.59375 
Q 20.703125 35.9375 19.921875 37.5 
Q 19.140625 39.0625 16.796875 39.0625 
Q 14.0625 39.0625 11.71875 36.125 
Q 9.375 33.203125 9.375 28.515625 
L 9.375 1.953125 
L 1.5625 1.953125 
L 1.5625 45.703125 
L 9.375 45.703125 
L 9.375 39.84375 
Q 11.328125 42.96875 14.0625 44.71875 
Q 16.796875 46.484375 19.921875 46.484375 
Q 23.046875 46.484375 25.1875 44.71875 
Q 27.34375 42.96875 28.125 39.84375 
Q 30.078125 42.96875 32.609375 44.71875 
Q 35.15625 46.484375 38.28125 46.484375 
Q 42.96875 46.484375 45.3125 43.9375 
Q 47.65625 41.40625 47.65625 36.71875 
z
" id="SimHei-6d"/>
      <path d="M 28.515625 1.953125 
L 20.703125 1.953125 
L 20.703125 68.75 
L 28.515625 68.75 
z
" id="SimHei-6c"/>
      <path d="M 44.921875 1.953125 
L 35.546875 1.953125 
Q 34.765625 2.734375 34.375 4.09375 
Q 33.984375 5.46875 33.984375 7.421875 
Q 31.25 4.296875 27.34375 2.734375 
Q 23.4375 1.171875 19.140625 1.171875 
Q 12.890625 1.171875 8.59375 4.296875 
Q 4.296875 7.421875 4.296875 13.28125 
Q 4.296875 19.140625 8.203125 22.65625 
Q 12.109375 26.171875 20.3125 27.34375 
Q 25.78125 28.125 29.875 29.296875 
Q 33.984375 30.46875 33.984375 32.421875 
Q 33.984375 34.765625 32.21875 37.109375 
Q 30.46875 39.453125 24.609375 39.453125 
Q 19.921875 39.453125 17.765625 37.6875 
Q 15.625 35.9375 14.84375 32.8125 
L 6.25 32.8125 
Q 7.03125 39.0625 11.90625 42.765625 
Q 16.796875 46.484375 24.609375 46.484375 
Q 33.203125 46.484375 37.5 42.578125 
Q 41.796875 38.671875 41.796875 31.640625 
L 41.796875 10.15625 
Q 41.796875 7.8125 42.578125 5.859375 
Q 43.359375 3.90625 44.921875 1.953125 
z
M 33.984375 16.40625 
L 33.984375 24.21875 
Q 31.640625 23.4375 29.484375 22.84375 
Q 27.34375 22.265625 22.265625 21.484375 
Q 16.40625 20.703125 14.640625 18.75 
Q 12.890625 16.796875 12.890625 14.0625 
Q 12.890625 11.71875 14.640625 9.953125 
Q 16.40625 8.203125 19.921875 8.203125 
Q 23.4375 8.203125 27.53125 10.15625 
Q 31.640625 12.109375 33.984375 16.40625 
z
" id="SimHei-61"/>
      <path d="M 42.96875 3.125 
Q 41.015625 2.34375 38.46875 1.75 
Q 35.9375 1.171875 31.640625 1.171875 
Q 24.609375 1.171875 20.3125 5.078125 
Q 16.015625 8.984375 16.015625 16.015625 
L 16.015625 39.453125 
L 2.734375 39.453125 
L 2.734375 45.703125 
L 16.015625 45.703125 
L 16.015625 60.9375 
L 23.828125 60.9375 
L 23.828125 45.703125 
L 39.84375 45.703125 
L 39.84375 39.453125 
L 23.828125 39.453125 
L 23.828125 15.625 
Q 23.828125 12.5 25.390625 10.34375 
Q 26.953125 8.203125 31.25 8.203125 
Q 35.546875 8.203125 38.28125 8.984375 
Q 41.015625 9.765625 42.96875 10.9375 
z
" id="SimHei-74"/>
      <path d="M 44.921875 45.703125 
L 28.515625 1.171875 
L 19.921875 1.171875 
L 3.515625 45.703125 
L 11.71875 45.703125 
L 23.828125 11.71875 
L 24.609375 11.71875 
L 36.71875 45.703125 
z
" id="SimHei-76"/>
     </defs>
     <g transform="translate(31.725 212.028)rotate(-90)scale(0.15 -0.15)">
      <use xlink:href="#SimHei-43"/>
      <use x="50" xlink:href="#SimHei-75"/>
      <use x="100" xlink:href="#SimHei-6d"/>
      <use x="150" xlink:href="#SimHei-75"/>
      <use x="200" xlink:href="#SimHei-6c"/>
      <use x="250" xlink:href="#SimHei-61"/>
      <use x="300" xlink:href="#SimHei-74"/>
      <use x="350" xlink:href="#SimHei-69"/>
      <use x="400" xlink:href="#SimHei-76"/>
      <use x="450" xlink:href="#SimHei-65"/>
     </g>
    </g>
    <g id="text_16">
     <!-- 1e6 -->
     <defs>
      <path d="M 3.515625 19.53125 
Q 4.296875 30.859375 6.046875 34.765625 
Q 7.8125 38.671875 11.328125 44.53125 
L 27.34375 69.53125 
L 36.328125 69.53125 
L 19.921875 43.75 
Q 30.46875 46.484375 36.71875 42.96875 
Q 42.96875 39.453125 45.109375 34.953125 
Q 47.265625 30.46875 47.453125 25.1875 
Q 47.65625 19.921875 45.890625 14.84375 
Q 44.140625 9.765625 39.640625 5.65625 
Q 35.15625 1.5625 27.140625 1.171875 
Q 19.140625 0.78125 13.46875 4.09375 
Q 7.8125 7.421875 5.65625 13.46875 
Q 3.515625 19.53125 4.296875 30.859375 
z
M 12.5 16.015625 
Q 19.53125 8.59375 25.390625 8.203125 
Q 31.25 7.8125 35.15625 12.109375 
Q 39.0625 16.40625 39.0625 24.609375 
Q 39.0625 32.8125 34.171875 35.9375 
Q 29.296875 39.0625 23.234375 38.28125 
Q 17.1875 37.5 14.453125 32.421875 
Q 11.71875 27.34375 12.109375 21.671875 
Q 12.5 16.015625 19.53125 8.59375 
z
" id="SimHei-36"/>
     </defs>
     <g transform="translate(57.6 38.472)scale(0.1 -0.1)">
      <use xlink:href="#SimHei-31"/>
      <use x="50" xlink:href="#SimHei-65"/>
      <use x="100" xlink:href="#SimHei-36"/>
     </g>
    </g>
   </g>
   <g id="line2d_13">
    <path clip-path="url(#pae6dced9d1)" d="M 73.832727 53.568 
L 73.910643 53.937592 
L 74.066474 54.762206 
L 74.339178 55.528391 
L 74.378136 55.655864 
L 74.533967 56.637291 
L 74.54046 56.633247 
L 74.585911 56.717796 
L 74.897573 57.716916 
L 74.936531 57.886433 
L 75.157291 58.944964 
L 75.248193 59.240004 
L 75.423503 59.999416 
L 75.46246 60.012958 
L 75.468953 60.099005 
L 75.676728 60.605439 
L 75.806587 61.033425 
L 76.11825 62.270473 
L 76.267588 62.984832 
L 76.306545 63.037809 
L 76.468869 63.632693 
L 76.559771 63.957359 
L 76.735081 65.143448 
L 76.748067 65.139545 
L 76.75456 65.189598 
L 76.787025 65.226449 
L 77.124659 66.912621 
L 79.936111 81.093362 
L 80.072463 81.997335 
L 80.24128 83.110774 
L 80.273745 83.228185 
L 80.533463 84.79817 
L 80.565928 84.842737 
L 80.715266 85.674126 
L 80.721759 85.673199 
L 80.773703 85.793315 
L 80.910055 86.610385 
L 82.208647 96.043257 
L 82.21514 96.040867 
L 82.234619 96.128682 
L 82.370971 97.627662 
L 82.617704 98.986709 
L 82.754056 100.460423 
L 82.760549 100.4571 
L 82.767042 100.559589 
L 83.299464 104.135486 
L 83.435817 105.290008 
L 83.448803 105.281264 
L 83.55269 105.822107 
L 85.396691 118.833927 
L 85.403184 118.831211 
L 85.455128 118.910754 
L 86.097931 124.196377 
L 86.364142 126.167822 
L 86.701776 128.625554 
L 86.727748 128.719422 
L 86.961495 130.221761 
L 87.045903 130.850432 
L 87.188748 132.08668 
L 87.208227 132.126806 
L 87.539368 135.180189 
L 87.662734 135.958115 
L 88.350988 140.580968 
L 88.506819 142.184057 
L 88.773031 144.834005 
L 88.779524 144.829902 
L 88.961327 146.135089 
L 89.149622 148.11547 
L 89.162608 148.118258 
L 89.36389 150.930243 
L 89.383369 150.992844 
L 89.519721 151.665135 
L 89.532707 151.691901 
L 89.82489 154.960627 
L 90.285891 157.458921 
L 90.441722 158.81215 
L 90.461201 158.921202 
L 90.59106 160.414454 
L 90.740398 161.306512 
L 90.746891 161.304215 
L 90.753384 161.374739 
L 91.168933 165.106598 
L 91.383201 167.149482 
L 91.883159 171.03476 
L 92.045483 172.33488 
L 92.051976 172.338943 
L 92.188328 173.180363 
L 92.194821 173.176636 
L 92.227286 173.347411 
L 92.344159 173.917687 
L 92.506483 175.576202 
L 92.512976 175.579115 
L 92.668807 176.50998 
L 92.720751 176.976411 
L 92.85061 178.822856 
L 92.909047 179.07598 
L 93.155779 181.607311 
L 93.194737 181.998499 
L 93.447963 184.110021 
L 93.519385 184.8996 
L 93.740146 186.881044 
L 93.746639 186.877373 
L 93.766118 187.079089 
L 94.006357 189.204685 
L 94.025836 189.326276 
L 95.480259 200.213161 
L 95.623105 202.09299 
L 95.629598 202.089653 
L 95.726992 202.533303 
L 95.87633 204.060579 
L 95.915288 204.144069 
L 96.856767 209.752317 
L 96.895725 209.873644 
L 97.077528 211.084352 
L 97.090514 211.078739 
L 97.616444 214.538164 
L 97.668387 214.786265 
L 97.921613 217.065143 
L 97.928106 217.060564 
L 97.941092 217.145246 
L 98.116402 218.482035 
L 98.512472 220.11857 
L 98.525458 220.111482 
L 98.544937 220.17911 
L 98.720247 221.407742 
L 98.765698 221.507679 
L 98.979965 222.413777 
L 99.096839 222.965066 
L 99.278642 223.849476 
L 99.64874 225.69016 
L 99.661726 225.683705 
L 99.694191 225.835233 
L 100.34998 228.965535 
L 100.401924 229.059305 
L 100.505811 229.654863 
L 100.674628 230.490478 
L 100.681121 230.487033 
L 101.018755 231.930351 
L 101.031741 231.959511 
L 101.168093 232.562656 
L 101.239516 232.691487 
L 102.083601 236.386718 
L 102.090094 236.383558 
L 102.135544 236.468289 
L 102.447207 238.078805 
L 102.4537 238.076696 
L 102.622517 238.894403 
L 102.823798 240.05859 
L 102.830291 240.055816 
L 102.836784 240.121827 
L 102.973136 240.430792 
L 104.005517 243.147737 
L 104.940504 246.161255 
L 105.089842 246.543077 
L 105.23918 247.092516 
L 105.362546 247.542845 
L 105.388518 247.606854 
L 105.550842 248.265311 
L 105.596293 248.360687 
L 109.518041 258.172607 
L 109.660886 258.618263 
L 110.030985 259.677688 
L 110.147858 259.788998 
L 110.511464 260.428633 
L 110.517957 260.425661 
L 110.595873 260.55476 
L 110.738718 260.864905 
L 110.777676 260.883829 
L 110.784169 260.952723 
L 111.472422 262.321526 
L 111.595789 262.623727 
L 111.608775 262.619667 
L 111.621761 262.684608 
L 111.654225 262.707612 
L 113.270973 265.117601 
L 113.303437 265.222868 
L 113.576142 265.705809 
L 113.647564 265.764831 
L 113.764438 265.887858 
L 113.770931 265.885432 
L 113.926762 266.129545 
L 114.381269 267.069842 
L 114.524114 267.472325 
L 114.790326 267.823073 
L 115.011086 268.213297 
L 115.147438 268.568819 
L 115.153931 268.565215 
L 115.179903 268.654538 
L 115.199382 268.662566 
L 115.744791 269.559568 
L 115.835692 269.692756 
L 116.011002 270.140343 
L 116.062946 270.205676 
L 116.069439 270.232149 
L 116.329157 270.729472 
L 116.97196 271.425364 
L 117.166749 271.629367 
L 117.251158 271.729323 
L 117.692679 272.282039 
L 117.731637 272.381245 
L 117.893961 272.556712 
L 118.075764 272.794008 
L 118.238088 272.980843 
L 118.244581 272.976918 
L 118.361454 273.019702 
L 118.497806 273.173667 
L 118.504299 273.170436 
L 118.621173 273.298309 
L 118.78999 273.480503 
L 118.802976 273.473414 
L 118.926342 273.585023 
L 119.07568 273.833585 
L 119.082173 273.830696 
L 119.205539 273.940655 
L 119.582131 274.502758 
L 119.71199 274.546482 
L 120.231427 275.197465 
L 120.439202 275.424616 
L 120.445695 275.420151 
L 120.58854 275.45937 
L 121.04954 276.048468 
L 121.056033 276.043831 
L 121.15992 276.089788 
L 121.302766 276.270695 
L 121.452104 276.34931 
L 121.672864 276.593391 
L 121.744287 276.682888 
L 121.848174 276.802756 
L 121.86116 276.798494 
L 121.984526 276.876025 
L 122.140357 277.115289 
L 122.159836 277.12318 
L 122.172822 277.180904 
L 122.205287 277.197983 
L 122.471498 277.445411 
L 122.705245 277.635223 
L 122.828611 277.655418 
L 122.841597 277.64924 
L 122.880555 277.748638 
L 126.354289 280.558892 
L 126.471163 280.632715 
L 126.601022 280.657945 
L 126.711402 280.707338 
L 126.880219 280.828013 
L 127.315247 280.990263 
L 127.445107 281.201869 
L 127.548994 281.278834 
L 127.815205 281.402733 
L 127.9126 281.470708 
L 128.146346 281.720824 
L 128.535924 281.999315 
L 128.600854 282.045274 
L 128.717727 282.158278 
L 128.886544 282.176987 
L 129.126784 282.325863 
L 129.717643 282.626988 
L 129.853995 282.764224 
L 129.957883 282.854634 
L 130.100728 282.959946 
L 130.34746 283.061261 
L 130.464334 283.114854 
L 130.594193 283.226424 
L 130.737038 283.341107 
L 130.866897 283.376948 
L 131.314911 283.713191 
L 131.418799 283.810404 
L 131.444771 283.80245 
L 131.899278 284.048808 
L 132.055109 284.100341 
L 132.658954 284.474996 
L 132.8018 284.557655 
L 134.366603 285.411578 
L 134.723716 285.588 
L 134.847082 285.64799 
L 135.067843 285.727337 
L 135.230167 285.792838 
L 135.392491 285.866004 
L 135.678181 285.969459 
L 135.801548 286.025222 
L 136.139182 286.190232 
L 136.301506 286.292221 
L 136.418379 286.33115 
L 136.593689 286.433733 
L 136.827435 286.441865 
L 137.022224 286.521781 
L 137.223506 286.523808 
L 137.353365 286.584351 
L 137.359858 286.582064 
L 137.509196 286.63086 
L 137.729957 286.658535 
L 137.885788 286.744885 
L 138.106549 286.798386 
L 138.255887 286.927422 
L 138.431197 287.051345 
L 138.43769 287.046788 
L 138.600014 287.109764 
L 138.937648 287.244991 
L 139.067507 287.278089 
L 139.203859 287.331292 
L 139.846662 287.645473 
L 140.599846 287.866525 
L 140.846578 287.928516 
L 140.963452 287.993604 
L 140.976437 287.985713 
L 141.164733 288.010308 
L 141.281607 288.045888 
L 141.411466 288.111951 
L 141.547818 288.168075 
L 141.755593 288.199335 
L 141.885452 288.271637 
L 142.002325 288.324776 
L 142.190621 288.412885 
L 142.49579 288.468063 
L 142.645128 288.527482 
L 142.833424 288.636543 
L 143.02172 288.715868 
L 143.073664 288.726754 
L 143.164565 288.831662 
L 143.190537 288.827482 
L 143.216509 288.870675 
L 143.307411 288.874273 
L 145.917581 289.484859 
L 146.053933 289.544214 
L 146.196778 289.565334 
L 146.365595 289.641788 
L 146.586356 289.655768 
L 148.514765 290.220211 
L 148.78747 290.263967 
L 149.384822 290.446268 
L 149.527667 290.480579 
L 150.040611 290.717877 
L 150.183456 290.73257 
L 150.313315 290.824138 
L 150.553555 290.894985 
L 150.923654 291.067082 
L 151.053513 291.119749 
L 151.33271 291.181327 
L 151.50802 291.191984 
L 151.657358 291.237888 
L 151.871626 291.212216 
L 152.020964 291.253359 
L 152.228739 291.310772 
L 152.488457 291.324209 
L 152.884528 291.396171 
L 153.663683 291.584176 
L 153.793543 291.649436 
L 157.065995 292.219379 
L 157.195854 292.273154 
L 157.501023 292.372592 
L 157.728277 292.420397 
L 157.903587 292.450429 
L 158.176291 292.576407 
L 158.273686 292.625674 
L 158.293165 292.617894 
L 158.429517 292.657786 
L 158.799616 292.670904 
L 159.000897 292.696574 
L 159.221658 292.753757 
L 159.416447 292.7672 
L 159.546306 292.809728 
L 159.650193 292.867677 
L 159.663179 292.860865 
L 160.111194 292.983332 
L 160.435842 293.031652 
L 160.572194 293.081164 
L 160.851391 293.05946 
L 161.000729 293.108864 
L 161.273434 293.134496 
L 161.487701 293.178315 
L 161.799364 293.249051 
L 161.942209 293.252334 
L 162.169462 293.280667 
L 162.656434 293.364061 
L 162.818758 293.411357 
L 164.31214 293.608739 
L 164.630295 293.612886 
L 164.838069 293.642962 
L 165.097788 293.655912 
L 165.325041 293.667397 
L 166.584676 293.786468 
L 166.701549 293.810849 
L 166.708042 293.833175 
L 166.961268 293.796155 
L 167.311888 293.772744 
L 168.500099 293.734243 
L 168.694888 293.762494 
L 170.772636 293.767873 
L 170.954439 293.807522 
L 171.149227 293.810897 
L 171.324537 293.815975 
L 171.480369 293.800652 
L 171.603735 293.907095 
L 171.792031 294.001154 
L 171.973834 294.046767 
L 172.071228 294.119056 
L 172.389383 294.326043 
L 172.590665 294.381929 
L 172.73351 294.435942 
L 173.642525 294.57364 
L 173.811342 294.560772 
L 173.993144 294.596038 
L 174.272342 294.761713 
L 174.609976 294.757981 
L 175.109934 294.837118 
L 175.207328 294.874933 
L 175.2333 294.866432 
L 175.570934 294.875783 
L 175.75923 294.961324 
L 175.947526 294.977009 
L 176.142315 295.069354 
L 176.492934 295.067342 
L 176.687723 295.095109 
L 176.992892 295.165679 
L 177.181188 295.190183 
L 177.375977 295.223162 
L 177.55778 295.24716 
L 177.720104 295.285703 
L 177.869442 295.279404 
L 178.070724 295.298881 
L 178.375893 295.308334 
L 178.648598 295.300919 
L 181.031514 295.342702 
L 181.206824 295.349104 
L 183.174191 295.370735 
L 183.596234 295.334619 
L 183.985811 295.34734 
L 184.219558 295.317775 
L 185.206488 295.253929 
L 185.712939 295.184132 
L 186.089531 295.180812 
L 186.842714 295.160812 
L 187.193334 295.132091 
L 187.90756 295.109513 
L 188.868518 294.995063 
L 189.089279 294.959868 
L 189.745068 294.868243 
L 190.270998 294.811606 
L 190.413843 294.81525 
L 191.10859 294.727465 
L 191.342336 294.730191 
L 192.082534 294.619568 
L 192.634436 294.597484 
L 192.803253 294.582273 
L 193.14738 294.539114 
L 193.907056 294.451385 
L 194.114831 294.421918 
L 194.556352 294.346278 
L 194.679718 294.329035 
L 195.478353 294.249978 
L 195.601719 294.228446 
L 195.861437 294.194623 
L 196.036747 294.169454 
L 196.309452 294.139066 
L 197.614537 294.05184 
L 197.991128 294.018858 
L 198.406678 293.962221 
L 199.41958 293.825441 
L 199.711763 293.77535 
L 200.016932 293.746659 
L 200.348073 293.696735 
L 201.029834 293.638003 
L 201.276567 293.603792 
L 202.471272 293.460266 
L 202.705018 293.39823 
L 203.140047 293.338663 
L 203.406258 293.296912 
L 203.873751 293.248959 
L 204.088019 293.244394 
L 205.269738 293.015005 
L 206.094344 292.871308 
L 207.931852 292.607497 
L 209.204472 292.374048 
L 209.379782 292.355398 
L 209.684951 292.277712 
L 210.509557 292.161383 
L 210.723825 292.159876 
L 210.918614 292.180964 
L 211.165346 292.189078 
L 211.32767 292.17417 
L 211.639333 292.175469 
L 212.898967 291.954281 
L 213.067784 291.941555 
L 213.333995 291.941583 
L 213.820968 291.869194 
L 214.359883 291.762054 
L 214.515714 291.734255 
L 214.853348 291.647702 
L 215.29487 291.599692 
L 216.04156 291.424614 
L 216.164926 291.392776 
L 217.6648 291.07825 
L 217.989449 291.016979 
L 218.521871 290.865487 
L 221.008675 290.396722 
L 221.119056 290.37541 
L 222.248831 290.102514 
L 222.592958 290.022479 
L 222.859169 289.977469 
L 229.787159 288.355638 
L 229.910525 288.326948 
L 236.013908 286.784761 
L 236.604768 286.628185 
L 236.74112 286.599334 
L 237.176148 286.460709 
L 238.864318 286.009508 
L 239.59153 285.800185 
L 239.922671 285.706471 
L 240.786235 285.441524 
L 240.961545 285.403425 
L 244.292434 284.46696 
L 244.65604 284.35491 
L 244.974195 284.274917 
L 245.636477 284.085221 
L 245.92866 284.011238 
L 246.181885 283.94855 
L 246.545491 283.85123 
L 246.707815 283.806707 
L 247.305168 283.641618 
L 247.422041 283.620493 
L 248.292098 283.393762 
L 248.597267 283.313806 
L 248.934901 283.21524 
L 250.330887 282.79901 
L 250.493212 282.768441 
L 252.544987 282.222344 
L 252.668353 282.182577 
L 253.031959 282.075113 
L 253.616326 281.899576 
L 258.947047 280.286279 
L 259.089892 280.243209 
L 259.466484 280.150655 
L 259.674258 280.105448 
L 260.141752 279.960487 
L 260.258625 279.924598 
L 260.700146 279.804282 
L 260.894935 279.772354 
L 261.466316 279.595259 
L 264.018049 278.846849 
L 264.440092 278.718714 
L 265.167303 278.49405 
L 265.550388 278.3591 
L 265.75167 278.299896 
L 269.244883 277.14762 
L 269.712376 277.006602 
L 271.881025 276.266075 
L 272.491364 276.068091 
L 272.984829 275.9184 
L 273.861378 275.64662 
L 274.186026 275.542484 
L 274.815844 275.330843 
L 275.017125 275.254866 
L 275.51059 275.118939 
L 276.27676 274.926423 
L 276.568943 274.813525 
L 277.003971 274.655088 
L 281.91265 273.031311 
L 282.133411 272.982646 
L 282.600904 272.838755 
L 283.899496 272.434148 
L 284.055327 272.389881 
L 285.120173 272.076021 
L 285.360412 271.999623 
L 285.853877 271.818377 
L 286.56161 271.599918 
L 286.704455 271.552594 
L 287.360244 271.340472 
L 289.950936 270.451119 
L 290.11326 270.404424 
L 290.710612 270.190984 
L 291.483275 269.932925 
L 291.898824 269.791604 
L 292.37281 269.600063 
L 293.528557 269.214588 
L 293.866191 269.12209 
L 294.379135 268.936569 
L 296.508826 268.176967 
L 296.872432 268.049547 
L 297.274996 267.899132 
L 298.0087 267.674794 
L 300.391617 266.877872 
L 301.27466 266.561531 
L 301.833055 266.341414 
L 303.332929 265.811832 
L 303.930281 265.600236 
L 304.527633 265.379352 
L 305.196408 265.134631 
L 328.915195 256.398438 
L 329.69435 256.123574 
L 330.057956 256.003981 
L 330.486492 255.831536 
L 332.330493 255.146934 
L 332.518788 255.097639 
L 333.07069 254.896416 
L 334.070606 254.538413 
L 334.616015 254.317378 
L 334.778339 254.249813 
L 336.596368 253.5534 
L 337.336566 253.26455 
L 337.615763 253.168473 
L 339.394834 252.506094 
L 339.641567 252.407802 
L 342.914019 251.124696 
L 343.323076 250.981728 
L 345.705992 250.105867 
L 346.082584 249.94545 
L 371.489541 239.87736 
L 375.268444 238.342717 
L 375.560627 238.241144 
L 376.90467 237.71362 
L 377.54098 237.482169 
L 378.170798 237.218165 
L 380.066742 236.422106 
L 380.670588 236.171562 
L 381.345856 235.904431 
L 381.832828 235.723566 
L 382.488617 235.476028 
L 383.923561 234.886011 
L 384.64428 234.598348 
L 389.702296 232.513011 
L 390.078888 232.39365 
L 392.247537 231.53125 
L 393.091622 231.198964 
L 393.630538 230.962711 
L 394.208411 230.743014 
L 394.533059 230.622533 
L 396.6173 229.895403 
L 396.883511 229.810498 
L 397.344512 229.650544 
L 397.935371 229.406952 
L 398.474287 229.162085 
L 398.487273 229.15603 
L 398.487273 229.15603 
" style="fill:none;stroke:#1f77b4;stroke-linecap:square;stroke-width:1.5;"/>
   </g>
   <g id="patch_3">
    <path d="M 57.6 307.584 
L 57.6 41.472 
" style="fill:none;stroke:#000000;stroke-linecap:square;stroke-linejoin:miter;stroke-width:0.8;"/>
   </g>
   <g id="patch_4">
    <path d="M 414.72 307.584 
L 414.72 41.472 
" style="fill:none;stroke:#000000;stroke-linecap:square;stroke-linejoin:miter;stroke-width:0.8;"/>
   </g>
   <g id="patch_5">
    <path d="M 57.6 307.584 
L 414.72 307.584 
" style="fill:none;stroke:#000000;stroke-linecap:square;stroke-linejoin:miter;stroke-width:0.8;"/>
   </g>
   <g id="patch_6">
    <path d="M 57.6 41.472 
L 414.72 41.472 
" style="fill:none;stroke:#000000;stroke-linecap:square;stroke-linejoin:miter;stroke-width:0.8;"/>
   </g>
  </g>
 </g>
 <defs>
  <clipPath id="pae6dced9d1">
   <rect height="266.112" width="357.12" x="57.6" y="41.472"/>
  </clipPath>
 </defs>
</svg>
