<?xml version="1.0" encoding="utf-8" standalone="no"?>
<!DOCTYPE svg PUBLIC "-//W3C//DTD SVG 1.1//EN"
  "http://www.w3.org/Graphics/SVG/1.1/DTD/svg11.dtd">
<!-- Created with matplotlib (http://matplotlib.org/) -->
<svg height="345.6pt" version="1.1" viewBox="0 0 460.8 345.6" width="460.8pt" xmlns="http://www.w3.org/2000/svg" xmlns:xlink="http://www.w3.org/1999/xlink">
 <defs>
  <style type="text/css">
*{stroke-linecap:butt;stroke-linejoin:round;}
  </style>
 </defs>
 <g id="figure_1">
  <g id="patch_1">
   <path d="M 0 345.6 
L 460.8 345.6 
L 460.8 0 
L 0 0 
z
" style="fill:#ffffff;"/>
  </g>
  <g id="axes_1">
   <g id="patch_2">
    <path d="M 57.6 307.584 
L 414.72 307.584 
L 414.72 41.472 
L 57.6 41.472 
z
" style="fill:#ffffff;"/>
   </g>
   <g id="matplotlib.axis_1">
    <g id="xtick_1">
     <g id="line2d_1">
      <defs>
       <path d="M 0 0 
L 0 3.5 
" id="m8d680ec006" style="stroke:#000000;stroke-width:0.8;"/>
      </defs>
      <g>
       <use style="stroke:#000000;stroke-width:0.8;" x="73.832727" xlink:href="#m8d680ec006" y="307.584"/>
      </g>
     </g>
     <g id="text_1">
      <!-- 0 -->
      <defs>
       <path d="M 3.125 29.296875 
Q 3.90625 50 6.4375 56.046875 
Q 8.984375 62.109375 13.671875 66.015625 
Q 18.359375 69.921875 25.1875 69.921875 
Q 32.03125 69.921875 37.109375 64.25 
Q 42.1875 58.59375 43.75 50 
Q 45.3125 41.40625 44.71875 30.265625 
Q 44.140625 19.140625 40.8125 12.109375 
Q 37.5 5.078125 30.859375 2.34375 
Q 24.21875 -0.390625 17.578125 2.921875 
Q 10.9375 6.25 8.203125 11.71875 
Q 5.46875 17.1875 4.296875 23.234375 
Q 3.125 29.296875 3.90625 50 
z
M 12.890625 52.734375 
Q 10.546875 31.25 12.5 22.84375 
Q 14.453125 14.453125 18.9375 10.9375 
Q 23.4375 7.421875 28.125 9.5625 
Q 32.8125 11.71875 34.953125 18.15625 
Q 37.109375 24.609375 37.109375 32.21875 
Q 37.109375 39.84375 36.515625 46.09375 
Q 35.9375 52.34375 33 57.421875 
Q 30.078125 62.5 25.1875 62.6875 
Q 20.3125 62.890625 16.59375 57.8125 
Q 12.890625 52.734375 10.546875 31.25 
z
" id="SimHei-30"/>
      </defs>
      <g transform="translate(70.582727 323.5215)scale(0.13 -0.13)">
       <use xlink:href="#SimHei-30"/>
      </g>
     </g>
    </g>
    <g id="xtick_2">
     <g id="line2d_2">
      <g>
       <use style="stroke:#000000;stroke-width:0.8;" x="138.762338" xlink:href="#m8d680ec006" y="307.584"/>
      </g>
     </g>
     <g id="text_2">
      <!-- 1 -->
      <defs>
       <path d="M 21.875 56.25 
Q 16.796875 51.171875 8.984375 46.484375 
L 8.984375 53.90625 
Q 18.75 60.546875 25 69.53125 
L 29.6875 69.53125 
L 29.6875 2.34375 
L 21.875 2.34375 
z
" id="SimHei-31"/>
      </defs>
      <g transform="translate(135.512338 323.5215)scale(0.13 -0.13)">
       <use xlink:href="#SimHei-31"/>
      </g>
     </g>
    </g>
    <g id="xtick_3">
     <g id="line2d_3">
      <g>
       <use style="stroke:#000000;stroke-width:0.8;" x="203.691948" xlink:href="#m8d680ec006" y="307.584"/>
      </g>
     </g>
     <g id="text_3">
      <!-- 2 -->
      <defs>
       <path d="M 4.6875 3.90625 
Q 5.078125 9.765625 10.15625 14.453125 
Q 15.234375 19.140625 23.046875 29.09375 
Q 30.859375 39.0625 33.203125 44.53125 
Q 35.546875 50 34.953125 53.90625 
Q 34.375 57.8125 31.25 60.34375 
Q 28.125 62.890625 24.015625 62.5 
Q 19.921875 62.109375 16.203125 59.375 
Q 12.5 56.640625 10.546875 51.171875 
L 3.125 52.34375 
Q 6.25 61.328125 11.125 65.421875 
Q 16.015625 69.53125 22.65625 69.921875 
Q 26.5625 70.3125 29.6875 69.71875 
Q 32.8125 69.140625 36.125 66.984375 
Q 39.453125 64.84375 41.59375 60.546875 
Q 43.75 56.25 43.15625 50.1875 
Q 42.578125 44.140625 37.109375 35.734375 
Q 31.640625 27.34375 16.015625 9.375 
L 44.140625 9.375 
L 44.140625 2.34375 
L 4.6875 2.34375 
z
" id="SimHei-32"/>
      </defs>
      <g transform="translate(200.441948 323.5215)scale(0.13 -0.13)">
       <use xlink:href="#SimHei-32"/>
      </g>
     </g>
    </g>
    <g id="xtick_4">
     <g id="line2d_4">
      <g>
       <use style="stroke:#000000;stroke-width:0.8;" x="268.621559" xlink:href="#m8d680ec006" y="307.584"/>
      </g>
     </g>
     <g id="text_4">
      <!-- 3 -->
      <defs>
       <path d="M 3.90625 19.140625 
L 10.9375 20.3125 
Q 12.5 15.234375 16.015625 11.90625 
Q 19.53125 8.59375 24.796875 8.78125 
Q 30.078125 8.984375 33.203125 13.078125 
Q 36.328125 17.1875 35.9375 22.453125 
Q 35.546875 27.734375 31.828125 30.65625 
Q 28.125 33.59375 19.921875 34.765625 
L 19.921875 39.84375 
Q 28.125 40.625 31.828125 44.140625 
Q 35.546875 47.65625 35.15625 53.3125 
Q 34.765625 58.984375 30.078125 61.515625 
Q 25.390625 64.0625 20.109375 62.109375 
Q 14.84375 60.15625 11.71875 51.171875 
L 4.6875 52.34375 
Q 7.03125 59.375 11.125 64.0625 
Q 15.234375 68.75 22.265625 69.53125 
Q 29.296875 70.3125 34.5625 67.765625 
Q 39.84375 65.234375 41.984375 59.953125 
Q 44.140625 54.6875 42.578125 48.4375 
Q 41.015625 42.1875 33.59375 37.5 
Q 39.0625 35.15625 41.984375 30.46875 
Q 44.921875 25.78125 43.9375 18.15625 
Q 42.96875 10.546875 37.109375 5.859375 
Q 31.25 1.171875 23.828125 1.359375 
Q 16.40625 1.5625 10.9375 6.046875 
Q 5.46875 10.546875 3.90625 19.140625 
z
" id="SimHei-33"/>
      </defs>
      <g transform="translate(265.371559 323.5215)scale(0.13 -0.13)">
       <use xlink:href="#SimHei-33"/>
      </g>
     </g>
    </g>
    <g id="xtick_5">
     <g id="line2d_5">
      <g>
       <use style="stroke:#000000;stroke-width:0.8;" x="333.551169" xlink:href="#m8d680ec006" y="307.584"/>
      </g>
     </g>
     <g id="text_5">
      <!-- 4 -->
      <defs>
       <path d="M 31.25 17.1875 
L 1.171875 17.1875 
L 1.171875 23.828125 
L 32.8125 69.53125 
L 38.671875 69.53125 
L 38.671875 23.828125 
L 48.046875 23.828125 
L 48.046875 17.1875 
L 38.671875 17.1875 
L 38.671875 2.34375 
L 31.25 2.34375 
z
M 31.25 23.828125 
L 31.25 54.6875 
L 9.375 23.828125 
z
" id="SimHei-34"/>
      </defs>
      <g transform="translate(330.301169 323.5215)scale(0.13 -0.13)">
       <use xlink:href="#SimHei-34"/>
      </g>
     </g>
    </g>
    <g id="xtick_6">
     <g id="line2d_6">
      <g>
       <use style="stroke:#000000;stroke-width:0.8;" x="398.48078" xlink:href="#m8d680ec006" y="307.584"/>
      </g>
     </g>
     <g id="text_6">
      <!-- 5 -->
      <defs>
       <path d="M 8.59375 20.703125 
Q 11.328125 10.15625 17.96875 8.984375 
Q 24.609375 7.8125 28.703125 10.34375 
Q 32.8125 12.890625 34.5625 16.984375 
Q 36.328125 21.09375 36.125 26.171875 
Q 35.9375 31.25 33.390625 34.765625 
Q 30.859375 38.28125 26.953125 39.453125 
Q 23.046875 40.625 18.15625 39.453125 
Q 13.28125 38.28125 10.15625 33.984375 
L 3.515625 34.765625 
Q 4.296875 37.109375 10.9375 68.359375 
L 41.796875 68.359375 
L 41.796875 61.328125 
L 16.796875 61.328125 
Q 14.84375 50.78125 12.890625 44.53125 
Q 18.75 47.265625 23.828125 47.0625 
Q 28.90625 46.875 33.59375 44.71875 
Q 38.28125 42.578125 40.421875 38.859375 
Q 42.578125 35.15625 43.546875 31.4375 
Q 44.53125 27.734375 44.328125 23.4375 
Q 44.140625 19.140625 42.578125 14.640625 
Q 41.015625 10.15625 37.890625 7.21875 
Q 34.765625 4.296875 30.265625 2.53125 
Q 25.78125 0.78125 19.921875 1.171875 
Q 14.0625 1.5625 8.78125 5.46875 
Q 3.515625 9.375 1.5625 18.75 
z
" id="SimHei-35"/>
      </defs>
      <g transform="translate(395.23078 323.5215)scale(0.13 -0.13)">
       <use xlink:href="#SimHei-35"/>
      </g>
     </g>
    </g>
    <g id="text_7">
     <!-- Episode/k -->
     <defs>
      <path d="M 45.3125 1.953125 
L 5.46875 1.953125 
L 5.46875 68.75 
L 43.359375 68.75 
L 43.359375 61.328125 
L 14.453125 61.328125 
L 14.453125 40.625 
L 41.015625 40.625 
L 41.015625 33.203125 
L 14.453125 33.203125 
L 14.453125 9.375 
L 45.3125 9.375 
z
" id="SimHei-45"/>
      <path d="M 44.140625 23.828125 
Q 44.140625 12.5 38.671875 6.640625 
Q 33.203125 0.78125 25.390625 0.78125 
Q 21.09375 0.78125 17.96875 2.53125 
Q 14.84375 4.296875 12.5 7.8125 
L 12.5 -12.5 
L 4.6875 -12.5 
L 4.6875 45.703125 
L 12.5 45.703125 
L 12.5 39.84375 
Q 14.84375 43.359375 17.96875 44.921875 
Q 21.09375 46.484375 25.390625 46.484375 
Q 33.203125 46.484375 38.671875 40.8125 
Q 44.140625 35.15625 44.140625 23.828125 
z
M 35.546875 23.828125 
Q 35.546875 31.25 32.609375 35.34375 
Q 29.6875 39.453125 23.828125 39.453125 
Q 19.140625 39.453125 15.8125 35.34375 
Q 12.5 31.25 12.5 23.828125 
Q 12.5 16.40625 15.8125 12.109375 
Q 19.140625 7.8125 23.828125 7.8125 
Q 29.6875 7.8125 32.609375 12.109375 
Q 35.546875 16.40625 35.546875 23.828125 
z
" id="SimHei-70"/>
      <path d="M 28.125 58.203125 
L 20.3125 58.203125 
L 20.3125 68.359375 
L 28.125 68.359375 
z
M 28.125 1.953125 
L 20.3125 1.953125 
L 20.3125 45.703125 
L 28.125 45.703125 
z
" id="SimHei-69"/>
      <path d="M 42.96875 14.0625 
Q 42.96875 7.8125 38.078125 4.484375 
Q 33.203125 1.171875 25.78125 1.171875 
Q 16.40625 1.171875 11.328125 4.875 
Q 6.25 8.59375 6.25 15.625 
L 14.0625 15.625 
Q 14.0625 10.9375 17.375 9.375 
Q 20.703125 7.8125 25.390625 7.8125 
Q 30.078125 7.8125 32.421875 9.5625 
Q 34.765625 11.328125 34.765625 14.0625 
Q 34.765625 16.015625 32.8125 17.96875 
Q 30.859375 19.921875 23.046875 21.09375 
Q 14.0625 22.265625 10.734375 25.578125 
Q 7.421875 28.90625 7.421875 34.375 
Q 7.421875 39.0625 11.90625 42.765625 
Q 16.40625 46.484375 25 46.484375 
Q 32.8125 46.484375 37.296875 42.96875 
Q 41.796875 39.453125 41.796875 33.59375 
L 33.984375 33.59375 
Q 33.984375 37.109375 31.4375 38.46875 
Q 28.90625 39.84375 25 39.84375 
Q 19.921875 39.84375 17.765625 38.078125 
Q 15.625 36.328125 15.625 33.984375 
Q 15.625 31.25 17.578125 29.6875 
Q 19.53125 28.125 25.78125 27.34375 
Q 35.9375 25.78125 39.453125 22.453125 
Q 42.96875 19.140625 42.96875 14.0625 
z
" id="SimHei-73"/>
      <path d="M 45.703125 23.828125 
Q 45.703125 13.671875 39.453125 7.421875 
Q 33.203125 1.171875 24.609375 1.171875 
Q 16.015625 1.171875 9.765625 7.421875 
Q 3.515625 13.671875 3.515625 23.828125 
Q 3.515625 33.984375 9.765625 40.234375 
Q 16.015625 46.484375 24.609375 46.484375 
Q 33.203125 46.484375 39.453125 40.234375 
Q 45.703125 33.984375 45.703125 23.828125 
z
M 37.109375 23.828125 
Q 37.109375 31.640625 33.203125 35.546875 
Q 29.296875 39.453125 24.609375 39.453125 
Q 19.921875 39.453125 16.015625 35.546875 
Q 12.109375 31.640625 12.109375 23.828125 
Q 12.109375 16.015625 16.015625 12.109375 
Q 19.921875 8.203125 24.609375 8.203125 
Q 29.296875 8.203125 33.203125 12.109375 
Q 37.109375 16.015625 37.109375 23.828125 
z
" id="SimHei-6f"/>
      <path d="M 42.96875 1.953125 
L 35.15625 1.953125 
L 35.15625 7.8125 
Q 32.8125 4.296875 29.6875 2.734375 
Q 26.5625 1.171875 22.265625 1.171875 
Q 14.453125 1.171875 8.984375 6.828125 
Q 3.515625 12.5 3.515625 23.828125 
Q 3.515625 35.15625 8.984375 41.015625 
Q 14.453125 46.875 22.265625 46.875 
Q 26.5625 46.875 29.6875 45.109375 
Q 32.8125 43.359375 35.15625 39.84375 
L 35.15625 68.75 
L 42.96875 68.75 
z
M 35.15625 23.828125 
Q 35.15625 31.25 31.828125 35.546875 
Q 28.515625 39.84375 23.828125 39.84375 
Q 17.96875 39.84375 15.03125 35.546875 
Q 12.109375 31.25 12.109375 23.828125 
Q 12.109375 16.40625 15.03125 12.296875 
Q 17.96875 8.203125 23.828125 8.203125 
Q 28.515625 8.203125 31.828125 12.296875 
Q 35.15625 16.40625 35.15625 23.828125 
z
" id="SimHei-64"/>
      <path d="M 44.53125 16.796875 
Q 43.75 9.765625 38.28125 5.46875 
Q 32.8125 1.171875 25.390625 1.171875 
Q 16.015625 1.171875 9.953125 7.21875 
Q 3.90625 13.28125 3.90625 23.828125 
Q 3.90625 34.375 9.953125 40.421875 
Q 16.015625 46.484375 25.390625 46.484375 
Q 33.59375 46.484375 38.859375 41.203125 
Q 44.140625 35.9375 44.140625 23.828125 
L 12.5 23.828125 
Q 12.5 15.234375 16.203125 11.71875 
Q 19.921875 8.203125 25.390625 8.203125 
Q 29.6875 8.203125 32.421875 10.34375 
Q 35.15625 12.5 35.9375 16.796875 
z
M 35.15625 30.078125 
Q 34.375 35.546875 31.640625 37.6875 
Q 28.90625 39.84375 24.609375 39.84375 
Q 20.703125 39.84375 17.578125 37.6875 
Q 14.453125 35.546875 12.890625 30.078125 
z
" id="SimHei-65"/>
      <path d="M 46.875 71.09375 
L 5.46875 -2.734375 
L 1.5625 -0.390625 
L 42.96875 73.4375 
z
" id="SimHei-2f"/>
      <path d="M 45.703125 1.953125 
L 36.71875 1.953125 
L 22.65625 25.78125 
L 13.671875 17.1875 
L 13.671875 1.953125 
L 5.859375 1.953125 
L 5.859375 68.75 
L 13.671875 68.75 
L 13.671875 26.171875 
L 33.203125 45.703125 
L 42.96875 45.703125 
L 27.734375 30.859375 
z
" id="SimHei-6b"/>
     </defs>
     <g transform="translate(202.41 340.162125)scale(0.15 -0.15)">
      <use xlink:href="#SimHei-45"/>
      <use x="50" xlink:href="#SimHei-70"/>
      <use x="100" xlink:href="#SimHei-69"/>
      <use x="150" xlink:href="#SimHei-73"/>
      <use x="200" xlink:href="#SimHei-6f"/>
      <use x="250" xlink:href="#SimHei-64"/>
      <use x="300" xlink:href="#SimHei-65"/>
      <use x="350" xlink:href="#SimHei-2f"/>
      <use x="400" xlink:href="#SimHei-6b"/>
     </g>
    </g>
    <g id="text_8">
     <!-- 1e4 -->
     <g transform="translate(399.72 335.0215)scale(0.1 -0.1)">
      <use xlink:href="#SimHei-31"/>
      <use x="50" xlink:href="#SimHei-65"/>
      <use x="100" xlink:href="#SimHei-34"/>
     </g>
    </g>
   </g>
   <g id="matplotlib.axis_2">
    <g id="ytick_1">
     <g id="line2d_7">
      <defs>
       <path d="M 0 0 
L -3.5 0 
" id="m0397f694f0" style="stroke:#000000;stroke-width:0.8;"/>
      </defs>
      <g>
       <use style="stroke:#000000;stroke-width:0.8;" x="57.6" xlink:href="#m0397f694f0" y="300.22416"/>
      </g>
     </g>
     <g id="text_9">
      <!-- -5 -->
      <defs>
       <path d="M 46.484375 33.203125 
L 1.953125 33.203125 
L 1.953125 39.453125 
L 46.484375 39.453125 
z
" id="SimHei-2d"/>
      </defs>
      <g transform="translate(37.6 304.69291)scale(0.13 -0.13)">
       <use xlink:href="#SimHei-2d"/>
       <use x="50" xlink:href="#SimHei-35"/>
      </g>
     </g>
    </g>
    <g id="ytick_2">
     <g id="line2d_8">
      <g>
       <use style="stroke:#000000;stroke-width:0.8;" x="57.6" xlink:href="#m0397f694f0" y="250.892928"/>
      </g>
     </g>
     <g id="text_10">
      <!-- -4 -->
      <g transform="translate(37.6 255.361678)scale(0.13 -0.13)">
       <use xlink:href="#SimHei-2d"/>
       <use x="50" xlink:href="#SimHei-34"/>
      </g>
     </g>
    </g>
    <g id="ytick_3">
     <g id="line2d_9">
      <g>
       <use style="stroke:#000000;stroke-width:0.8;" x="57.6" xlink:href="#m0397f694f0" y="201.561696"/>
      </g>
     </g>
     <g id="text_11">
      <!-- -3 -->
      <g transform="translate(37.6 206.030446)scale(0.13 -0.13)">
       <use xlink:href="#SimHei-2d"/>
       <use x="50" xlink:href="#SimHei-33"/>
      </g>
     </g>
    </g>
    <g id="ytick_4">
     <g id="line2d_10">
      <g>
       <use style="stroke:#000000;stroke-width:0.8;" x="57.6" xlink:href="#m0397f694f0" y="152.230464"/>
      </g>
     </g>
     <g id="text_12">
      <!-- -2 -->
      <g transform="translate(37.6 156.699214)scale(0.13 -0.13)">
       <use xlink:href="#SimHei-2d"/>
       <use x="50" xlink:href="#SimHei-32"/>
      </g>
     </g>
    </g>
    <g id="ytick_5">
     <g id="line2d_11">
      <g>
       <use style="stroke:#000000;stroke-width:0.8;" x="57.6" xlink:href="#m0397f694f0" y="102.899232"/>
      </g>
     </g>
     <g id="text_13">
      <!-- -1 -->
      <g transform="translate(37.6 107.367982)scale(0.13 -0.13)">
       <use xlink:href="#SimHei-2d"/>
       <use x="50" xlink:href="#SimHei-31"/>
      </g>
     </g>
    </g>
    <g id="ytick_6">
     <g id="line2d_12">
      <g>
       <use style="stroke:#000000;stroke-width:0.8;" x="57.6" xlink:href="#m0397f694f0" y="53.568"/>
      </g>
     </g>
     <g id="text_14">
      <!-- 0 -->
      <g transform="translate(44.1 58.03675)scale(0.13 -0.13)">
       <use xlink:href="#SimHei-30"/>
      </g>
     </g>
    </g>
    <g id="text_15">
     <!-- Cumulative -->
     <defs>
      <path d="M 46.484375 28.515625 
Q 46.09375 13.671875 40.234375 7.421875 
Q 34.375 1.171875 26.171875 1.171875 
Q 16.796875 1.171875 10.15625 8.78125 
Q 3.515625 16.40625 3.515625 33.203125 
Q 3.515625 51.5625 9.953125 60.546875 
Q 16.40625 69.53125 26.5625 69.53125 
Q 35.15625 69.53125 40.8125 63.078125 
Q 46.484375 56.640625 46.09375 44.921875 
L 37.5 44.921875 
Q 37.5 53.515625 34.765625 57.8125 
Q 32.03125 62.109375 26.5625 62.109375 
Q 20.3125 62.109375 16.59375 55.65625 
Q 12.890625 49.21875 12.890625 33.984375 
Q 12.890625 19.921875 16.59375 14.25 
Q 20.3125 8.59375 26.171875 8.59375 
Q 30.46875 8.59375 33.984375 12.6875 
Q 37.5 16.796875 37.5 28.515625 
z
" id="SimHei-43"/>
      <path d="M 43.75 1.953125 
L 35.9375 1.953125 
L 35.9375 10.15625 
Q 32.8125 5.859375 29.09375 3.515625 
Q 25.390625 1.171875 19.53125 1.171875 
Q 12.5 1.171875 8.984375 5.078125 
Q 5.46875 8.984375 5.46875 14.84375 
L 5.46875 45.703125 
L 13.28125 45.703125 
L 13.28125 17.578125 
Q 13.28125 12.890625 15.625 10.15625 
Q 17.96875 7.421875 21.875 7.421875 
Q 26.953125 7.421875 31.4375 12.6875 
Q 35.9375 17.96875 35.9375 25.78125 
L 35.9375 45.703125 
L 43.75 45.703125 
z
" id="SimHei-75"/>
      <path d="M 47.65625 1.953125 
L 39.84375 1.953125 
L 39.84375 33.59375 
Q 39.84375 35.9375 39.0625 37.5 
Q 38.28125 39.0625 35.9375 39.0625 
Q 33.203125 39.0625 30.859375 36.125 
Q 28.515625 33.203125 28.515625 28.515625 
L 28.515625 1.953125 
L 20.703125 1.953125 
L 20.703125 33.59375 
Q 20.703125 35.9375 19.921875 37.5 
Q 19.140625 39.0625 16.796875 39.0625 
Q 14.0625 39.0625 11.71875 36.125 
Q 9.375 33.203125 9.375 28.515625 
L 9.375 1.953125 
L 1.5625 1.953125 
L 1.5625 45.703125 
L 9.375 45.703125 
L 9.375 39.84375 
Q 11.328125 42.96875 14.0625 44.71875 
Q 16.796875 46.484375 19.921875 46.484375 
Q 23.046875 46.484375 25.1875 44.71875 
Q 27.34375 42.96875 28.125 39.84375 
Q 30.078125 42.96875 32.609375 44.71875 
Q 35.15625 46.484375 38.28125 46.484375 
Q 42.96875 46.484375 45.3125 43.9375 
Q 47.65625 41.40625 47.65625 36.71875 
z
" id="SimHei-6d"/>
      <path d="M 28.515625 1.953125 
L 20.703125 1.953125 
L 20.703125 68.75 
L 28.515625 68.75 
z
" id="SimHei-6c"/>
      <path d="M 44.921875 1.953125 
L 35.546875 1.953125 
Q 34.765625 2.734375 34.375 4.09375 
Q 33.984375 5.46875 33.984375 7.421875 
Q 31.25 4.296875 27.34375 2.734375 
Q 23.4375 1.171875 19.140625 1.171875 
Q 12.890625 1.171875 8.59375 4.296875 
Q 4.296875 7.421875 4.296875 13.28125 
Q 4.296875 19.140625 8.203125 22.65625 
Q 12.109375 26.171875 20.3125 27.34375 
Q 25.78125 28.125 29.875 29.296875 
Q 33.984375 30.46875 33.984375 32.421875 
Q 33.984375 34.765625 32.21875 37.109375 
Q 30.46875 39.453125 24.609375 39.453125 
Q 19.921875 39.453125 17.765625 37.6875 
Q 15.625 35.9375 14.84375 32.8125 
L 6.25 32.8125 
Q 7.03125 39.0625 11.90625 42.765625 
Q 16.796875 46.484375 24.609375 46.484375 
Q 33.203125 46.484375 37.5 42.578125 
Q 41.796875 38.671875 41.796875 31.640625 
L 41.796875 10.15625 
Q 41.796875 7.8125 42.578125 5.859375 
Q 43.359375 3.90625 44.921875 1.953125 
z
M 33.984375 16.40625 
L 33.984375 24.21875 
Q 31.640625 23.4375 29.484375 22.84375 
Q 27.34375 22.265625 22.265625 21.484375 
Q 16.40625 20.703125 14.640625 18.75 
Q 12.890625 16.796875 12.890625 14.0625 
Q 12.890625 11.71875 14.640625 9.953125 
Q 16.40625 8.203125 19.921875 8.203125 
Q 23.4375 8.203125 27.53125 10.15625 
Q 31.640625 12.109375 33.984375 16.40625 
z
" id="SimHei-61"/>
      <path d="M 42.96875 3.125 
Q 41.015625 2.34375 38.46875 1.75 
Q 35.9375 1.171875 31.640625 1.171875 
Q 24.609375 1.171875 20.3125 5.078125 
Q 16.015625 8.984375 16.015625 16.015625 
L 16.015625 39.453125 
L 2.734375 39.453125 
L 2.734375 45.703125 
L 16.015625 45.703125 
L 16.015625 60.9375 
L 23.828125 60.9375 
L 23.828125 45.703125 
L 39.84375 45.703125 
L 39.84375 39.453125 
L 23.828125 39.453125 
L 23.828125 15.625 
Q 23.828125 12.5 25.390625 10.34375 
Q 26.953125 8.203125 31.25 8.203125 
Q 35.546875 8.203125 38.28125 8.984375 
Q 41.015625 9.765625 42.96875 10.9375 
z
" id="SimHei-74"/>
      <path d="M 44.921875 45.703125 
L 28.515625 1.171875 
L 19.921875 1.171875 
L 3.515625 45.703125 
L 11.71875 45.703125 
L 23.828125 11.71875 
L 24.609375 11.71875 
L 36.71875 45.703125 
z
" id="SimHei-76"/>
     </defs>
     <g transform="translate(31.725 212.028)rotate(-90)scale(0.15 -0.15)">
      <use xlink:href="#SimHei-43"/>
      <use x="50" xlink:href="#SimHei-75"/>
      <use x="100" xlink:href="#SimHei-6d"/>
      <use x="150" xlink:href="#SimHei-75"/>
      <use x="200" xlink:href="#SimHei-6c"/>
      <use x="250" xlink:href="#SimHei-61"/>
      <use x="300" xlink:href="#SimHei-74"/>
      <use x="350" xlink:href="#SimHei-69"/>
      <use x="400" xlink:href="#SimHei-76"/>
      <use x="450" xlink:href="#SimHei-65"/>
     </g>
    </g>
    <g id="text_16">
     <!-- 1e6 -->
     <defs>
      <path d="M 3.515625 19.53125 
Q 4.296875 30.859375 6.046875 34.765625 
Q 7.8125 38.671875 11.328125 44.53125 
L 27.34375 69.53125 
L 36.328125 69.53125 
L 19.921875 43.75 
Q 30.46875 46.484375 36.71875 42.96875 
Q 42.96875 39.453125 45.109375 34.953125 
Q 47.265625 30.46875 47.453125 25.1875 
Q 47.65625 19.921875 45.890625 14.84375 
Q 44.140625 9.765625 39.640625 5.65625 
Q 35.15625 1.5625 27.140625 1.171875 
Q 19.140625 0.78125 13.46875 4.09375 
Q 7.8125 7.421875 5.65625 13.46875 
Q 3.515625 19.53125 4.296875 30.859375 
z
M 12.5 16.015625 
Q 19.53125 8.59375 25.390625 8.203125 
Q 31.25 7.8125 35.15625 12.109375 
Q 39.0625 16.40625 39.0625 24.609375 
Q 39.0625 32.8125 34.171875 35.9375 
Q 29.296875 39.0625 23.234375 38.28125 
Q 17.1875 37.5 14.453125 32.421875 
Q 11.71875 27.34375 12.109375 21.671875 
Q 12.5 16.015625 19.53125 8.59375 
z
" id="SimHei-36"/>
     </defs>
     <g transform="translate(57.6 38.472)scale(0.1 -0.1)">
      <use xlink:href="#SimHei-31"/>
      <use x="50" xlink:href="#SimHei-65"/>
      <use x="100" xlink:href="#SimHei-36"/>
     </g>
    </g>
   </g>
   <g id="line2d_13">
    <path clip-path="url(#pe2e20f27f2)" d="M 73.832727 53.568 
L 74.059981 54.776396 
L 74.202826 56.038232 
L 74.228798 56.104665 
L 74.384629 56.837397 
L 75.507911 61.62919 
L 75.631277 62.178393 
L 75.676728 62.26974 
L 75.819573 63.198334 
L 76.280574 64.620741 
L 76.57925 66.23603 
L 76.585743 66.233118 
L 76.592236 66.345317 
L 76.598729 66.340647 
L 76.735081 67.131963 
L 76.793518 67.230568 
L 77.306461 69.98204 
L 77.364898 70.272261 
L 77.579166 71.320648 
L 77.611631 71.531243 
L 77.734997 72.046679 
L 77.747983 72.037358 
L 77.942772 72.94604 
L 77.988222 73.062404 
L 78.228462 73.967301 
L 78.462209 75.702042 
L 78.468701 75.697459 
L 78.507659 76.06927 
L 78.715434 77.226505 
L 78.721927 77.223945 
L 78.72842 77.290336 
L 78.897237 78.326407 
L 78.949181 78.638354 
L 79.559519 81.374113 
L 79.708857 82.539093 
L 79.71535 82.535857 
L 79.741322 82.626671 
L 79.754308 82.622819 
L 79.82573 83.18016 
L 79.832223 83.175523 
L 80.104928 85.107037 
L 80.111421 85.103032 
L 80.163364 85.230174 
L 80.656829 89.390851 
L 80.676308 89.399548 
L 80.682801 89.47938 
L 80.689294 89.493633 
L 80.715266 89.617889 
L 80.864604 90.617579 
L 81.435985 94.947875 
L 81.442478 94.944023 
L 81.448971 94.98489 
L 81.455464 94.980313 
L 81.57883 95.820059 
L 81.585323 95.816156 
L 81.604802 95.841298 
L 81.734661 97.289538 
L 81.747647 97.282273 
L 81.75414 97.41039 
L 81.825562 97.972133 
L 81.955422 99.364627 
L 81.994379 99.569602 
L 83.416338 109.939362 
L 83.44231 110.032265 
L 83.539704 111.024961 
L 83.766958 113.070815 
L 84.020183 114.468961 
L 84.163028 115.441013 
L 84.344831 116.230001 
L 84.572085 118.534938 
L 84.77986 120.051927 
L 84.805831 120.176772 
L 85.013606 122.247855 
L 85.033085 122.350783 
L 85.24086 124.147261 
L 85.383705 125.493412 
L 85.59148 127.21186 
L 85.610959 127.425028 
L 85.844705 129.682652 
L 85.857691 129.705812 
L 86.013522 131.636695 
L 86.045987 131.821884 
L 86.208311 133.092766 
L 86.370635 133.991825 
L 86.539452 135.569932 
L 86.57841 136.083875 
L 87.14979 140.958349 
L 87.227706 141.506758 
L 87.695199 144.5025 
L 87.870509 146.15933 
L 87.877002 146.158013 
L 88.013354 147.380219 
L 88.480847 151.111302 
L 88.48734 151.108151 
L 88.513312 151.100261 
L 88.526298 151.161165 
L 88.66265 151.859489 
L 89.759961 160.716454 
L 89.876834 161.749129 
L 90.013186 163.062877 
L 90.026172 163.101855 
L 90.24044 165.250399 
L 90.441722 166.752214 
L 90.448215 166.74923 
L 90.467693 166.949485 
L 90.630018 168.433067 
L 90.63651 168.429607 
L 90.643003 168.426865 
L 90.785849 169.907447 
L 90.850778 170.267222 
L 91.311778 175.740448 
L 91.558511 177.470319 
L 91.701356 178.405435 
L 91.902638 179.951611 
L 92.032497 181.320165 
L 92.051976 181.646304 
L 92.240272 182.883251 
L 92.246765 182.878426 
L 92.259751 182.901074 
L 92.49999 185.73563 
L 92.623357 186.619675 
L 92.792174 188.368532 
L 93.123315 191.066053 
L 93.20123 191.397239 
L 93.519385 193.23904 
L 93.525878 193.237141 
L 93.675216 194.776342 
L 93.746639 194.865159 
L 93.928442 196.15449 
L 93.980385 196.272354 
L 94.129724 197.431245 
L 94.155695 197.54809 
L 95.304949 203.109403 
L 95.337414 203.123759 
L 95.343907 203.177514 
L 95.356893 203.178314 
L 95.817893 205.747504 
L 95.94126 206.895435 
L 96.097091 207.868543 
L 96.467189 209.313202 
L 96.538612 209.634679 
L 96.895725 212.664331 
L 96.915204 212.753728 
L 97.058049 213.419016 
L 97.239852 214.296739 
L 97.467105 215.727469 
L 97.473598 215.72449 
L 97.480091 215.772863 
L 97.648908 216.468686 
L 97.668387 216.470378 
L 97.67488 216.555418 
L 97.811232 216.958988 
L 97.91512 217.282506 
L 98.13588 218.305999 
L 98.317683 219.062188 
L 98.467021 219.778345 
L 98.564416 220.191727 
L 98.694275 220.969541 
L 98.700768 220.975256 
L 98.830627 221.561477 
L 99.051388 222.458397 
L 99.285135 223.611069 
L 99.36305 223.759494 
L 99.531867 224.252775 
L 99.7786 226.087403 
L 99.785093 226.082634 
L 100.012346 227.093089 
L 100.06429 227.228941 
L 100.233107 227.913286 
L 101.343403 232.368453 
L 101.700516 233.463211 
L 101.97322 234.82651 
L 101.979713 234.822627 
L 102.116066 235.167734 
L 102.284883 235.785502 
L 102.362798 236.034741 
L 102.62901 237.071555 
L 102.843277 237.805007 
L 103.057545 238.65913 
L 103.070531 238.654503 
L 103.083517 238.659456 
L 103.219869 239.339896 
L 103.258827 239.439319 
L 104.057461 241.577919 
L 104.063954 241.573746 
L 104.18732 242.288492 
L 104.200306 242.290724 
L 104.213292 242.38469 
L 104.219785 242.394865 
L 104.382109 243.090834 
L 104.388602 243.087827 
L 104.479503 243.25036 
L 104.674292 244.1908 
L 104.693771 244.203733 
L 104.706757 244.303413 
L 105.41449 246.287947 
L 105.5898 246.972313 
L 105.667715 247.161774 
L 105.836532 247.631122 
L 105.843025 247.628765 
L 105.849518 247.733257 
L 105.992363 248.225523 
L 106.057293 248.240173 
L 106.083265 248.304792 
L 106.122223 248.374445 
L 106.128716 248.40784 
L 106.329997 248.874627 
L 106.394927 248.932532 
L 106.349476 248.931192 
L 106.40142 248.95484 
L 106.459857 249.110958 
L 106.674124 249.612167 
L 106.778012 249.881922 
L 106.959815 250.508486 
L 106.992279 250.607172 
L 107.251998 251.107777 
L 107.440294 251.324711 
L 107.576646 251.817295 
L 108.238928 253.444228 
L 108.602534 253.908247 
L 108.751872 254.23738 
L 108.816801 254.341749 
L 109.024576 254.571167 
L 109.167421 255.075408 
L 109.336238 255.425469 
L 109.453112 255.521493 
L 109.531027 255.775057 
L 109.673872 255.972457 
L 109.693351 255.958814 
L 109.816717 256.095835 
L 109.95307 256.330652 
L 109.972548 256.338301 
L 109.979041 256.399226 
L 110.011506 256.410166 
L 110.186816 256.778269 
L 110.193309 256.774738 
L 110.290704 256.895502 
L 110.433549 257.237112 
L 110.829619 257.885774 
L 110.868577 257.946788 
L 110.920521 257.953052 
L 111.011422 258.065457 
L 111.180239 258.446187 
L 111.452944 258.923826 
L 111.57631 259.186783 
L 112.693099 261.068003 
L 113.128128 261.650365 
L 113.26448 261.768032 
L 113.355381 261.906103 
L 113.718987 262.657256 
L 113.783917 262.758 
L 114.205959 263.500163 
L 114.543593 263.760992 
L 114.725396 263.988977 
L 114.803311 264.051011 
L 114.95265 264.29909 
L 115.309762 264.708716 
L 115.452608 264.976083 
L 115.485072 265.030918 
L 115.595453 265.265399 
L 115.601946 265.261921 
L 115.660382 265.3407 
L 115.790242 265.490058 
L 115.887636 265.538737 
L 115.829199 265.544607 
L 115.894129 265.551166 
L 117.264144 267.518139 
L 117.296609 267.546106 
L 117.283623 267.548897 
L 117.329073 267.596085 
L 117.484904 267.802734 
L 117.601778 268.017101 
L 117.751116 268.303209 
L 117.829031 268.346892 
L 117.835524 268.376695 
L 117.971876 268.540426 
L 118.062778 268.630912 
L 118.231595 268.869414 
L 118.608187 269.21384 
L 118.61468 269.208621 
L 118.647144 269.234845 
L 118.770511 269.520271 
L 118.815961 269.633762 
L 119.082173 269.889391 
L 119.225018 270.166156 
L 119.517201 270.502331 
L 119.627582 270.656916 
L 119.64706 270.649768 
L 119.737962 270.723299 
L 120.036638 271.037563 
L 120.06261 271.06166 
L 120.069103 271.136107 
L 120.41323 271.412106 
L 120.484652 271.451916 
L 120.432709 271.450047 
L 120.497638 271.47404 
L 120.640483 271.65824 
L 120.653469 271.650448 
L 120.711906 271.65567 
L 120.744371 271.719336 
L 120.822286 271.800654 
L 120.952146 272.007165 
L 121.97154 273.020674 
L 122.114386 273.284272 
L 122.120879 273.27966 
L 122.309174 273.548902 
L 122.328653 273.598415 
L 122.406569 273.615923 
L 122.705245 273.92105 
L 122.835104 274.007643 
L 122.984442 274.081994 
L 123.120795 274.144915 
L 123.270133 274.276569 
L 123.399992 274.361114 
L 123.542837 274.527275 
L 123.620753 274.613097 
L 124.081753 274.906582 
L 124.140189 274.935538 
L 124.153175 274.978746 
L 124.270049 275.044225 
L 124.276542 275.040053 
L 124.36095 275.097934 
L 124.510288 275.341196 
L 124.568725 275.395965 
L 124.529767 275.388423 
L 124.575218 275.412588 
L 124.705077 275.550255 
L 124.724556 275.542043 
L 124.763514 275.561465 
L 124.782993 275.640655 
L 124.95181 275.814853 
L 125.068683 275.840491 
L 125.075176 275.860651 
L 125.192049 276.074586 
L 125.224514 276.065718 
L 125.646556 276.388097 
L 125.769923 276.432568 
L 126.023148 276.685308 
L 126.393247 276.93207 
L 126.536092 277.047456 
L 126.542585 277.043888 
L 126.711402 277.142986 
L 126.854247 277.175661 
L 126.997092 277.390864 
L 127.120459 277.436056 
L 127.250318 277.502794 
L 127.542501 277.825584 
L 127.548994 277.820758 
L 127.652881 277.879957 
L 128.386586 278.452424 
L 128.406065 278.466915 
L 128.43853 278.523477 
L 128.561896 278.604138 
L 129.944897 279.25822 
L 130.100728 279.391123 
L 130.30201 279.570328 
L 130.451348 279.601476 
L 130.600686 279.6893 
L 130.750024 279.739958 
L 130.899362 279.852738 
L 131.094151 280.069822 
L 131.652545 280.343409 
L 131.762926 280.403955 
L 131.964208 280.539166 
L 132.081081 280.610102 
L 132.269377 280.787828 
L 132.27587 280.78324 
L 132.457673 280.879701 
L 132.581039 280.997254 
L 132.594025 280.991244 
L 132.645968 281.083371 
L 132.678433 281.066882 
L 132.91218 281.16436 
L 133.035546 281.219515 
L 133.938068 281.757316 
L 134.048448 281.8148 
L 134.288688 281.958582 
L 134.808124 282.348343 
L 134.924998 282.413529 
L 134.937984 282.407421 
L 135.080829 282.43039 
L 135.256139 282.465327 
L 135.398984 282.606837 
L 136.217097 283.171358 
L 136.327477 283.323638 
L 136.340463 283.31814 
L 136.476815 283.411117 
L 136.483308 283.407025 
L 136.671604 283.455758 
L 136.827435 283.513428 
L 136.957295 283.625158 
L 137.781901 283.975912 
L 137.859816 284.031951 
L 137.898774 284.022038 
L 138.041619 284.073414 
L 138.184464 284.146463 
L 138.398732 284.24943 
L 138.619493 284.33425 
L 138.911676 284.511091 
L 139.054521 284.522182 
L 139.18438 284.56517 
L 139.385662 284.690348 
L 139.541493 284.788153 
L 140.651789 285.141226 
L 140.846578 285.138872 
L 143.78789 286.359852 
L 143.982678 286.379079 
L 144.378749 286.432817 
L 144.593017 286.475836 
L 144.722876 286.506089 
L 144.729369 286.501529 
L 144.872214 286.549726 
L 144.99558 286.578834 
L 145.183876 286.615048 
L 145.515017 286.691424 
L 145.943553 286.819188 
L 146.164313 286.838301 
L 146.300666 286.874577 
L 146.488961 286.898925 
L 146.605835 286.913599 
L 146.612328 286.909628 
L 147.118779 287.021917 
L 147.469399 287.147308 
L 147.716131 287.144646 
L 147.839497 287.17404 
L 147.84599 287.170721 
L 148.001821 287.184561 
L 148.008314 287.206007 
L 148.151159 287.213028 
L 148.287512 287.306 
L 148.449836 287.357893 
L 148.573202 287.421253 
L 148.748512 287.474123 
L 148.871878 287.559726 
L 149.00823 287.627664 
L 149.13809 287.709656 
L 149.274442 287.761411 
L 149.689991 287.90847 
L 150.183456 288.197148 
L 150.391231 288.470028 
L 150.41071 288.538927 
L 150.495118 288.539309 
L 150.767823 288.688204 
L 151.170386 288.989388 
L 151.527499 289.325796 
L 151.74826 289.515177 
L 151.871626 289.638277 
L 151.878119 289.636421 
L 152.293669 289.90361 
L 152.345612 289.924156 
L 152.358598 289.966138 
L 152.475472 290.137517 
L 152.501443 290.139449 
L 152.527415 290.215263 
L 152.722204 290.539004 
L 152.819598 290.582186 
L 152.826091 290.604635 
L 153.19619 290.682255 
L 153.293585 290.823813 
L 153.410458 290.912143 
L 153.507852 290.93711 
L 153.514345 290.983111 
L 153.663683 291.172364 
L 153.793543 291.330357 
L 153.981838 291.349644 
L 154.079233 291.457091 
L 154.098712 291.454347 
L 154.351937 291.578279 
L 154.455825 291.649155 
L 154.735022 291.924579 
L 154.748008 291.915738 
L 154.864881 291.972736 
L 155.007726 292.047335 
L 155.131093 292.127253 
L 155.29991 292.230015 
L 155.462234 292.330068 
L 155.5856 292.511645 
L 155.592093 292.509431 
L 155.793375 292.612851 
L 156.267361 292.770233 
L 156.416699 292.79805 
L 156.812769 292.890834 
L 156.949122 292.906988 
L 156.955615 292.917261 
L 157.546474 293.123658 
L 157.825671 293.196258 
L 160.331954 293.9417 
L 160.455321 293.972003 
L 160.461814 293.967777 
L 160.643617 293.978982 
L 160.650109 293.992367 
L 160.805941 294.063681 
L 161.020208 294.064287 
L 161.150067 294.109304 
L 161.15656 294.105212 
L 161.383814 294.156834 
L 161.422772 294.185878 
L 161.429265 294.255357 
L 163.123928 294.564244 
L 163.305731 294.62923 
L 163.429097 294.625731 
L 163.578435 294.649479 
L 163.760238 294.729469 
L 163.857632 294.762251 
L 163.864125 294.7899 
L 164.162801 294.77174 
L 164.409534 294.795689 
L 164.539393 294.827722 
L 164.766647 294.81716 
L 164.77314 294.845118 
L 164.915985 294.828866 
L 165.097788 294.897512 
L 165.312056 294.941333 
L 165.526323 294.953587 
L 165.740591 295.012441 
L 166.292493 295.076154 
L 166.415859 295.083746 
L 166.591169 295.089948 
L 167.019704 295.112045 
L 167.44824 295.060506 
L 167.578099 295.127135 
L 167.591085 295.119105 
L 168.363747 295.231735 
L 169.019536 295.193703 
L 169.188353 295.206819 
L 170.844058 295.291595 
L 171.11027 295.270076 
L 171.960848 295.292153 
L 172.103693 295.301647 
L 172.402369 295.302628 
L 172.577679 295.315718 
L 172.921806 295.341371 
L 173.058158 295.382622 
L 173.239961 295.392865 
L 174.298314 295.385501 
L 174.473624 295.385381 
L 174.70737 295.366442 
L 174.850215 295.391422 
L 175.155384 295.356408 
L 175.454061 295.378133 
L 175.863117 295.40801 
L 176.031934 295.428069 
L 178.109682 295.295888 
L 178.512245 295.318336 
L 178.603147 295.31473 
L 178.622626 295.30295 
L 178.947274 295.283393 
L 179.142063 295.269578 
L 179.304387 295.294096 
L 179.629035 295.290424 
L 179.810838 295.308709 
L 179.908232 295.336036 
L 179.927711 295.326589 
L 180.369232 295.33107 
L 180.531556 295.333989 
L 180.667908 295.366512 
L 180.674401 295.386854 
L 180.797768 295.369144 
L 180.999049 295.398769 
L 181.401613 295.39364 
L 181.531472 295.432684 
L 181.622374 295.470333 
L 181.648346 295.460865 
L 181.882092 295.449047 
L 182.050909 295.467645 
L 182.219726 295.479168 
L 183.693628 295.321605 
L 183.836473 295.326719 
L 190.173603 294.959805 
L 190.426829 294.924099 
L 190.543702 294.923653 
L 190.887829 294.853986 
L 191.842294 294.792361 
L 192.037083 294.765744 
L 192.537041 294.775071 
L 192.835717 294.743509 
L 193.868098 294.621821 
L 194.322605 294.539304 
L 194.439479 294.514149 
L 194.582324 294.506504 
L 194.842042 294.490101 
L 195.004366 294.483691 
L 195.608212 294.442491 
L 195.712099 294.466987 
L 195.725085 294.462899 
L 196.91979 294.362184 
L 197.147044 294.327931 
L 197.543114 294.262998 
L 197.84179 294.204782 
L 198.004114 294.225637 
L 198.60796 294.128566 
L 198.698861 294.146571 
L 198.724833 294.131995 
L 200.679214 293.870818 
L 201.049313 293.775807 
L 201.172679 293.754182 
L 201.497327 293.684458 
L 201.620694 293.664358 
L 202.010271 293.594159 
L 202.231032 293.549802 
L 204.24385 293.163575 
L 204.399681 293.158531 
L 204.652907 293.139849 
L 204.860681 293.113824 
L 205.094428 293.081389 
L 205.983964 292.961532 
L 206.198231 292.941224 
L 206.477429 292.877719 
L 208.035739 292.50232 
L 208.334415 292.428132 
L 209.522627 292.264158 
L 209.658979 292.250417 
L 209.925191 292.217859 
L 210.035571 292.19055 
L 210.808234 292.069669 
L 211.158853 292.03137 
L 211.45753 291.961939 
L 215.489658 291.18091 
L 215.827292 291.124025 
L 216.424645 290.991798 
L 216.989533 290.862963 
L 217.106406 290.847118 
L 217.775181 290.643903 
L 218.14528 290.548036 
L 218.353054 290.499674 
L 218.625759 290.439909 
L 218.865998 290.411923 
L 219.158181 290.334451 
L 219.30752 290.307492 
L 219.567238 290.260268 
L 219.904872 290.201881 
L 220.307436 290.126923 
L 220.430802 290.094945 
L 220.729478 290.053057 
L 220.872323 290.04564 
L 221.093084 289.995039 
L 221.476169 289.878242 
L 221.670957 289.806861 
L 222.125465 289.6601 
L 222.287789 289.625886 
L 222.963057 289.422346 
L 223.157845 289.384347 
L 223.469508 289.30555 
L 223.618846 289.276872 
L 224.748621 289.01069 
L 225.047297 288.918136 
L 225.64465 288.797547 
L 225.839438 288.754699 
L 227.118552 288.449351 
L 227.319834 288.415889 
L 227.709411 288.319752 
L 228.339228 288.209463 
L 228.618426 288.137205 
L 233.18947 286.996873 
L 233.507625 286.930391 
L 233.773837 286.875734 
L 234.098485 286.865707 
L 238.163078 285.932025 
L 238.292938 285.912788 
L 238.624079 285.831195 
L 239.234417 285.692931 
L 239.468164 285.676358 
L 239.727882 285.634417 
L 239.831769 285.677438 
L 239.838262 285.675681 
L 241.195291 285.291065 
L 243.006827 284.81835 
L 243.01332 284.919611 
L 243.117208 284.896061 
L 244.292434 284.572863 
L 244.30542 284.606264 
L 244.402814 284.573374 
L 245.506617 284.365549 
L 245.779322 284.30759 
L 246.753266 284.06387 
L 248.032379 283.708853 
L 250.636057 282.880634 
L 250.999662 282.82311 
L 251.603508 282.602852 
L 252.194367 282.381486 
L 252.661861 282.251168 
L 252.778734 282.208885 
L 253.207269 282.098133 
L 254.246143 281.788551 
L 254.447425 281.732254 
L 277.02345 274.547295 
L 277.575352 274.344867 
L 277.932465 274.226515 
L 278.354507 274.092264 
L 278.659677 273.981498 
L 278.984325 273.873607 
L 279.594663 273.652325 
L 280.536142 273.311956 
L 280.717945 273.247596 
L 281.230889 273.054968 
L 282.308721 272.688901 
L 282.490524 272.625599 
L 283.003467 272.42156 
L 283.49044 272.245412 
L 284.503341 271.881539 
L 287.282329 270.897947 
L 287.775794 270.723646 
L 287.892667 270.674856 
L 288.503006 270.451143 
L 288.671822 270.410503 
L 289.275668 270.228189 
L 289.684724 270.083296 
L 291.632613 269.391093 
L 291.762472 269.343031 
L 292.593571 269.062874 
L 293.255853 268.80406 
L 293.658417 268.663745 
L 293.859698 268.596947 
L 299.677391 266.388228 
L 299.885166 266.32358 
L 303.18359 265.07306 
L 303.352407 265.030019 
L 304.027675 264.752318 
L 304.391281 264.616564 
L 304.819817 264.428803 
L 305.430155 264.199904 
L 305.663902 264.129955 
L 306.183338 263.963738 
L 306.417085 263.894279 
L 306.943015 263.696583 
L 307.209226 263.602877 
L 307.761128 263.422695 
L 308.046818 263.309153 
L 308.442889 263.133785 
L 308.767537 263.005878 
L 310.527129 262.308632 
L 310.734904 262.236007 
L 311.416665 262.018154 
L 311.903637 261.827145 
L 312.429567 261.587197 
L 315.117653 260.54525 
L 315.370878 260.440145 
L 320.22112 258.560328 
L 320.85743 258.324894 
L 321.084684 258.233466 
L 323.461108 257.32419 
L 323.928601 257.128293 
L 324.214291 257.021973 
L 325.389517 256.578971 
L 325.532362 256.537079 
L 326.090757 256.328335 
L 327.129631 255.885504 
L 327.402335 255.770636 
L 330.512463 254.511031 
L 331.278633 254.226994 
L 331.544844 254.121307 
L 332.311014 253.805548 
L 332.518788 253.732922 
L 334.82379 252.822505 
L 335.771762 252.437055 
L 337.167749 251.878578 
L 337.420974 251.787555 
L 337.706664 251.678706 
L 338.122214 251.520763 
L 339.050707 251.123716 
L 339.258482 251.050744 
L 340.368778 250.562794 
L 341.920596 249.915114 
L 342.414061 249.701573 
L 342.550413 249.64797 
L 343.400991 249.298971 
L 344.387921 248.866527 
L 345.277457 248.484754 
L 346.998092 247.792819 
L 347.537007 247.579306 
L 347.972036 247.405613 
L 349.244656 246.854097 
L 349.770586 246.614938 
L 350.238079 246.392942 
L 351.530178 245.838996 
L 351.874305 245.683885 
L 352.887207 245.252221 
L 353.607926 244.971463 
L 354.185799 244.70482 
L 354.744194 244.466441 
L 356.179139 243.86755 
L 356.289519 243.815562 
L 357.646548 243.225106 
L 358.665943 242.812267 
L 358.88021 242.739032 
L 365.593932 239.90332 
L 366.106876 239.677556 
L 367.028876 239.319087 
L 369.093638 238.418053 
L 369.924737 238.085715 
L 370.04161 238.058365 
L 372.132344 237.166172 
L 372.593344 236.966578 
L 374.495782 236.150059 
L 374.943796 235.965971 
L 375.703472 235.661386 
L 376.417698 235.333195 
L 376.79429 235.195428 
L 379.839489 233.841935 
L 380.514757 233.556337 
L 380.852391 233.432882 
L 384.079392 231.991518 
L 384.572857 231.801738 
L 386.059745 231.104304 
L 386.364914 230.968697 
L 386.890844 230.735418 
L 397.857456 225.883122 
L 398.331442 225.693399 
L 398.487273 225.621648 
L 398.487273 225.621648 
" style="fill:none;stroke:#1f77b4;stroke-linecap:square;stroke-width:1.5;"/>
   </g>
   <g id="patch_3">
    <path d="M 57.6 307.584 
L 57.6 41.472 
" style="fill:none;stroke:#000000;stroke-linecap:square;stroke-linejoin:miter;stroke-width:0.8;"/>
   </g>
   <g id="patch_4">
    <path d="M 414.72 307.584 
L 414.72 41.472 
" style="fill:none;stroke:#000000;stroke-linecap:square;stroke-linejoin:miter;stroke-width:0.8;"/>
   </g>
   <g id="patch_5">
    <path d="M 57.6 307.584 
L 414.72 307.584 
" style="fill:none;stroke:#000000;stroke-linecap:square;stroke-linejoin:miter;stroke-width:0.8;"/>
   </g>
   <g id="patch_6">
    <path d="M 57.6 41.472 
L 414.72 41.472 
" style="fill:none;stroke:#000000;stroke-linecap:square;stroke-linejoin:miter;stroke-width:0.8;"/>
   </g>
  </g>
 </g>
 <defs>
  <clipPath id="pe2e20f27f2">
   <rect height="266.112" width="357.12" x="57.6" y="41.472"/>
  </clipPath>
 </defs>
</svg>
