<?xml version="1.0" encoding="utf-8" standalone="no"?>
<!DOCTYPE svg PUBLIC "-//W3C//DTD SVG 1.1//EN"
  "http://www.w3.org/Graphics/SVG/1.1/DTD/svg11.dtd">
<!-- Created with matplotlib (http://matplotlib.org/) -->
<svg height="345.6pt" version="1.1" viewBox="0 0 460.8 345.6" width="460.8pt" xmlns="http://www.w3.org/2000/svg" xmlns:xlink="http://www.w3.org/1999/xlink">
 <defs>
  <style type="text/css">
*{stroke-linecap:butt;stroke-linejoin:round;}
  </style>
 </defs>
 <g id="figure_1">
  <g id="patch_1">
   <path d="M 0 345.6 
L 460.8 345.6 
L 460.8 0 
L 0 0 
z
" style="fill:#ffffff;"/>
  </g>
  <g id="axes_1">
   <g id="patch_2">
    <path d="M 57.6 307.584 
L 414.72 307.584 
L 414.72 41.472 
L 57.6 41.472 
z
" style="fill:#ffffff;"/>
   </g>
   <g id="matplotlib.axis_1">
    <g id="xtick_1">
     <g id="line2d_1">
      <defs>
       <path d="M 0 0 
L 0 3.5 
" id="m961c0d8fec" style="stroke:#000000;stroke-width:0.8;"/>
      </defs>
      <g>
       <use style="stroke:#000000;stroke-width:0.8;" x="73.832727" xlink:href="#m961c0d8fec" y="307.584"/>
      </g>
     </g>
     <g id="text_1">
      <!-- 0 -->
      <defs>
       <path d="M 3.125 29.296875 
Q 3.90625 50 6.4375 56.046875 
Q 8.984375 62.109375 13.671875 66.015625 
Q 18.359375 69.921875 25.1875 69.921875 
Q 32.03125 69.921875 37.109375 64.25 
Q 42.1875 58.59375 43.75 50 
Q 45.3125 41.40625 44.71875 30.265625 
Q 44.140625 19.140625 40.8125 12.109375 
Q 37.5 5.078125 30.859375 2.34375 
Q 24.21875 -0.390625 17.578125 2.921875 
Q 10.9375 6.25 8.203125 11.71875 
Q 5.46875 17.1875 4.296875 23.234375 
Q 3.125 29.296875 3.90625 50 
z
M 12.890625 52.734375 
Q 10.546875 31.25 12.5 22.84375 
Q 14.453125 14.453125 18.9375 10.9375 
Q 23.4375 7.421875 28.125 9.5625 
Q 32.8125 11.71875 34.953125 18.15625 
Q 37.109375 24.609375 37.109375 32.21875 
Q 37.109375 39.84375 36.515625 46.09375 
Q 35.9375 52.34375 33 57.421875 
Q 30.078125 62.5 25.1875 62.6875 
Q 20.3125 62.890625 16.59375 57.8125 
Q 12.890625 52.734375 10.546875 31.25 
z
" id="SimHei-30"/>
      </defs>
      <g transform="translate(70.582727 323.5215)scale(0.13 -0.13)">
       <use xlink:href="#SimHei-30"/>
      </g>
     </g>
    </g>
    <g id="xtick_2">
     <g id="line2d_2">
      <g>
       <use style="stroke:#000000;stroke-width:0.8;" x="138.762338" xlink:href="#m961c0d8fec" y="307.584"/>
      </g>
     </g>
     <g id="text_2">
      <!-- 1 -->
      <defs>
       <path d="M 21.875 56.25 
Q 16.796875 51.171875 8.984375 46.484375 
L 8.984375 53.90625 
Q 18.75 60.546875 25 69.53125 
L 29.6875 69.53125 
L 29.6875 2.34375 
L 21.875 2.34375 
z
" id="SimHei-31"/>
      </defs>
      <g transform="translate(135.512338 323.5215)scale(0.13 -0.13)">
       <use xlink:href="#SimHei-31"/>
      </g>
     </g>
    </g>
    <g id="xtick_3">
     <g id="line2d_3">
      <g>
       <use style="stroke:#000000;stroke-width:0.8;" x="203.691948" xlink:href="#m961c0d8fec" y="307.584"/>
      </g>
     </g>
     <g id="text_3">
      <!-- 2 -->
      <defs>
       <path d="M 4.6875 3.90625 
Q 5.078125 9.765625 10.15625 14.453125 
Q 15.234375 19.140625 23.046875 29.09375 
Q 30.859375 39.0625 33.203125 44.53125 
Q 35.546875 50 34.953125 53.90625 
Q 34.375 57.8125 31.25 60.34375 
Q 28.125 62.890625 24.015625 62.5 
Q 19.921875 62.109375 16.203125 59.375 
Q 12.5 56.640625 10.546875 51.171875 
L 3.125 52.34375 
Q 6.25 61.328125 11.125 65.421875 
Q 16.015625 69.53125 22.65625 69.921875 
Q 26.5625 70.3125 29.6875 69.71875 
Q 32.8125 69.140625 36.125 66.984375 
Q 39.453125 64.84375 41.59375 60.546875 
Q 43.75 56.25 43.15625 50.1875 
Q 42.578125 44.140625 37.109375 35.734375 
Q 31.640625 27.34375 16.015625 9.375 
L 44.140625 9.375 
L 44.140625 2.34375 
L 4.6875 2.34375 
z
" id="SimHei-32"/>
      </defs>
      <g transform="translate(200.441948 323.5215)scale(0.13 -0.13)">
       <use xlink:href="#SimHei-32"/>
      </g>
     </g>
    </g>
    <g id="xtick_4">
     <g id="line2d_4">
      <g>
       <use style="stroke:#000000;stroke-width:0.8;" x="268.621559" xlink:href="#m961c0d8fec" y="307.584"/>
      </g>
     </g>
     <g id="text_4">
      <!-- 3 -->
      <defs>
       <path d="M 3.90625 19.140625 
L 10.9375 20.3125 
Q 12.5 15.234375 16.015625 11.90625 
Q 19.53125 8.59375 24.796875 8.78125 
Q 30.078125 8.984375 33.203125 13.078125 
Q 36.328125 17.1875 35.9375 22.453125 
Q 35.546875 27.734375 31.828125 30.65625 
Q 28.125 33.59375 19.921875 34.765625 
L 19.921875 39.84375 
Q 28.125 40.625 31.828125 44.140625 
Q 35.546875 47.65625 35.15625 53.3125 
Q 34.765625 58.984375 30.078125 61.515625 
Q 25.390625 64.0625 20.109375 62.109375 
Q 14.84375 60.15625 11.71875 51.171875 
L 4.6875 52.34375 
Q 7.03125 59.375 11.125 64.0625 
Q 15.234375 68.75 22.265625 69.53125 
Q 29.296875 70.3125 34.5625 67.765625 
Q 39.84375 65.234375 41.984375 59.953125 
Q 44.140625 54.6875 42.578125 48.4375 
Q 41.015625 42.1875 33.59375 37.5 
Q 39.0625 35.15625 41.984375 30.46875 
Q 44.921875 25.78125 43.9375 18.15625 
Q 42.96875 10.546875 37.109375 5.859375 
Q 31.25 1.171875 23.828125 1.359375 
Q 16.40625 1.5625 10.9375 6.046875 
Q 5.46875 10.546875 3.90625 19.140625 
z
" id="SimHei-33"/>
      </defs>
      <g transform="translate(265.371559 323.5215)scale(0.13 -0.13)">
       <use xlink:href="#SimHei-33"/>
      </g>
     </g>
    </g>
    <g id="xtick_5">
     <g id="line2d_5">
      <g>
       <use style="stroke:#000000;stroke-width:0.8;" x="333.551169" xlink:href="#m961c0d8fec" y="307.584"/>
      </g>
     </g>
     <g id="text_5">
      <!-- 4 -->
      <defs>
       <path d="M 31.25 17.1875 
L 1.171875 17.1875 
L 1.171875 23.828125 
L 32.8125 69.53125 
L 38.671875 69.53125 
L 38.671875 23.828125 
L 48.046875 23.828125 
L 48.046875 17.1875 
L 38.671875 17.1875 
L 38.671875 2.34375 
L 31.25 2.34375 
z
M 31.25 23.828125 
L 31.25 54.6875 
L 9.375 23.828125 
z
" id="SimHei-34"/>
      </defs>
      <g transform="translate(330.301169 323.5215)scale(0.13 -0.13)">
       <use xlink:href="#SimHei-34"/>
      </g>
     </g>
    </g>
    <g id="xtick_6">
     <g id="line2d_6">
      <g>
       <use style="stroke:#000000;stroke-width:0.8;" x="398.48078" xlink:href="#m961c0d8fec" y="307.584"/>
      </g>
     </g>
     <g id="text_6">
      <!-- 5 -->
      <defs>
       <path d="M 8.59375 20.703125 
Q 11.328125 10.15625 17.96875 8.984375 
Q 24.609375 7.8125 28.703125 10.34375 
Q 32.8125 12.890625 34.5625 16.984375 
Q 36.328125 21.09375 36.125 26.171875 
Q 35.9375 31.25 33.390625 34.765625 
Q 30.859375 38.28125 26.953125 39.453125 
Q 23.046875 40.625 18.15625 39.453125 
Q 13.28125 38.28125 10.15625 33.984375 
L 3.515625 34.765625 
Q 4.296875 37.109375 10.9375 68.359375 
L 41.796875 68.359375 
L 41.796875 61.328125 
L 16.796875 61.328125 
Q 14.84375 50.78125 12.890625 44.53125 
Q 18.75 47.265625 23.828125 47.0625 
Q 28.90625 46.875 33.59375 44.71875 
Q 38.28125 42.578125 40.421875 38.859375 
Q 42.578125 35.15625 43.546875 31.4375 
Q 44.53125 27.734375 44.328125 23.4375 
Q 44.140625 19.140625 42.578125 14.640625 
Q 41.015625 10.15625 37.890625 7.21875 
Q 34.765625 4.296875 30.265625 2.53125 
Q 25.78125 0.78125 19.921875 1.171875 
Q 14.0625 1.5625 8.78125 5.46875 
Q 3.515625 9.375 1.5625 18.75 
z
" id="SimHei-35"/>
      </defs>
      <g transform="translate(395.23078 323.5215)scale(0.13 -0.13)">
       <use xlink:href="#SimHei-35"/>
      </g>
     </g>
    </g>
    <g id="text_7">
     <!-- Episode/k -->
     <defs>
      <path d="M 45.3125 1.953125 
L 5.46875 1.953125 
L 5.46875 68.75 
L 43.359375 68.75 
L 43.359375 61.328125 
L 14.453125 61.328125 
L 14.453125 40.625 
L 41.015625 40.625 
L 41.015625 33.203125 
L 14.453125 33.203125 
L 14.453125 9.375 
L 45.3125 9.375 
z
" id="SimHei-45"/>
      <path d="M 44.140625 23.828125 
Q 44.140625 12.5 38.671875 6.640625 
Q 33.203125 0.78125 25.390625 0.78125 
Q 21.09375 0.78125 17.96875 2.53125 
Q 14.84375 4.296875 12.5 7.8125 
L 12.5 -12.5 
L 4.6875 -12.5 
L 4.6875 45.703125 
L 12.5 45.703125 
L 12.5 39.84375 
Q 14.84375 43.359375 17.96875 44.921875 
Q 21.09375 46.484375 25.390625 46.484375 
Q 33.203125 46.484375 38.671875 40.8125 
Q 44.140625 35.15625 44.140625 23.828125 
z
M 35.546875 23.828125 
Q 35.546875 31.25 32.609375 35.34375 
Q 29.6875 39.453125 23.828125 39.453125 
Q 19.140625 39.453125 15.8125 35.34375 
Q 12.5 31.25 12.5 23.828125 
Q 12.5 16.40625 15.8125 12.109375 
Q 19.140625 7.8125 23.828125 7.8125 
Q 29.6875 7.8125 32.609375 12.109375 
Q 35.546875 16.40625 35.546875 23.828125 
z
" id="SimHei-70"/>
      <path d="M 28.125 58.203125 
L 20.3125 58.203125 
L 20.3125 68.359375 
L 28.125 68.359375 
z
M 28.125 1.953125 
L 20.3125 1.953125 
L 20.3125 45.703125 
L 28.125 45.703125 
z
" id="SimHei-69"/>
      <path d="M 42.96875 14.0625 
Q 42.96875 7.8125 38.078125 4.484375 
Q 33.203125 1.171875 25.78125 1.171875 
Q 16.40625 1.171875 11.328125 4.875 
Q 6.25 8.59375 6.25 15.625 
L 14.0625 15.625 
Q 14.0625 10.9375 17.375 9.375 
Q 20.703125 7.8125 25.390625 7.8125 
Q 30.078125 7.8125 32.421875 9.5625 
Q 34.765625 11.328125 34.765625 14.0625 
Q 34.765625 16.015625 32.8125 17.96875 
Q 30.859375 19.921875 23.046875 21.09375 
Q 14.0625 22.265625 10.734375 25.578125 
Q 7.421875 28.90625 7.421875 34.375 
Q 7.421875 39.0625 11.90625 42.765625 
Q 16.40625 46.484375 25 46.484375 
Q 32.8125 46.484375 37.296875 42.96875 
Q 41.796875 39.453125 41.796875 33.59375 
L 33.984375 33.59375 
Q 33.984375 37.109375 31.4375 38.46875 
Q 28.90625 39.84375 25 39.84375 
Q 19.921875 39.84375 17.765625 38.078125 
Q 15.625 36.328125 15.625 33.984375 
Q 15.625 31.25 17.578125 29.6875 
Q 19.53125 28.125 25.78125 27.34375 
Q 35.9375 25.78125 39.453125 22.453125 
Q 42.96875 19.140625 42.96875 14.0625 
z
" id="SimHei-73"/>
      <path d="M 45.703125 23.828125 
Q 45.703125 13.671875 39.453125 7.421875 
Q 33.203125 1.171875 24.609375 1.171875 
Q 16.015625 1.171875 9.765625 7.421875 
Q 3.515625 13.671875 3.515625 23.828125 
Q 3.515625 33.984375 9.765625 40.234375 
Q 16.015625 46.484375 24.609375 46.484375 
Q 33.203125 46.484375 39.453125 40.234375 
Q 45.703125 33.984375 45.703125 23.828125 
z
M 37.109375 23.828125 
Q 37.109375 31.640625 33.203125 35.546875 
Q 29.296875 39.453125 24.609375 39.453125 
Q 19.921875 39.453125 16.015625 35.546875 
Q 12.109375 31.640625 12.109375 23.828125 
Q 12.109375 16.015625 16.015625 12.109375 
Q 19.921875 8.203125 24.609375 8.203125 
Q 29.296875 8.203125 33.203125 12.109375 
Q 37.109375 16.015625 37.109375 23.828125 
z
" id="SimHei-6f"/>
      <path d="M 42.96875 1.953125 
L 35.15625 1.953125 
L 35.15625 7.8125 
Q 32.8125 4.296875 29.6875 2.734375 
Q 26.5625 1.171875 22.265625 1.171875 
Q 14.453125 1.171875 8.984375 6.828125 
Q 3.515625 12.5 3.515625 23.828125 
Q 3.515625 35.15625 8.984375 41.015625 
Q 14.453125 46.875 22.265625 46.875 
Q 26.5625 46.875 29.6875 45.109375 
Q 32.8125 43.359375 35.15625 39.84375 
L 35.15625 68.75 
L 42.96875 68.75 
z
M 35.15625 23.828125 
Q 35.15625 31.25 31.828125 35.546875 
Q 28.515625 39.84375 23.828125 39.84375 
Q 17.96875 39.84375 15.03125 35.546875 
Q 12.109375 31.25 12.109375 23.828125 
Q 12.109375 16.40625 15.03125 12.296875 
Q 17.96875 8.203125 23.828125 8.203125 
Q 28.515625 8.203125 31.828125 12.296875 
Q 35.15625 16.40625 35.15625 23.828125 
z
" id="SimHei-64"/>
      <path d="M 44.53125 16.796875 
Q 43.75 9.765625 38.28125 5.46875 
Q 32.8125 1.171875 25.390625 1.171875 
Q 16.015625 1.171875 9.953125 7.21875 
Q 3.90625 13.28125 3.90625 23.828125 
Q 3.90625 34.375 9.953125 40.421875 
Q 16.015625 46.484375 25.390625 46.484375 
Q 33.59375 46.484375 38.859375 41.203125 
Q 44.140625 35.9375 44.140625 23.828125 
L 12.5 23.828125 
Q 12.5 15.234375 16.203125 11.71875 
Q 19.921875 8.203125 25.390625 8.203125 
Q 29.6875 8.203125 32.421875 10.34375 
Q 35.15625 12.5 35.9375 16.796875 
z
M 35.15625 30.078125 
Q 34.375 35.546875 31.640625 37.6875 
Q 28.90625 39.84375 24.609375 39.84375 
Q 20.703125 39.84375 17.578125 37.6875 
Q 14.453125 35.546875 12.890625 30.078125 
z
" id="SimHei-65"/>
      <path d="M 46.875 71.09375 
L 5.46875 -2.734375 
L 1.5625 -0.390625 
L 42.96875 73.4375 
z
" id="SimHei-2f"/>
      <path d="M 45.703125 1.953125 
L 36.71875 1.953125 
L 22.65625 25.78125 
L 13.671875 17.1875 
L 13.671875 1.953125 
L 5.859375 1.953125 
L 5.859375 68.75 
L 13.671875 68.75 
L 13.671875 26.171875 
L 33.203125 45.703125 
L 42.96875 45.703125 
L 27.734375 30.859375 
z
" id="SimHei-6b"/>
     </defs>
     <g transform="translate(202.41 340.162125)scale(0.15 -0.15)">
      <use xlink:href="#SimHei-45"/>
      <use x="50" xlink:href="#SimHei-70"/>
      <use x="100" xlink:href="#SimHei-69"/>
      <use x="150" xlink:href="#SimHei-73"/>
      <use x="200" xlink:href="#SimHei-6f"/>
      <use x="250" xlink:href="#SimHei-64"/>
      <use x="300" xlink:href="#SimHei-65"/>
      <use x="350" xlink:href="#SimHei-2f"/>
      <use x="400" xlink:href="#SimHei-6b"/>
     </g>
    </g>
    <g id="text_8">
     <!-- 1e4 -->
     <g transform="translate(399.72 335.0215)scale(0.1 -0.1)">
      <use xlink:href="#SimHei-31"/>
      <use x="50" xlink:href="#SimHei-65"/>
      <use x="100" xlink:href="#SimHei-34"/>
     </g>
    </g>
   </g>
   <g id="matplotlib.axis_2">
    <g id="ytick_1">
     <g id="line2d_7">
      <defs>
       <path d="M 0 0 
L -3.5 0 
" id="m2a174a7db3" style="stroke:#000000;stroke-width:0.8;"/>
      </defs>
      <g>
       <use style="stroke:#000000;stroke-width:0.8;" x="57.6" xlink:href="#m2a174a7db3" y="277.37593"/>
      </g>
     </g>
     <g id="text_9">
      <!-- -4 -->
      <defs>
       <path d="M 46.484375 33.203125 
L 1.953125 33.203125 
L 1.953125 39.453125 
L 46.484375 39.453125 
z
" id="SimHei-2d"/>
      </defs>
      <g transform="translate(37.6 281.84468)scale(0.13 -0.13)">
       <use xlink:href="#SimHei-2d"/>
       <use x="50" xlink:href="#SimHei-34"/>
      </g>
     </g>
    </g>
    <g id="ytick_2">
     <g id="line2d_8">
      <g>
       <use style="stroke:#000000;stroke-width:0.8;" x="57.6" xlink:href="#m2a174a7db3" y="221.424838"/>
      </g>
     </g>
     <g id="text_10">
      <!-- -3 -->
      <g transform="translate(37.6 225.893588)scale(0.13 -0.13)">
       <use xlink:href="#SimHei-2d"/>
       <use x="50" xlink:href="#SimHei-33"/>
      </g>
     </g>
    </g>
    <g id="ytick_3">
     <g id="line2d_9">
      <g>
       <use style="stroke:#000000;stroke-width:0.8;" x="57.6" xlink:href="#m2a174a7db3" y="165.473747"/>
      </g>
     </g>
     <g id="text_11">
      <!-- -2 -->
      <g transform="translate(37.6 169.942497)scale(0.13 -0.13)">
       <use xlink:href="#SimHei-2d"/>
       <use x="50" xlink:href="#SimHei-32"/>
      </g>
     </g>
    </g>
    <g id="ytick_4">
     <g id="line2d_10">
      <g>
       <use style="stroke:#000000;stroke-width:0.8;" x="57.6" xlink:href="#m2a174a7db3" y="109.522656"/>
      </g>
     </g>
     <g id="text_12">
      <!-- -1 -->
      <g transform="translate(37.6 113.991406)scale(0.13 -0.13)">
       <use xlink:href="#SimHei-2d"/>
       <use x="50" xlink:href="#SimHei-31"/>
      </g>
     </g>
    </g>
    <g id="ytick_5">
     <g id="line2d_11">
      <g>
       <use style="stroke:#000000;stroke-width:0.8;" x="57.6" xlink:href="#m2a174a7db3" y="53.571565"/>
      </g>
     </g>
     <g id="text_13">
      <!-- 0 -->
      <g transform="translate(44.1 58.040315)scale(0.13 -0.13)">
       <use xlink:href="#SimHei-30"/>
      </g>
     </g>
    </g>
    <g id="text_14">
     <!-- Cumulative -->
     <defs>
      <path d="M 46.484375 28.515625 
Q 46.09375 13.671875 40.234375 7.421875 
Q 34.375 1.171875 26.171875 1.171875 
Q 16.796875 1.171875 10.15625 8.78125 
Q 3.515625 16.40625 3.515625 33.203125 
Q 3.515625 51.5625 9.953125 60.546875 
Q 16.40625 69.53125 26.5625 69.53125 
Q 35.15625 69.53125 40.8125 63.078125 
Q 46.484375 56.640625 46.09375 44.921875 
L 37.5 44.921875 
Q 37.5 53.515625 34.765625 57.8125 
Q 32.03125 62.109375 26.5625 62.109375 
Q 20.3125 62.109375 16.59375 55.65625 
Q 12.890625 49.21875 12.890625 33.984375 
Q 12.890625 19.921875 16.59375 14.25 
Q 20.3125 8.59375 26.171875 8.59375 
Q 30.46875 8.59375 33.984375 12.6875 
Q 37.5 16.796875 37.5 28.515625 
z
" id="SimHei-43"/>
      <path d="M 43.75 1.953125 
L 35.9375 1.953125 
L 35.9375 10.15625 
Q 32.8125 5.859375 29.09375 3.515625 
Q 25.390625 1.171875 19.53125 1.171875 
Q 12.5 1.171875 8.984375 5.078125 
Q 5.46875 8.984375 5.46875 14.84375 
L 5.46875 45.703125 
L 13.28125 45.703125 
L 13.28125 17.578125 
Q 13.28125 12.890625 15.625 10.15625 
Q 17.96875 7.421875 21.875 7.421875 
Q 26.953125 7.421875 31.4375 12.6875 
Q 35.9375 17.96875 35.9375 25.78125 
L 35.9375 45.703125 
L 43.75 45.703125 
z
" id="SimHei-75"/>
      <path d="M 47.65625 1.953125 
L 39.84375 1.953125 
L 39.84375 33.59375 
Q 39.84375 35.9375 39.0625 37.5 
Q 38.28125 39.0625 35.9375 39.0625 
Q 33.203125 39.0625 30.859375 36.125 
Q 28.515625 33.203125 28.515625 28.515625 
L 28.515625 1.953125 
L 20.703125 1.953125 
L 20.703125 33.59375 
Q 20.703125 35.9375 19.921875 37.5 
Q 19.140625 39.0625 16.796875 39.0625 
Q 14.0625 39.0625 11.71875 36.125 
Q 9.375 33.203125 9.375 28.515625 
L 9.375 1.953125 
L 1.5625 1.953125 
L 1.5625 45.703125 
L 9.375 45.703125 
L 9.375 39.84375 
Q 11.328125 42.96875 14.0625 44.71875 
Q 16.796875 46.484375 19.921875 46.484375 
Q 23.046875 46.484375 25.1875 44.71875 
Q 27.34375 42.96875 28.125 39.84375 
Q 30.078125 42.96875 32.609375 44.71875 
Q 35.15625 46.484375 38.28125 46.484375 
Q 42.96875 46.484375 45.3125 43.9375 
Q 47.65625 41.40625 47.65625 36.71875 
z
" id="SimHei-6d"/>
      <path d="M 28.515625 1.953125 
L 20.703125 1.953125 
L 20.703125 68.75 
L 28.515625 68.75 
z
" id="SimHei-6c"/>
      <path d="M 44.921875 1.953125 
L 35.546875 1.953125 
Q 34.765625 2.734375 34.375 4.09375 
Q 33.984375 5.46875 33.984375 7.421875 
Q 31.25 4.296875 27.34375 2.734375 
Q 23.4375 1.171875 19.140625 1.171875 
Q 12.890625 1.171875 8.59375 4.296875 
Q 4.296875 7.421875 4.296875 13.28125 
Q 4.296875 19.140625 8.203125 22.65625 
Q 12.109375 26.171875 20.3125 27.34375 
Q 25.78125 28.125 29.875 29.296875 
Q 33.984375 30.46875 33.984375 32.421875 
Q 33.984375 34.765625 32.21875 37.109375 
Q 30.46875 39.453125 24.609375 39.453125 
Q 19.921875 39.453125 17.765625 37.6875 
Q 15.625 35.9375 14.84375 32.8125 
L 6.25 32.8125 
Q 7.03125 39.0625 11.90625 42.765625 
Q 16.796875 46.484375 24.609375 46.484375 
Q 33.203125 46.484375 37.5 42.578125 
Q 41.796875 38.671875 41.796875 31.640625 
L 41.796875 10.15625 
Q 41.796875 7.8125 42.578125 5.859375 
Q 43.359375 3.90625 44.921875 1.953125 
z
M 33.984375 16.40625 
L 33.984375 24.21875 
Q 31.640625 23.4375 29.484375 22.84375 
Q 27.34375 22.265625 22.265625 21.484375 
Q 16.40625 20.703125 14.640625 18.75 
Q 12.890625 16.796875 12.890625 14.0625 
Q 12.890625 11.71875 14.640625 9.953125 
Q 16.40625 8.203125 19.921875 8.203125 
Q 23.4375 8.203125 27.53125 10.15625 
Q 31.640625 12.109375 33.984375 16.40625 
z
" id="SimHei-61"/>
      <path d="M 42.96875 3.125 
Q 41.015625 2.34375 38.46875 1.75 
Q 35.9375 1.171875 31.640625 1.171875 
Q 24.609375 1.171875 20.3125 5.078125 
Q 16.015625 8.984375 16.015625 16.015625 
L 16.015625 39.453125 
L 2.734375 39.453125 
L 2.734375 45.703125 
L 16.015625 45.703125 
L 16.015625 60.9375 
L 23.828125 60.9375 
L 23.828125 45.703125 
L 39.84375 45.703125 
L 39.84375 39.453125 
L 23.828125 39.453125 
L 23.828125 15.625 
Q 23.828125 12.5 25.390625 10.34375 
Q 26.953125 8.203125 31.25 8.203125 
Q 35.546875 8.203125 38.28125 8.984375 
Q 41.015625 9.765625 42.96875 10.9375 
z
" id="SimHei-74"/>
      <path d="M 44.921875 45.703125 
L 28.515625 1.171875 
L 19.921875 1.171875 
L 3.515625 45.703125 
L 11.71875 45.703125 
L 23.828125 11.71875 
L 24.609375 11.71875 
L 36.71875 45.703125 
z
" id="SimHei-76"/>
     </defs>
     <g transform="translate(31.725 212.028)rotate(-90)scale(0.15 -0.15)">
      <use xlink:href="#SimHei-43"/>
      <use x="50" xlink:href="#SimHei-75"/>
      <use x="100" xlink:href="#SimHei-6d"/>
      <use x="150" xlink:href="#SimHei-75"/>
      <use x="200" xlink:href="#SimHei-6c"/>
      <use x="250" xlink:href="#SimHei-61"/>
      <use x="300" xlink:href="#SimHei-74"/>
      <use x="350" xlink:href="#SimHei-69"/>
      <use x="400" xlink:href="#SimHei-76"/>
      <use x="450" xlink:href="#SimHei-65"/>
     </g>
    </g>
    <g id="text_15">
     <!-- 1e6 -->
     <defs>
      <path d="M 3.515625 19.53125 
Q 4.296875 30.859375 6.046875 34.765625 
Q 7.8125 38.671875 11.328125 44.53125 
L 27.34375 69.53125 
L 36.328125 69.53125 
L 19.921875 43.75 
Q 30.46875 46.484375 36.71875 42.96875 
Q 42.96875 39.453125 45.109375 34.953125 
Q 47.265625 30.46875 47.453125 25.1875 
Q 47.65625 19.921875 45.890625 14.84375 
Q 44.140625 9.765625 39.640625 5.65625 
Q 35.15625 1.5625 27.140625 1.171875 
Q 19.140625 0.78125 13.46875 4.09375 
Q 7.8125 7.421875 5.65625 13.46875 
Q 3.515625 19.53125 4.296875 30.859375 
z
M 12.5 16.015625 
Q 19.53125 8.59375 25.390625 8.203125 
Q 31.25 7.8125 35.15625 12.109375 
Q 39.0625 16.40625 39.0625 24.609375 
Q 39.0625 32.8125 34.171875 35.9375 
Q 29.296875 39.0625 23.234375 38.28125 
Q 17.1875 37.5 14.453125 32.421875 
Q 11.71875 27.34375 12.109375 21.671875 
Q 12.5 16.015625 19.53125 8.59375 
z
" id="SimHei-36"/>
     </defs>
     <g transform="translate(57.6 38.472)scale(0.1 -0.1)">
      <use xlink:href="#SimHei-31"/>
      <use x="50" xlink:href="#SimHei-65"/>
      <use x="100" xlink:href="#SimHei-36"/>
     </g>
    </g>
   </g>
   <g id="line2d_12">
    <path clip-path="url(#pb5e1cc4d75)" d="M 73.832727 53.571565 
L 73.845713 53.569841 
L 73.858699 53.676014 
L 74.027516 54.075376 
L 74.410601 55.38181 
L 74.417094 55.378404 
L 74.443066 55.488051 
L 74.592404 56.482303 
L 74.598897 56.484863 
L 74.748235 57.286423 
L 74.7807 57.312827 
L 74.787193 57.340004 
L 74.949517 58.36807 
L 74.95601 58.3636 
L 75.098855 59.00187 
L 75.287151 59.733874 
L 75.300136 59.848262 
L 75.566348 60.942383 
L 76.86494 69.076475 
L 77.007785 69.993818 
L 77.345419 71.36541 
L 77.481771 72.317613 
L 77.572673 73.024918 
L 77.702532 73.648198 
L 77.747983 73.693948 
L 77.975236 75.358279 
L 78.215476 76.635115 
L 78.397279 77.492581 
L 78.566096 78.45933 
L 78.579082 78.532985 
L 79.033589 81.775484 
L 79.578998 84.751372 
L 79.71535 85.690798 
L 79.897153 86.670318 
L 79.903646 86.665824 
L 79.916632 86.743975 
L 80.104928 88.124921 
L 80.436069 91.266636 
L 80.462041 91.348205 
L 80.890576 94.35352 
L 81.091858 96.797685 
L 81.124323 96.915416 
L 81.150294 97.082231 
L 81.299632 97.840539 
L 81.332097 97.869258 
L 81.481435 99.459359 
L 81.812576 101.763113 
L 81.942436 103.531647 
L 82.396943 105.986527 
L 82.955338 110.025068 
L 83.208563 111.696745 
L 83.357901 113.008052 
L 83.403352 113.226536 
L 83.766958 116.295221 
L 83.799422 116.496246 
L 83.929282 117.208394 
L 83.942268 117.205029 
L 84.208479 118.343287 
L 84.227958 118.354948 
L 84.234451 118.443601 
L 84.312366 119.2396 
L 84.318859 119.23521 
L 84.468197 120.470201 
L 84.47469 120.465563 
L 85.046071 126.409935 
L 85.059057 126.403764 
L 85.085029 126.670519 
L 85.279818 127.960104 
L 85.286311 127.956846 
L 85.565508 130.37554 
L 85.734325 132.356693 
L 85.740818 132.354548 
L 86.201818 136.494805 
L 86.390114 138.555255 
L 87.909467 150.368014 
L 87.941932 150.483029 
L 88.110749 151.861361 
L 88.123735 151.951275 
L 88.474354 154.960946 
L 88.493833 154.975992 
L 88.500326 154.997365 
L 88.630186 155.442802 
L 88.850946 156.931465 
L 88.857439 156.927329 
L 88.870425 156.980429 
L 89.019763 158.169527 
L 89.201566 159.171964 
L 89.247017 159.609545 
L 89.487256 161.396199 
L 89.493749 161.392611 
L 89.961243 164.656976 
L 89.974228 164.65045 
L 89.993707 164.713457 
L 90.13006 165.548159 
L 90.194989 165.905536 
L 90.448215 168.177085 
L 90.454708 168.172947 
L 90.461201 168.171764 
L 90.467693 168.253391 
L 90.909215 172.153423 
L 90.954666 172.285006 
L 91.214384 173.992963 
L 91.772779 176.951445 
L 91.896145 177.690708 
L 91.987046 178.218038 
L 92.129892 179.102842 
L 92.318187 180.074193 
L 92.441554 180.670207 
L 92.448047 180.667009 
L 92.45454 180.759037 
L 92.480511 180.774157 
L 92.49999 180.842788 
L 92.668807 182.227722 
L 92.694779 182.323993 
L 92.889568 183.6006 
L 93.084357 184.094242 
L 93.246681 185.422783 
L 93.259667 185.415577 
L 93.480427 187.475498 
L 94.8894 196.803206 
L 94.921865 196.925234 
L 95.071203 197.838609 
L 95.077696 197.834226 
L 95.298457 198.981896 
L 95.564668 200.420097 
L 95.59064 200.422716 
L 95.603626 200.512897 
L 95.772443 201.262283 
L 95.921781 202.17971 
L 95.94126 202.176378 
L 95.954246 202.25989 
L 96.168513 203.867766 
L 96.33733 204.811639 
L 97.220373 209.491451 
L 97.32426 209.682716 
L 97.512556 210.568144 
L 97.551514 210.715878 
L 97.655401 211.192683 
L 97.889148 212.566916 
L 97.895641 212.564429 
L 97.921613 212.569854 
L 97.928106 212.593732 
L 98.057965 213.130743 
L 98.077444 213.139006 
L 98.096923 213.195535 
L 98.116402 213.217534 
L 98.674796 215.29326 
L 98.856599 216.354815 
L 98.869585 216.35281 
L 98.876078 216.400482 
L 98.882571 216.397055 
L 99.018923 217.422295 
L 99.025416 217.41725 
L 99.181247 218.080016 
L 99.18774 218.075577 
L 99.194233 218.193736 
L 99.200726 218.191013 
L 99.337078 218.762457 
L 99.382529 218.854897 
L 99.622769 219.97587 
L 99.629262 219.973164 
L 99.759121 220.752975 
L 99.869501 220.881283 
L 100.044811 221.315044 
L 100.181163 221.857701 
L 100.265572 222.139995 
L 100.395431 223.148033 
L 100.557755 224.341881 
L 100.713586 224.726314 
L 100.953826 225.564061 
L 100.999276 225.585864 
L 101.11615 226.126089 
L 101.129136 226.12179 
L 101.200558 226.324746 
L 101.343403 227.04503 
L 101.505727 227.513126 
L 101.778432 228.462483 
L 101.843361 228.645138 
L 101.979713 229.137315 
L 102.018671 229.152387 
L 101.992699 229.159381 
L 102.051136 229.216066 
L 102.200474 229.730516 
L 102.258911 229.848051 
L 102.401756 230.195417 
L 102.447207 230.408498 
L 102.577066 230.629093 
L 102.667967 230.728537 
L 102.869249 231.217128 
L 103.13546 231.824946 
L 103.297785 232.208322 
L 103.304277 232.203055 
L 103.349728 232.439173 
L 103.538024 233.25449 
L 103.745799 233.756736 
L 103.875658 234.132001 
L 104.323672 235.280298 
L 104.330165 235.275486 
L 104.356137 235.391247 
L 104.47301 235.683414 
L 104.628842 236.229215 
L 104.635334 236.225158 
L 104.797659 236.557149 
L 105.154771 237.666071 
L 105.375532 238.345486 
L 105.401504 238.35669 
L 105.41449 238.439992 
L 105.953406 240.479781 
L 106.102744 240.872022 
L 106.959815 243.273355 
L 106.979293 243.2587 
L 107.011758 243.365545 
L 107.174082 243.657041 
L 107.239012 243.695386 
L 107.355885 244.003985 
L 107.362378 244.00006 
L 107.381857 244.025174 
L 107.505223 244.335775 
L 107.511716 244.330963 
L 107.797407 245.472633 
L 108.005181 245.902674 
L 108.096083 246.024611 
L 108.277886 246.408943 
L 108.284379 246.404954 
L 108.570069 247.134588 
L 108.576562 247.13007 
L 108.66097 247.239523 
L 109.258323 249.045147 
L 109.368703 249.232043 
L 109.60245 249.631491 
L 109.615436 249.626728 
L 109.628422 249.718202 
L 110.06345 250.902592 
L 110.264732 251.313736 
L 110.388098 251.842129 
L 110.420563 251.852422 
L 110.427056 251.890342 
L 110.556915 252.20858 
L 110.563408 252.204918 
L 110.823126 252.56386 
L 110.972464 253.047559 
L 110.98545 253.041396 
L 111.05038 253.138865 
L 111.284127 253.69617 
L 111.413986 254.372368 
L 111.420479 254.367346 
L 111.478915 254.453517 
L 111.621761 254.590964 
L 111.634747 254.583062 
L 111.667211 254.665647 
L 111.797071 255.052087 
L 111.913944 255.223155 
L 112.297029 256.037641 
L 112.329493 256.102701 
L 112.472338 256.399647 
L 112.478831 256.396976 
L 112.582719 256.481047 
L 112.829451 256.855076 
L 112.861916 256.844923 
L 112.881395 256.940262 
L 113.056705 257.42395 
L 113.063198 257.419442 
L 113.407325 258.216863 
L 113.582635 258.72523 
L 113.933255 259.222704 
L 113.991691 259.333839 
L 114.108565 259.713633 
L 114.160508 259.800842 
L 114.316339 260.123294 
L 114.374776 260.208989 
L 114.530607 260.488591 
L 114.653973 260.577402 
L 114.972128 261.176663 
L 114.985114 261.206276 
L 115.056537 261.238325 
L 115.251326 261.658608 
L 115.816213 262.727059 
L 115.848678 262.733144 
L 115.868157 262.800269 
L 115.881143 262.810963 
L 116.030481 263.121043 
L 116.192805 263.465159 
L 116.199298 263.461027 
L 116.712242 264.133257 
L 116.829115 264.250761 
L 117.023904 264.519453 
L 117.121299 264.58134 
L 117.264144 264.789785 
L 117.361538 264.880614 
L 117.523862 265.134577 
L 117.647228 265.195546 
L 117.770595 265.368866 
L 117.783581 265.364985 
L 117.816045 265.390792 
L 117.84851 265.451041 
L 117.906947 265.539179 
L 118.062778 265.756836 
L 118.069271 265.753181 
L 119.582131 267.418163 
L 119.614596 267.441553 
L 119.627582 267.517806 
L 119.770427 267.645288 
L 119.893793 267.742146 
L 119.971708 267.782451 
L 119.978201 267.811507 
L 120.23792 268.150383 
L 120.289864 268.186526 
L 120.30285 268.220962 
L 120.497638 268.42043 
L 120.646976 268.535761 
L 120.750864 268.732228 
L 120.770343 268.723721 
L 121.069019 268.900642 
L 121.218357 269.14734 
L 121.22485 269.143934 
L 121.263808 269.154273 
L 121.276794 269.222901 
L 121.28978 269.229197 
L 121.426132 269.481237 
L 121.594949 269.693533 
L 121.666371 269.733025 
L 121.672864 269.778172 
L 121.887132 270.18523 
L 122.172822 270.613672 
L 122.21178 270.622948 
L 122.237752 270.696397 
L 122.439034 270.858055 
L 122.666287 271.161431 
L 122.796147 271.389495 
L 122.932499 271.426178 
L 123.042879 271.449236 
L 123.049372 271.446253 
L 123.185724 271.562892 
L 123.43895 271.977268 
L 123.451936 271.970183 
L 123.731133 272.329601 
L 123.867485 272.627109 
L 124.023316 272.822563 
L 124.321992 273.183697 
L 124.412894 273.301122 
L 124.542753 273.411301 
L 124.555739 273.403313 
L 124.607683 273.505497 
L 124.757021 273.754878 
L 124.763514 273.750943 
L 124.867401 273.846108 
L 124.99726 274.006759 
L 125.133613 274.126436 
L 125.932247 275.479616 
L 126.094571 275.810088 
L 126.256895 275.880937 
L 126.367275 276.114093 
L 126.380261 276.105034 
L 126.445191 276.18196 
L 126.607515 276.396597 
L 126.614008 276.393031 
L 126.743867 276.447401 
L 126.932163 276.6521 
L 126.938656 276.648809 
L 126.951642 276.714788 
L 126.971121 276.727349 
L 127.120459 276.965579 
L 127.217853 277.037054 
L 127.360698 277.197973 
L 127.490557 277.277939 
L 128.003501 277.8016 
L 128.133361 278.045048 
L 128.3736 278.403255 
L 128.698248 278.869463 
L 129.496882 279.763824 
L 129.626742 279.929644 
L 129.730629 279.987933 
L 129.892953 280.306465 
L 130.055277 280.58024 
L 130.198122 280.851495 
L 130.211108 280.845942 
L 130.529263 281.352091 
L 130.639643 281.665025 
L 130.652629 281.658875 
L 130.737038 281.775822 
L 130.866897 282.02625 
L 130.87339 282.021746 
L 130.892869 282.073523 
L 130.925334 282.109895 
L 131.139601 282.553773 
L 131.243489 282.610909 
L 131.360362 282.717206 
L 131.379841 282.711724 
L 131.600602 282.850184 
L 131.704489 283.184009 
L 131.723968 283.177156 
L 131.905771 283.377105 
L 132.048616 283.528004 
L 132.074588 283.516516 
L 132.14601 283.5639 
L 132.269377 283.723786 
L 132.340799 283.745453 
L 132.464166 283.971512 
L 132.658954 284.125442 
L 132.84725 284.41121 
L 132.918673 284.503718 
L 133.048532 284.690173 
L 133.055025 284.685 
L 133.282279 284.860273 
L 133.412138 284.930789 
L 133.561476 284.976019 
L 133.567969 285.003524 
L 133.918589 285.227605 
L 134.028969 285.298981 
L 134.041955 285.296308 
L 134.067927 285.359869 
L 134.113378 285.377025 
L 134.262716 285.452562 
L 134.379589 285.496046 
L 134.548406 285.683935 
L 134.561392 285.674137 
L 134.697744 285.771497 
L 134.827603 285.992687 
L 134.924998 286.045176 
L 134.95097 286.02789 
L 135.515857 286.578594 
L 135.678181 286.654287 
L 135.684674 286.649242 
L 135.801548 286.770026 
L 135.892449 286.914226 
L 135.924914 286.91003 
L 136.061266 286.970217 
L 136.210604 287.170961 
L 136.22359 287.162239 
L 136.626154 287.426004 
L 136.74952 287.552504 
L 136.756013 287.547692 
L 137.028717 287.834608 
L 137.126112 287.894209 
L 137.619577 288.14618 
L 137.781901 288.240181 
L 137.879295 288.273089 
L 137.885788 288.299881 
L 138.606507 288.767221 
L 138.736366 288.851406 
L 139.048028 288.883638 
L 139.223338 288.93751 
L 139.515521 289.154248 
L 139.64538 289.333318 
L 139.664859 289.325297 
L 139.788226 289.432133 
L 139.95055 289.552496 
L 140.067423 289.578246 
L 140.080409 289.604638 
L 140.210268 289.832265 
L 140.23624 289.823561 
L 140.684254 290.190194 
L 140.716719 290.363083 
L 140.801128 290.350947 
L 140.846578 290.374464 
L 140.87255 290.436525 
L 141.430945 290.673548 
L 141.606255 290.767982 
L 141.775072 290.774437 
L 142.002325 290.880238 
L 142.138678 290.938089 
L 142.255551 290.992367 
L 142.262044 290.98973 
L 142.424368 290.99154 
L 142.430861 291.007857 
L 142.762002 291.106473 
L 142.917833 291.135871 
L 143.067171 291.245092 
L 143.417791 291.403353 
L 143.534664 291.430123 
L 143.632059 291.473982 
L 143.638552 291.48672 
L 143.859312 291.541327 
L 144.132017 291.681847 
L 144.326805 291.733187 
L 144.528087 291.830157 
L 145.021552 292.09743 
L 145.385158 292.228621 
L 145.534496 292.333579 
L 145.540989 292.328557 
L 145.716299 292.350953 
L 145.833172 292.433668 
L 145.839665 292.432197 
L 145.995496 292.505512 
L 146.11237 292.50115 
L 146.300666 292.489285 
L 146.677257 292.672983 
L 146.904511 292.74799 
L 147.027877 292.796939 
L 147.294089 292.824588 
L 147.716131 292.882489 
L 147.839497 292.924317 
L 147.982342 292.970497 
L 148.118695 292.970006 
L 148.300498 293.004221 
L 148.521258 293.012812 
L 150.027625 293.294125 
L 150.599006 293.389024 
L 154.105205 293.834268 
L 154.371416 293.864471 
L 154.494782 293.882648 
L 154.637628 293.915901 
L 154.754501 293.941609 
L 154.760994 293.93737 
L 155.066163 293.921824 
L 155.183036 293.918208 
L 155.29991 293.986048 
L 155.462234 294.046278 
L 155.988163 294.217816 
L 156.105037 294.229777 
L 156.247882 294.248918 
L 156.377741 294.311087 
L 156.527079 294.371066 
L 156.663431 294.394926 
L 156.669924 294.389883 
L 163.805689 294.988052 
L 164.052421 295.045409 
L 164.143323 295.097282 
L 164.162801 295.091935 
L 164.435506 295.071787 
L 164.792619 295.101615 
L 164.915985 295.149808 
L 164.928971 295.141699 
L 165.376985 295.177813 
L 165.526323 295.210168 
L 165.87045 295.340211 
L 166.104197 295.320175 
L 166.22107 295.331421 
L 166.227563 295.32868 
L 166.935296 295.316773 
L 167.130085 295.31921 
L 167.27293 295.345606 
L 167.487197 295.314933 
L 167.688479 295.3051 
L 168.766311 295.276604 
L 168.967593 295.268222 
L 170.844058 295.366609 
L 171.123256 295.356549 
L 171.902411 295.338154 
L 172.149143 295.322184 
L 172.155636 295.338349 
L 172.720524 295.284358 
L 172.876355 295.330597 
L 172.882848 295.325733 
L 173.064651 295.334618 
L 173.291905 295.357102 
L 174.967089 295.39581 
L 175.330694 295.351781 
L 176.525399 295.402946 
L 176.655258 295.426403 
L 177.421428 295.362607 
L 177.538301 295.347853 
L 177.817498 295.357044 
L 178.057738 295.352534 
L 178.25902 295.35575 
L 178.681062 295.381252 
L 178.823907 295.402687 
L 178.986231 295.466863 
L 179.291401 295.372392 
L 179.642021 295.384997 
L 179.732922 295.38194 
L 179.752401 295.372949 
L 180.141979 295.431591 
L 180.323781 295.402303 
L 180.602979 295.38535 
L 180.804261 295.414568 
L 180.979571 295.443455 
L 181.174359 295.41034 
L 181.550951 295.394971 
L 181.654838 295.432217 
L 181.667824 295.426451 
L 182.258684 295.443122 
L 182.356078 295.47971 
L 182.375557 295.474087 
L 182.661247 295.426014 
L 183.622206 295.316437 
L 183.739079 295.310223 
L 184.303967 295.245359 
L 184.661079 295.246887 
L 184.823403 295.255181 
L 185.089615 295.252543 
L 185.23246 295.246257 
L 185.810334 295.166556 
L 186.037587 295.190146 
L 186.660911 295.107114 
L 186.823235 295.094023 
L 187.160869 294.998647 
L 187.401109 294.971966 
L 187.927039 294.859306 
L 188.952927 294.734436 
L 189.271082 294.703736 
L 189.426913 294.689917 
L 189.816491 294.610088 
L 189.913885 294.581897 
L 189.920378 294.577378 
L 190.238533 294.547449 
L 190.452801 294.491601 
L 190.712519 294.433234 
L 190.86835 294.425505 
L 191.115083 294.382326 
L 191.628027 294.278402 
L 192.063055 294.179964 
L 195.374465 293.637993 
L 195.58224 293.607839 
L 195.712099 293.585823 
L 197.192494 293.381291 
L 197.419748 293.393999 
L 197.530128 293.364639 
L 197.815819 293.336864 
L 198.335255 293.29925 
L 198.413171 293.296515 
L 198.445636 293.278529 
L 198.737819 293.212652 
L 199.763707 292.944924 
L 199.900059 292.939487 
L 200.510397 292.762485 
L 201.140215 292.665214 
L 201.250595 292.664116 
L 201.74406 292.532402 
L 202.55568 292.370788 
L 202.776441 292.333963 
L 203.075117 292.291072 
L 203.198483 292.272307 
L 203.43223 292.23027 
L 203.562089 292.243516 
L 203.691948 292.233552 
L 203.951667 292.204816 
L 204.075033 292.194236 
L 204.490582 292.113842 
L 205.996949 291.852355 
L 206.490414 291.732609 
L 207.263077 291.560581 
L 207.607204 291.463874 
L 209.029162 291.228799 
L 209.314853 291.134145 
L 210.613445 290.811088 
L 211.931516 290.510087 
L 212.223699 290.460517 
L 212.645742 290.349528 
L 212.950911 290.28598 
L 213.548263 290.14192 
L 213.665136 290.120531 
L 213.82746 290.080051 
L 214.48325 289.899855 
L 214.924771 289.815281 
L 215.262405 289.687669 
L 222.781254 287.709045 
L 223.203296 287.574851 
L 223.768184 287.44383 
L 224.521367 287.212152 
L 224.670705 287.238723 
L 225.196635 287.077077 
L 225.482326 286.996521 
L 228.202876 286.242092 
L 228.3652 286.17833 
L 228.741792 286.094178 
L 228.923595 286.034337 
L 229.215778 285.94668 
L 229.624835 285.85928 
L 230.326074 285.64087 
L 230.637737 285.547289 
L 231.670117 285.261265 
L 232.085667 285.130993 
L 235.397077 284.023433 
L 235.624331 283.959547 
L 236.163246 283.814771 
L 236.747613 283.659582 
L 237.15667 283.523379 
L 237.643642 283.362901 
L 238.000754 283.283457 
L 238.695501 283.104263 
L 238.968206 283.03333 
L 240.020065 282.811665 
L 240.604432 282.585973 
L 241.253728 282.411307 
L 241.701742 282.247118 
L 241.91601 282.20699 
L 242.539334 281.9887 
L 243.156166 281.847498 
L 244.06518 281.567226 
L 244.214518 281.525608 
L 244.954716 281.248787 
L 246.292266 280.823701 
L 246.480562 280.773192 
L 247.175308 280.534163 
L 247.558393 280.42418 
L 247.733703 280.399836 
L 248.136267 280.241711 
L 248.60376 280.12004 
L 248.792056 280.078339 
L 249.181633 279.955145 
L 250.123113 279.59428 
L 250.733451 279.383331 
L 251.168479 279.227972 
L 251.681423 279.043202 
L 251.824269 278.985587 
L 252.207353 278.839121 
L 252.908593 278.626391 
L 253.213762 278.515961 
L 253.973439 278.221935 
L 254.538326 278.025953 
L 254.869467 277.935355 
L 255.207101 277.825368 
L 255.518763 277.720861 
L 256.161567 277.500962 
L 256.752426 277.273476 
L 256.91475 277.220129 
L 264.907585 274.464857 
L 265.082895 274.41163 
L 265.530909 274.237704 
L 269.037108 272.998186 
L 269.4137 272.83498 
L 269.894179 272.655623 
L 270.134419 272.574793 
L 284.834483 267.067284 
L 284.951356 267.029261 
L 285.977244 266.62046 
L 286.684976 266.328224 
L 287.139484 266.156832 
L 287.295315 266.099392 
L 287.931625 265.8451 
L 288.528977 265.624831 
L 289.801598 265.133617 
L 289.944443 265.074694 
L 290.658669 264.748415 
L 290.840471 264.69053 
L 297.859362 261.800052 
L 298.580081 261.553538 
L 298.716433 261.504003 
L 300.248772 260.87608 
L 300.631857 260.72659 
L 300.898068 260.61249 
L 301.722674 260.271534 
L 302.469365 259.949223 
L 303.125154 259.695382 
L 306.806663 258.206227 
L 307.248184 258.025951 
L 309.41034 257.098785 
L 309.416833 257.143147 
L 309.52072 257.105068 
L 309.786932 256.985319 
L 310.345326 256.736991 
L 310.793341 256.567254 
L 311.169933 256.406933 
L 316.675963 254.059116 
L 316.857766 253.988771 
L 317.305781 253.81071 
L 317.422654 253.768087 
L 318.020006 253.536862 
L 318.779683 253.195094 
L 319.019922 253.101104 
L 319.51988 252.902312 
L 319.643247 252.866137 
L 320.260078 252.575255 
L 321.013261 252.224246 
L 321.324924 252.081109 
L 326.441377 249.856934 
L 326.9738 249.62591 
L 327.571152 249.363926 
L 328.213955 249.062707 
L 328.402251 248.980566 
L 330.525449 248.027696 
L 330.804647 247.905244 
L 331.298112 247.697463 
L 334.960142 246.019756 
L 335.408156 245.818382 
L 336.940495 245.158784 
L 337.505383 244.869259 
L 338.985778 244.184868 
L 339.570144 243.920558 
L 340.712905 243.415948 
L 341.368694 243.125307 
L 365.04203 232.160122 
L 365.386157 232.017846 
L 366.33413 231.588234 
L 367.613243 230.966249 
L 368.022299 230.791673 
L 368.885863 230.371018 
L 369.074159 230.281055 
L 377.573445 226.168639 
L 378.190276 225.900027 
L 378.70322 225.632688 
L 379.586263 225.195948 
L 380.378404 224.809148 
L 380.761489 224.624818 
L 381.190024 224.413097 
L 381.50818 224.231007 
L 382.508096 223.741315 
L 382.787293 223.595721 
L 383.501519 223.256532 
L 384.18328 222.941568 
L 384.761153 222.641455 
L 387.877774 221.162413 
L 389.416606 220.43756 
L 390.702212 219.79116 
L 391.643692 219.322455 
L 392.741002 218.776998 
L 393.221481 218.527891 
L 394.00713 218.162433 
L 394.585003 217.862427 
L 398.487273 215.965187 
L 398.487273 215.965187 
" style="fill:none;stroke:#1f77b4;stroke-linecap:square;stroke-width:1.5;"/>
   </g>
   <g id="patch_3">
    <path d="M 57.6 307.584 
L 57.6 41.472 
" style="fill:none;stroke:#000000;stroke-linecap:square;stroke-linejoin:miter;stroke-width:0.8;"/>
   </g>
   <g id="patch_4">
    <path d="M 414.72 307.584 
L 414.72 41.472 
" style="fill:none;stroke:#000000;stroke-linecap:square;stroke-linejoin:miter;stroke-width:0.8;"/>
   </g>
   <g id="patch_5">
    <path d="M 57.6 307.584 
L 414.72 307.584 
" style="fill:none;stroke:#000000;stroke-linecap:square;stroke-linejoin:miter;stroke-width:0.8;"/>
   </g>
   <g id="patch_6">
    <path d="M 57.6 41.472 
L 414.72 41.472 
" style="fill:none;stroke:#000000;stroke-linecap:square;stroke-linejoin:miter;stroke-width:0.8;"/>
   </g>
  </g>
 </g>
 <defs>
  <clipPath id="pb5e1cc4d75">
   <rect height="266.112" width="357.12" x="57.6" y="41.472"/>
  </clipPath>
 </defs>
</svg>
