<?xml version="1.0" encoding="utf-8" standalone="no"?>
<!DOCTYPE svg PUBLIC "-//W3C//DTD SVG 1.1//EN"
  "http://www.w3.org/Graphics/SVG/1.1/DTD/svg11.dtd">
<!-- Created with matplotlib (http://matplotlib.org/) -->
<svg height="345.6pt" version="1.1" viewBox="0 0 460.8 345.6" width="460.8pt" xmlns="http://www.w3.org/2000/svg" xmlns:xlink="http://www.w3.org/1999/xlink">
 <defs>
  <style type="text/css">
*{stroke-linecap:butt;stroke-linejoin:round;}
  </style>
 </defs>
 <g id="figure_1">
  <g id="patch_1">
   <path d="M 0 345.6 
L 460.8 345.6 
L 460.8 0 
L 0 0 
z
" style="fill:#ffffff;"/>
  </g>
  <g id="axes_1">
   <g id="patch_2">
    <path d="M 57.6 307.584 
L 414.72 307.584 
L 414.72 41.472 
L 57.6 41.472 
z
" style="fill:#ffffff;"/>
   </g>
   <g id="matplotlib.axis_1">
    <g id="xtick_1">
     <g id="line2d_1">
      <defs>
       <path d="M 0 0 
L 0 3.5 
" id="m4cd418b3fb" style="stroke:#000000;stroke-width:0.8;"/>
      </defs>
      <g>
       <use style="stroke:#000000;stroke-width:0.8;" x="73.832727" xlink:href="#m4cd418b3fb" y="307.584"/>
      </g>
     </g>
     <g id="text_1">
      <!-- 0 -->
      <defs>
       <path d="M 3.125 29.296875 
Q 3.90625 50 6.4375 56.046875 
Q 8.984375 62.109375 13.671875 66.015625 
Q 18.359375 69.921875 25.1875 69.921875 
Q 32.03125 69.921875 37.109375 64.25 
Q 42.1875 58.59375 43.75 50 
Q 45.3125 41.40625 44.71875 30.265625 
Q 44.140625 19.140625 40.8125 12.109375 
Q 37.5 5.078125 30.859375 2.34375 
Q 24.21875 -0.390625 17.578125 2.921875 
Q 10.9375 6.25 8.203125 11.71875 
Q 5.46875 17.1875 4.296875 23.234375 
Q 3.125 29.296875 3.90625 50 
z
M 12.890625 52.734375 
Q 10.546875 31.25 12.5 22.84375 
Q 14.453125 14.453125 18.9375 10.9375 
Q 23.4375 7.421875 28.125 9.5625 
Q 32.8125 11.71875 34.953125 18.15625 
Q 37.109375 24.609375 37.109375 32.21875 
Q 37.109375 39.84375 36.515625 46.09375 
Q 35.9375 52.34375 33 57.421875 
Q 30.078125 62.5 25.1875 62.6875 
Q 20.3125 62.890625 16.59375 57.8125 
Q 12.890625 52.734375 10.546875 31.25 
z
" id="SimHei-30"/>
      </defs>
      <g transform="translate(70.582727 323.5215)scale(0.13 -0.13)">
       <use xlink:href="#SimHei-30"/>
      </g>
     </g>
    </g>
    <g id="xtick_2">
     <g id="line2d_2">
      <g>
       <use style="stroke:#000000;stroke-width:0.8;" x="138.762338" xlink:href="#m4cd418b3fb" y="307.584"/>
      </g>
     </g>
     <g id="text_2">
      <!-- 1 -->
      <defs>
       <path d="M 21.875 56.25 
Q 16.796875 51.171875 8.984375 46.484375 
L 8.984375 53.90625 
Q 18.75 60.546875 25 69.53125 
L 29.6875 69.53125 
L 29.6875 2.34375 
L 21.875 2.34375 
z
" id="SimHei-31"/>
      </defs>
      <g transform="translate(135.512338 323.5215)scale(0.13 -0.13)">
       <use xlink:href="#SimHei-31"/>
      </g>
     </g>
    </g>
    <g id="xtick_3">
     <g id="line2d_3">
      <g>
       <use style="stroke:#000000;stroke-width:0.8;" x="203.691948" xlink:href="#m4cd418b3fb" y="307.584"/>
      </g>
     </g>
     <g id="text_3">
      <!-- 2 -->
      <defs>
       <path d="M 4.6875 3.90625 
Q 5.078125 9.765625 10.15625 14.453125 
Q 15.234375 19.140625 23.046875 29.09375 
Q 30.859375 39.0625 33.203125 44.53125 
Q 35.546875 50 34.953125 53.90625 
Q 34.375 57.8125 31.25 60.34375 
Q 28.125 62.890625 24.015625 62.5 
Q 19.921875 62.109375 16.203125 59.375 
Q 12.5 56.640625 10.546875 51.171875 
L 3.125 52.34375 
Q 6.25 61.328125 11.125 65.421875 
Q 16.015625 69.53125 22.65625 69.921875 
Q 26.5625 70.3125 29.6875 69.71875 
Q 32.8125 69.140625 36.125 66.984375 
Q 39.453125 64.84375 41.59375 60.546875 
Q 43.75 56.25 43.15625 50.1875 
Q 42.578125 44.140625 37.109375 35.734375 
Q 31.640625 27.34375 16.015625 9.375 
L 44.140625 9.375 
L 44.140625 2.34375 
L 4.6875 2.34375 
z
" id="SimHei-32"/>
      </defs>
      <g transform="translate(200.441948 323.5215)scale(0.13 -0.13)">
       <use xlink:href="#SimHei-32"/>
      </g>
     </g>
    </g>
    <g id="xtick_4">
     <g id="line2d_4">
      <g>
       <use style="stroke:#000000;stroke-width:0.8;" x="268.621559" xlink:href="#m4cd418b3fb" y="307.584"/>
      </g>
     </g>
     <g id="text_4">
      <!-- 3 -->
      <defs>
       <path d="M 3.90625 19.140625 
L 10.9375 20.3125 
Q 12.5 15.234375 16.015625 11.90625 
Q 19.53125 8.59375 24.796875 8.78125 
Q 30.078125 8.984375 33.203125 13.078125 
Q 36.328125 17.1875 35.9375 22.453125 
Q 35.546875 27.734375 31.828125 30.65625 
Q 28.125 33.59375 19.921875 34.765625 
L 19.921875 39.84375 
Q 28.125 40.625 31.828125 44.140625 
Q 35.546875 47.65625 35.15625 53.3125 
Q 34.765625 58.984375 30.078125 61.515625 
Q 25.390625 64.0625 20.109375 62.109375 
Q 14.84375 60.15625 11.71875 51.171875 
L 4.6875 52.34375 
Q 7.03125 59.375 11.125 64.0625 
Q 15.234375 68.75 22.265625 69.53125 
Q 29.296875 70.3125 34.5625 67.765625 
Q 39.84375 65.234375 41.984375 59.953125 
Q 44.140625 54.6875 42.578125 48.4375 
Q 41.015625 42.1875 33.59375 37.5 
Q 39.0625 35.15625 41.984375 30.46875 
Q 44.921875 25.78125 43.9375 18.15625 
Q 42.96875 10.546875 37.109375 5.859375 
Q 31.25 1.171875 23.828125 1.359375 
Q 16.40625 1.5625 10.9375 6.046875 
Q 5.46875 10.546875 3.90625 19.140625 
z
" id="SimHei-33"/>
      </defs>
      <g transform="translate(265.371559 323.5215)scale(0.13 -0.13)">
       <use xlink:href="#SimHei-33"/>
      </g>
     </g>
    </g>
    <g id="xtick_5">
     <g id="line2d_5">
      <g>
       <use style="stroke:#000000;stroke-width:0.8;" x="333.551169" xlink:href="#m4cd418b3fb" y="307.584"/>
      </g>
     </g>
     <g id="text_5">
      <!-- 4 -->
      <defs>
       <path d="M 31.25 17.1875 
L 1.171875 17.1875 
L 1.171875 23.828125 
L 32.8125 69.53125 
L 38.671875 69.53125 
L 38.671875 23.828125 
L 48.046875 23.828125 
L 48.046875 17.1875 
L 38.671875 17.1875 
L 38.671875 2.34375 
L 31.25 2.34375 
z
M 31.25 23.828125 
L 31.25 54.6875 
L 9.375 23.828125 
z
" id="SimHei-34"/>
      </defs>
      <g transform="translate(330.301169 323.5215)scale(0.13 -0.13)">
       <use xlink:href="#SimHei-34"/>
      </g>
     </g>
    </g>
    <g id="xtick_6">
     <g id="line2d_6">
      <g>
       <use style="stroke:#000000;stroke-width:0.8;" x="398.48078" xlink:href="#m4cd418b3fb" y="307.584"/>
      </g>
     </g>
     <g id="text_6">
      <!-- 5 -->
      <defs>
       <path d="M 8.59375 20.703125 
Q 11.328125 10.15625 17.96875 8.984375 
Q 24.609375 7.8125 28.703125 10.34375 
Q 32.8125 12.890625 34.5625 16.984375 
Q 36.328125 21.09375 36.125 26.171875 
Q 35.9375 31.25 33.390625 34.765625 
Q 30.859375 38.28125 26.953125 39.453125 
Q 23.046875 40.625 18.15625 39.453125 
Q 13.28125 38.28125 10.15625 33.984375 
L 3.515625 34.765625 
Q 4.296875 37.109375 10.9375 68.359375 
L 41.796875 68.359375 
L 41.796875 61.328125 
L 16.796875 61.328125 
Q 14.84375 50.78125 12.890625 44.53125 
Q 18.75 47.265625 23.828125 47.0625 
Q 28.90625 46.875 33.59375 44.71875 
Q 38.28125 42.578125 40.421875 38.859375 
Q 42.578125 35.15625 43.546875 31.4375 
Q 44.53125 27.734375 44.328125 23.4375 
Q 44.140625 19.140625 42.578125 14.640625 
Q 41.015625 10.15625 37.890625 7.21875 
Q 34.765625 4.296875 30.265625 2.53125 
Q 25.78125 0.78125 19.921875 1.171875 
Q 14.0625 1.5625 8.78125 5.46875 
Q 3.515625 9.375 1.5625 18.75 
z
" id="SimHei-35"/>
      </defs>
      <g transform="translate(395.23078 323.5215)scale(0.13 -0.13)">
       <use xlink:href="#SimHei-35"/>
      </g>
     </g>
    </g>
    <g id="text_7">
     <!-- Episode/k -->
     <defs>
      <path d="M 45.3125 1.953125 
L 5.46875 1.953125 
L 5.46875 68.75 
L 43.359375 68.75 
L 43.359375 61.328125 
L 14.453125 61.328125 
L 14.453125 40.625 
L 41.015625 40.625 
L 41.015625 33.203125 
L 14.453125 33.203125 
L 14.453125 9.375 
L 45.3125 9.375 
z
" id="SimHei-45"/>
      <path d="M 44.140625 23.828125 
Q 44.140625 12.5 38.671875 6.640625 
Q 33.203125 0.78125 25.390625 0.78125 
Q 21.09375 0.78125 17.96875 2.53125 
Q 14.84375 4.296875 12.5 7.8125 
L 12.5 -12.5 
L 4.6875 -12.5 
L 4.6875 45.703125 
L 12.5 45.703125 
L 12.5 39.84375 
Q 14.84375 43.359375 17.96875 44.921875 
Q 21.09375 46.484375 25.390625 46.484375 
Q 33.203125 46.484375 38.671875 40.8125 
Q 44.140625 35.15625 44.140625 23.828125 
z
M 35.546875 23.828125 
Q 35.546875 31.25 32.609375 35.34375 
Q 29.6875 39.453125 23.828125 39.453125 
Q 19.140625 39.453125 15.8125 35.34375 
Q 12.5 31.25 12.5 23.828125 
Q 12.5 16.40625 15.8125 12.109375 
Q 19.140625 7.8125 23.828125 7.8125 
Q 29.6875 7.8125 32.609375 12.109375 
Q 35.546875 16.40625 35.546875 23.828125 
z
" id="SimHei-70"/>
      <path d="M 28.125 58.203125 
L 20.3125 58.203125 
L 20.3125 68.359375 
L 28.125 68.359375 
z
M 28.125 1.953125 
L 20.3125 1.953125 
L 20.3125 45.703125 
L 28.125 45.703125 
z
" id="SimHei-69"/>
      <path d="M 42.96875 14.0625 
Q 42.96875 7.8125 38.078125 4.484375 
Q 33.203125 1.171875 25.78125 1.171875 
Q 16.40625 1.171875 11.328125 4.875 
Q 6.25 8.59375 6.25 15.625 
L 14.0625 15.625 
Q 14.0625 10.9375 17.375 9.375 
Q 20.703125 7.8125 25.390625 7.8125 
Q 30.078125 7.8125 32.421875 9.5625 
Q 34.765625 11.328125 34.765625 14.0625 
Q 34.765625 16.015625 32.8125 17.96875 
Q 30.859375 19.921875 23.046875 21.09375 
Q 14.0625 22.265625 10.734375 25.578125 
Q 7.421875 28.90625 7.421875 34.375 
Q 7.421875 39.0625 11.90625 42.765625 
Q 16.40625 46.484375 25 46.484375 
Q 32.8125 46.484375 37.296875 42.96875 
Q 41.796875 39.453125 41.796875 33.59375 
L 33.984375 33.59375 
Q 33.984375 37.109375 31.4375 38.46875 
Q 28.90625 39.84375 25 39.84375 
Q 19.921875 39.84375 17.765625 38.078125 
Q 15.625 36.328125 15.625 33.984375 
Q 15.625 31.25 17.578125 29.6875 
Q 19.53125 28.125 25.78125 27.34375 
Q 35.9375 25.78125 39.453125 22.453125 
Q 42.96875 19.140625 42.96875 14.0625 
z
" id="SimHei-73"/>
      <path d="M 45.703125 23.828125 
Q 45.703125 13.671875 39.453125 7.421875 
Q 33.203125 1.171875 24.609375 1.171875 
Q 16.015625 1.171875 9.765625 7.421875 
Q 3.515625 13.671875 3.515625 23.828125 
Q 3.515625 33.984375 9.765625 40.234375 
Q 16.015625 46.484375 24.609375 46.484375 
Q 33.203125 46.484375 39.453125 40.234375 
Q 45.703125 33.984375 45.703125 23.828125 
z
M 37.109375 23.828125 
Q 37.109375 31.640625 33.203125 35.546875 
Q 29.296875 39.453125 24.609375 39.453125 
Q 19.921875 39.453125 16.015625 35.546875 
Q 12.109375 31.640625 12.109375 23.828125 
Q 12.109375 16.015625 16.015625 12.109375 
Q 19.921875 8.203125 24.609375 8.203125 
Q 29.296875 8.203125 33.203125 12.109375 
Q 37.109375 16.015625 37.109375 23.828125 
z
" id="SimHei-6f"/>
      <path d="M 42.96875 1.953125 
L 35.15625 1.953125 
L 35.15625 7.8125 
Q 32.8125 4.296875 29.6875 2.734375 
Q 26.5625 1.171875 22.265625 1.171875 
Q 14.453125 1.171875 8.984375 6.828125 
Q 3.515625 12.5 3.515625 23.828125 
Q 3.515625 35.15625 8.984375 41.015625 
Q 14.453125 46.875 22.265625 46.875 
Q 26.5625 46.875 29.6875 45.109375 
Q 32.8125 43.359375 35.15625 39.84375 
L 35.15625 68.75 
L 42.96875 68.75 
z
M 35.15625 23.828125 
Q 35.15625 31.25 31.828125 35.546875 
Q 28.515625 39.84375 23.828125 39.84375 
Q 17.96875 39.84375 15.03125 35.546875 
Q 12.109375 31.25 12.109375 23.828125 
Q 12.109375 16.40625 15.03125 12.296875 
Q 17.96875 8.203125 23.828125 8.203125 
Q 28.515625 8.203125 31.828125 12.296875 
Q 35.15625 16.40625 35.15625 23.828125 
z
" id="SimHei-64"/>
      <path d="M 44.53125 16.796875 
Q 43.75 9.765625 38.28125 5.46875 
Q 32.8125 1.171875 25.390625 1.171875 
Q 16.015625 1.171875 9.953125 7.21875 
Q 3.90625 13.28125 3.90625 23.828125 
Q 3.90625 34.375 9.953125 40.421875 
Q 16.015625 46.484375 25.390625 46.484375 
Q 33.59375 46.484375 38.859375 41.203125 
Q 44.140625 35.9375 44.140625 23.828125 
L 12.5 23.828125 
Q 12.5 15.234375 16.203125 11.71875 
Q 19.921875 8.203125 25.390625 8.203125 
Q 29.6875 8.203125 32.421875 10.34375 
Q 35.15625 12.5 35.9375 16.796875 
z
M 35.15625 30.078125 
Q 34.375 35.546875 31.640625 37.6875 
Q 28.90625 39.84375 24.609375 39.84375 
Q 20.703125 39.84375 17.578125 37.6875 
Q 14.453125 35.546875 12.890625 30.078125 
z
" id="SimHei-65"/>
      <path d="M 46.875 71.09375 
L 5.46875 -2.734375 
L 1.5625 -0.390625 
L 42.96875 73.4375 
z
" id="SimHei-2f"/>
      <path d="M 45.703125 1.953125 
L 36.71875 1.953125 
L 22.65625 25.78125 
L 13.671875 17.1875 
L 13.671875 1.953125 
L 5.859375 1.953125 
L 5.859375 68.75 
L 13.671875 68.75 
L 13.671875 26.171875 
L 33.203125 45.703125 
L 42.96875 45.703125 
L 27.734375 30.859375 
z
" id="SimHei-6b"/>
     </defs>
     <g transform="translate(202.41 340.162125)scale(0.15 -0.15)">
      <use xlink:href="#SimHei-45"/>
      <use x="50" xlink:href="#SimHei-70"/>
      <use x="100" xlink:href="#SimHei-69"/>
      <use x="150" xlink:href="#SimHei-73"/>
      <use x="200" xlink:href="#SimHei-6f"/>
      <use x="250" xlink:href="#SimHei-64"/>
      <use x="300" xlink:href="#SimHei-65"/>
      <use x="350" xlink:href="#SimHei-2f"/>
      <use x="400" xlink:href="#SimHei-6b"/>
     </g>
    </g>
    <g id="text_8">
     <!-- 1e4 -->
     <g transform="translate(399.72 335.0215)scale(0.1 -0.1)">
      <use xlink:href="#SimHei-31"/>
      <use x="50" xlink:href="#SimHei-65"/>
      <use x="100" xlink:href="#SimHei-34"/>
     </g>
    </g>
   </g>
   <g id="matplotlib.axis_2">
    <g id="ytick_1">
     <g id="line2d_7">
      <defs>
       <path d="M 0 0 
L -3.5 0 
" id="m0e5bd736f9" style="stroke:#000000;stroke-width:0.8;"/>
      </defs>
      <g>
       <use style="stroke:#000000;stroke-width:0.8;" x="57.6" xlink:href="#m0e5bd736f9" y="286.185897"/>
      </g>
     </g>
     <g id="text_9">
      <!-- -4 -->
      <defs>
       <path d="M 46.484375 33.203125 
L 1.953125 33.203125 
L 1.953125 39.453125 
L 46.484375 39.453125 
z
" id="SimHei-2d"/>
      </defs>
      <g transform="translate(37.6 290.654647)scale(0.13 -0.13)">
       <use xlink:href="#SimHei-2d"/>
       <use x="50" xlink:href="#SimHei-34"/>
      </g>
     </g>
    </g>
    <g id="ytick_2">
     <g id="line2d_8">
      <g>
       <use style="stroke:#000000;stroke-width:0.8;" x="57.6" xlink:href="#m0e5bd736f9" y="228.033512"/>
      </g>
     </g>
     <g id="text_10">
      <!-- -3 -->
      <g transform="translate(37.6 232.502262)scale(0.13 -0.13)">
       <use xlink:href="#SimHei-2d"/>
       <use x="50" xlink:href="#SimHei-33"/>
      </g>
     </g>
    </g>
    <g id="ytick_3">
     <g id="line2d_9">
      <g>
       <use style="stroke:#000000;stroke-width:0.8;" x="57.6" xlink:href="#m0e5bd736f9" y="169.881127"/>
      </g>
     </g>
     <g id="text_11">
      <!-- -2 -->
      <g transform="translate(37.6 174.349877)scale(0.13 -0.13)">
       <use xlink:href="#SimHei-2d"/>
       <use x="50" xlink:href="#SimHei-32"/>
      </g>
     </g>
    </g>
    <g id="ytick_4">
     <g id="line2d_10">
      <g>
       <use style="stroke:#000000;stroke-width:0.8;" x="57.6" xlink:href="#m0e5bd736f9" y="111.728742"/>
      </g>
     </g>
     <g id="text_12">
      <!-- -1 -->
      <g transform="translate(37.6 116.197492)scale(0.13 -0.13)">
       <use xlink:href="#SimHei-2d"/>
       <use x="50" xlink:href="#SimHei-31"/>
      </g>
     </g>
    </g>
    <g id="ytick_5">
     <g id="line2d_11">
      <g>
       <use style="stroke:#000000;stroke-width:0.8;" x="57.6" xlink:href="#m0e5bd736f9" y="53.576357"/>
      </g>
     </g>
     <g id="text_13">
      <!-- 0 -->
      <g transform="translate(44.1 58.045107)scale(0.13 -0.13)">
       <use xlink:href="#SimHei-30"/>
      </g>
     </g>
    </g>
    <g id="text_14">
     <!-- Cumulative -->
     <defs>
      <path d="M 46.484375 28.515625 
Q 46.09375 13.671875 40.234375 7.421875 
Q 34.375 1.171875 26.171875 1.171875 
Q 16.796875 1.171875 10.15625 8.78125 
Q 3.515625 16.40625 3.515625 33.203125 
Q 3.515625 51.5625 9.953125 60.546875 
Q 16.40625 69.53125 26.5625 69.53125 
Q 35.15625 69.53125 40.8125 63.078125 
Q 46.484375 56.640625 46.09375 44.921875 
L 37.5 44.921875 
Q 37.5 53.515625 34.765625 57.8125 
Q 32.03125 62.109375 26.5625 62.109375 
Q 20.3125 62.109375 16.59375 55.65625 
Q 12.890625 49.21875 12.890625 33.984375 
Q 12.890625 19.921875 16.59375 14.25 
Q 20.3125 8.59375 26.171875 8.59375 
Q 30.46875 8.59375 33.984375 12.6875 
Q 37.5 16.796875 37.5 28.515625 
z
" id="SimHei-43"/>
      <path d="M 43.75 1.953125 
L 35.9375 1.953125 
L 35.9375 10.15625 
Q 32.8125 5.859375 29.09375 3.515625 
Q 25.390625 1.171875 19.53125 1.171875 
Q 12.5 1.171875 8.984375 5.078125 
Q 5.46875 8.984375 5.46875 14.84375 
L 5.46875 45.703125 
L 13.28125 45.703125 
L 13.28125 17.578125 
Q 13.28125 12.890625 15.625 10.15625 
Q 17.96875 7.421875 21.875 7.421875 
Q 26.953125 7.421875 31.4375 12.6875 
Q 35.9375 17.96875 35.9375 25.78125 
L 35.9375 45.703125 
L 43.75 45.703125 
z
" id="SimHei-75"/>
      <path d="M 47.65625 1.953125 
L 39.84375 1.953125 
L 39.84375 33.59375 
Q 39.84375 35.9375 39.0625 37.5 
Q 38.28125 39.0625 35.9375 39.0625 
Q 33.203125 39.0625 30.859375 36.125 
Q 28.515625 33.203125 28.515625 28.515625 
L 28.515625 1.953125 
L 20.703125 1.953125 
L 20.703125 33.59375 
Q 20.703125 35.9375 19.921875 37.5 
Q 19.140625 39.0625 16.796875 39.0625 
Q 14.0625 39.0625 11.71875 36.125 
Q 9.375 33.203125 9.375 28.515625 
L 9.375 1.953125 
L 1.5625 1.953125 
L 1.5625 45.703125 
L 9.375 45.703125 
L 9.375 39.84375 
Q 11.328125 42.96875 14.0625 44.71875 
Q 16.796875 46.484375 19.921875 46.484375 
Q 23.046875 46.484375 25.1875 44.71875 
Q 27.34375 42.96875 28.125 39.84375 
Q 30.078125 42.96875 32.609375 44.71875 
Q 35.15625 46.484375 38.28125 46.484375 
Q 42.96875 46.484375 45.3125 43.9375 
Q 47.65625 41.40625 47.65625 36.71875 
z
" id="SimHei-6d"/>
      <path d="M 28.515625 1.953125 
L 20.703125 1.953125 
L 20.703125 68.75 
L 28.515625 68.75 
z
" id="SimHei-6c"/>
      <path d="M 44.921875 1.953125 
L 35.546875 1.953125 
Q 34.765625 2.734375 34.375 4.09375 
Q 33.984375 5.46875 33.984375 7.421875 
Q 31.25 4.296875 27.34375 2.734375 
Q 23.4375 1.171875 19.140625 1.171875 
Q 12.890625 1.171875 8.59375 4.296875 
Q 4.296875 7.421875 4.296875 13.28125 
Q 4.296875 19.140625 8.203125 22.65625 
Q 12.109375 26.171875 20.3125 27.34375 
Q 25.78125 28.125 29.875 29.296875 
Q 33.984375 30.46875 33.984375 32.421875 
Q 33.984375 34.765625 32.21875 37.109375 
Q 30.46875 39.453125 24.609375 39.453125 
Q 19.921875 39.453125 17.765625 37.6875 
Q 15.625 35.9375 14.84375 32.8125 
L 6.25 32.8125 
Q 7.03125 39.0625 11.90625 42.765625 
Q 16.796875 46.484375 24.609375 46.484375 
Q 33.203125 46.484375 37.5 42.578125 
Q 41.796875 38.671875 41.796875 31.640625 
L 41.796875 10.15625 
Q 41.796875 7.8125 42.578125 5.859375 
Q 43.359375 3.90625 44.921875 1.953125 
z
M 33.984375 16.40625 
L 33.984375 24.21875 
Q 31.640625 23.4375 29.484375 22.84375 
Q 27.34375 22.265625 22.265625 21.484375 
Q 16.40625 20.703125 14.640625 18.75 
Q 12.890625 16.796875 12.890625 14.0625 
Q 12.890625 11.71875 14.640625 9.953125 
Q 16.40625 8.203125 19.921875 8.203125 
Q 23.4375 8.203125 27.53125 10.15625 
Q 31.640625 12.109375 33.984375 16.40625 
z
" id="SimHei-61"/>
      <path d="M 42.96875 3.125 
Q 41.015625 2.34375 38.46875 1.75 
Q 35.9375 1.171875 31.640625 1.171875 
Q 24.609375 1.171875 20.3125 5.078125 
Q 16.015625 8.984375 16.015625 16.015625 
L 16.015625 39.453125 
L 2.734375 39.453125 
L 2.734375 45.703125 
L 16.015625 45.703125 
L 16.015625 60.9375 
L 23.828125 60.9375 
L 23.828125 45.703125 
L 39.84375 45.703125 
L 39.84375 39.453125 
L 23.828125 39.453125 
L 23.828125 15.625 
Q 23.828125 12.5 25.390625 10.34375 
Q 26.953125 8.203125 31.25 8.203125 
Q 35.546875 8.203125 38.28125 8.984375 
Q 41.015625 9.765625 42.96875 10.9375 
z
" id="SimHei-74"/>
      <path d="M 44.921875 45.703125 
L 28.515625 1.171875 
L 19.921875 1.171875 
L 3.515625 45.703125 
L 11.71875 45.703125 
L 23.828125 11.71875 
L 24.609375 11.71875 
L 36.71875 45.703125 
z
" id="SimHei-76"/>
     </defs>
     <g transform="translate(31.725 212.028)rotate(-90)scale(0.15 -0.15)">
      <use xlink:href="#SimHei-43"/>
      <use x="50" xlink:href="#SimHei-75"/>
      <use x="100" xlink:href="#SimHei-6d"/>
      <use x="150" xlink:href="#SimHei-75"/>
      <use x="200" xlink:href="#SimHei-6c"/>
      <use x="250" xlink:href="#SimHei-61"/>
      <use x="300" xlink:href="#SimHei-74"/>
      <use x="350" xlink:href="#SimHei-69"/>
      <use x="400" xlink:href="#SimHei-76"/>
      <use x="450" xlink:href="#SimHei-65"/>
     </g>
    </g>
    <g id="text_15">
     <!-- 1e6 -->
     <defs>
      <path d="M 3.515625 19.53125 
Q 4.296875 30.859375 6.046875 34.765625 
Q 7.8125 38.671875 11.328125 44.53125 
L 27.34375 69.53125 
L 36.328125 69.53125 
L 19.921875 43.75 
Q 30.46875 46.484375 36.71875 42.96875 
Q 42.96875 39.453125 45.109375 34.953125 
Q 47.265625 30.46875 47.453125 25.1875 
Q 47.65625 19.921875 45.890625 14.84375 
Q 44.140625 9.765625 39.640625 5.65625 
Q 35.15625 1.5625 27.140625 1.171875 
Q 19.140625 0.78125 13.46875 4.09375 
Q 7.8125 7.421875 5.65625 13.46875 
Q 3.515625 19.53125 4.296875 30.859375 
z
M 12.5 16.015625 
Q 19.53125 8.59375 25.390625 8.203125 
Q 31.25 7.8125 35.15625 12.109375 
Q 39.0625 16.40625 39.0625 24.609375 
Q 39.0625 32.8125 34.171875 35.9375 
Q 29.296875 39.0625 23.234375 38.28125 
Q 17.1875 37.5 14.453125 32.421875 
Q 11.71875 27.34375 12.109375 21.671875 
Q 12.5 16.015625 19.53125 8.59375 
z
" id="SimHei-36"/>
     </defs>
     <g transform="translate(57.6 38.472)scale(0.1 -0.1)">
      <use xlink:href="#SimHei-31"/>
      <use x="50" xlink:href="#SimHei-65"/>
      <use x="100" xlink:href="#SimHei-36"/>
     </g>
    </g>
   </g>
   <g id="line2d_12">
    <path clip-path="url(#pc07138f6aa)" d="M 73.832727 53.576357 
L 73.858699 53.572992 
L 73.988558 54.162675 
L 73.995051 54.159077 
L 74.274249 55.330619 
L 74.280742 55.325026 
L 74.43008 56.294598 
L 74.456052 56.421729 
L 74.592404 56.991837 
L 75.488432 61.041439 
L 75.507911 61.042439 
L 75.533883 61.120274 
L 75.819573 62.890136 
L 75.916968 63.092533 
L 76.046827 63.53084 
L 76.05332 63.525855 
L 76.079292 63.605653 
L 76.22863 64.524274 
L 76.261095 64.59408 
L 76.390954 65.699854 
L 76.585743 66.716626 
L 76.722095 68.056016 
L 76.741574 68.050538 
L 77.235039 70.666703 
L 77.241532 70.661309 
L 77.261011 70.778047 
L 77.273997 70.777142 
L 77.299968 70.895401 
L 77.618124 72.918031 
L 77.624617 72.916762 
L 77.650588 73.015622 
L 77.910307 74.914564 
L 77.9168 74.911575 
L 78.059645 75.630471 
L 78.066138 75.625993 
L 78.221969 76.854917 
L 78.228462 76.85168 
L 78.520645 78.413638 
L 78.527138 78.408637 
L 78.533631 78.406979 
L 78.540124 78.481066 
L 78.702448 79.265968 
L 78.708941 79.260398 
L 78.8388 80.252678 
L 78.858279 80.412782 
L 79.001124 81.604659 
L 79.936111 87.602893 
L 80.098435 89.211449 
L 80.124407 89.349377 
L 80.70228 93.800219 
L 80.734745 94.138723 
L 81.981393 103.596878 
L 82.000872 103.606072 
L 82.020351 103.676497 
L 82.383957 106.755301 
L 82.39045 106.751956 
L 83.09169 113.067532 
L 83.098183 113.06303 
L 83.104676 113.1481 
L 83.111169 113.153606 
L 83.357901 115.580084 
L 83.585155 117.657077 
L 83.591648 117.652076 
L 83.734493 118.727135 
L 83.890324 120.250267 
L 83.922789 120.426487 
L 84.143549 122.189129 
L 84.150042 122.187441 
L 84.156535 122.183142 
L 84.163028 122.294834 
L 84.169521 122.296104 
L 84.442226 124.299022 
L 84.448719 124.294929 
L 84.598057 125.635006 
L 84.643507 126.002739 
L 84.77986 127.264282 
L 85.188916 131.315378 
L 85.195409 131.312116 
L 85.214888 131.746426 
L 85.338254 133.438483 
L 85.344747 133.437074 
L 85.35124 133.499495 
L 86.020015 138.343698 
L 86.201818 139.50598 
L 86.344663 140.837268 
L 86.351156 140.833813 
L 86.370635 140.861263 
L 86.597889 143.161523 
L 86.734241 144.073078 
L 86.903058 145.708387 
L 87.065382 147.193773 
L 87.071875 147.192556 
L 87.097847 147.313276 
L 87.292636 149.192827 
L 87.331593 149.319584 
L 87.487424 150.756853 
L 87.493917 150.751867 
L 87.669227 151.903717 
L 87.825058 153.487278 
L 87.831551 153.48317 
L 87.902974 153.929722 
L 88.078284 155.100992 
L 88.175678 155.747483 
L 88.182171 155.742609 
L 88.31203 156.863523 
L 88.318523 156.872362 
L 88.448383 157.881442 
L 88.578242 159.016013 
L 88.72758 160.21786 
L 89.792426 169.604822 
L 89.798918 169.601943 
L 89.805411 169.597069 
L 89.818397 169.667679 
L 91.246849 182.066995 
L 91.259835 182.061615 
L 91.298792 182.318109 
L 91.422159 183.383582 
L 91.428652 183.380057 
L 91.623441 184.881008 
L 91.642919 184.913475 
L 91.655905 184.972411 
L 91.727328 185.50122 
L 91.896145 186.971055 
L 91.941596 187.013448 
L 91.948089 187.068921 
L 91.987046 187.170632 
L 92.142877 188.348027 
L 92.168849 188.385609 
L 92.363638 189.795841 
L 92.396103 189.836133 
L 92.577906 191.397629 
L 92.603878 191.471523 
L 92.792174 192.675061 
L 92.960991 193.681568 
L 93.097343 194.66315 
L 93.337582 196.945685 
L 93.480427 198.667598 
L 93.746639 200.780275 
L 94.025836 202.271217 
L 94.045315 202.264192 
L 94.201146 203.861623 
L 94.207639 203.864649 
L 94.369963 205.110727 
L 94.460865 206.014153 
L 94.597217 207.24085 
L 94.610203 207.255536 
L 94.733569 207.846243 
L 94.740062 207.841572 
L 94.785513 207.853502 
L 94.792006 207.912697 
L 95.006273 208.974955 
L 95.06471 209.066853 
L 95.246513 210.241712 
L 95.259499 210.240199 
L 95.408837 211.275976 
L 95.597133 212.199606 
L 95.726992 212.971945 
L 96.610035 217.694203 
L 96.75288 218.500331 
L 96.759373 218.496024 
L 96.791838 218.605597 
L 96.850274 218.709381 
L 96.980133 219.017829 
L 98.13588 225.258334 
L 98.142373 225.253335 
L 98.155359 225.377545 
L 98.687782 227.519887 
L 98.700768 227.519195 
L 98.830627 228.217582 
L 99.044895 229.078199 
L 99.057881 229.073968 
L 99.090346 229.083819 
L 99.096839 229.114405 
L 99.213712 229.769948 
L 99.220205 229.766216 
L 99.25267 229.806486 
L 99.259163 229.850594 
L 99.382529 230.6465 
L 99.395515 230.638531 
L 99.402008 230.635404 
L 99.421487 230.730197 
L 99.434473 230.733335 
L 100.440882 234.561553 
L 100.453868 234.555566 
L 100.460361 234.597917 
L 100.473346 234.59759 
L 100.616192 235.685297 
L 100.629178 235.676904 
L 100.726572 235.843706 
L 100.895389 236.556256 
L 100.94084 236.648096 
L 101.849854 239.146581 
L 101.992699 239.623838 
L 102.843277 242.113081 
L 103.219869 242.931878 
L 103.882151 245.171329 
L 103.895137 245.160831 
L 104.382109 246.490885 
L 104.511968 246.725276 
L 104.518461 246.721245 
L 104.557419 246.751772 
L 104.570405 246.803764 
L 104.589884 246.802287 
L 104.706757 247.077472 
L 104.71325 247.072231 
L 105.005433 247.613512 
L 105.024912 247.618632 
L 105.057377 247.698314 
L 105.06387 247.696652 
L 105.265152 248.03668 
L 105.271645 248.033481 
L 105.291124 248.054016 
L 105.304109 248.129301 
L 105.498898 248.424813 
L 105.570321 248.470013 
L 105.583307 248.501963 
L 105.609279 248.496128 
L 105.615772 248.581399 
L 105.63525 248.599279 
L 106.310518 250.619665 
L 106.888392 252.142216 
L 107.024744 252.372328 
L 107.115646 252.616931 
L 107.407829 253.324993 
L 107.414322 253.321658 
L 107.855843 254.445674 
L 108.13504 255.354535 
L 108.141533 255.351315 
L 108.19997 255.526264 
L 108.355801 256.195435 
L 108.368787 256.190779 
L 108.498646 256.548355 
L 108.641491 256.934639 
L 108.712914 257.032232 
L 108.829787 257.359047 
L 108.83628 257.357928 
L 108.868745 257.389901 
L 108.875238 257.434714 
L 108.894717 257.442267 
L 109.238844 258.330674 
L 109.264816 258.321187 
L 109.310266 258.340943 
L 109.329745 258.394884 
L 109.47259 258.699549 
L 109.699844 258.938057 
L 109.706337 258.932837 
L 109.829703 259.382945 
L 109.959563 259.650097 
L 110.212788 260.295315 
L 110.355633 260.624334 
L 110.478999 260.894424 
L 110.485492 260.889208 
L 110.745211 261.420778 
L 111.654225 263.673651 
L 111.75162 263.781967 
L 111.777592 263.773305 
L 113.056705 265.925275 
L 113.076184 265.922083 
L 113.082677 265.964679 
L 113.102156 265.98542 
L 113.257987 266.76291 
L 113.465762 267.048733 
L 113.654057 267.326403 
L 113.738466 267.443873 
L 113.777424 267.541291 
L 113.868325 267.841295 
L 113.894297 267.830465 
L 113.90079 267.827132 
L 113.933255 267.918937 
L 114.030649 268.010346 
L 114.050128 267.999942 
L 114.141029 268.143797 
L 114.283875 268.470132 
L 114.290368 268.469364 
L 114.309846 268.557324 
L 114.511128 269.288131 
L 114.5371 269.32951 
L 114.660466 269.522917 
L 114.718903 269.655415 
L 114.868241 270.015398 
L 115.407157 270.928159 
L 115.569481 271.188881 
L 115.640903 271.234531 
L 115.647396 271.268 
L 116.718735 273.231228 
L 116.731721 273.234178 
L 116.744707 273.32174 
L 116.881059 273.425647 
L 116.887552 273.422302 
L 117.004425 273.583926 
L 117.309594 274.227945 
L 117.329073 274.268002 
L 117.381017 274.305604 
L 117.705665 274.937754 
L 117.816045 274.998221 
L 117.952398 275.188483 
L 117.997848 275.191801 
L 118.036806 275.262606 
L 118.153679 275.389616 
L 118.30951 275.596609 
L 118.556243 275.718007 
L 118.692595 275.798836 
L 118.802976 275.851507 
L 118.9653 275.997429 
L 118.971792 275.993382 
L 119.069187 276.082875 
L 119.367863 276.361593 
L 119.562652 276.564101 
L 119.796399 276.919163 
L 120.06261 277.316694 
L 120.205455 277.489141 
L 120.211948 277.486473 
L 120.257399 277.526723 
L 120.270385 277.583185 
L 120.445695 277.726543 
L 120.608019 277.837294 
L 120.614512 277.832545 
L 120.640483 277.84065 
L 120.666455 277.923943 
L 122.439034 279.779367 
L 122.568893 279.851966 
L 122.763682 280.167635 
L 123.094823 280.694191 
L 123.224682 280.723559 
L 123.231175 280.74376 
L 123.399992 280.926656 
L 123.54933 281.126474 
L 123.562316 281.122372 
L 123.594781 281.223928 
L 124.484316 282.10842 
L 124.562232 282.208805 
L 124.841429 282.527579 
L 125.425796 282.983093 
L 125.692007 283.31444 
L 125.6985 283.310317 
L 125.828359 283.364563 
L 125.977697 283.439484 
L 126.133529 283.438058 
L 126.237416 283.527199 
L 126.354289 283.6332 
L 126.367275 283.628444 
L 126.471163 283.741524 
L 126.808796 283.921784 
L 127.075008 284.123683 
L 127.523022 284.480989 
L 127.685346 284.516665 
L 127.951558 284.847242 
L 128.081417 284.975915 
L 128.347628 285.173789 
L 128.445023 285.228891 
L 128.561896 285.363069 
L 128.574882 285.359596 
L 128.698248 285.411391 
L 128.893037 285.574589 
L 129.165741 285.658033 
L 129.276122 285.760914 
L 129.289108 285.755342 
L 129.639727 285.913282 
L 129.77608 285.996366 
L 129.912432 286.108545 
L 130.06177 286.191132 
L 130.542249 286.37419 
L 130.996756 286.699335 
L 131.094151 286.735486 
L 131.100644 286.762163 
L 131.217517 286.905798 
L 131.249982 286.892697 
L 131.412306 286.91659 
L 131.555151 287.042541 
L 131.568137 287.035272 
L 131.847334 287.175104 
L 131.944729 287.259964 
L 131.970701 287.251194 
L 132.061602 287.32603 
L 132.308334 287.483375 
L 132.327813 287.534771 
L 132.431701 287.537188 
L 134.275702 288.291831 
L 134.295181 288.323384 
L 134.327645 288.343495 
L 134.438026 288.48178 
L 134.451012 288.475225 
L 135.950886 289.209723 
L 136.067759 289.283612 
L 136.087238 289.271722 
L 136.262548 289.38956 
L 136.385914 289.429819 
L 136.561224 289.557253 
L 136.704069 289.676669 
L 136.833928 289.717705 
L 136.918337 289.7672 
L 136.950802 289.752241 
L 137.080661 289.803488 
L 137.229999 289.830865 
L 137.327393 289.831306 
L 137.353365 289.875541 
L 137.522182 289.955359 
L 137.976689 290.096852 
L 138.139014 290.155345 
L 138.30783 290.18765 
L 138.450676 290.301395 
L 138.535084 290.37579 
L 138.645464 290.375695 
L 138.651957 290.37186 
L 138.840253 290.432625 
L 139.119451 290.542852 
L 139.450592 290.587126 
L 140.677761 290.974139 
L 140.885536 290.99724 
L 141.651705 291.316183 
L 141.917917 291.353254 
L 142.041283 291.356367 
L 142.982762 291.582148 
L 143.106129 291.654703 
L 143.274946 291.692478 
L 143.378833 291.729651 
L 143.398312 291.721104 
L 143.554143 291.784764 
L 143.768411 291.86996 
L 143.976185 291.923798 
L 144.261876 292.117198 
L 144.560552 292.25609 
L 144.670932 292.316839 
L 144.683918 292.307234 
L 144.872214 292.33464 
L 145.216341 292.418603 
L 145.391651 292.438445 
L 145.528003 292.44307 
L 145.690327 292.555276 
L 145.820186 292.656531 
L 146.092891 292.695935 
L 146.248722 292.783539 
L 146.579863 292.853429 
L 147.261624 293.091865 
L 147.618737 293.110588 
L 148.092723 293.209668 
L 148.248554 293.221111 
L 148.37192 293.231066 
L 148.566709 293.25944 
L 148.703061 293.264118 
L 148.871878 293.283091 
L 149.293921 293.469833 
L 149.436766 293.521146 
L 149.612076 293.531294 
L 149.871794 293.552706 
L 150.76133 293.737779 
L 150.891189 293.8154 
L 151.027541 293.865677 
L 151.176879 293.90199 
L 151.436598 293.921005 
L 151.559964 293.96713 
L 151.767739 294.004743 
L 152.046936 294.125519 
L 152.339119 294.189851 
L 152.410542 294.216001 
L 152.430021 294.256708 
L 152.62481 294.313375 
L 152.806613 294.351772 
L 152.9105 294.386423 
L 152.929979 294.372335 
L 153.02088 294.432571 
L 153.150739 294.486858 
L 154.202599 294.572413 
L 154.351937 294.602014 
L 154.77398 294.534051 
L 154.962276 294.540213 
L 155.092135 294.576128 
L 155.098628 294.572437 
L 155.41029 294.560126 
L 155.559628 294.601088 
L 156.072572 294.712925 
L 156.202431 294.744816 
L 156.410206 294.785228 
L 156.533572 294.767772 
L 156.663431 294.806095 
L 158.039939 294.938929 
L 158.760658 294.938643 
L 158.903503 294.940559 
L 159.254123 295.029834 
L 159.403461 295.078344 
L 159.767067 295.16927 
L 159.88394 295.253668 
L 159.890433 295.251639 
L 160.16963 295.302129 
L 161.74742 295.389709 
L 161.981166 295.36003 
L 162.156476 295.339983 
L 162.292829 295.371779 
L 162.468139 295.34306 
L 162.753829 295.322469 
L 162.922646 295.322109 
L 167.006718 295.396149 
L 167.156056 295.381996 
L 167.688479 295.355212 
L 167.948198 295.359671 
L 168.123508 295.349525 
L 168.233888 295.369155 
L 168.246874 295.360403 
L 168.461142 295.372588 
L 169.24679 295.40143 
L 169.396128 295.424284 
L 169.746748 295.438732 
L 170.175283 295.300354 
L 182.050909 294.259722 
L 182.252191 294.225804 
L 182.258684 294.23918 
L 182.537881 294.188666 
L 183.700121 294.088814 
L 183.816994 294.079383 
L 184.089699 294.04378 
L 184.206572 294.060312 
L 184.213065 294.055093 
L 184.940277 293.951164 
L 186.875179 293.726171 
L 187.037503 293.724924 
L 187.277743 293.691757 
L 188.037419 293.646408 
L 188.180264 293.626838 
L 188.414011 293.604483 
L 190.043744 293.368872 
L 190.23204 293.360882 
L 190.361899 293.345168 
L 190.946266 293.233056 
L 191.173519 293.22925 
L 191.543618 293.197286 
L 192.03059 293.183944 
L 192.160449 293.204919 
L 192.407182 293.167646 
L 193.205816 293.104376 
L 193.335675 293.107527 
L 193.342168 293.102158 
L 193.530464 293.133288 
L 193.647338 293.288289 
L 193.679802 293.275398 
L 193.89407 293.2591 
L 194.166774 293.575109 
L 194.17976 293.566303 
L 194.218718 293.572125 
L 194.335591 293.722018 
L 195.186169 293.78829 
L 195.491338 293.735063 
L 195.621198 293.723645 
L 196.341916 293.603257 
L 196.582156 293.557475 
L 197.108086 293.433096 
L 197.211973 293.468154 
L 197.224959 293.463483 
L 197.744396 293.349714 
L 197.932692 293.324889 
L 198.965073 293.015177 
L 199.737735 292.808193 
L 199.939017 292.764451 
L 200.354566 292.680037 
L 200.614285 292.622384 
L 200.880496 292.600957 
L 201.120736 292.54853 
L 201.614201 292.42169 
L 201.906384 292.425988 
L 202.133638 292.433834 
L 202.276483 292.419145 
L 202.601131 292.359835 
L 202.912793 292.258278 
L 204.17892 292.011093 
L 204.334751 292.006586 
L 204.59447 291.965721 
L 204.776273 291.951087 
L 204.977555 291.927824 
L 205.808654 291.766377 
L 206.139795 291.691256 
L 206.178752 291.713157 
L 206.250175 291.686797 
L 206.490414 291.690898 
L 206.841034 291.619594 
L 208.633092 291.349915 
L 211.905544 290.575187 
L 212.249671 290.472708 
L 212.373037 290.454757 
L 212.632756 290.383186 
L 213.054798 290.266949 
L 213.184657 290.244012 
L 214.346897 289.986291 
L 214.587137 289.924802 
L 214.976715 289.852068 
L 215.353306 289.778223 
L 215.723405 289.673067 
L 216.022081 289.616208 
L 216.10649 289.617236 
L 216.132462 289.599312 
L 216.353222 289.541567 
L 216.619434 289.463851 
L 216.749293 289.410814 
L 217.255744 289.270474 
L 217.424561 289.257565 
L 217.697265 289.172863 
L 218.041392 289.063756 
L 218.502392 288.9098 
L 218.853012 288.813566 
L 219.093252 288.768018 
L 220.158097 288.440872 
L 220.495731 288.38288 
L 220.898295 288.275716 
L 221.10607 288.250571 
L 221.787831 288.064822 
L 222.099493 288.018547 
L 222.456606 287.878473 
L 222.579972 287.862435 
L 222.911113 287.763754 
L 223.047465 287.719804 
L 223.729226 287.524646 
L 224.521367 287.328874 
L 226.845847 286.67805 
L 226.995185 286.655765 
L 230.033891 285.82945 
L 230.183229 285.829504 
L 230.637737 285.661475 
L 231.033807 285.5755 
L 231.546751 285.441306 
L 231.657132 285.422248 
L 232.007751 285.270716 
L 234.30626 284.60201 
L 234.436119 284.559879 
L 234.981528 284.398869 
L 235.104894 284.363392 
L 235.650303 284.165985 
L 236.000922 284.079119 
L 236.416472 283.972903 
L 236.682683 283.8817 
L 237.474825 283.605466 
L 237.83843 283.4938 
L 240.968038 282.53317 
L 241.091404 282.482869 
L 241.429038 282.351801 
L 241.56539 282.320882 
L 242.338052 281.998412 
L 242.799053 281.863977 
L 243.006827 281.790427 
L 243.311997 281.672903 
L 243.565222 281.577843 
L 243.850912 281.488907 
L 244.013236 281.422779 
L 245.201448 280.944789 
L 245.324815 280.905251 
L 246.071505 280.652261 
L 246.363688 280.52569 
L 246.902604 280.337256 
L 247.331139 280.188329 
L 247.66228 280.089143 
L 247.79214 280.057334 
L 249.253056 279.60029 
L 249.52576 279.504858 
L 250.019225 279.322037 
L 250.558141 279.144065 
L 251.116536 278.927164 
L 251.246395 278.886069 
L 251.421705 278.813632 
L 251.733367 278.698008 
L 251.869719 278.664934 
L 252.168395 278.550865 
L 252.395649 278.460273 
L 253.992918 277.851526 
L 254.220171 277.778569 
L 254.583777 277.636609 
L 255.791468 277.218896 
L 256.129102 277.096449 
L 256.888778 276.81334 
L 256.999158 276.79042 
L 260.369005 275.50212 
L 261.128682 275.221098 
L 261.284513 275.163827 
L 269.705883 271.985711 
L 270.088968 271.82035 
L 270.212334 271.786545 
L 291.879345 263.00504 
L 292.32736 262.7764 
L 293.820741 262.233539 
L 294.30122 262.060383 
L 295.021938 261.748515 
L 295.294643 261.6592 
L 296.158207 261.265417 
L 302.15121 258.506964 
L 302.910886 258.195223 
L 303.021266 258.16358 
L 303.59914 257.919311 
L 304.092605 257.690091 
L 304.787352 257.370388 
L 304.995127 257.277847 
L 305.650916 256.995646 
L 305.865183 256.891679 
L 306.241775 256.736611 
L 306.865099 256.49691 
L 307.209226 256.318385 
L 308.339002 255.778312 
L 308.462368 255.745032 
L 308.936354 255.524897 
L 309.338918 255.354269 
L 310.520636 254.792076 
L 310.644003 254.746568 
L 311.767285 254.263598 
L 312.19582 254.070803 
L 314.020342 253.231816 
L 315.364385 252.584296 
L 315.92278 252.319619 
L 316.03316 252.272161 
L 316.786344 251.906826 
L 317.169429 251.74096 
L 319.019922 250.908923 
L 319.182246 250.862119 
L 330.544928 245.679611 
L 331.018914 245.460706 
L 331.129295 245.408625 
L 332.726563 244.644852 
L 355.867476 233.583432 
L 357.049195 233.010154 
L 357.945224 232.582355 
L 359.250309 231.955884 
L 359.438605 231.866753 
L 360.341127 231.404049 
L 365.671848 228.779704 
L 366.489961 228.356825 
L 368.262539 227.524295 
L 369.541652 226.895388 
L 369.710469 226.818495 
L 371.470062 225.971006 
L 371.68433 225.882175 
L 372.301161 225.576421 
L 391.708621 215.83136 
L 392.877354 215.243597 
L 393.357833 214.99899 
L 395.305722 214.034103 
L 396.338103 213.48291 
L 398.487273 212.386332 
L 398.487273 212.386332 
" style="fill:none;stroke:#1f77b4;stroke-linecap:square;stroke-width:1.5;"/>
   </g>
   <g id="patch_3">
    <path d="M 57.6 307.584 
L 57.6 41.472 
" style="fill:none;stroke:#000000;stroke-linecap:square;stroke-linejoin:miter;stroke-width:0.8;"/>
   </g>
   <g id="patch_4">
    <path d="M 414.72 307.584 
L 414.72 41.472 
" style="fill:none;stroke:#000000;stroke-linecap:square;stroke-linejoin:miter;stroke-width:0.8;"/>
   </g>
   <g id="patch_5">
    <path d="M 57.6 307.584 
L 414.72 307.584 
" style="fill:none;stroke:#000000;stroke-linecap:square;stroke-linejoin:miter;stroke-width:0.8;"/>
   </g>
   <g id="patch_6">
    <path d="M 57.6 41.472 
L 414.72 41.472 
" style="fill:none;stroke:#000000;stroke-linecap:square;stroke-linejoin:miter;stroke-width:0.8;"/>
   </g>
  </g>
 </g>
 <defs>
  <clipPath id="pc07138f6aa">
   <rect height="266.112" width="357.12" x="57.6" y="41.472"/>
  </clipPath>
 </defs>
</svg>
