<?xml version="1.0" encoding="utf-8" standalone="no"?>
<!DOCTYPE svg PUBLIC "-//W3C//DTD SVG 1.1//EN"
  "http://www.w3.org/Graphics/SVG/1.1/DTD/svg11.dtd">
<!-- Created with matplotlib (http://matplotlib.org/) -->
<svg height="345.6pt" version="1.1" viewBox="0 0 460.8 345.6" width="460.8pt" xmlns="http://www.w3.org/2000/svg" xmlns:xlink="http://www.w3.org/1999/xlink">
 <defs>
  <style type="text/css">
*{stroke-linecap:butt;stroke-linejoin:round;}
  </style>
 </defs>
 <g id="figure_1">
  <g id="patch_1">
   <path d="M 0 345.6 
L 460.8 345.6 
L 460.8 0 
L 0 0 
z
" style="fill:#ffffff;"/>
  </g>
  <g id="axes_1">
   <g id="patch_2">
    <path d="M 57.6 307.584 
L 414.72 307.584 
L 414.72 41.472 
L 57.6 41.472 
z
" style="fill:#ffffff;"/>
   </g>
   <g id="matplotlib.axis_1">
    <g id="xtick_1">
     <g id="line2d_1">
      <defs>
       <path d="M 0 0 
L 0 3.5 
" id="m33aad8d36a" style="stroke:#000000;stroke-width:0.8;"/>
      </defs>
      <g>
       <use style="stroke:#000000;stroke-width:0.8;" x="73.832727" xlink:href="#m33aad8d36a" y="307.584"/>
      </g>
     </g>
     <g id="text_1">
      <!-- 0 -->
      <defs>
       <path d="M 3.125 29.296875 
Q 3.90625 50 6.4375 56.046875 
Q 8.984375 62.109375 13.671875 66.015625 
Q 18.359375 69.921875 25.1875 69.921875 
Q 32.03125 69.921875 37.109375 64.25 
Q 42.1875 58.59375 43.75 50 
Q 45.3125 41.40625 44.71875 30.265625 
Q 44.140625 19.140625 40.8125 12.109375 
Q 37.5 5.078125 30.859375 2.34375 
Q 24.21875 -0.390625 17.578125 2.921875 
Q 10.9375 6.25 8.203125 11.71875 
Q 5.46875 17.1875 4.296875 23.234375 
Q 3.125 29.296875 3.90625 50 
z
M 12.890625 52.734375 
Q 10.546875 31.25 12.5 22.84375 
Q 14.453125 14.453125 18.9375 10.9375 
Q 23.4375 7.421875 28.125 9.5625 
Q 32.8125 11.71875 34.953125 18.15625 
Q 37.109375 24.609375 37.109375 32.21875 
Q 37.109375 39.84375 36.515625 46.09375 
Q 35.9375 52.34375 33 57.421875 
Q 30.078125 62.5 25.1875 62.6875 
Q 20.3125 62.890625 16.59375 57.8125 
Q 12.890625 52.734375 10.546875 31.25 
z
" id="SimHei-30"/>
      </defs>
      <g transform="translate(70.582727 323.5215)scale(0.13 -0.13)">
       <use xlink:href="#SimHei-30"/>
      </g>
     </g>
    </g>
    <g id="xtick_2">
     <g id="line2d_2">
      <g>
       <use style="stroke:#000000;stroke-width:0.8;" x="138.762338" xlink:href="#m33aad8d36a" y="307.584"/>
      </g>
     </g>
     <g id="text_2">
      <!-- 1 -->
      <defs>
       <path d="M 21.875 56.25 
Q 16.796875 51.171875 8.984375 46.484375 
L 8.984375 53.90625 
Q 18.75 60.546875 25 69.53125 
L 29.6875 69.53125 
L 29.6875 2.34375 
L 21.875 2.34375 
z
" id="SimHei-31"/>
      </defs>
      <g transform="translate(135.512338 323.5215)scale(0.13 -0.13)">
       <use xlink:href="#SimHei-31"/>
      </g>
     </g>
    </g>
    <g id="xtick_3">
     <g id="line2d_3">
      <g>
       <use style="stroke:#000000;stroke-width:0.8;" x="203.691948" xlink:href="#m33aad8d36a" y="307.584"/>
      </g>
     </g>
     <g id="text_3">
      <!-- 2 -->
      <defs>
       <path d="M 4.6875 3.90625 
Q 5.078125 9.765625 10.15625 14.453125 
Q 15.234375 19.140625 23.046875 29.09375 
Q 30.859375 39.0625 33.203125 44.53125 
Q 35.546875 50 34.953125 53.90625 
Q 34.375 57.8125 31.25 60.34375 
Q 28.125 62.890625 24.015625 62.5 
Q 19.921875 62.109375 16.203125 59.375 
Q 12.5 56.640625 10.546875 51.171875 
L 3.125 52.34375 
Q 6.25 61.328125 11.125 65.421875 
Q 16.015625 69.53125 22.65625 69.921875 
Q 26.5625 70.3125 29.6875 69.71875 
Q 32.8125 69.140625 36.125 66.984375 
Q 39.453125 64.84375 41.59375 60.546875 
Q 43.75 56.25 43.15625 50.1875 
Q 42.578125 44.140625 37.109375 35.734375 
Q 31.640625 27.34375 16.015625 9.375 
L 44.140625 9.375 
L 44.140625 2.34375 
L 4.6875 2.34375 
z
" id="SimHei-32"/>
      </defs>
      <g transform="translate(200.441948 323.5215)scale(0.13 -0.13)">
       <use xlink:href="#SimHei-32"/>
      </g>
     </g>
    </g>
    <g id="xtick_4">
     <g id="line2d_4">
      <g>
       <use style="stroke:#000000;stroke-width:0.8;" x="268.621559" xlink:href="#m33aad8d36a" y="307.584"/>
      </g>
     </g>
     <g id="text_4">
      <!-- 3 -->
      <defs>
       <path d="M 3.90625 19.140625 
L 10.9375 20.3125 
Q 12.5 15.234375 16.015625 11.90625 
Q 19.53125 8.59375 24.796875 8.78125 
Q 30.078125 8.984375 33.203125 13.078125 
Q 36.328125 17.1875 35.9375 22.453125 
Q 35.546875 27.734375 31.828125 30.65625 
Q 28.125 33.59375 19.921875 34.765625 
L 19.921875 39.84375 
Q 28.125 40.625 31.828125 44.140625 
Q 35.546875 47.65625 35.15625 53.3125 
Q 34.765625 58.984375 30.078125 61.515625 
Q 25.390625 64.0625 20.109375 62.109375 
Q 14.84375 60.15625 11.71875 51.171875 
L 4.6875 52.34375 
Q 7.03125 59.375 11.125 64.0625 
Q 15.234375 68.75 22.265625 69.53125 
Q 29.296875 70.3125 34.5625 67.765625 
Q 39.84375 65.234375 41.984375 59.953125 
Q 44.140625 54.6875 42.578125 48.4375 
Q 41.015625 42.1875 33.59375 37.5 
Q 39.0625 35.15625 41.984375 30.46875 
Q 44.921875 25.78125 43.9375 18.15625 
Q 42.96875 10.546875 37.109375 5.859375 
Q 31.25 1.171875 23.828125 1.359375 
Q 16.40625 1.5625 10.9375 6.046875 
Q 5.46875 10.546875 3.90625 19.140625 
z
" id="SimHei-33"/>
      </defs>
      <g transform="translate(265.371559 323.5215)scale(0.13 -0.13)">
       <use xlink:href="#SimHei-33"/>
      </g>
     </g>
    </g>
    <g id="xtick_5">
     <g id="line2d_5">
      <g>
       <use style="stroke:#000000;stroke-width:0.8;" x="333.551169" xlink:href="#m33aad8d36a" y="307.584"/>
      </g>
     </g>
     <g id="text_5">
      <!-- 4 -->
      <defs>
       <path d="M 31.25 17.1875 
L 1.171875 17.1875 
L 1.171875 23.828125 
L 32.8125 69.53125 
L 38.671875 69.53125 
L 38.671875 23.828125 
L 48.046875 23.828125 
L 48.046875 17.1875 
L 38.671875 17.1875 
L 38.671875 2.34375 
L 31.25 2.34375 
z
M 31.25 23.828125 
L 31.25 54.6875 
L 9.375 23.828125 
z
" id="SimHei-34"/>
      </defs>
      <g transform="translate(330.301169 323.5215)scale(0.13 -0.13)">
       <use xlink:href="#SimHei-34"/>
      </g>
     </g>
    </g>
    <g id="xtick_6">
     <g id="line2d_6">
      <g>
       <use style="stroke:#000000;stroke-width:0.8;" x="398.48078" xlink:href="#m33aad8d36a" y="307.584"/>
      </g>
     </g>
     <g id="text_6">
      <!-- 5 -->
      <defs>
       <path d="M 8.59375 20.703125 
Q 11.328125 10.15625 17.96875 8.984375 
Q 24.609375 7.8125 28.703125 10.34375 
Q 32.8125 12.890625 34.5625 16.984375 
Q 36.328125 21.09375 36.125 26.171875 
Q 35.9375 31.25 33.390625 34.765625 
Q 30.859375 38.28125 26.953125 39.453125 
Q 23.046875 40.625 18.15625 39.453125 
Q 13.28125 38.28125 10.15625 33.984375 
L 3.515625 34.765625 
Q 4.296875 37.109375 10.9375 68.359375 
L 41.796875 68.359375 
L 41.796875 61.328125 
L 16.796875 61.328125 
Q 14.84375 50.78125 12.890625 44.53125 
Q 18.75 47.265625 23.828125 47.0625 
Q 28.90625 46.875 33.59375 44.71875 
Q 38.28125 42.578125 40.421875 38.859375 
Q 42.578125 35.15625 43.546875 31.4375 
Q 44.53125 27.734375 44.328125 23.4375 
Q 44.140625 19.140625 42.578125 14.640625 
Q 41.015625 10.15625 37.890625 7.21875 
Q 34.765625 4.296875 30.265625 2.53125 
Q 25.78125 0.78125 19.921875 1.171875 
Q 14.0625 1.5625 8.78125 5.46875 
Q 3.515625 9.375 1.5625 18.75 
z
" id="SimHei-35"/>
      </defs>
      <g transform="translate(395.23078 323.5215)scale(0.13 -0.13)">
       <use xlink:href="#SimHei-35"/>
      </g>
     </g>
    </g>
    <g id="text_7">
     <!-- Episode/k -->
     <defs>
      <path d="M 45.3125 1.953125 
L 5.46875 1.953125 
L 5.46875 68.75 
L 43.359375 68.75 
L 43.359375 61.328125 
L 14.453125 61.328125 
L 14.453125 40.625 
L 41.015625 40.625 
L 41.015625 33.203125 
L 14.453125 33.203125 
L 14.453125 9.375 
L 45.3125 9.375 
z
" id="SimHei-45"/>
      <path d="M 44.140625 23.828125 
Q 44.140625 12.5 38.671875 6.640625 
Q 33.203125 0.78125 25.390625 0.78125 
Q 21.09375 0.78125 17.96875 2.53125 
Q 14.84375 4.296875 12.5 7.8125 
L 12.5 -12.5 
L 4.6875 -12.5 
L 4.6875 45.703125 
L 12.5 45.703125 
L 12.5 39.84375 
Q 14.84375 43.359375 17.96875 44.921875 
Q 21.09375 46.484375 25.390625 46.484375 
Q 33.203125 46.484375 38.671875 40.8125 
Q 44.140625 35.15625 44.140625 23.828125 
z
M 35.546875 23.828125 
Q 35.546875 31.25 32.609375 35.34375 
Q 29.6875 39.453125 23.828125 39.453125 
Q 19.140625 39.453125 15.8125 35.34375 
Q 12.5 31.25 12.5 23.828125 
Q 12.5 16.40625 15.8125 12.109375 
Q 19.140625 7.8125 23.828125 7.8125 
Q 29.6875 7.8125 32.609375 12.109375 
Q 35.546875 16.40625 35.546875 23.828125 
z
" id="SimHei-70"/>
      <path d="M 28.125 58.203125 
L 20.3125 58.203125 
L 20.3125 68.359375 
L 28.125 68.359375 
z
M 28.125 1.953125 
L 20.3125 1.953125 
L 20.3125 45.703125 
L 28.125 45.703125 
z
" id="SimHei-69"/>
      <path d="M 42.96875 14.0625 
Q 42.96875 7.8125 38.078125 4.484375 
Q 33.203125 1.171875 25.78125 1.171875 
Q 16.40625 1.171875 11.328125 4.875 
Q 6.25 8.59375 6.25 15.625 
L 14.0625 15.625 
Q 14.0625 10.9375 17.375 9.375 
Q 20.703125 7.8125 25.390625 7.8125 
Q 30.078125 7.8125 32.421875 9.5625 
Q 34.765625 11.328125 34.765625 14.0625 
Q 34.765625 16.015625 32.8125 17.96875 
Q 30.859375 19.921875 23.046875 21.09375 
Q 14.0625 22.265625 10.734375 25.578125 
Q 7.421875 28.90625 7.421875 34.375 
Q 7.421875 39.0625 11.90625 42.765625 
Q 16.40625 46.484375 25 46.484375 
Q 32.8125 46.484375 37.296875 42.96875 
Q 41.796875 39.453125 41.796875 33.59375 
L 33.984375 33.59375 
Q 33.984375 37.109375 31.4375 38.46875 
Q 28.90625 39.84375 25 39.84375 
Q 19.921875 39.84375 17.765625 38.078125 
Q 15.625 36.328125 15.625 33.984375 
Q 15.625 31.25 17.578125 29.6875 
Q 19.53125 28.125 25.78125 27.34375 
Q 35.9375 25.78125 39.453125 22.453125 
Q 42.96875 19.140625 42.96875 14.0625 
z
" id="SimHei-73"/>
      <path d="M 45.703125 23.828125 
Q 45.703125 13.671875 39.453125 7.421875 
Q 33.203125 1.171875 24.609375 1.171875 
Q 16.015625 1.171875 9.765625 7.421875 
Q 3.515625 13.671875 3.515625 23.828125 
Q 3.515625 33.984375 9.765625 40.234375 
Q 16.015625 46.484375 24.609375 46.484375 
Q 33.203125 46.484375 39.453125 40.234375 
Q 45.703125 33.984375 45.703125 23.828125 
z
M 37.109375 23.828125 
Q 37.109375 31.640625 33.203125 35.546875 
Q 29.296875 39.453125 24.609375 39.453125 
Q 19.921875 39.453125 16.015625 35.546875 
Q 12.109375 31.640625 12.109375 23.828125 
Q 12.109375 16.015625 16.015625 12.109375 
Q 19.921875 8.203125 24.609375 8.203125 
Q 29.296875 8.203125 33.203125 12.109375 
Q 37.109375 16.015625 37.109375 23.828125 
z
" id="SimHei-6f"/>
      <path d="M 42.96875 1.953125 
L 35.15625 1.953125 
L 35.15625 7.8125 
Q 32.8125 4.296875 29.6875 2.734375 
Q 26.5625 1.171875 22.265625 1.171875 
Q 14.453125 1.171875 8.984375 6.828125 
Q 3.515625 12.5 3.515625 23.828125 
Q 3.515625 35.15625 8.984375 41.015625 
Q 14.453125 46.875 22.265625 46.875 
Q 26.5625 46.875 29.6875 45.109375 
Q 32.8125 43.359375 35.15625 39.84375 
L 35.15625 68.75 
L 42.96875 68.75 
z
M 35.15625 23.828125 
Q 35.15625 31.25 31.828125 35.546875 
Q 28.515625 39.84375 23.828125 39.84375 
Q 17.96875 39.84375 15.03125 35.546875 
Q 12.109375 31.25 12.109375 23.828125 
Q 12.109375 16.40625 15.03125 12.296875 
Q 17.96875 8.203125 23.828125 8.203125 
Q 28.515625 8.203125 31.828125 12.296875 
Q 35.15625 16.40625 35.15625 23.828125 
z
" id="SimHei-64"/>
      <path d="M 44.53125 16.796875 
Q 43.75 9.765625 38.28125 5.46875 
Q 32.8125 1.171875 25.390625 1.171875 
Q 16.015625 1.171875 9.953125 7.21875 
Q 3.90625 13.28125 3.90625 23.828125 
Q 3.90625 34.375 9.953125 40.421875 
Q 16.015625 46.484375 25.390625 46.484375 
Q 33.59375 46.484375 38.859375 41.203125 
Q 44.140625 35.9375 44.140625 23.828125 
L 12.5 23.828125 
Q 12.5 15.234375 16.203125 11.71875 
Q 19.921875 8.203125 25.390625 8.203125 
Q 29.6875 8.203125 32.421875 10.34375 
Q 35.15625 12.5 35.9375 16.796875 
z
M 35.15625 30.078125 
Q 34.375 35.546875 31.640625 37.6875 
Q 28.90625 39.84375 24.609375 39.84375 
Q 20.703125 39.84375 17.578125 37.6875 
Q 14.453125 35.546875 12.890625 30.078125 
z
" id="SimHei-65"/>
      <path d="M 46.875 71.09375 
L 5.46875 -2.734375 
L 1.5625 -0.390625 
L 42.96875 73.4375 
z
" id="SimHei-2f"/>
      <path d="M 45.703125 1.953125 
L 36.71875 1.953125 
L 22.65625 25.78125 
L 13.671875 17.1875 
L 13.671875 1.953125 
L 5.859375 1.953125 
L 5.859375 68.75 
L 13.671875 68.75 
L 13.671875 26.171875 
L 33.203125 45.703125 
L 42.96875 45.703125 
L 27.734375 30.859375 
z
" id="SimHei-6b"/>
     </defs>
     <g transform="translate(202.41 340.162125)scale(0.15 -0.15)">
      <use xlink:href="#SimHei-45"/>
      <use x="50" xlink:href="#SimHei-70"/>
      <use x="100" xlink:href="#SimHei-69"/>
      <use x="150" xlink:href="#SimHei-73"/>
      <use x="200" xlink:href="#SimHei-6f"/>
      <use x="250" xlink:href="#SimHei-64"/>
      <use x="300" xlink:href="#SimHei-65"/>
      <use x="350" xlink:href="#SimHei-2f"/>
      <use x="400" xlink:href="#SimHei-6b"/>
     </g>
    </g>
    <g id="text_8">
     <!-- 1e4 -->
     <g transform="translate(399.72 335.0215)scale(0.1 -0.1)">
      <use xlink:href="#SimHei-31"/>
      <use x="50" xlink:href="#SimHei-65"/>
      <use x="100" xlink:href="#SimHei-34"/>
     </g>
    </g>
   </g>
   <g id="matplotlib.axis_2">
    <g id="ytick_1">
     <g id="line2d_7">
      <defs>
       <path d="M 0 0 
L -3.5 0 
" id="m499080b6c4" style="stroke:#000000;stroke-width:0.8;"/>
      </defs>
      <g>
       <use style="stroke:#000000;stroke-width:0.8;" x="57.6" xlink:href="#m499080b6c4" y="300.410223"/>
      </g>
     </g>
     <g id="text_9">
      <!-- -5 -->
      <defs>
       <path d="M 46.484375 33.203125 
L 1.953125 33.203125 
L 1.953125 39.453125 
L 46.484375 39.453125 
z
" id="SimHei-2d"/>
      </defs>
      <g transform="translate(37.6 304.878973)scale(0.13 -0.13)">
       <use xlink:href="#SimHei-2d"/>
       <use x="50" xlink:href="#SimHei-35"/>
      </g>
     </g>
    </g>
    <g id="ytick_2">
     <g id="line2d_8">
      <g>
       <use style="stroke:#000000;stroke-width:0.8;" x="57.6" xlink:href="#m499080b6c4" y="251.041778"/>
      </g>
     </g>
     <g id="text_10">
      <!-- -4 -->
      <g transform="translate(37.6 255.510528)scale(0.13 -0.13)">
       <use xlink:href="#SimHei-2d"/>
       <use x="50" xlink:href="#SimHei-34"/>
      </g>
     </g>
    </g>
    <g id="ytick_3">
     <g id="line2d_9">
      <g>
       <use style="stroke:#000000;stroke-width:0.8;" x="57.6" xlink:href="#m499080b6c4" y="201.673334"/>
      </g>
     </g>
     <g id="text_11">
      <!-- -3 -->
      <g transform="translate(37.6 206.142084)scale(0.13 -0.13)">
       <use xlink:href="#SimHei-2d"/>
       <use x="50" xlink:href="#SimHei-33"/>
      </g>
     </g>
    </g>
    <g id="ytick_4">
     <g id="line2d_10">
      <g>
       <use style="stroke:#000000;stroke-width:0.8;" x="57.6" xlink:href="#m499080b6c4" y="152.304889"/>
      </g>
     </g>
     <g id="text_12">
      <!-- -2 -->
      <g transform="translate(37.6 156.773639)scale(0.13 -0.13)">
       <use xlink:href="#SimHei-2d"/>
       <use x="50" xlink:href="#SimHei-32"/>
      </g>
     </g>
    </g>
    <g id="ytick_5">
     <g id="line2d_11">
      <g>
       <use style="stroke:#000000;stroke-width:0.8;" x="57.6" xlink:href="#m499080b6c4" y="102.936445"/>
      </g>
     </g>
     <g id="text_13">
      <!-- -1 -->
      <g transform="translate(37.6 107.405195)scale(0.13 -0.13)">
       <use xlink:href="#SimHei-2d"/>
       <use x="50" xlink:href="#SimHei-31"/>
      </g>
     </g>
    </g>
    <g id="ytick_6">
     <g id="line2d_12">
      <g>
       <use style="stroke:#000000;stroke-width:0.8;" x="57.6" xlink:href="#m499080b6c4" y="53.568"/>
      </g>
     </g>
     <g id="text_14">
      <!-- 0 -->
      <g transform="translate(44.1 58.03675)scale(0.13 -0.13)">
       <use xlink:href="#SimHei-30"/>
      </g>
     </g>
    </g>
    <g id="text_15">
     <!-- Cumulative -->
     <defs>
      <path d="M 46.484375 28.515625 
Q 46.09375 13.671875 40.234375 7.421875 
Q 34.375 1.171875 26.171875 1.171875 
Q 16.796875 1.171875 10.15625 8.78125 
Q 3.515625 16.40625 3.515625 33.203125 
Q 3.515625 51.5625 9.953125 60.546875 
Q 16.40625 69.53125 26.5625 69.53125 
Q 35.15625 69.53125 40.8125 63.078125 
Q 46.484375 56.640625 46.09375 44.921875 
L 37.5 44.921875 
Q 37.5 53.515625 34.765625 57.8125 
Q 32.03125 62.109375 26.5625 62.109375 
Q 20.3125 62.109375 16.59375 55.65625 
Q 12.890625 49.21875 12.890625 33.984375 
Q 12.890625 19.921875 16.59375 14.25 
Q 20.3125 8.59375 26.171875 8.59375 
Q 30.46875 8.59375 33.984375 12.6875 
Q 37.5 16.796875 37.5 28.515625 
z
" id="SimHei-43"/>
      <path d="M 43.75 1.953125 
L 35.9375 1.953125 
L 35.9375 10.15625 
Q 32.8125 5.859375 29.09375 3.515625 
Q 25.390625 1.171875 19.53125 1.171875 
Q 12.5 1.171875 8.984375 5.078125 
Q 5.46875 8.984375 5.46875 14.84375 
L 5.46875 45.703125 
L 13.28125 45.703125 
L 13.28125 17.578125 
Q 13.28125 12.890625 15.625 10.15625 
Q 17.96875 7.421875 21.875 7.421875 
Q 26.953125 7.421875 31.4375 12.6875 
Q 35.9375 17.96875 35.9375 25.78125 
L 35.9375 45.703125 
L 43.75 45.703125 
z
" id="SimHei-75"/>
      <path d="M 47.65625 1.953125 
L 39.84375 1.953125 
L 39.84375 33.59375 
Q 39.84375 35.9375 39.0625 37.5 
Q 38.28125 39.0625 35.9375 39.0625 
Q 33.203125 39.0625 30.859375 36.125 
Q 28.515625 33.203125 28.515625 28.515625 
L 28.515625 1.953125 
L 20.703125 1.953125 
L 20.703125 33.59375 
Q 20.703125 35.9375 19.921875 37.5 
Q 19.140625 39.0625 16.796875 39.0625 
Q 14.0625 39.0625 11.71875 36.125 
Q 9.375 33.203125 9.375 28.515625 
L 9.375 1.953125 
L 1.5625 1.953125 
L 1.5625 45.703125 
L 9.375 45.703125 
L 9.375 39.84375 
Q 11.328125 42.96875 14.0625 44.71875 
Q 16.796875 46.484375 19.921875 46.484375 
Q 23.046875 46.484375 25.1875 44.71875 
Q 27.34375 42.96875 28.125 39.84375 
Q 30.078125 42.96875 32.609375 44.71875 
Q 35.15625 46.484375 38.28125 46.484375 
Q 42.96875 46.484375 45.3125 43.9375 
Q 47.65625 41.40625 47.65625 36.71875 
z
" id="SimHei-6d"/>
      <path d="M 28.515625 1.953125 
L 20.703125 1.953125 
L 20.703125 68.75 
L 28.515625 68.75 
z
" id="SimHei-6c"/>
      <path d="M 44.921875 1.953125 
L 35.546875 1.953125 
Q 34.765625 2.734375 34.375 4.09375 
Q 33.984375 5.46875 33.984375 7.421875 
Q 31.25 4.296875 27.34375 2.734375 
Q 23.4375 1.171875 19.140625 1.171875 
Q 12.890625 1.171875 8.59375 4.296875 
Q 4.296875 7.421875 4.296875 13.28125 
Q 4.296875 19.140625 8.203125 22.65625 
Q 12.109375 26.171875 20.3125 27.34375 
Q 25.78125 28.125 29.875 29.296875 
Q 33.984375 30.46875 33.984375 32.421875 
Q 33.984375 34.765625 32.21875 37.109375 
Q 30.46875 39.453125 24.609375 39.453125 
Q 19.921875 39.453125 17.765625 37.6875 
Q 15.625 35.9375 14.84375 32.8125 
L 6.25 32.8125 
Q 7.03125 39.0625 11.90625 42.765625 
Q 16.796875 46.484375 24.609375 46.484375 
Q 33.203125 46.484375 37.5 42.578125 
Q 41.796875 38.671875 41.796875 31.640625 
L 41.796875 10.15625 
Q 41.796875 7.8125 42.578125 5.859375 
Q 43.359375 3.90625 44.921875 1.953125 
z
M 33.984375 16.40625 
L 33.984375 24.21875 
Q 31.640625 23.4375 29.484375 22.84375 
Q 27.34375 22.265625 22.265625 21.484375 
Q 16.40625 20.703125 14.640625 18.75 
Q 12.890625 16.796875 12.890625 14.0625 
Q 12.890625 11.71875 14.640625 9.953125 
Q 16.40625 8.203125 19.921875 8.203125 
Q 23.4375 8.203125 27.53125 10.15625 
Q 31.640625 12.109375 33.984375 16.40625 
z
" id="SimHei-61"/>
      <path d="M 42.96875 3.125 
Q 41.015625 2.34375 38.46875 1.75 
Q 35.9375 1.171875 31.640625 1.171875 
Q 24.609375 1.171875 20.3125 5.078125 
Q 16.015625 8.984375 16.015625 16.015625 
L 16.015625 39.453125 
L 2.734375 39.453125 
L 2.734375 45.703125 
L 16.015625 45.703125 
L 16.015625 60.9375 
L 23.828125 60.9375 
L 23.828125 45.703125 
L 39.84375 45.703125 
L 39.84375 39.453125 
L 23.828125 39.453125 
L 23.828125 15.625 
Q 23.828125 12.5 25.390625 10.34375 
Q 26.953125 8.203125 31.25 8.203125 
Q 35.546875 8.203125 38.28125 8.984375 
Q 41.015625 9.765625 42.96875 10.9375 
z
" id="SimHei-74"/>
      <path d="M 44.921875 45.703125 
L 28.515625 1.171875 
L 19.921875 1.171875 
L 3.515625 45.703125 
L 11.71875 45.703125 
L 23.828125 11.71875 
L 24.609375 11.71875 
L 36.71875 45.703125 
z
" id="SimHei-76"/>
     </defs>
     <g transform="translate(31.725 212.028)rotate(-90)scale(0.15 -0.15)">
      <use xlink:href="#SimHei-43"/>
      <use x="50" xlink:href="#SimHei-75"/>
      <use x="100" xlink:href="#SimHei-6d"/>
      <use x="150" xlink:href="#SimHei-75"/>
      <use x="200" xlink:href="#SimHei-6c"/>
      <use x="250" xlink:href="#SimHei-61"/>
      <use x="300" xlink:href="#SimHei-74"/>
      <use x="350" xlink:href="#SimHei-69"/>
      <use x="400" xlink:href="#SimHei-76"/>
      <use x="450" xlink:href="#SimHei-65"/>
     </g>
    </g>
    <g id="text_16">
     <!-- 1e6 -->
     <defs>
      <path d="M 3.515625 19.53125 
Q 4.296875 30.859375 6.046875 34.765625 
Q 7.8125 38.671875 11.328125 44.53125 
L 27.34375 69.53125 
L 36.328125 69.53125 
L 19.921875 43.75 
Q 30.46875 46.484375 36.71875 42.96875 
Q 42.96875 39.453125 45.109375 34.953125 
Q 47.265625 30.46875 47.453125 25.1875 
Q 47.65625 19.921875 45.890625 14.84375 
Q 44.140625 9.765625 39.640625 5.65625 
Q 35.15625 1.5625 27.140625 1.171875 
Q 19.140625 0.78125 13.46875 4.09375 
Q 7.8125 7.421875 5.65625 13.46875 
Q 3.515625 19.53125 4.296875 30.859375 
z
M 12.5 16.015625 
Q 19.53125 8.59375 25.390625 8.203125 
Q 31.25 7.8125 35.15625 12.109375 
Q 39.0625 16.40625 39.0625 24.609375 
Q 39.0625 32.8125 34.171875 35.9375 
Q 29.296875 39.0625 23.234375 38.28125 
Q 17.1875 37.5 14.453125 32.421875 
Q 11.71875 27.34375 12.109375 21.671875 
Q 12.5 16.015625 19.53125 8.59375 
z
" id="SimHei-36"/>
     </defs>
     <g transform="translate(57.6 38.472)scale(0.1 -0.1)">
      <use xlink:href="#SimHei-31"/>
      <use x="50" xlink:href="#SimHei-65"/>
      <use x="100" xlink:href="#SimHei-36"/>
     </g>
    </g>
   </g>
   <g id="line2d_13">
    <path clip-path="url(#p4e02d84197)" d="M 73.832727 53.568 
L 73.982065 54.05858 
L 74.358657 55.261467 
L 74.371643 55.25691 
L 74.391122 55.274975 
L 74.404108 55.357171 
L 75.124827 58.025812 
L 75.170277 58.092081 
L 75.300136 58.800609 
L 75.579334 59.9436 
L 75.715686 60.815879 
L 76.475362 64.487119 
L 76.605222 65.250735 
L 77.007785 67.260736 
L 77.014278 67.258987 
L 77.020771 67.291446 
L 77.176602 68.228302 
L 77.228546 68.660531 
L 77.384377 69.629616 
L 78.215476 73.733705 
L 78.338842 74.264318 
L 78.345335 74.262546 
L 79.591984 81.612663 
L 79.598477 81.609837 
L 79.624449 81.622214 
L 79.630941 81.692933 
L 79.812744 82.470426 
L 79.819237 82.466494 
L 79.95559 83.649839 
L 80.007533 83.824694 
L 80.319195 86.044337 
L 80.325688 86.043014 
L 80.338674 86.13196 
L 80.455548 86.650646 
L 80.462041 86.649948 
L 80.500998 86.765435 
L 80.650336 87.384522 
L 80.897069 88.667462 
L 80.903562 88.665035 
L 81.033421 89.09821 
L 81.150294 89.674785 
L 81.156787 89.671823 
L 81.176266 89.733332 
L 81.377548 91.532323 
L 81.40352 91.689037 
L 81.650252 93.680864 
L 82.338506 97.227296 
L 82.513816 98.448326 
L 82.520309 98.446066 
L 82.572253 98.544935 
L 82.663154 98.911068 
L 82.74107 99.4122 
L 82.942352 100.834663 
L 82.948845 100.831141 
L 82.961831 100.904115 
L 82.974816 100.915602 
L 85.929114 124.141476 
L 86.065466 125.714544 
L 86.247269 127.271397 
L 86.253762 127.268184 
L 86.286227 127.450716 
L 86.51348 129.466732 
L 86.532959 129.530041 
L 86.669311 130.969722 
L 86.675804 130.966603 
L 86.682297 131.011923 
L 86.857607 132.140035 
L 87.130312 134.619357 
L 87.247185 135.813556 
L 87.253678 135.81333 
L 87.474438 136.741648 
L 87.617284 138.38027 
L 87.623777 138.375342 
L 87.792594 140.087533 
L 87.799086 140.082589 
L 87.805579 140.110267 
L 88.02634 142.745824 
L 88.402932 145.41476 
L 88.532791 146.82971 
L 88.630186 147.431874 
L 88.779524 148.821986 
L 88.922369 149.268245 
L 89.065214 151.035786 
L 89.136636 151.197334 
L 90.63651 163.706466 
L 90.662482 163.731632 
L 90.792342 164.483021 
L 90.935187 165.261355 
L 91.11699 166.389578 
L 91.129976 166.381527 
L 91.142961 166.490353 
L 91.409173 168.90155 
L 91.415666 168.900968 
L 91.57799 169.897162 
L 91.623441 170.07669 
L 92.064962 174.483179 
L 92.889568 181.166775 
L 93.038906 182.552254 
L 93.045399 182.548523 
L 93.051892 182.599504 
L 93.240188 183.689238 
L 94.084273 189.009707 
L 94.103752 189.161679 
L 94.246597 190.264871 
L 95.188076 196.226826 
L 95.194569 196.2245 
L 95.201062 196.283988 
L 95.207555 196.29163 
L 95.558175 199.43925 
L 95.597133 199.549753 
L 95.759457 200.661195 
L 95.772443 200.657843 
L 95.850358 200.972711 
L 96.006189 201.884118 
L 96.032161 201.901486 
L 96.142541 202.972787 
L 96.168513 202.966055 
L 96.181499 202.967699 
L 96.187992 203.03025 
L 96.389274 203.769059 
L 96.408753 203.762247 
L 96.538612 205.27935 
L 96.564584 205.288979 
L 96.694443 206.319216 
L 96.941176 207.595839 
L 96.97364 207.658029 
L 97.142457 208.592751 
L 97.14895 208.590138 
L 97.155443 208.689909 
L 97.161936 208.690739 
L 97.428148 210.020524 
L 98.174838 214.113396 
L 98.233275 214.411266 
L 98.434557 215.885505 
L 98.44105 215.891235 
L 98.570909 216.529025 
L 98.603374 216.620537 
L 98.739726 218.017699 
L 98.746219 218.016477 
L 98.947501 218.793791 
L 98.986458 218.901329 
L 99.246177 220.272322 
L 99.25267 220.271257 
L 99.259163 220.348813 
L 99.47343 221.8076 
L 99.492909 221.866131 
L 99.661726 223.226832 
L 99.720163 223.502627 
L 99.973388 225.388652 
L 100.083769 225.727689 
L 100.187656 226.624606 
L 100.317515 227.854967 
L 100.343487 227.92023 
L 100.479839 228.481004 
L 100.564248 229.007697 
L 100.570741 229.003229 
L 100.81098 230.332356 
L 100.836952 230.348838 
L 100.973304 231.280835 
L 101.044727 231.63677 
L 101.187572 232.755696 
L 101.194065 232.75111 
L 101.421319 233.558521 
L 102.031657 237.647174 
L 102.343319 239.06226 
L 102.473178 239.792343 
L 102.486164 239.786953 
L 102.531615 239.866549 
L 102.680953 240.666152 
L 102.797827 241.313403 
L 102.927686 242.074587 
L 103.193897 242.743838 
L 103.239348 242.845235 
L 103.48608 243.606819 
L 103.641911 243.911442 
L 104.154855 246.228396 
L 104.180827 246.251271 
L 104.18732 246.328239 
L 104.284715 246.678821 
L 104.395095 247.302179 
L 104.414574 247.292881 
L 104.466518 247.411075 
L 104.596377 248.005302 
L 105.972884 252.208243 
L 106.128716 252.555914 
L 106.342983 252.902619 
L 106.349476 252.898909 
L 106.57673 253.401731 
L 106.706589 253.646682 
L 109.420647 258.74328 
L 109.459605 258.819918 
L 109.868661 260.157145 
L 109.875154 260.15397 
L 109.88814 260.195733 
L 109.927098 260.222593 
L 110.102408 260.691808 
L 110.115394 260.685613 
L 110.199802 260.802557 
L 110.459521 261.406876 
L 110.485492 261.402683 
L 110.504971 261.507579 
L 110.647816 261.737853 
L 110.686774 261.81935 
L 110.81014 262.22865 
L 111.024408 262.666782 
L 111.147774 262.89993 
L 111.16076 262.893768 
L 111.186732 262.89061 
L 111.219197 262.989009 
L 113.030733 266.350236 
L 113.063198 266.404426 
L 113.180071 266.503489 
L 113.186564 266.501765 
L 113.26448 266.54185 
L 113.277466 266.571732 
L 113.30993 266.580379 
L 113.316423 266.674713 
L 113.537184 266.968045 
L 113.654057 267.215136 
L 113.66055 267.213365 
L 113.738466 267.31638 
L 113.946241 267.636006 
L 113.952734 267.630932 
L 114.069607 267.755965 
L 114.212452 267.922156 
L 114.47217 268.280804 
L 114.576058 268.466429 
L 114.595537 268.46029 
L 115.478579 269.729091 
L 115.485072 269.724109 
L 115.608439 269.862092 
L 115.783749 270.131916 
L 115.861664 270.210517 
L 115.991523 270.387055 
L 116.127876 270.51521 
L 116.303185 270.676321 
L 116.413566 270.928911 
L 116.536932 271.15222 
L 116.777172 271.419692 
L 116.887552 271.613738 
L 116.900538 271.611579 
L 117.634243 272.415167 
L 117.757609 272.540409 
L 117.764102 272.538797 
L 117.893961 272.590927 
L 118.523778 273.462463 
L 118.647144 273.513121 
L 118.978285 273.705294 
L 119.108145 273.979654 
L 119.413314 274.499656 
L 119.562652 274.733906 
L 119.569145 274.730938 
L 119.692511 274.769326 
L 119.699004 274.78378 
L 119.854835 274.989596 
L 119.861328 274.984538 
L 119.939244 275.041983 
L 120.095075 275.301598 
L 120.147018 275.361935 
L 120.270385 275.467888 
L 120.867737 276.054709 
L 120.958639 276.116687 
L 121.127456 276.32479 
L 121.276794 276.398402 
L 121.478075 276.565682 
L 121.562484 276.611127 
L 121.698836 276.796289 
L 121.705329 276.792373 
L 121.828695 276.85965 
L 122.042963 277.015017 
L 122.107893 277.040077 
L 122.120879 277.088795 
L 122.237752 277.265987 
L 122.283203 277.367699 
L 122.776668 277.843541 
L 122.893541 277.917775 
L 123.19871 278.038884 
L 123.341555 278.164776 
L 123.348048 278.161059 
L 123.562316 278.373421 
L 124.257063 278.959753 
L 124.367443 279.032705 
L 124.64664 279.314116 
L 124.659626 279.305743 
L 124.757021 279.380937 
L 124.867401 279.489368 
L 124.880387 279.483353 
L 125.120627 279.556352 
L 125.243993 279.701013 
L 125.250486 279.699388 
L 125.945233 280.159194 
L 126.081585 280.317592 
L 126.198458 280.386454 
L 126.33481 280.479256 
L 126.445191 280.542142 
L 126.614008 280.702932 
L 126.620501 280.697662 
L 126.769839 280.713775 
L 126.932163 280.941041 
L 126.958135 281.007816 
L 127.016571 281.014424 
L 127.399656 281.110537 
L 127.49705 281.159556 
L 127.516529 281.148958 
L 127.574966 281.222203 
L 127.581459 281.241515 
L 128.08791 281.369197 
L 128.217769 281.373294 
L 128.276206 281.413077 
L 128.295685 281.451474 
L 128.711234 281.606704 
L 128.828107 281.654672 
L 128.8346 281.6502 
L 129.042375 281.753353 
L 129.243657 281.851902 
L 129.341051 281.960689 
L 129.542333 282.291643 
L 129.548826 282.288851 
L 129.672192 282.393564 
L 129.802052 282.482285 
L 129.82153 282.470706 
L 129.964376 282.532024 
L 130.1267 282.614976 
L 130.133193 282.610508 
L 130.308502 282.659135 
L 130.509784 282.688976 
L 130.607179 282.707231 
L 130.620165 282.753238 
L 130.801968 282.867889 
L 131.321404 283.142616 
L 131.483728 283.292558 
L 131.801884 283.279246 
L 131.970701 283.352841 
L 132.204447 283.465747 
L 132.295349 283.559453 
L 132.32132 283.552478 
L 132.483644 283.599164 
L 132.990095 283.897431 
L 133.139434 284.014974 
L 133.256307 284.06171 
L 133.431617 284.11759 
L 133.866645 284.248348 
L 133.983518 284.303881 
L 134.243237 284.437372 
L 134.275702 284.48964 
L 134.334138 284.495501 
L 134.496462 284.545137 
L 134.853575 284.648781 
L 134.99642 284.694185 
L 135.165237 284.739692 
L 135.288604 284.799282 
L 135.295097 284.794354 
L 135.437942 284.890479 
L 135.58728 284.960776 
L 136.119703 285.212418 
L 136.256055 285.260215 
L 136.489801 285.28401 
L 136.730041 285.398239 
L 136.879379 285.429207 
L 137.56114 285.753575 
L 137.716971 285.821265 
L 137.879295 285.841656 
L 137.963704 285.921116 
L 138.19745 286.027115 
L 138.314323 286.031574 
L 138.613 286.178867 
L 139.054521 286.327176 
L 139.573958 286.384978 
L 139.729789 286.437819 
L 139.866141 286.524448 
L 139.989507 286.591533 
L 139.996 286.586898 
L 140.073916 286.615965 
L 140.086902 286.66004 
L 140.249226 286.73389 
L 140.424536 286.82869 
L 140.560888 286.812402 
L 140.677761 286.864366 
L 140.846578 286.909484 
L 141.281607 287.054667 
L 141.404973 287.087023 
L 141.50886 287.130819 
L 141.625734 287.162809 
L 141.788058 287.158937 
L 142.002325 287.195783 
L 142.158156 287.261601 
L 142.38541 287.360635 
L 142.619157 287.397547 
L 142.762002 287.445105 
L 142.930819 287.607379 
L 143.067171 287.635004 
L 143.333382 287.712906 
L 143.495706 287.686675 
L 143.508692 287.71918 
L 143.632059 287.757248 
L 143.761918 287.819934 
L 143.995664 287.931093 
L 144.170974 287.986159 
L 144.443679 288.104028 
L 144.586524 288.137336 
L 144.846242 288.171868 
L 145.553975 288.276635 
L 145.709806 288.361497 
L 145.87213 288.40808 
L 145.989003 288.439295 
L 146.001989 288.429993 
L 146.151327 288.456788 
L 146.326637 288.464224 
L 146.553891 288.468413 
L 146.670764 288.516081 
L 146.677257 288.512614 
L 146.898018 288.50591 
L 147.053849 288.529041 
L 148.001821 288.765048 
L 148.144666 288.800317 
L 148.345948 288.812905 
L 148.469315 288.835291 
L 149.261456 288.997987 
L 149.378329 289.031371 
L 149.384822 289.040623 
L 149.728949 289.12318 
L 149.99516 289.179442 
L 150.183456 289.302469 
L 150.34578 289.328316 
L 150.358766 289.364313 
L 150.637964 289.335472 
L 150.754837 289.366193 
L 150.891189 289.395693 
L 150.897682 289.406168 
L 151.027541 289.404987 
L 151.163893 289.432404 
L 151.33271 289.409513 
L 151.50802 289.393644 
L 151.521006 289.42241 
L 151.618401 289.393076 
L 152.105373 289.414954 
L 155.280431 289.658716 
L 155.449248 289.66551 
L 155.572614 289.666862 
L 159.844982 290.074944 
L 160.254039 290.124217 
L 160.4748 290.102607 
L 160.792955 290.099978 
L 160.968265 290.119851 
L 161.578603 290.078754 
L 161.753913 290.083508 
L 161.92273 290.112757 
L 162.143491 290.14181 
L 162.3188 290.225032 
L 162.513589 290.234163 
L 162.857716 290.293214 
L 162.987575 290.361771 
L 163.221322 290.493594 
L 163.37066 290.738321 
L 163.383646 290.728652 
L 163.760238 290.951599 
L 164.013463 290.98479 
L 164.396548 291.214183 
L 164.954943 291.290539 
L 165.091295 291.398529 
L 165.23414 291.493906 
L 165.389971 291.560132 
L 165.51983 291.648924 
L 165.669168 291.766593 
L 165.675661 291.762307 
L 165.682154 291.829149 
L 165.727605 291.848183 
L 165.844478 291.927999 
L 165.850971 291.924287 
L 166.006802 291.97964 
L 166.104197 292.134464 
L 166.136662 292.123346 
L 166.182112 292.119243 
L 166.227563 292.194692 
L 166.39638 292.253508 
L 166.519746 292.372203 
L 166.532732 292.366333 
L 166.558704 292.412728 
L 166.610648 292.437462 
L 166.818422 292.604316 
L 166.824915 292.599392 
L 166.896338 292.647061 
L 166.837901 292.632034 
L 166.909324 292.670879 
L 167.246958 292.773673 
L 167.370324 292.80161 
L 167.662507 292.951809 
L 167.792367 292.990917 
L 167.915733 293.048827 
L 168.078057 293.270781 
L 168.091043 293.263848 
L 168.175451 293.324385 
L 168.298818 293.574408 
L 168.43517 293.577593 
L 168.506592 293.684562 
L 168.552043 293.669964 
L 168.681902 293.655643 
L 168.805269 293.704066 
L 169.00655 293.758339 
L 169.168874 293.81313 
L 169.220818 293.933462 
L 169.292241 293.918133 
L 169.441579 293.943861 
L 169.577931 294.081742 
L 169.590917 294.076482 
L 169.766227 294.125096 
L 169.986987 294.131811 
L 170.279171 294.256448 
L 170.428509 294.316997 
L 170.480453 294.322823 
L 170.506424 294.378037 
L 170.616805 294.438872 
L 170.629791 294.430381 
L 170.766143 294.522965 
L 170.896002 294.677392 
L 170.915481 294.668682 
L 171.084298 294.649453 
L 171.090791 294.661107 
L 171.279087 294.715569 
L 171.39596 294.734394 
L 171.499847 294.804866 
L 171.512833 294.800817 
L 171.668664 294.818831 
L 171.824495 294.843134 
L 171.980327 294.860963 
L 172.110186 294.911605 
L 174.337271 295.206767 
L 174.558032 295.248944 
L 174.687891 295.253056 
L 175.129413 295.308732 
L 175.265765 295.313143 
L 175.506004 295.361124 
L 175.648849 295.341676 
L 175.986483 295.384982 
L 176.077385 295.467642 
L 176.10985 295.450469 
L 176.733174 295.458702 
L 176.869526 295.453143 
L 178.700541 295.278371 
L 179.973162 295.139484 
L 180.213401 295.099474 
L 180.602979 295.052346 
L 180.914641 295.035324 
L 181.161373 295.027348 
L 181.537965 295.007275 
L 181.654838 294.995177 
L 182.20674 294.958471 
L 182.628783 294.848711 
L 182.739163 294.826015 
L 184.654586 294.468693 
L 184.959756 294.460504 
L 185.635024 294.285213 
L 185.810334 294.286841 
L 186.147968 294.276947 
L 186.297306 294.308608 
L 186.732334 294.249943 
L 186.875179 294.224143 
L 187.310208 294.109836 
L 187.433574 294.103994 
L 187.660827 294.059665 
L 187.777701 294.087552 
L 187.784194 294.084681 
L 188.050405 294.017243 
L 188.887997 293.85806 
L 188.89449 293.876458 
L 188.991884 293.834935 
L 192.127985 293.27749 
L 192.361731 293.25422 
L 192.991548 293.17264 
L 193.316197 293.072268 
L 193.439563 293.055959 
L 193.705774 293.006648 
L 194.432986 292.820458 
L 194.588817 292.818734 
L 195.088775 292.753089 
L 195.86793 292.663351 
L 196.257508 292.545508 
L 198.14696 292.204712 
L 198.523551 292.085688 
L 198.659903 292.05997 
L 200.354566 291.659066 
L 200.497411 291.648125 
L 201.601215 291.327679 
L 201.860933 291.259552 
L 202.244018 291.190931 
L 202.4453 291.151359 
L 202.802413 291.040715 
L 202.912793 291.019458 
L 203.211469 290.951008 
L 203.354314 290.932312 
L 204.269822 290.656214 
L 204.386695 290.624337 
L 204.841202 290.575448 
L 205.224287 290.509684 
L 205.529456 290.435477 
L 205.906048 290.317704 
L 206.315105 290.196613 
L 206.542358 290.169513 
L 206.905964 290.054123 
L 207.035823 290.025647 
L 207.360471 289.917784 
L 207.84095 289.744312 
L 207.951331 289.720186 
L 208.224035 289.657137 
L 209.06812 289.419601 
L 210.347233 289.18865 
L 211.145868 288.971625 
L 211.262741 288.952987 
L 211.451037 288.903243 
L 211.710755 288.826934 
L 212.191234 288.657179 
L 212.736643 288.503679 
L 212.989868 288.453559 
L 213.437883 288.335968 
L 214.080686 288.153487 
L 214.697517 287.95374 
L 214.996193 287.855939 
L 215.768856 287.625417 
L 216.022081 287.584498 
L 216.483082 287.451772 
L 216.671377 287.388408 
L 217.02849 287.283301 
L 217.307688 287.207309 
L 224.170747 284.982499 
L 224.696677 284.809624 
L 224.969382 284.748752 
L 225.391424 284.566392 
L 225.716072 284.479988 
L 225.832945 284.442886 
L 226.50172 284.204172 
L 226.800397 284.106615 
L 227.151017 283.99155 
L 241.578376 278.918257 
L 242.247151 278.667884 
L 244.740448 277.79814 
L 245.039124 277.666506 
L 245.68842 277.440234 
L 245.857237 277.372659 
L 246.526012 277.110918 
L 247.324647 276.839614 
L 247.473985 276.806123 
L 248.07783 276.575213 
L 248.344041 276.489781 
L 248.681675 276.38535 
L 249.246563 276.171117 
L 249.493296 276.068721 
L 249.889366 275.930694 
L 250.123113 275.873467 
L 253.395565 274.520139 
L 253.752678 274.39049 
L 254.87596 273.955611 
L 254.999326 273.899347 
L 255.771989 273.594009 
L 255.914834 273.549859 
L 257.116032 273.095346 
L 258.18737 272.705482 
L 258.544483 272.563303 
L 259.375582 272.29774 
L 259.953456 272.049868 
L 260.29109 271.916682 
L 260.680667 271.764747 
L 260.907921 271.705811 
L 261.972767 271.286028 
L 263.563542 270.70323 
L 266.310065 269.573932 
L 266.446417 269.511052 
L 267.258037 269.147391 
L 267.829418 268.901956 
L 270.894095 267.654145 
L 271.10187 267.573713 
L 271.67325 267.315007 
L 272.984829 266.794508 
L 273.841899 266.399831 
L 274.17304 266.274313 
L 274.776886 266.018902 
L 275.023618 265.914742 
L 277.26369 264.986841 
L 277.406535 264.916681 
L 277.698718 264.800372 
L 278.172704 264.580203 
L 278.406451 264.482637 
L 282.919059 262.663038 
L 283.944947 262.201425 
L 291.632613 259.202447 
L 292.106599 258.985819 
L 292.411768 258.890374 
L 292.892247 258.69171 
L 293.444149 258.506491 
L 294.496009 258.072413 
L 294.612882 258.041184 
L 295.216727 257.799209 
L 296.826982 257.099443 
L 297.365897 256.899701 
L 297.638602 256.779497 
L 298.31387 256.531101 
L 300.424082 255.668581 
L 300.527969 255.635967 
L 301.833055 255.052321 
L 302.099266 254.936325 
L 303.164112 254.470222 
L 303.365393 254.382387 
L 304.138056 254.00801 
L 304.800338 253.727419 
L 305.495085 253.43371 
L 306.741733 252.896907 
L 306.930029 252.81974 
L 307.852029 252.408238 
L 308.046818 252.321502 
L 308.77403 251.987287 
L 309.111664 251.817728 
L 309.507734 251.641847 
L 309.786932 251.503289 
L 310.799834 251.057843 
L 311.527045 250.70136 
L 312.72175 250.178374 
L 313.24768 249.91733 
L 313.539863 249.783492 
L 314.091765 249.530136 
L 315.130639 249.067934 
L 315.403343 248.935548 
L 317.208386 248.083563 
L 317.43564 247.99155 
L 317.96157 247.731222 
L 322.220952 245.736804 
L 322.61053 245.56541 
L 322.967643 245.38609 
L 323.727319 245.001339 
L 334.401747 240.030021 
L 335.408156 239.530424 
L 335.843185 239.344252 
L 336.291199 239.132037 
L 336.992439 238.796874 
L 337.680692 238.456638 
L 339.64806 237.473816 
L 340.206454 237.198262 
L 342.537427 236.054242 
L 343.271132 235.701804 
L 343.413977 235.634924 
L 344.004837 235.332188 
L 345.595612 234.579478 
L 347.186387 233.785473 
L 347.485064 233.646422 
L 349.829023 232.487535 
L 350.075755 232.369419 
L 350.647136 232.089464 
L 353.744278 230.528312 
L 354.218264 230.289367 
L 354.698743 230.070511 
L 355.081828 229.872661 
L 355.536335 229.657295 
L 358.373759 228.266239 
L 358.380252 228.362484 
L 358.48414 228.30983 
L 360.191788 227.471352 
L 361.782564 226.661833 
L 363.301917 225.935288 
L 364.18496 225.47202 
L 364.386241 225.379036 
L 364.834256 225.160798 
L 365.847158 224.698643 
L 369.944216 222.73331 
L 369.950709 222.812118 
L 370.054596 222.762813 
L 370.625977 222.505766 
L 371.054512 222.29923 
L 371.846654 221.902351 
L 372.268696 221.702548 
L 372.866048 221.386352 
L 373.106288 221.28275 
L 374.82043 220.444069 
L 375.476219 220.16796 
L 375.956698 219.941037 
L 376.320304 219.766493 
L 378.099375 218.870456 
L 378.41753 218.706602 
L 379.261615 218.285877 
L 379.75508 218.054362 
L 380.436841 217.715977 
L 381.099123 217.392123 
L 381.956194 216.977839 
L 382.508096 216.687366 
L 383.157392 216.333701 
L 383.65735 216.095838 
L 391.169706 212.355404 
L 391.806016 212.056075 
L 392.942284 211.481466 
L 393.740918 211.119431 
L 393.747411 211.307352 
L 393.851299 211.252179 
L 393.857791 211.250069 
L 393.864284 211.602664 
L 393.968172 211.55106 
L 394.500595 211.299213 
L 396.052412 210.785344 
L 396.123835 210.782671 
L 396.1563 210.766559 
L 396.513413 210.666528 
L 396.734173 210.568445 
L 397.117258 210.429157 
L 397.753568 210.114124 
L 398.311963 209.895444 
L 398.487273 209.811217 
L 398.487273 209.811217 
" style="fill:none;stroke:#1f77b4;stroke-linecap:square;stroke-width:1.5;"/>
   </g>
   <g id="patch_3">
    <path d="M 57.6 307.584 
L 57.6 41.472 
" style="fill:none;stroke:#000000;stroke-linecap:square;stroke-linejoin:miter;stroke-width:0.8;"/>
   </g>
   <g id="patch_4">
    <path d="M 414.72 307.584 
L 414.72 41.472 
" style="fill:none;stroke:#000000;stroke-linecap:square;stroke-linejoin:miter;stroke-width:0.8;"/>
   </g>
   <g id="patch_5">
    <path d="M 57.6 307.584 
L 414.72 307.584 
" style="fill:none;stroke:#000000;stroke-linecap:square;stroke-linejoin:miter;stroke-width:0.8;"/>
   </g>
   <g id="patch_6">
    <path d="M 57.6 41.472 
L 414.72 41.472 
" style="fill:none;stroke:#000000;stroke-linecap:square;stroke-linejoin:miter;stroke-width:0.8;"/>
   </g>
  </g>
 </g>
 <defs>
  <clipPath id="p4e02d84197">
   <rect height="266.112" width="357.12" x="57.6" y="41.472"/>
  </clipPath>
 </defs>
</svg>
